<svg width="30" height="30" viewBox="0 0 30 30" fill="none" xmlns="http://www.w3.org/2000/svg">
<circle cx="15" cy="15" r="15" fill="#0F0F0F"/>
<path d="M8.28027 18.1584C7.80198 18.4345 7.63811 19.0461 7.91425 19.5244C8.19039 20.0027 8.80198 20.1666 9.28027 19.8904L8.28027 18.1584ZM22.4197 11.9662C22.5627 11.4327 22.2461 10.8844 21.7126 10.7414L13.0193 8.41204C12.4858 8.2691 11.9375 8.58568 11.7946 9.11915C11.6516 9.65262 11.9682 10.201 12.5017 10.3439L20.2291 12.4144L18.1585 20.1419C18.0156 20.6753 18.3322 21.2237 18.8656 21.3666C19.3991 21.5095 19.9474 21.193 20.0904 20.6595L22.4197 11.9662ZM9.28027 19.8904L21.9538 12.5734L20.9538 10.8413L8.28027 18.1584L9.28027 19.8904Z" fill="white"/>
</svg>
