<svg width="300" height="300" viewBox="0 0 300 300" fill="none" xmlns="http://www.w3.org/2000/svg">
<path d="M246.915 74.0542C247.526 73.9248 248.084 73.6168 248.52 73.1692C248.469 73.4177 248.404 73.6631 248.325 73.9042C248.205 74.3092 248.655 74.4292 248.805 74.1742C249.335 73.3867 249.545 72.4261 249.39 71.4892C249.382 71.4007 249.349 71.3163 249.295 71.2459C249.24 71.1756 249.167 71.1223 249.083 71.0923C249 71.0623 248.909 71.0569 248.823 71.0767C248.736 71.0966 248.657 71.1408 248.595 71.2042C247.965 71.9692 247.845 73.0492 246.78 73.3792C246.695 73.4022 246.623 73.4563 246.577 73.5307C246.531 73.605 246.515 73.694 246.532 73.7797C246.549 73.8654 246.598 73.9414 246.669 73.9924C246.74 74.0433 246.828 74.0654 246.915 74.0542ZM243.96 68.9992C244.043 69.053 244.14 69.0833 244.24 69.0869C244.339 69.0905 244.438 69.0674 244.525 69.0198C244.612 68.9723 244.685 68.9021 244.736 68.8167C244.787 68.7313 244.814 68.6337 244.815 68.5342C244.815 68.4142 244.815 68.2792 244.095 67.1992C243.945 66.9742 243.765 66.5542 243.375 66.7642C242.985 66.9742 243.255 67.3642 243.465 67.8892C243.885 68.9992 243.885 68.9992 243.96 68.9992ZM243.72 66.2542C244.455 66.2542 244.965 66.2542 245.055 66.8692C245.067 66.9607 245.114 67.0437 245.188 67.1C245.261 67.1562 245.353 67.1811 245.445 67.1692C245.536 67.1573 245.619 67.1095 245.676 67.0363C245.732 66.9632 245.757 66.8707 245.745 66.7792C245.626 66.2932 245.34 65.8645 244.937 65.5683C244.534 65.2721 244.039 65.1273 243.54 65.1592C243.421 65.2085 243.323 65.2965 243.26 65.4088C243.198 65.5211 243.175 65.6512 243.196 65.778C243.217 65.9048 243.28 66.0208 243.375 66.1072C243.47 66.1937 243.592 66.2454 243.72 66.2542ZM60.2548 111.974C56.0473 114.009 51.4171 115.018 46.7444 114.916C42.0717 114.814 37.4897 113.606 33.3748 111.389C33.2992 111.343 33.2085 111.33 33.1227 111.351C33.0369 111.372 32.963 111.426 32.9173 111.502C32.8715 111.577 32.8577 111.668 32.8788 111.754C32.8999 111.84 32.9542 111.913 33.0298 111.959C41.2498 117.314 53.3248 117.614 60.4798 112.364C60.5315 112.334 60.5692 112.285 60.5847 112.228C60.6002 112.17 60.5921 112.108 60.5623 112.057C60.5324 112.005 60.4833 111.967 60.4256 111.952C60.3679 111.936 60.3065 111.944 60.2548 111.974ZM59.1448 67.4992C59.9998 67.8442 61.4098 67.4992 61.0348 66.7042C60.7844 66.0976 60.6081 65.463 60.5098 64.8142C60.5098 64.7227 60.4734 64.635 60.4087 64.5703C60.344 64.5056 60.2563 64.4692 60.1648 64.4692C60.0733 64.4692 59.9855 64.5056 59.9208 64.5703C59.8561 64.635 59.8198 64.7227 59.8198 64.8142C59.8108 65.4489 59.8711 66.0826 59.9998 66.7042C59.7951 66.8206 59.5584 66.8679 59.3248 66.8392C59.2814 66.8274 59.2362 66.8242 59.1916 66.8299C59.1471 66.8355 59.1041 66.8499 59.0651 66.8722C59.0261 66.8945 58.9918 66.9243 58.9643 66.9598C58.9368 66.9953 58.9166 67.0359 58.9048 67.0792C58.893 67.1225 58.8898 67.1678 58.8955 67.2123C58.9011 67.2569 58.9155 67.2999 58.9378 67.3389C58.9601 67.3779 58.9898 67.4121 59.0253 67.4396C59.0609 67.4671 59.1014 67.4874 59.1448 67.4992ZM57.4198 64.2142C57.6521 63.6746 57.8426 63.118 57.9898 62.5492C58.0032 62.497 58.006 62.4426 57.9981 62.3893C57.9902 62.336 57.9718 62.2847 57.9438 62.2386C57.9159 62.1925 57.879 62.1525 57.8354 62.1208C57.7918 62.0891 57.7423 62.0665 57.6898 62.0542C57.2398 61.9192 57.1648 62.3992 56.9398 62.9842C56.8106 63.2752 56.7052 63.5762 56.6248 63.8842C56.6243 63.9765 56.6513 64.0669 56.7024 64.1438C56.7534 64.2207 56.8262 64.2807 56.9115 64.3161C56.9968 64.3515 57.0906 64.3607 57.1811 64.3425C57.2717 64.3244 57.3547 64.2797 57.4198 64.2142ZM62.4148 65.6242C62.5002 65.6617 62.5951 65.6718 62.6865 65.653C62.7779 65.6341 62.8611 65.5874 62.9248 65.5192C63.1548 64.9787 63.3453 64.4223 63.4948 63.8542C63.5106 63.803 63.5156 63.7491 63.5097 63.6958C63.5037 63.6425 63.4868 63.5911 63.4601 63.5446C63.4333 63.4982 63.3973 63.4577 63.3542 63.4258C63.3112 63.3939 63.262 63.3713 63.2098 63.3592C62.7448 63.2242 62.6548 63.7642 62.4598 64.2742C62.2648 64.7842 61.8898 65.4142 62.4148 65.6242ZM55.2148 68.6992C55.7532 68.9688 56.37 69.0379 56.9548 68.8942C57.3298 68.7292 57.0748 68.1592 56.7148 68.2792C56.3185 68.2521 55.9384 68.1115 55.6198 67.8742C55.4168 67.7411 55.2421 67.5692 55.1057 67.3684C54.9693 67.1676 54.8738 66.9419 54.8248 66.7042C54.7198 66.0742 53.7298 66.3142 53.8798 66.9442C53.9526 67.3196 54.1109 67.6732 54.3424 67.9775C54.5739 68.2819 54.8724 68.5288 55.2148 68.6992ZM161.85 232.904C161.85 232.506 161.692 232.125 161.41 231.844C161.129 231.562 160.748 231.404 160.35 231.404C159.952 231.404 159.57 231.562 159.289 231.844C159.008 232.125 158.85 232.506 158.85 232.904C158.85 233.302 159.008 233.684 159.289 233.965C159.57 234.246 159.952 234.404 160.35 234.404C160.748 234.404 161.129 234.246 161.41 233.965C161.692 233.684 161.85 233.302 161.85 232.904ZM161.82 247.679C162.057 247.701 162.296 247.674 162.522 247.599C162.747 247.523 162.955 247.401 163.131 247.241C163.307 247.081 163.448 246.886 163.544 246.668C163.64 246.45 163.69 246.215 163.69 245.977C163.69 245.739 163.64 245.503 163.544 245.285C163.448 245.068 163.307 244.872 163.131 244.712C162.955 244.552 162.747 244.43 162.522 244.355C162.296 244.279 162.057 244.252 161.82 244.274C161.583 244.252 161.344 244.279 161.118 244.355C160.892 244.43 160.685 244.552 160.509 244.712C160.333 244.872 160.192 245.068 160.096 245.285C159.999 245.503 159.95 245.739 159.95 245.977C159.95 246.215 159.999 246.45 160.096 246.668C160.192 246.886 160.333 247.081 160.509 247.241C160.685 247.401 160.892 247.523 161.118 247.599C161.344 247.674 161.583 247.701 161.82 247.679ZM162.255 259.829C161.846 259.868 161.467 260.058 161.191 260.362C160.915 260.666 160.762 261.061 160.762 261.472C160.762 261.882 160.915 262.278 161.191 262.581C161.467 262.885 161.846 263.075 162.255 263.114C162.663 263.075 163.043 262.885 163.319 262.581C163.595 262.278 163.748 261.882 163.748 261.472C163.748 261.061 163.595 260.666 163.319 260.362C163.043 260.058 162.663 259.868 162.255 259.829ZM153.15 194.684C153.889 198.6 154.39 202.557 154.65 206.534C154.65 206.673 154.705 206.807 154.804 206.905C154.902 207.004 155.035 207.059 155.175 207.059C155.314 207.059 155.448 207.004 155.546 206.905C155.644 206.807 155.7 206.673 155.7 206.534C155.406 202.491 154.789 198.479 153.855 194.534C153.816 194.462 153.756 194.405 153.682 194.371C153.608 194.336 153.525 194.327 153.446 194.344C153.366 194.361 153.294 194.403 153.241 194.464C153.187 194.526 153.155 194.603 153.15 194.684ZM156 238.604C156 238.501 155.959 238.402 155.886 238.328C155.812 238.255 155.713 238.214 155.61 238.214C155.506 238.214 155.407 238.255 155.334 238.328C155.261 238.402 155.22 238.501 155.22 238.604C155.07 248.879 154.89 273.434 154.98 276.104C155 276.223 155.062 276.33 155.154 276.407C155.246 276.485 155.362 276.527 155.482 276.527C155.602 276.527 155.719 276.485 155.811 276.407C155.903 276.33 155.964 276.223 155.985 276.104C156.195 271.259 156 241.004 156 238.604ZM196.26 135.434C196.276 135.476 196.305 135.512 196.342 135.536C196.38 135.561 196.425 135.572 196.47 135.569C200.43 133.524 203.995 130.792 207 127.499C207.042 127.455 207.065 127.396 207.065 127.334C207.065 127.273 207.042 127.214 207 127.169C203.565 124.739 193.86 120.704 193.845 121.844C193.769 126.487 194.589 131.102 196.26 135.434ZM85.8298 157.199C87.0451 157.249 88.2456 156.918 89.2625 156.25C90.2795 155.583 91.0619 154.614 91.4998 153.479C91.9048 152.204 91.7548 151.979 90.5248 144.554C91.4216 145.274 92.3636 145.935 93.3448 146.534C93.6535 146.653 93.9953 146.653 94.3041 146.535C94.6129 146.416 94.8667 146.187 95.0161 145.892C95.1655 145.596 95.2001 145.256 95.113 144.937C95.0259 144.618 94.8234 144.343 94.5448 144.164C92.0355 142.859 90.1082 140.659 89.1448 137.999C89.0098 137.534 87.2548 137.384 86.5948 138.509C86.5948 138.644 88.8898 151.394 88.9198 151.529C89.0175 151.913 89.0175 152.315 88.9198 152.699C88.6969 153.181 88.3559 153.599 87.9284 153.913C87.501 154.228 87.001 154.429 86.4748 154.499C86.0553 154.582 85.6235 154.581 85.2045 154.495C84.7856 154.41 84.3878 154.242 84.0343 154.001C83.6809 153.76 83.3788 153.452 83.1457 153.093C82.9126 152.735 82.7532 152.334 82.6766 151.913C82.6 151.492 82.6079 151.061 82.6997 150.643C82.7915 150.225 82.9654 149.83 83.2114 149.48C83.4574 149.131 83.7704 148.833 84.1324 148.605C84.4944 148.378 84.898 148.224 85.3198 148.154C85.6718 148.093 85.985 147.894 86.1904 147.601C86.3957 147.308 86.4764 146.946 86.4148 146.594C86.3531 146.242 86.1541 145.929 85.8615 145.724C85.569 145.518 85.2068 145.438 84.8548 145.499C83.8141 145.673 82.8376 146.118 82.0239 146.79C81.2101 147.461 80.5878 148.335 80.2198 149.324C79.8819 150.218 79.7695 151.182 79.8922 152.129C80.015 153.077 80.3693 153.98 80.9238 154.758C81.4783 155.537 82.2159 156.167 83.0716 156.592C83.9272 157.018 84.8745 157.226 85.8298 157.199Z" fill="#01004F"/>
<path d="M102.45 146.804C102.292 143.774 101.231 140.859 99.4023 138.437C97.5737 136.015 95.0616 134.196 92.1898 133.214C79.2448 128.834 67.3348 143.999 74.9998 155.504C76.8081 158.198 79.4409 160.233 82.5034 161.303C85.5659 162.374 88.893 162.423 91.9856 161.443C95.0782 160.462 97.7697 158.506 99.6564 155.867C101.543 153.228 102.523 150.048 102.45 146.804ZM78.4498 137.204C87.6448 128.744 101.145 135.704 101.505 146.819C101.471 149.651 100.654 152.417 99.1452 154.813C97.6362 157.209 95.4937 159.141 92.9548 160.394C84.5848 164.039 74.4748 157.754 73.7698 148.904C73.5847 146.729 73.907 144.539 74.7113 142.509C75.5155 140.479 76.7799 138.663 78.4048 137.204H78.4498ZM186 135.149C187.303 137.144 189.066 138.796 191.141 139.967C193.216 141.137 195.541 141.792 197.922 141.876C200.303 141.959 202.669 141.47 204.821 140.448C206.973 139.426 208.848 137.902 210.288 136.004C211.728 134.106 212.69 131.889 213.094 129.542C213.499 127.194 213.333 124.783 212.61 122.513C211.888 120.243 210.631 118.18 208.944 116.497C207.258 114.814 205.192 113.562 202.92 112.844C189.45 108.674 178.62 124.364 186 135.149ZM189.45 116.864C198.825 108.224 212.145 115.709 212.49 126.479C212.46 129.304 211.651 132.066 210.154 134.461C208.656 136.856 206.526 138.791 204 140.054C195.645 143.699 185.52 137.429 184.8 128.564C184.619 126.383 184.949 124.19 185.764 122.159C186.579 120.128 187.856 118.315 189.495 116.864H189.45ZM93.4948 64.1394C82.4098 40.7394 53.9998 30.7644 31.0798 46.3644C1.37984 66.6594 8.39984 109.499 41.7898 121.019C74.3998 132.599 109.995 98.9994 93.4948 64.1394ZM72.5998 117.989C69.8778 119.322 67.0079 120.329 64.0498 120.989C64.2448 119.129 64.4848 114.329 64.5748 112.079C65.9848 114.329 68.5348 116.579 71.6998 116.129C74.4598 115.694 76.9048 113.129 79.1998 108.629C81.4468 103.712 82.7105 98.402 82.9198 92.9994C83.1643 92.374 83.3208 91.7177 83.3848 91.0494C84.1471 89.2931 85.0344 87.5937 86.0398 85.9644C86.5798 85.4938 87.0496 84.9482 87.4348 84.3444C87.854 83.1816 87.9474 81.9264 87.7048 80.7144C87.6578 79.4989 87.2094 78.3331 86.4298 77.3994C87.0448 76.1544 88.7548 70.4694 89.0398 69.3594C89.0643 69.2404 89.0443 69.1166 88.9834 69.0115C88.9226 68.9064 88.8252 68.8274 88.7098 68.7894C85.7027 68.3309 82.6607 68.1401 79.6198 68.2194C79.5148 68.0244 74.1148 83.4444 73.6198 84.7194C73.597 84.7892 73.5886 84.8631 73.5953 84.9363C73.6019 85.0095 73.6235 85.0806 73.6586 85.1452C73.6937 85.2098 73.7416 85.2666 73.7995 85.312C73.8573 85.3574 73.9238 85.3905 73.9948 85.4094C75.4856 85.6406 76.9878 85.7909 78.4948 85.8594C78.4948 86.5044 78.2098 88.2894 78.1048 88.8594C77.6771 89.4024 77.3287 90.0034 77.0698 90.6444C75.2075 92.2642 73.8966 94.4245 73.3198 96.8244C70.6648 85.1694 68.8198 80.1594 58.3198 74.3244C57.7948 74.0394 57.1648 73.8294 56.5948 73.4544C63.8548 75.1944 64.6648 76.0194 64.9348 75.6594C73.1548 64.0794 69.3298 50.8344 60.8998 45.5094C53.0098 39.8094 45.2248 45.1944 42.3898 54.2094C40.2898 61.3044 43.8898 67.5144 45.7498 70.0944C44.0398 70.2594 43.4548 70.4544 42.0898 70.6044C30.5398 71.8494 21.1798 85.6944 16.8898 96.5094C4.09484 67.1544 31.9648 33.7344 64.3648 41.4744C101.4 51.6294 108.135 100.799 72.5998 117.989ZM26.7148 110.489C27.8548 108.719 30.7048 103.799 31.3648 102.644C39.7048 109.064 55.3648 109.904 63.5848 104.429C63.5848 104.684 63.2098 119.144 63.2098 121.199C56.7129 122.388 50.0278 122.039 43.6902 120.179C37.3527 118.319 31.5389 115.001 26.7148 110.489ZM73.7698 100.169C73.7428 99.7015 73.6877 99.2357 73.6048 98.7744C73.7398 98.3544 73.8298 97.9794 73.9648 97.4844C74.9398 99.1044 78.1648 101.984 79.4998 102.149C79.567 102.155 79.634 102.137 79.6901 102.1C79.7461 102.062 79.7879 102.007 79.8087 101.943C79.8295 101.879 79.8281 101.809 79.8047 101.746C79.7813 101.683 79.7373 101.63 79.6798 101.594C77.4591 100.214 75.6751 98.2324 74.5348 95.8794C74.8803 94.9383 75.388 94.0651 76.0348 93.2994C77.2106 95.1449 78.8641 96.6377 80.8198 97.6194C80.8543 97.6282 80.8902 97.6302 80.9254 97.6252C80.9607 97.6202 80.9946 97.6083 81.0252 97.5902C81.0559 97.5721 81.0826 97.5481 81.104 97.5197C81.1254 97.4912 81.141 97.4588 81.1498 97.4244C81.1587 97.3899 81.1607 97.354 81.1557 97.3188C81.1507 97.2835 81.1388 97.2496 81.1207 97.219C81.1026 97.1883 81.0786 97.1616 81.0502 97.1402C81.0217 97.1188 80.9893 97.1032 80.9548 97.0944C79.2005 95.8885 77.7562 94.2849 76.7398 92.4144C76.9348 92.1744 77.1448 91.9344 77.3548 91.7094C78.5596 92.8951 80.1655 93.5856 81.8548 93.6444C81.5895 98.1402 80.6646 102.573 79.1098 106.799C77.8806 109.771 75.9569 112.405 73.4998 114.479C75.567 110.467 76.0386 105.82 74.8198 101.474C74.7898 101.372 74.7262 101.282 74.6393 101.219C74.5523 101.157 74.4469 101.125 74.3398 101.129C73.0648 101.129 74.8498 106.349 65.8648 112.124C65.4007 111.46 64.9846 110.763 64.6198 110.039C64.7098 104.939 64.4998 99.8544 64.2898 94.9344C64.2898 94.8429 64.2535 94.7551 64.1888 94.6904C64.1241 94.6257 64.0363 94.5894 63.9448 94.5894C63.8533 94.5894 63.7656 94.6257 63.7009 94.6904C63.6362 94.7551 63.5998 94.8429 63.5998 94.9344C63.6898 97.5444 63.5998 100.124 63.5998 103.214C58.5598 106.379 52.7848 107.474 45.4048 106.649C40.4956 106.391 35.7658 104.719 31.7848 101.834C32.3098 100.874 34.4998 96.6744 35.1148 95.5494C35.1445 95.4982 35.1598 95.4399 35.1592 95.3807C35.1586 95.3216 35.1421 95.2636 35.1115 95.213C35.0808 95.1624 35.0371 95.121 34.9849 95.0931C34.9327 95.0652 34.874 95.0518 34.8148 95.0544C34.4548 95.0544 34.8148 94.9644 31.8148 100.109C27.0831 98.2558 23.2619 94.6284 21.1648 89.9994C23.5927 85.3646 26.7764 81.167 30.5848 77.5794C32.5411 80.2954 35.0234 82.5905 37.8842 84.3283C40.745 86.0661 43.9259 87.211 47.238 87.6952C50.55 88.1793 53.9256 87.9927 57.1641 87.1466C60.4026 86.3004 63.438 84.8118 66.0898 82.7694C66.1407 82.7151 66.1707 82.6447 66.1746 82.5704C66.1785 82.4962 66.156 82.4229 66.1112 82.3637C66.0663 82.3044 66.0018 82.2629 65.9293 82.2466C65.8568 82.2303 65.7808 82.2401 65.7148 82.2744C63.538 83.7702 61.1724 84.9707 58.6798 85.8444C53.763 87.4018 48.4805 87.3704 43.5826 85.7548C38.6846 84.1392 34.4201 81.0215 31.3948 76.8444C32.8314 75.6786 34.3906 74.6727 36.0448 73.8444C41.7298 86.6394 55.7548 87.5544 62.5348 78.3444C66.0448 81.0744 67.1248 81.4194 69.9298 88.1994C63.4948 93.8094 57.6298 96.5994 52.0198 96.5394C47.3581 96.5719 42.7499 95.5451 38.543 93.5365C34.3361 91.5279 30.6404 88.5899 27.7348 84.9444C27.4948 84.6144 26.9548 84.9444 27.1948 85.3044C31.6948 92.1594 40.2298 96.6594 50.6698 97.6494C57.7348 98.3394 65.2348 94.3044 70.2748 89.1744C71.0548 91.7544 71.9998 95.5494 72.1048 95.9994C71.6398 97.4994 66.6148 102.164 65.8198 102.344C65.3548 102.449 65.5948 103.169 66.0148 102.989C68.4324 101.59 70.6101 99.8128 72.4648 97.7244C72.6298 98.5044 72.9298 99.8994 72.9748 100.244C73.0198 100.589 73.7998 100.649 73.7698 100.169ZM82.7698 77.5494C82.5839 77.4971 82.3881 77.491 82.1993 77.5316C82.0105 77.5723 81.8345 77.6585 81.6866 77.7827C81.5388 77.9069 81.4235 78.0654 81.3508 78.2443C81.2782 78.4233 81.2504 78.6172 81.2698 78.8094C79.6648 79.1544 79.7698 80.3094 80.6998 81.0594C81.6205 81.6404 82.5718 82.1712 83.5498 82.6494C83.2048 83.4744 82.9348 84.1494 82.5748 84.9444C81.0748 84.9444 76.4098 84.6594 74.7898 84.5244C75.3898 82.6494 78.5548 73.9344 80.2948 69.2244C81.7948 69.2994 86.4898 69.4194 88.0048 69.6594C87.6448 71.1594 86.1148 75.5244 85.6798 76.8894C85.4482 76.7366 85.1881 76.6323 84.9151 76.5827C84.6421 76.5332 84.3619 76.5394 84.0914 76.6011C83.8209 76.6628 83.5656 76.7786 83.3411 76.9416C83.1165 77.1045 82.9273 77.3113 82.7848 77.5494H82.7698ZM83.4298 85.6644C83.6848 84.8544 83.9998 84.0744 84.4198 83.0544C84.4867 83.0661 84.5555 83.056 84.6161 83.0254C84.6766 82.9949 84.7258 82.9457 84.7561 82.885C84.7864 82.8243 84.7964 82.7555 84.7844 82.6887C84.7725 82.6219 84.7393 82.5608 84.6898 82.5144C84.3148 82.1694 80.8348 80.3244 80.9698 79.9644C81.1048 79.6044 81.9748 79.8594 82.4698 80.1444C83.4461 80.5464 84.4484 80.8822 85.4698 81.1494C85.5354 81.1565 85.6016 81.1418 85.658 81.1075C85.7144 81.0733 85.7579 81.0214 85.7818 80.9599C85.8057 80.8983 85.8087 80.8307 85.7903 80.7673C85.7718 80.704 85.733 80.6484 85.6798 80.6094C84.5084 80.1842 83.366 79.6832 82.2598 79.1094C82.0348 78.8994 81.9298 78.3294 82.2598 78.3444C83.3619 78.607 84.3885 79.1203 85.2598 79.8444C85.2943 79.8769 85.3348 79.9023 85.3791 79.9191C85.4234 79.9359 85.4706 79.9439 85.5179 79.9425C85.5653 79.9411 85.6119 79.9304 85.6551 79.911C85.6984 79.8916 85.7373 79.8638 85.7698 79.8294C85.8023 79.7949 85.8277 79.7544 85.8446 79.7101C85.8614 79.6658 85.8694 79.6186 85.868 79.5713C85.8666 79.5239 85.8559 79.4773 85.8365 79.4341C85.817 79.3908 85.7893 79.3519 85.7548 79.3194C85.1913 78.8745 84.5946 78.4733 83.9698 78.1194C83.2198 77.6844 83.7598 77.1444 84.5098 77.2494C85.5148 77.3994 86.8048 78.7494 86.6698 81.5244C86.7948 82.2697 86.6979 83.0354 86.3912 83.7261C86.0845 84.4168 85.5815 85.0022 84.9448 85.4094C83.9782 86.9433 83.1595 88.5656 82.4998 90.2544C81.8402 90.4251 81.1456 90.4043 80.4974 90.1944C79.8492 89.9845 79.2742 89.5943 78.8398 89.0694C78.9448 88.5444 79.2598 86.7444 79.3498 86.0694C82.6948 86.1744 83.2798 86.1594 83.4448 85.6644H83.4298ZM74.2348 103.829C74.7513 107.657 74.1196 111.551 72.4198 115.019C71.3239 115.333 70.1574 115.299 69.0823 114.92C68.0071 114.541 67.0766 113.836 66.4198 112.904C70.0751 110.972 72.8661 107.731 74.2348 103.829ZM46.6348 71.4444C46.6615 71.476 46.6964 71.4996 46.7357 71.5127C46.7749 71.5257 46.817 71.5277 46.8573 71.5184C46.8976 71.5091 46.9346 71.4889 46.9641 71.4599C46.9937 71.431 47.0147 71.3945 47.0248 71.3544C49.2898 62.4444 49.2298 62.9994 49.0198 62.8794C46.4998 61.4994 47.2948 58.8144 48.3148 58.4994C48.8248 58.3344 49.4998 58.6644 50.1748 59.4144C50.6156 59.8288 50.9501 60.3433 51.1498 60.9144C52.6498 65.1144 60.9598 59.5794 64.5598 56.9244C64.8096 56.7167 65.1051 56.5712 65.422 56.4998C65.7389 56.4284 66.0682 56.4332 66.3829 56.5137C66.6976 56.5942 66.9888 56.7481 67.2325 56.9629C67.4762 57.1777 67.6655 57.4473 67.7848 57.7494C68.1298 58.4094 67.4998 58.9644 67.1248 58.2444C66.3448 56.9244 64.9798 57.6594 65.0098 58.0194C65.3098 61.7394 64.6198 67.0194 61.7248 69.5994C58.8298 72.1794 55.4698 70.8444 55.1698 71.0994C54.8698 71.3544 55.0348 71.5944 55.0348 71.8794C54.9007 72.1977 54.8412 72.5425 54.8608 72.8875C54.8804 73.2324 54.9786 73.5682 55.148 73.8693C55.3174 74.1704 55.5534 74.4288 55.8379 74.6246C56.1225 74.8205 56.4481 74.9487 56.7898 74.9994C58.0156 75.4626 59.1835 76.0666 60.2698 76.7994C54.9298 85.0494 43.2598 83.8344 38.7898 72.7194C41.2887 71.8662 43.8932 71.3614 46.5298 71.2194L46.6348 71.4444ZM20.6698 90.9444C21.639 93.2604 23.0858 95.3459 24.9158 97.0648C26.7457 98.7836 28.9177 100.097 31.2898 100.919C31.1098 101.204 26.9248 108.044 25.9348 109.724C22.2927 106.225 19.3325 102.08 17.2048 97.4994C18.6898 94.8294 19.4998 93.2094 20.6698 90.9594V90.9444ZM282.84 64.3644C274.395 37.3644 243.96 24.9594 220.32 39.3294C193.68 55.4994 192.09 91.4994 217.5 109.679C250.89 133.499 294.45 100.619 282.84 64.3644ZM237.24 105.284C242.205 111.869 247.185 112.379 250.515 111.614C256.725 110.204 262.17 103.229 263.76 94.6344C263.782 94.5329 263.762 94.4269 263.706 94.3397C263.65 94.2525 263.561 94.1912 263.46 94.1694C263.358 94.1475 263.252 94.1668 263.165 94.2231C263.078 94.2793 263.017 94.3679 262.995 94.4694C262.289 98.1395 260.749 101.598 258.495 104.579C249.675 116.069 240.495 110.459 233.46 97.7394C231.173 94.0924 229.89 89.9063 229.74 85.6044C233.31 83.9244 233.235 83.8344 233.655 84.1944C237.825 87.7794 245.4 96.3294 246.45 97.4844C246.469 97.584 246.522 97.674 246.6 97.7388C246.678 97.8035 246.776 97.8389 246.877 97.8389C246.979 97.8389 247.077 97.8035 247.155 97.7388C247.233 97.674 247.286 97.584 247.305 97.4844C248.985 90.7044 250.305 83.6694 255.3 78.8244C257.154 78.3975 259.033 78.0819 260.925 77.8794C267.57 86.2794 266.625 97.4844 266.595 108.119C262.14 111.521 257.023 113.952 251.572 115.257C246.121 116.562 240.457 116.711 234.945 115.694C235.269 112.142 236.04 108.644 237.24 105.284ZM262.2 77.7444C263.01 77.7444 262.935 76.4244 262.2 76.5294C259.069 76.7906 255.995 77.5186 253.08 78.6894C252.675 78.8544 252.21 78.9444 252.36 79.3494C252.51 79.7544 252.84 79.4544 253.965 79.1694C249.555 83.8344 247.89 90.4044 246.735 96.3144C245.91 95.3094 243.87 92.9844 243.345 92.3844C247.965 82.1994 247.71 81.8844 250.425 79.8294C251.475 78.9894 255.75 75.8994 259.29 73.6794C261.18 72.4794 262.53 71.6394 265.68 76.0044C268.605 80.0694 268.68 80.1294 266.805 89.0544C266.241 84.9445 264.618 81.052 262.095 77.7594L262.2 77.7444ZM229.2 68.9094C229.47 68.9094 229.605 69.1194 229.815 69.4344C234.765 76.9344 234.39 76.0794 234.39 76.2294C234.39 76.9494 235.365 78.0294 236.34 78.9444C235.545 79.2444 234.06 79.8444 233.175 80.2044C233.175 77.4444 231.225 77.4444 230.7 78.5994C229.77 77.2344 227.7 74.5344 227.28 74.0094C227.166 73.8478 227.012 73.7186 226.833 73.6345C226.655 73.5503 226.457 73.5141 226.26 73.5294C225.555 72.6294 223.965 70.5294 223.35 69.6144C223.5 69.5844 228.72 68.9994 229.185 68.9094H229.2ZM239.4 83.1294C239.175 84.9594 236.31 82.9194 237.42 81.8994C237.625 82.2467 237.911 82.5397 238.253 82.7537C238.594 82.9678 238.983 83.0966 239.385 83.1294H239.4ZM239.235 82.1844C238.62 82.0794 237.375 80.6844 237.735 80.3694C238.095 80.0544 239.64 81.9444 239.61 82.1694C239.484 82.2118 239.349 82.217 239.22 82.1844H239.235ZM242.67 91.7094C241.365 90.3294 235.44 84.2094 235.29 84.0894C235.072 83.7645 234.791 83.4868 234.464 83.2729C234.137 83.059 233.77 82.9133 233.385 82.8444C233.188 82.3337 233.111 81.7845 233.16 81.2394L237.03 79.5894C237.39 79.9044 237.03 79.5894 236.85 80.2794C236.764 80.6013 236.801 80.9437 236.955 81.2394C235.455 82.3494 236.955 84.9294 238.935 84.7344C239.523 85.1375 240.032 85.646 240.435 86.2344C240.878 87.7655 241.508 89.2365 242.31 90.6144C242.805 91.4994 242.775 91.3944 242.655 91.7094H242.67ZM241.395 86.3544C241.395 85.8744 243.12 84.0744 243.39 83.8494C244.194 84.0831 244.977 84.3841 245.73 84.7494C245.295 85.7394 243.9 88.9044 243.21 90.5094C242.457 89.1918 241.844 87.7992 241.38 86.3544H241.395ZM240.78 85.3944C240.49 85.0121 240.146 84.6736 239.76 84.3894C239.945 84.1897 240.084 83.9519 240.166 83.6927C240.249 83.4335 240.274 83.1593 240.24 82.8894C240.326 82.832 240.399 82.7567 240.453 82.6687C240.507 82.5807 240.542 82.482 240.555 82.3794C240.675 81.6744 239.88 81.0894 239.355 80.5944C237.801 79.3752 236.419 77.9524 235.245 76.3644C236.437 76.9615 237.576 77.659 238.65 78.4494C240.45 79.7844 242.76 81.0444 242.58 83.2644C241.918 83.9236 241.311 84.636 240.765 85.3944H240.78ZM226.5 74.4294C228.025 76.1515 229.423 77.9812 230.685 79.9044C230.728 79.9713 230.791 80.0238 230.864 80.0553C230.938 80.0868 231.019 80.096 231.097 80.0815C231.176 80.0671 231.248 80.0298 231.306 79.9742C231.363 79.9187 231.403 79.8474 231.42 79.7694C231.42 79.3494 231.615 78.5994 232.005 78.7644C232.83 79.8894 232.005 81.6444 232.56 83.0394C228.54 84.8094 231.825 84.3594 229.35 81.5394C227.055 79.1244 226.155 75.1944 226.5 74.4294ZM241.965 72.9294C242.513 70.9669 242.513 68.8919 241.965 66.9294C241.742 66.0549 241.607 65.1605 241.56 64.2594C242.461 64.3555 243.371 64.315 244.26 64.1394C246.885 63.7044 248.235 62.2944 248.88 62.7294C249.3 63.0144 249.375 63.8994 249.105 65.3094C249.099 65.3551 249.107 65.4016 249.129 65.4425C249.15 65.4834 249.183 65.5167 249.224 65.538C249.265 65.5593 249.312 65.5675 249.357 65.5614C249.403 65.5554 249.446 65.5355 249.48 65.5044C250.051 65.0366 250.767 64.7821 251.505 64.7844C253.5 64.9494 253.425 67.7844 251.505 68.9994C251.464 69.0322 251.435 69.0785 251.424 69.1302C251.414 69.1819 251.422 69.2357 251.447 69.2822C251.472 69.3287 251.512 69.3649 251.561 69.3845C251.61 69.4041 251.665 69.4058 251.715 69.3894C252.435 69.142 253.207 69.088 253.955 69.2328C254.703 69.3776 255.399 69.716 255.975 70.2144C256.289 71.4702 256.716 72.6952 257.25 73.8744C255.165 75.2994 252.375 77.2494 250.38 78.7944C248.58 75.0144 246.345 77.6994 244.8 74.6694C243.24 72.0744 242.25 72.9744 241.89 72.8844L241.965 72.9294ZM267.105 90.9294C268.186 87.6355 268.807 84.2081 268.95 80.7444C268.737 79.077 268.062 77.5025 267 76.1994C262.74 70.0494 261 71.0694 257.715 73.2894C257.415 72.3744 256.755 70.4694 256.635 69.9594C256.83 69.7644 257.34 69.2694 257.49 69.1644C258.045 68.3857 258.475 67.5254 258.765 66.6144C259.149 65.3417 259.306 64.0115 259.23 62.6844C259.305 61.4265 259.106 60.1672 258.645 58.9944C257.691 57.3266 256.182 56.0457 254.382 55.3743C252.582 54.703 250.603 54.6835 248.79 55.3194C245.985 54.3894 242.37 53.4294 241.005 54.0144C239.919 54.2761 238.947 54.879 238.229 55.7344C237.512 56.5899 237.087 57.6528 237.018 58.7672C236.95 59.8816 237.24 60.9887 237.847 61.9259C238.454 62.8631 239.345 63.5811 240.39 63.9744C240.344 65.1325 240.476 66.2909 240.78 67.4094C241.288 68.9838 241.33 70.6718 240.9 72.2694C240.63 73.4694 241.02 74.0094 242.4 73.7694C244.02 73.8894 243.135 76.7694 246.81 77.3094C247.695 77.4594 248.4 77.5944 249.315 79.2894C247.785 80.5124 246.635 82.1462 246 83.9994C245.184 83.5184 244.319 83.1261 243.42 82.8294C243.321 82.0815 243.06 81.3641 242.656 80.7269C242.252 80.0898 241.714 79.5481 241.08 79.1394C239.682 77.9721 238.175 76.9424 236.58 76.0644C236.265 75.8994 235.605 75.3894 235.08 75.4944C229.86 67.5444 230.4 67.8894 228.765 67.8894C226.653 67.9704 224.554 68.2517 222.495 68.7294C222.421 68.7571 222.354 68.8012 222.3 68.8584C222.245 68.9155 222.204 68.9842 222.18 69.0594C222.09 69.4194 222.18 69.2094 224.28 72.2094C226.23 74.9394 225.525 73.6044 225.645 75.0744C225.911 77.9085 227.066 80.5861 228.945 82.7244C229.302 83.2741 229.447 83.9357 229.35 84.5844L229.155 84.6744C228.645 84.9294 229.29 90.0444 229.65 91.2444C231.298 95.9587 233.671 100.387 236.685 104.369C235.208 107.914 234.302 111.671 234 115.499C220.605 112.499 209.16 103.394 204 91.5744C198.84 79.7544 200.16 65.8944 207.99 52.9494C229.665 21.1344 277.2 33.9144 282.84 71.0844C284.91 85.1994 278.73 98.5944 267.63 107.384C267.781 101.901 267.571 96.4146 267 90.9594L267.105 90.9294ZM261.195 121.379C261.326 123.786 261.744 126.167 262.44 128.474C262.488 128.617 262.59 128.736 262.725 128.803C262.86 128.871 263.017 128.882 263.16 128.834C264.3 128.504 262.62 126.929 262.125 121.334C262.08 120.749 261.15 120.779 261.195 121.379ZM265.785 139.304C265.755 139.179 265.677 139.071 265.567 139.003C265.457 138.936 265.325 138.915 265.2 138.944C265.075 138.974 264.966 139.053 264.899 139.162C264.831 139.272 264.81 139.404 264.84 139.529C266.76 149.279 266.505 150.224 267.48 150.029C268.455 149.834 267.765 148.904 265.785 139.304ZM269.31 162.494C268.485 162.719 269.58 162.839 270.315 171.944C270.315 172.769 271.665 172.724 271.575 171.944C271.197 168.866 270.6 165.818 269.79 162.824C269.785 162.769 269.769 162.715 269.741 162.666C269.713 162.618 269.674 162.577 269.628 162.545C269.582 162.513 269.53 162.492 269.475 162.484C269.42 162.475 269.363 162.479 269.31 162.494ZM231.24 137.684C232.842 132.932 234.179 128.095 235.245 123.194C235.267 123.082 235.246 122.964 235.185 122.867C235.124 122.769 235.028 122.699 234.916 122.67C234.805 122.641 234.687 122.656 234.586 122.712C234.485 122.768 234.41 122.86 234.375 122.969C233.175 127.784 231.585 132.449 230.1 137.339C230.075 137.484 230.103 137.632 230.18 137.757C230.257 137.882 230.377 137.974 230.517 138.016C230.657 138.059 230.808 138.048 230.941 137.987C231.074 137.926 231.181 137.818 231.24 137.684ZM225.15 157.499C225.99 157.499 225.84 156.479 228.225 147.554C228.257 147.447 228.245 147.331 228.191 147.233C228.138 147.134 228.047 147.061 227.94 147.029C227.832 146.998 227.717 147.01 227.618 147.063C227.52 147.117 227.447 147.207 227.415 147.314C226.95 148.814 224.91 155.129 224.535 156.719C224.512 156.812 224.511 156.909 224.531 157.003C224.551 157.097 224.593 157.184 224.652 157.259C224.711 157.335 224.787 157.395 224.873 157.437C224.959 157.478 225.054 157.5 225.15 157.499ZM218.34 176.999C218.865 176.999 218.835 176.609 219.27 174.869C219.855 172.499 220.77 168.869 221.13 167.849C221.355 167.249 220.44 166.979 220.215 167.549C219.203 170.488 218.406 173.496 217.83 176.549C217.841 176.675 217.9 176.792 217.995 176.876C218.09 176.96 218.213 177.004 218.34 176.999ZM213.39 189.764C212.008 192.442 210.941 195.271 210.21 198.194C210.17 198.346 210.192 198.506 210.271 198.641C210.349 198.776 210.479 198.875 210.63 198.914C210.781 198.954 210.942 198.932 211.077 198.853C211.212 198.775 211.31 198.646 211.35 198.494C213.855 189.989 214.665 189.914 213.93 189.494C213.877 189.473 213.82 189.464 213.763 189.466C213.706 189.469 213.65 189.483 213.599 189.509C213.549 189.534 213.503 189.57 213.467 189.614C213.431 189.658 213.405 189.709 213.39 189.764ZM197.715 146.159C197.865 147.329 198.405 152.159 198.585 153.494C198.596 153.577 198.623 153.657 198.664 153.729C198.706 153.801 198.762 153.865 198.828 153.916C198.894 153.967 198.969 154.004 199.05 154.025C199.131 154.047 199.215 154.053 199.297 154.042C199.38 154.031 199.46 154.004 199.532 153.962C199.604 153.921 199.668 153.865 199.719 153.799C199.769 153.733 199.807 153.657 199.828 153.577C199.85 153.496 199.856 153.412 199.845 153.329C199.65 152.039 198.81 147.194 198.63 146.039C198.54 145.499 197.64 145.604 197.715 146.159ZM200.07 167.624C200.235 168.569 200.85 172.649 201.045 173.729C201.195 174.539 202.395 174.239 202.245 173.444C201.885 171.449 201.405 169.439 201.03 167.444C200.91 166.769 199.965 167.009 200.07 167.624ZM202.5 188.489C202.567 191.007 202.838 193.515 203.31 195.989C203.49 196.814 204.72 196.484 204.57 195.674C204.057 193.291 203.667 190.883 203.4 188.459C203.265 187.904 202.395 187.889 202.5 188.489ZM163.5 63.6594C163.215 63.1194 162.42 63.5694 162.675 64.1094C167.55 74.1144 167.175 74.2044 167.88 74.2044C167.996 74.2033 168.11 74.1729 168.212 74.1159C168.313 74.0589 168.398 73.9773 168.46 73.8785C168.521 73.7797 168.556 73.6671 168.562 73.551C168.569 73.4349 168.545 73.3191 168.495 73.2144C166.845 69.9894 165.105 66.8544 163.5 63.6594ZM172.8 83.2194C172.575 82.7094 171.81 83.1144 172.035 83.6244C173.535 86.9694 174.78 90.4044 176.31 93.7644C176.64 94.5144 177.735 93.9144 177.405 93.1794C175.92 89.7294 174.165 86.2644 172.8 83.2194ZM186 113.774C186.091 113.779 186.181 113.762 186.264 113.724C186.346 113.685 186.418 113.627 186.473 113.555C186.528 113.482 186.564 113.397 186.578 113.307C186.593 113.217 186.584 113.125 186.555 113.039C186.03 111.539 183.435 106.034 182.775 104.549C182.505 103.934 181.605 104.414 181.86 105.029C185.43 113.219 185.37 113.774 186 113.774ZM213.33 108.329C212.775 109.274 210.225 112.739 209.535 113.624C209.484 113.69 209.446 113.766 209.424 113.846C209.402 113.927 209.396 114.011 209.406 114.094C209.417 114.177 209.443 114.257 209.485 114.329C209.526 114.402 209.581 114.466 209.647 114.517C209.713 114.568 209.789 114.606 209.869 114.628C209.95 114.65 210.034 114.656 210.117 114.645C210.2 114.635 210.28 114.608 210.352 114.567C210.425 114.526 210.489 114.47 210.54 114.404C211.831 112.603 213.004 110.719 214.05 108.764C214.108 108.669 214.125 108.554 214.098 108.446C214.071 108.338 214.003 108.245 213.907 108.187C213.812 108.129 213.697 108.112 213.589 108.139C213.481 108.165 213.388 108.234 213.33 108.329ZM187.125 51.7494C187.74 51.7494 188.07 50.8194 187.425 50.5344C186.06 49.9194 180.315 48.0144 178.89 47.5344C178.305 47.3094 178.005 48.2094 178.59 48.4344C180.105 48.9744 186.63 51.7494 187.125 51.7494ZM192.33 53.9994C195.022 55.4643 197.851 56.6649 200.775 57.5844C200.943 57.6133 201.115 57.5791 201.26 57.4884C201.404 57.3977 201.509 57.2568 201.556 57.093C201.602 56.9291 201.587 56.7538 201.512 56.6008C201.437 56.4479 201.308 56.328 201.15 56.2644C198.279 55.485 195.487 54.4405 192.81 53.1444C192.24 52.8894 191.76 53.7594 192.33 53.9994ZM120.735 53.0994C126.735 49.0644 128.535 49.9794 128.235 48.9144C128.218 48.853 128.188 48.7957 128.149 48.7457C128.109 48.6958 128.06 48.6543 128.004 48.6236C127.948 48.5928 127.887 48.5736 127.823 48.5668C127.76 48.5601 127.696 48.5661 127.635 48.5844C124.927 49.2966 122.349 50.4359 120 51.9594C119.31 52.4994 120 53.5794 120.735 53.0994ZM107.1 58.1544C106.635 58.5294 107.01 59.1444 107.535 59.1444C107.715 59.1444 107.745 59.1444 109.395 58.3194C111.045 57.4944 112.935 56.6094 113.64 56.3994C113.758 56.3527 113.855 56.2635 113.911 56.1493C113.967 56.035 113.978 55.9039 113.942 55.7818C113.907 55.6596 113.827 55.5552 113.718 55.4891C113.609 55.423 113.48 55.3999 113.355 55.4244C111.184 56.1238 109.089 57.0384 107.1 58.1544Z" fill="#01004F"/>
<path d="M101.31 60.9899C100.53 61.4249 96.2248 63.6899 95.7598 63.9899C95.6641 64.0565 95.5912 64.1509 95.5508 64.2603C95.5105 64.3696 95.5046 64.4887 95.534 64.6015C95.5634 64.7143 95.6268 64.8154 95.7154 64.8911C95.8041 64.9668 95.9138 65.0135 96.0298 65.0249C98.0226 64.0836 99.9562 63.0216 101.82 61.8449C101.904 61.7652 101.959 61.6592 101.975 61.5444C101.991 61.4295 101.967 61.3126 101.907 61.213C101.848 61.1134 101.756 61.037 101.648 60.9965C101.539 60.9559 101.42 60.9536 101.31 60.9899ZM88.4998 37.0199C90.513 37.0335 92.508 36.6392 94.3647 35.8608C96.2213 35.0825 97.9011 33.9362 99.3028 32.4911C100.704 31.046 101.799 29.332 102.52 27.4524C103.242 25.5729 103.575 23.5667 103.5 21.5549C103.05 8.15992 85.6948 1.76993 76.9198 13.1699C68.9998 23.0849 76.6198 37.0199 88.4998 37.0199ZM79.4998 11.9999C88.6948 3.52492 102.195 10.4999 102.54 21.6149C102.512 24.436 101.699 27.1936 100.191 29.5782C98.6837 31.9628 96.5414 33.8801 94.0048 35.1149C85.6198 38.7749 75.5248 32.4899 74.8048 23.6399C74.6319 21.4686 74.966 19.2868 75.7808 17.2667C76.5956 15.2467 77.8688 13.4436 79.4998 11.9999ZM121.86 24.3149C124.515 24.5999 127.185 24.6299 129.84 24.7499C129.959 24.7499 130.074 24.7025 130.158 24.6181C130.242 24.5337 130.29 24.4193 130.29 24.2999C130.29 24.1806 130.242 24.0661 130.158 23.9817C130.074 23.8973 129.959 23.8499 129.84 23.8499C127.05 23.5949 125.34 23.2499 121.86 23.0249C121.065 22.9799 121.05 24.2249 121.86 24.3149ZM106.14 22.7249C107.355 22.8599 112.35 23.2049 113.64 23.3699C114.315 23.4749 114.585 22.4549 113.88 22.3349C111.341 21.9363 108.782 21.676 106.215 21.5549C106.138 21.55 106.061 21.5603 105.988 21.5851C105.915 21.6099 105.848 21.6489 105.79 21.6997C105.732 21.7506 105.685 21.8123 105.651 21.8814C105.617 21.9505 105.597 22.0256 105.592 22.1024C105.587 22.1792 105.598 22.2563 105.622 22.3291C105.647 22.402 105.686 22.4693 105.737 22.5271C105.788 22.5849 105.85 22.6321 105.919 22.666C105.988 22.7 106.063 22.72 106.14 22.7249ZM46.4998 133.71C46.9348 130.95 47.0398 128.205 47.3698 125.46C47.4448 124.95 46.6048 124.83 46.5298 125.355C46.1098 128.055 45.4648 130.77 45.1498 133.515C45.1513 133.68 45.2117 133.839 45.3202 133.963C45.4286 134.087 45.578 134.168 45.7411 134.192C45.9043 134.215 46.0705 134.18 46.2096 134.091C46.3488 134.003 46.4517 133.868 46.4998 133.71ZM44.8798 141.135C43.3798 149.37 43.0348 150.375 44.1148 150.375C44.9248 150.375 44.7748 149.835 45.7948 141.255C45.8698 140.7 44.9998 140.58 44.8798 141.135ZM72.4648 154.845C70.1848 156.045 67.3498 157.44 66.4648 157.965C66.3418 158.038 66.2465 158.149 66.1937 158.282C66.1409 158.415 66.1337 158.561 66.1732 158.698C66.2126 158.836 66.2966 158.956 66.4118 159.04C66.527 159.125 66.667 159.169 66.8098 159.165C68.9015 158.127 70.9345 156.976 72.8998 155.715C72.9915 155.645 73.056 155.545 73.082 155.433C73.1081 155.321 73.0942 155.203 73.0426 155.1C72.991 154.997 72.9051 154.915 72.7996 154.868C72.6941 154.822 72.5757 154.813 72.4648 154.845ZM63.6898 159.465C62.0522 160.232 60.4551 161.083 58.9048 162.015C58.4248 162.45 58.9948 163.17 59.5648 162.9C60.1348 162.63 63.3298 160.65 64.0648 160.305C64.7998 159.96 64.2448 159.225 63.6898 159.465ZM124.095 171.96C124.635 172.305 125.145 171.48 124.62 171.12C123.48 170.37 119.145 167.16 117.945 166.53C117.79 166.455 117.612 166.44 117.446 166.487C117.281 166.534 117.138 166.64 117.045 166.785C116.43 167.745 118.5 168.285 124.095 171.96ZM103.32 158.1C104.07 158.625 104.82 159.12 105.585 159.6C110.7 162.99 110.46 163.095 110.775 163.095C110.878 163.093 110.979 163.061 111.065 163.003C111.15 162.944 111.216 162.861 111.255 162.765C111.293 162.669 111.303 162.563 111.281 162.462C111.26 162.36 111.209 162.267 111.135 162.195C108.858 160.321 106.479 158.573 104.01 156.96C103.29 156.525 102.63 157.635 103.32 158.1ZM251.025 207.81C248.565 208.155 246.03 208.41 243.525 208.98C243.371 209.027 243.239 209.129 243.153 209.265C243.067 209.401 243.032 209.564 243.056 209.724C243.08 209.883 243.159 210.029 243.281 210.135C243.403 210.24 243.559 210.299 243.72 210.3C244.305 210.3 248.04 209.295 251.22 208.8C252 208.74 251.7 207.69 251.025 207.81ZM237.765 210.24C235.245 210.615 232.47 210.84 229.74 211.305C228.975 211.44 229.185 212.55 229.935 212.55C230.685 212.55 236.055 211.47 237.96 211.17C238.575 211.065 238.365 210.15 237.765 210.24ZM147 156.465C146.924 156.338 146.801 156.246 146.658 156.209C146.514 156.172 146.362 156.194 146.235 156.27C146.107 156.345 146.015 156.469 145.979 156.612C145.942 156.755 145.964 156.908 146.04 157.035C146.78 158.241 147.946 159.125 149.308 159.511C150.67 159.898 152.127 159.758 153.39 159.12C153.474 159.068 153.536 158.987 153.563 158.891C153.589 158.796 153.578 158.694 153.533 158.607C153.487 158.519 153.409 158.452 153.316 158.419C153.223 158.386 153.12 158.39 153.03 158.43C151.954 158.863 150.76 158.904 149.657 158.544C148.555 158.185 147.614 157.449 147 156.465ZM157.5 150.915C157.395 151.785 156.615 151.305 156.555 151.83C156.555 152.115 156.795 152.22 157.095 152.22C157.361 152.211 157.62 152.131 157.845 151.988C158.07 151.845 158.253 151.646 158.376 151.409C158.498 151.172 158.555 150.907 158.541 150.641C158.526 150.375 158.442 150.117 158.295 149.895C157.453 148.993 156.686 148.025 156 147C155.974 146.906 155.912 146.827 155.828 146.779C155.743 146.731 155.643 146.719 155.55 146.745C155.456 146.771 155.377 146.833 155.329 146.917C155.281 147.001 155.269 147.101 155.295 147.195C155.647 147.988 156.09 148.738 156.615 149.43C156.958 149.895 157.254 150.392 157.5 150.915ZM149.535 139.935C149.495 139.756 149.386 139.6 149.231 139.502C149.076 139.403 148.889 139.37 148.71 139.41C148.531 139.45 148.375 139.559 148.276 139.714C148.178 139.868 148.145 140.056 148.185 140.235C148.605 143.085 148.35 144.3 149.475 144.3C149.69 144.3 149.896 144.215 150.048 144.063C150.199 143.911 150.285 143.705 150.285 143.49C150.285 143.115 149.655 140.565 149.535 139.935ZM161.325 140.07C161.293 139.906 161.203 139.76 161.072 139.657C160.94 139.555 160.776 139.503 160.61 139.513C160.443 139.522 160.286 139.591 160.166 139.707C160.047 139.823 159.973 139.979 159.96 140.145C159.96 140.37 160.17 143.055 160.245 143.265C160.267 143.464 160.367 143.646 160.523 143.771C160.679 143.896 160.878 143.954 161.077 143.932C161.276 143.911 161.458 143.811 161.583 143.654C161.709 143.498 161.767 143.299 161.745 143.1C161.715 142.92 161.475 141.45 161.325 140.07ZM147.18 139.17C147.372 138.532 147.772 137.977 148.315 137.591C148.858 137.205 149.514 137.011 150.18 137.04C150.296 137.053 150.414 137.022 150.508 136.953C150.603 136.883 150.668 136.78 150.69 136.665C150.84 135.585 146.805 136.02 145.92 138.825C145.874 138.992 145.897 139.17 145.982 139.321C146.068 139.471 146.21 139.582 146.377 139.627C146.544 139.673 146.723 139.651 146.873 139.565C147.024 139.479 147.134 139.337 147.18 139.17ZM158.4 136.5C158.945 136.468 159.486 136.617 159.939 136.923C160.392 137.23 160.731 137.677 160.905 138.195C161.175 138.78 162.12 138.39 161.94 137.76C161.646 137.053 161.116 136.469 160.441 136.108C159.766 135.747 158.986 135.631 158.235 135.78C158.154 135.814 158.087 135.876 158.047 135.955C158.007 136.033 157.995 136.123 158.015 136.209C158.035 136.295 158.084 136.371 158.155 136.425C158.225 136.478 158.312 136.504 158.4 136.5ZM274.155 186.975C274.155 186.975 273.36 183.345 273.15 182.295C273.124 182.178 273.053 182.075 272.951 182.011C272.85 181.946 272.727 181.924 272.61 181.95C272.492 181.976 272.39 182.047 272.325 182.148C272.261 182.25 272.239 182.373 272.265 182.49L272.97 186.765C270.587 186.463 268.167 186.671 265.871 187.375C263.574 188.079 261.454 189.263 259.65 190.849C257.846 192.435 256.399 194.386 255.406 196.573C254.413 198.76 253.896 201.133 253.89 203.535C254.79 226.14 287.235 225.69 287.685 203.535C287.715 199.63 286.38 195.837 283.909 192.813C281.438 189.789 277.988 187.724 274.155 186.975ZM278.025 210.63C275.655 217.365 266.715 216.165 266.715 208.125V203.265C266.453 203.298 266.187 203.276 265.934 203.198C265.681 203.121 265.448 202.991 265.25 202.816C265.052 202.641 264.893 202.427 264.784 202.186C264.675 201.945 264.619 201.684 264.619 201.42C264.619 201.156 264.675 200.895 264.784 200.654C264.893 200.413 265.052 200.198 265.25 200.024C265.448 199.849 265.681 199.719 265.934 199.642C266.187 199.564 266.453 199.541 266.715 199.575C266.715 198.075 266.715 196.575 266.82 194.94C266.826 194.698 266.879 194.459 266.977 194.237C267.075 194.016 267.216 193.815 267.392 193.648C267.567 193.481 267.774 193.35 268 193.263C268.226 193.176 268.467 193.134 268.71 193.14C269.201 193.156 269.665 193.365 270.002 193.721C270.34 194.078 270.522 194.554 270.51 195.045C270.51 196.62 270.51 198.12 270.42 199.545H273.585C273.827 199.539 274.068 199.581 274.293 199.67C274.519 199.758 274.724 199.891 274.897 200.06C275.071 200.229 275.208 200.432 275.302 200.655C275.396 200.878 275.445 201.118 275.445 201.36C275.449 201.603 275.404 201.845 275.314 202.072C275.224 202.298 275.091 202.504 274.92 202.679C274.75 202.853 274.547 202.992 274.323 203.087C274.099 203.183 273.858 203.233 273.615 203.235H270.375C270.375 208.71 270.225 209.625 270.975 210.555C272.04 211.905 273.66 211.455 274.5 209.385C274.665 208.917 275.009 208.535 275.456 208.321C275.903 208.107 276.417 208.08 276.885 208.245C277.352 208.41 277.735 208.754 277.949 209.201C278.163 209.649 278.19 210.162 278.025 210.63ZM153.615 15.6599C150.545 15.644 147.502 16.2368 144.662 17.4039C141.822 18.571 139.242 20.2894 137.07 22.4597C134.899 24.63 133.179 27.2092 132.01 30.0482C130.841 32.8872 130.246 35.9297 130.26 38.9999C130.875 69.8999 176.355 69.9149 176.955 38.9999C176.971 35.9304 176.378 32.8882 175.211 30.0493C174.043 27.2104 172.325 24.6311 170.154 22.4606C167.984 20.2901 165.404 18.5715 162.565 17.4042C159.726 16.2369 156.684 15.644 153.615 15.6599ZM160.35 27.4499C160.12 27.8807 159.73 28.2039 159.265 28.3498C158.799 28.4957 158.294 28.4527 157.86 28.2299C157.086 27.8045 156.187 27.6646 155.321 27.8346C154.455 28.0046 153.675 28.4737 153.12 29.1599C151.395 30.9599 151.47 37.0799 151.47 37.4099L155.97 36.7199C156.455 36.6463 156.95 36.7685 157.345 37.0597C157.74 37.3508 158.004 37.7871 158.077 38.2724C158.151 38.7578 158.029 39.2525 157.738 39.6477C157.446 40.0429 157.01 40.3063 156.525 40.3799L151.485 41.1449C151.485 44.7149 151.65 48.1649 151.77 51.6449C151.748 52.1113 151.553 52.5526 151.221 52.8812C150.889 53.2098 150.446 53.4017 149.979 53.4187C149.513 53.4357 149.057 53.2766 148.702 52.973C148.348 52.6694 148.12 52.2435 148.065 51.7799C147.9 46.8599 147.78 41.8649 147.72 36.5249C147.72 33.5249 147.72 29.6099 150.39 26.6549C154.575 22.0799 162 24.3749 160.35 27.4499Z" fill="#01004F"/>
<path d="M224.669 217.499C230.804 199.679 230.504 200.729 230.399 200.579C230.294 200.429 210.899 200.069 200.129 200.279C195.834 193.839 190.221 188.385 183.661 184.276C177.1 180.167 169.743 177.497 162.074 176.444C160.908 175.165 159.299 174.377 157.574 174.239L155.699 173.594C155.624 172.13 155.624 170.663 155.699 169.199C159.909 167.595 163.347 164.446 165.314 160.394C167.519 155.444 166.424 149.114 165.134 133.019C168.224 133.979 168.299 130.799 166.424 128.309C166.509 127.777 166.482 127.233 166.346 126.711C166.209 126.19 165.967 125.703 165.633 125.28C165.299 124.857 164.881 124.508 164.405 124.255C163.929 124.002 163.406 123.85 162.869 123.809C163.158 123.366 163.324 122.856 163.352 122.328C163.38 121.8 163.268 121.275 163.027 120.805C162.787 120.334 162.426 119.936 161.982 119.649C161.538 119.363 161.027 119.199 160.499 119.174C160.187 118.487 159.667 117.916 159.014 117.539C158.36 117.162 157.605 117 156.854 117.074C156.748 116.569 156.509 116.102 156.162 115.721C155.815 115.34 155.372 115.058 154.88 114.905C154.387 114.752 153.863 114.733 153.361 114.851C152.859 114.969 152.397 115.218 152.024 115.574C151.709 115.094 150.929 113.909 150.524 113.459C150.845 113.143 151.065 112.74 151.159 112.3C151.252 111.86 151.214 111.402 151.049 110.984C151.784 110.754 152.426 110.295 152.882 109.675C153.339 109.054 153.584 108.304 153.584 107.534C153.584 106.764 153.339 106.014 152.882 105.393C152.426 104.773 151.784 104.314 151.049 104.084C152.234 99.7638 148.184 97.1088 144.509 98.8338C144.31 98.3382 143.969 97.9127 143.529 97.611C143.088 97.3093 142.568 97.145 142.034 97.1388C145.034 93.3588 140.759 90.7188 136.694 92.0088C136.427 91.3231 135.978 90.7232 135.395 90.2735C134.813 89.8238 134.118 89.5414 133.387 89.4566C132.656 89.3717 131.916 89.4877 131.246 89.7921C130.576 90.0964 130.001 90.5775 129.584 91.1838C128.6 90.9254 127.553 91.0634 126.67 91.5683C125.786 92.0732 125.136 92.9046 124.859 93.8838C124.229 93.7354 123.575 93.7284 122.942 93.8633C122.309 93.9982 121.714 94.2716 121.199 94.6638C120.856 94.0704 120.308 93.6224 119.658 93.4035C119.009 93.1846 118.302 93.2099 117.669 93.4746C117.037 93.7394 116.523 94.2254 116.223 94.8418C115.923 95.4582 115.857 96.1628 116.039 96.8239C115.624 96.9397 115.256 97.183 114.987 97.5195C114.718 97.8559 114.561 98.2685 114.539 98.6989C114.374 98.6711 114.205 98.6786 114.043 98.7209C113.881 98.7632 113.73 98.8392 113.6 98.9441C113.47 99.0489 113.363 99.1802 113.287 99.3293C113.211 99.4783 113.167 99.6418 113.159 99.8088C112.769 99.7097 112.357 99.7268 111.976 99.858C111.595 99.9892 111.261 100.229 111.014 100.547C110.767 100.866 110.619 101.249 110.587 101.651C110.555 102.053 110.641 102.455 110.834 102.809C110.346 102.919 109.9 103.17 109.553 103.531C109.207 103.893 108.974 104.348 108.884 104.841C108.795 105.333 108.852 105.842 109.05 106.302C109.247 106.762 109.575 107.154 109.994 107.429C107.624 108.119 106.094 110.429 106.994 112.529C104.294 114.164 103.184 117.479 105.089 119.789C104.746 120.742 104.761 121.788 105.131 122.731C105.5 123.675 106.2 124.452 107.099 124.919C106.707 125.401 106.457 125.984 106.379 126.6C106.301 127.217 106.396 127.843 106.656 128.408C106.915 128.973 107.327 129.455 107.845 129.797C108.364 130.14 108.968 130.331 109.589 130.349C109.635 130.892 109.82 131.415 110.127 131.865C110.434 132.316 110.853 132.68 111.342 132.921C111.83 133.162 112.374 133.273 112.918 133.243C113.462 133.213 113.99 133.043 114.449 132.749C114.694 133.139 115.047 133.448 115.465 133.64C115.884 133.831 116.349 133.896 116.804 133.825C117.259 133.755 117.683 133.553 118.024 133.245C118.365 132.936 118.609 132.534 118.724 132.089C119.458 132.365 120.246 132.468 121.027 132.39C121.807 132.312 122.559 132.055 123.224 131.639C122.609 135.374 119.774 135.644 120.659 139.559C120.137 140.246 119.847 141.083 119.834 141.947C119.82 142.81 120.083 143.655 120.584 144.359C120.414 144.721 120.318 145.113 120.301 145.512C120.285 145.911 120.348 146.31 120.488 146.685C120.628 147.059 120.841 147.402 121.115 147.693C121.389 147.984 121.719 148.217 122.084 148.379C121.944 148.654 121.877 148.962 121.891 149.27C121.905 149.579 121.999 149.879 122.164 150.141C122.329 150.403 122.559 150.617 122.832 150.763C123.104 150.909 123.41 150.982 123.719 150.974C124.014 152.077 124.58 153.088 125.366 153.916C126.152 154.744 127.133 155.362 128.219 155.714C128.369 174.569 129.059 172.304 127.259 174.494C125.601 175.365 124.243 176.713 123.359 178.364C97.0491 187.499 86.4291 208.364 82.9491 236.369C80.9391 236.054 80.8491 235.979 80.7741 236.234C79.9644 239.386 79.6806 242.65 79.9341 245.894C79.9341 246.089 79.9341 246.074 82.3341 246.659C83.0091 258.224 89.2641 270.764 101.834 272.969C101.669 275.399 101.474 289.319 101.834 292.469C101.85 292.543 101.891 292.609 101.95 292.656C102.008 292.703 102.081 292.729 102.157 292.729C102.232 292.729 102.305 292.703 102.364 292.656C102.422 292.609 102.463 292.543 102.479 292.469C102.479 290.789 102.689 275.699 102.824 273.194C110.459 273.944 114.929 270.749 120.944 264.194C130.394 253.694 135.749 242.369 141.329 230.489C142.309 228.571 143.098 226.561 143.684 224.489C144.564 224.845 145.535 224.913 146.456 224.684C147.378 224.455 148.203 223.94 148.814 223.214C150.963 223.907 153.245 224.082 155.474 223.724C155.851 223.654 156.21 223.507 156.527 223.292C156.845 223.078 157.115 222.8 157.321 222.476C157.526 222.152 157.663 221.79 157.722 221.411C157.781 221.032 157.761 220.645 157.664 220.274C159.584 220.184 160.784 218.444 158.864 216.989C158.253 216.519 157.606 216.098 156.929 215.729C158.519 215.624 162.719 215.159 164.084 214.229C165.449 213.299 165.404 210.974 163.514 210.719C162.719 210.614 151.034 211.094 148.379 211.469C145.752 211.747 143.264 212.79 141.224 214.469C138.224 216.944 117.014 234.569 109.439 240.929C105.044 240.134 88.5742 237.314 84.1941 236.624C87.8242 206.369 100.154 188.279 122.954 179.759C121.559 185.459 128.309 191.309 130.454 193.049C133.979 195.944 139.739 199.049 144.674 197.699C147.809 196.859 150.149 194.444 151.649 190.499C158.309 196.274 161.444 195.629 162.494 195.089C166.529 192.974 166.364 182.684 163.004 177.734C170.203 178.849 177.095 181.437 183.248 185.337C189.401 189.237 194.683 194.364 198.764 200.399C191.879 200.549 192.299 200.549 192.239 200.729C190.613 205.117 189.032 209.522 187.499 213.944C186.899 210.209 185.999 205.124 185.609 203.654C185.576 203.574 185.515 203.508 185.437 203.47C185.359 203.431 185.27 203.422 185.186 203.444C185.102 203.466 185.029 203.517 184.98 203.589C184.93 203.661 184.909 203.748 184.919 203.834C185.354 205.664 186.254 212.609 186.749 216.119C180.659 233.744 175.889 249.629 176.009 249.794C176.129 249.959 191.009 249.959 192.929 249.929C194.429 262.469 195.569 288.614 195.524 291.719C195.524 291.806 195.559 291.89 195.621 291.952C195.683 292.014 195.767 292.049 195.854 292.049C195.942 292.049 196.026 292.014 196.088 291.952C196.149 291.89 196.184 291.806 196.184 291.719C196.454 286.199 196.184 269.609 195.929 266.024C199.477 265.435 202.727 263.683 205.169 261.044C206.999 259.169 209.669 253.619 211.514 249.149C214.424 248.954 214.514 248.999 214.514 248.804C216.224 244.829 217.919 240.149 219.344 235.589C226.424 234.524 230.009 224.594 227.144 220.094C226.502 219.072 225.66 218.189 224.669 217.499ZM102.374 249.389C103.334 249.224 102.269 247.889 138.479 218.129C144.479 213.224 144.944 212.759 152.219 212.264C154.919 212.084 161.924 211.829 162.719 211.814C163.334 211.814 163.874 211.814 163.829 212.369C163.829 213.329 162.329 213.614 161.294 213.869C158.189 214.62 155.009 215.013 151.814 215.039C151.719 215.039 151.627 215.077 151.56 215.144C151.492 215.212 151.454 215.303 151.454 215.399C151.454 215.494 151.492 215.586 151.56 215.653C151.627 215.721 151.719 215.759 151.814 215.759H154.934C155.891 216.222 156.804 216.769 157.664 217.394C158.024 217.649 158.669 217.889 158.714 218.234C158.954 220.229 153.914 218.384 152.144 217.529C152.082 217.497 152.011 217.491 151.945 217.512C151.879 217.533 151.823 217.58 151.792 217.641C151.76 217.703 151.754 217.775 151.775 217.841C151.796 217.907 151.842 217.962 151.904 217.994C153.179 218.789 157.589 220.334 156.569 221.834C155.264 223.724 151.844 222.914 149.579 222.464C150.052 222.081 150.621 221.836 151.224 221.754C151.827 221.672 152.441 221.757 152.999 221.999C153.075 222.018 153.156 222.009 153.226 221.974C153.297 221.939 153.352 221.88 153.383 221.808C153.414 221.736 153.418 221.655 153.394 221.58C153.37 221.505 153.321 221.441 153.254 221.399C152.333 221.011 151.313 220.92 150.338 221.137C149.362 221.355 148.478 221.871 147.809 222.614C146.024 224.324 143.804 223.919 142.079 222.179C142.018 222.124 141.938 222.094 141.856 222.092C141.774 222.091 141.694 222.119 141.63 222.172C141.567 222.224 141.524 222.298 141.51 222.379C141.497 222.46 141.512 222.543 141.554 222.614C141.899 223.144 142.348 223.598 142.874 223.949C140.202 230.522 137.198 236.955 133.874 243.224C127.874 254.474 121.784 262.424 114.944 268.214C107.534 274.589 96.6441 272.249 90.3891 264.959C86.6391 260.624 84.2841 254.549 83.4141 246.959C86.5341 247.499 98.9991 249.284 102.374 249.389ZM128.384 124.259C127.09 125.168 126.089 126.435 125.504 127.904C124.919 127.387 124.466 126.737 124.184 126.009C123.902 125.281 123.799 124.495 123.884 123.719C125.219 117.719 131.384 112.469 136.499 110.924C139.649 109.649 147.659 111.074 150.239 114.929C149.397 114.852 148.558 115.093 147.884 115.604C147.481 115.079 146.964 114.652 146.372 114.355C145.78 114.058 145.129 113.898 144.467 113.888C143.805 113.878 143.149 114.018 142.549 114.297C141.948 114.576 141.419 114.987 140.999 115.499C140.179 115.738 139.438 116.194 138.854 116.819C138.302 116.523 137.676 116.396 137.052 116.452C136.428 116.508 135.835 116.745 135.344 117.134C134.822 117.276 134.362 117.59 134.041 118.026C133.72 118.461 133.555 118.993 133.574 119.534C132.916 119.469 132.251 119.543 131.623 119.751C130.995 119.959 130.417 120.297 129.928 120.742C129.439 121.187 129.049 121.731 128.783 122.336C128.517 122.942 128.381 123.597 128.384 124.259ZM156.749 186.584C149.744 193.844 128.699 185.384 127.334 178.634C127.226 177.908 127.291 177.168 127.523 176.472C127.755 175.776 128.147 175.144 128.669 174.629C128.819 174.479 128.924 174.314 129.074 174.164C129.092 174.121 129.092 174.072 129.074 174.029L129.359 173.669C129.734 172.964 129.269 158.039 129.194 155.894C129.759 155.901 130.311 155.73 130.772 155.404C131.233 155.078 131.578 154.614 131.759 154.079C132.079 154.253 132.442 154.328 132.805 154.296C133.167 154.264 133.512 154.125 133.795 153.897C134.079 153.67 134.289 153.363 134.399 153.017C134.509 152.67 134.515 152.298 134.414 151.949L138.104 147.989C138.099 148.481 138.235 148.965 138.496 149.383C138.757 149.8 139.132 150.135 139.577 150.346C140.022 150.557 140.518 150.637 141.006 150.575C141.495 150.514 141.956 150.314 142.334 149.999C142.722 149.717 143.043 149.353 143.273 148.933C143.504 148.513 143.639 148.047 143.669 147.569C143.675 147.517 143.663 147.465 143.635 147.421C143.606 147.378 143.564 147.345 143.514 147.329C143.465 147.314 143.411 147.315 143.363 147.334C143.315 147.353 143.275 147.388 143.249 147.434C143 147.807 142.631 148.085 142.203 148.221C141.775 148.358 141.314 148.344 140.894 148.184C141.041 147.562 141.012 146.911 140.811 146.305C140.609 145.698 140.244 145.16 139.754 144.749C137.504 137.549 137.714 134.699 141.749 131.999C144.749 129.734 155.249 124.694 162.314 131.129C162.8 131.693 163.378 132.17 164.024 132.539C165.854 157.454 167.024 157.784 160.184 165.014C158.089 167.138 155.299 168.438 152.324 168.674C151.799 168.674 151.739 169.439 152.324 169.499C153.086 169.603 153.858 169.603 154.619 169.499C154.619 174.584 154.394 174.194 155.849 174.704C160.814 176.999 160.379 182.789 156.749 186.584ZM200.864 262.814C199.289 263.688 197.604 264.349 195.854 264.779C195.629 262.259 194.714 254.279 194.114 249.779C199.574 249.659 205.064 249.434 210.299 249.104C208.109 254.564 204.794 260.894 200.864 262.814ZM210.779 213.314C207.479 213.224 207.479 209.144 210.779 209.054C214.079 208.964 214.079 213.299 210.779 213.389V213.314ZM197.414 205.589C196.714 206.007 196.147 206.616 195.779 207.344C195.329 208.199 182.444 243.254 181.829 245.249C181.797 245.356 181.724 245.447 181.626 245.5C181.527 245.554 181.412 245.566 181.304 245.534C181.197 245.502 181.106 245.429 181.053 245.33C180.999 245.232 180.987 245.116 181.019 245.009C181.784 242.174 192.899 210.344 193.019 210.149C195.674 203.519 196.709 203.624 201.779 203.459C204.104 203.384 221.024 203.309 223.469 203.714C224.009 203.804 223.889 204.569 223.469 204.614C222.134 204.779 198.464 205.139 197.414 205.664V205.589ZM219.794 234.089C220.364 232.169 220.889 230.294 221.294 228.509C221.962 228.779 222.656 228.98 223.364 229.109C223.442 229.127 223.523 229.113 223.591 229.071C223.658 229.029 223.706 228.961 223.724 228.884C223.742 228.806 223.728 228.725 223.686 228.657C223.644 228.59 223.577 228.542 223.499 228.524C221.864 227.884 220.344 226.983 218.999 225.854C218.084 224.819 217.664 224.054 218.729 223.304C220.769 224.909 223.424 226.304 224.399 227.009C224.461 227.04 224.532 227.048 224.599 227.032C224.667 227.017 224.727 226.978 224.769 226.924C224.812 226.869 224.834 226.801 224.832 226.732C224.83 226.663 224.804 226.596 224.759 226.544C223.664 225.554 219.959 223.064 218.024 221.129C217.994 220.823 218.058 220.515 218.208 220.247C218.358 219.978 218.587 219.763 218.864 219.629C220.605 221.147 222.506 222.47 224.534 223.574C224.6 223.614 224.679 223.627 224.755 223.61C224.83 223.593 224.896 223.548 224.939 223.484C225.164 223.199 224.939 223.094 223.439 221.849C222.314 220.919 220.739 219.614 219.584 218.474C217.949 216.974 221.084 217.244 223.949 218.474C224.947 219.044 225.76 219.888 226.292 220.906C226.823 221.925 227.052 223.075 226.949 224.219C226.724 228.554 224.054 233.054 219.794 234.239V234.089ZM96.8692 18.0738C96.2668 18.1617 95.6524 18.0399 95.1291 17.7288C94.7837 16.8502 94.1984 16.0862 93.4399 15.524C92.6814 14.9617 91.7803 14.6239 90.8391 14.5488C88.5442 14.6988 88.0942 17.9388 86.3391 18.1788C85.2892 18.3288 83.9991 17.2488 82.4991 14.9988C82.4807 14.9608 82.452 14.9287 82.4161 14.9063C82.3803 14.8838 82.3389 14.8719 82.2966 14.8719C82.2544 14.8719 82.213 14.8838 82.1772 14.9063C82.1413 14.9287 82.1126 14.9608 82.0941 14.9988C81.9287 15.5619 81.8792 16.1527 81.9489 16.7354C82.0185 17.3181 82.2057 17.8806 82.4991 18.3888C82.2561 18.3776 82.0261 18.276 81.8541 18.1038C81.3441 17.6088 81.0891 19.4388 82.3191 20.6988C81.9416 20.6787 81.573 20.5763 81.2391 20.3988C80.4891 19.8138 80.8041 22.9038 83.2641 24.3138C82.5684 24.2698 81.8885 24.0865 81.265 23.7747C80.6414 23.4629 80.0868 23.029 79.6341 22.4988C79.6046 22.4579 79.5622 22.4281 79.5137 22.4142C79.4652 22.4003 79.4135 22.403 79.3668 22.4221C79.32 22.4411 79.2811 22.4753 79.2561 22.5191C79.2312 22.563 79.2217 22.6139 79.2291 22.6638C79.4957 24.8892 80.5243 26.9537 82.1403 28.5068C83.7562 30.0599 85.8599 31.0058 88.0941 31.1838C93.0591 31.1838 96.1942 25.8438 95.0392 21.7488C95.3321 21.6567 95.6462 21.6567 95.9391 21.7488C95.9825 21.7813 96.0361 21.7971 96.0901 21.7933C96.1441 21.7894 96.195 21.7662 96.2332 21.7279C96.2715 21.6896 96.2947 21.6388 96.2986 21.5848C96.3024 21.5308 96.2866 21.4772 96.2541 21.4338C96.1008 21.1892 95.9983 20.9161 95.9531 20.6309C95.9078 20.3457 95.9205 20.0543 95.9905 19.7742C96.0606 19.494 96.1865 19.2309 96.3606 19.0006C96.5348 18.7703 96.7537 18.5775 97.0041 18.4338C97.028 18.4034 97.0436 18.3674 97.0495 18.3293C97.0554 18.2911 97.0514 18.252 97.0378 18.2159C97.0243 18.1797 97.0017 18.1476 96.9721 18.1228C96.9426 18.0979 96.9071 18.081 96.8692 18.0738ZM92.2491 19.2288C91.9521 19.1957 91.6777 19.0542 91.4784 18.8314C91.2791 18.6086 91.1689 18.3202 91.1689 18.0213C91.1689 17.7224 91.2791 17.434 91.4784 17.2113C91.6777 16.9885 91.9521 16.847 92.2491 16.8138C92.5462 16.847 92.8206 16.9885 93.0199 17.2113C93.2192 17.434 93.3294 17.7224 93.3294 18.0213C93.3294 18.3202 93.2192 18.6086 93.0199 18.8314C92.8206 19.0542 92.5462 19.1957 92.2491 19.2288ZM51.8541 168.794C46.9669 168.521 42.0645 168.768 37.2291 169.529C37.1788 169.536 37.1328 169.561 37.0997 169.6C37.0666 169.639 37.0486 169.688 37.0491 169.739C37.0369 172.35 37.3903 174.951 38.0991 177.464C38.1136 177.505 38.1397 177.541 38.1743 177.568C38.2089 177.595 38.2506 177.611 38.2941 177.614C42.6346 177.959 46.9994 177.838 51.3141 177.254C52.1691 177.134 52.7841 168.854 51.8541 168.794ZM47.8191 173.699C47.7199 174.188 47.4787 174.636 47.1257 174.989C46.7727 175.341 46.3236 175.582 45.8346 175.68C45.3456 175.778 44.8385 175.73 44.3767 175.542C43.9149 175.353 43.519 175.033 43.2385 174.62C42.9581 174.208 42.8055 173.722 42.8 173.223C42.7944 172.724 42.9361 172.235 43.2073 171.816C43.4785 171.398 43.8672 171.068 44.3247 170.87C44.7821 170.671 45.2881 170.611 45.7791 170.699C46.1119 170.758 46.4295 170.883 46.7132 171.067C46.9969 171.251 47.241 171.49 47.4311 171.769C47.6211 172.049 47.7534 172.363 47.82 172.695C47.8867 173.026 47.8864 173.368 47.8191 173.699ZM48.6891 167.069C48.9511 167.117 49.2201 167.113 49.4806 167.058C49.7411 167.002 49.9881 166.896 50.2075 166.744C50.4268 166.593 50.6143 166.4 50.7591 166.177C50.904 165.953 51.0034 165.703 51.0516 165.441C51.0999 165.179 51.0961 164.91 51.0404 164.65C50.9847 164.389 50.8783 164.142 50.7272 163.923C50.5761 163.704 50.3832 163.516 50.1596 163.371C49.936 163.227 49.6861 163.127 49.4241 163.079C48.895 162.981 48.3489 163.098 47.9058 163.403C47.4628 163.709 47.1591 164.177 47.0616 164.706C46.9642 165.235 47.0809 165.782 47.3861 166.225C47.6913 166.668 48.16 166.971 48.6891 167.069Z" fill="#01004F"/>
<path d="M56.6105 162.119C49.1105 151.259 32.0405 155.099 29.9705 167.864C29.5515 170.002 29.6186 172.207 30.1666 174.316C30.7147 176.424 31.7299 178.383 33.1369 180.046C34.544 181.71 36.3071 183.036 38.2957 183.926C40.2843 184.816 42.4476 185.248 44.6255 185.189C57.1055 185.189 63.0005 171.419 56.6105 162.119ZM53.4605 178.619C53.4515 178.662 53.4292 178.701 53.397 178.73C53.3647 178.76 53.324 178.779 53.2805 178.784C47.7076 179.531 42.0712 179.687 36.4655 179.249C36.4208 179.243 36.3788 179.224 36.3443 179.195C36.3098 179.165 36.2842 179.127 36.2705 179.084C34.7806 173.564 34.5043 167.786 35.4605 162.149C35.4673 162.101 35.4905 162.057 35.526 162.024C35.5615 161.992 35.6073 161.972 35.6555 161.969C41.69 161.276 47.7874 161.342 53.8055 162.164C53.8502 162.172 53.8913 162.194 53.9234 162.226C53.9556 162.258 53.9772 162.299 53.9855 162.344C54.9251 167.753 54.7464 173.297 53.4605 178.634V178.619Z" fill="#01004F"/>
</svg>
