<svg width="300" height="300" viewBox="0 0 300 300" fill="none" xmlns="http://www.w3.org/2000/svg">
<path d="M216.946 73.4996C219.381 75.0341 221.311 77.2512 222.496 79.8746C224.085 83.5961 225.203 87.5013 225.826 91.4996C224.906 91.5239 223.992 91.6395 223.096 91.8446C222.991 91.8446 222.391 92.1596 222.286 92.4896C221.805 94.1526 221.439 95.8466 221.191 97.5596L191.191 97.7396C190.846 97.7396 190.891 98.1446 191.191 98.1596C191.191 98.1596 218.581 98.5797 221.191 98.5947C220.531 104.055 221.086 110.055 224.956 113.925C228.601 117.525 240.991 118.035 245.596 114.6C249.421 111.735 250.366 103.455 250.096 98.5947C250.996 98.5947 271.276 98.2346 273.286 98.1596C273.341 98.1596 273.395 98.1375 273.434 98.0981C273.473 98.0588 273.496 98.0053 273.496 97.9496C273.496 97.894 273.473 97.8405 273.434 97.8011C273.395 97.7618 273.341 97.7396 273.286 97.7396C269.866 97.7396 250.051 97.5896 250.051 97.5896C249.646 93.0896 248.551 92.6396 248.551 92.4296C248.538 92.2908 248.482 92.1594 248.391 92.0543C248.299 91.9492 248.176 91.8758 248.041 91.8446C246.736 91.5896 245.41 91.4541 244.081 91.4396C246.181 88.0646 247.981 78.8846 251.281 72.7346C256.171 63.5696 274.576 72.2996 274.276 64.1996C273.916 55.1996 263.926 50.1446 253.201 54.9146C243.016 59.4146 240.361 80.4146 240.181 91.3796C237.106 91.3796 238.591 91.4696 234.181 91.3796C238.036 86.2496 242.941 69.1496 242.086 57.1946C241.106 49.2608 237.767 41.8038 232.501 35.7896C227.881 30.6146 222.466 28.4246 218.386 32.5796C212.386 38.5796 217.906 45.2846 223.036 52.0796C228.676 59.5796 230.791 63.3146 231.556 73.9946C231.914 79.7891 231.804 85.603 231.226 91.3796H229.561C230.851 87.1646 229.186 77.8796 227.971 73.5146C226.231 67.3496 223.261 61.1396 218.551 56.8646C212.986 52.0603 206.22 48.8609 198.976 47.6096C194.551 46.8596 190.771 47.1446 188.716 48.3746C187.96 48.7677 187.376 49.4264 187.077 50.224C186.778 51.0216 186.785 51.9016 187.096 52.6946C189.586 60.8396 207.196 67.4996 216.946 73.4996ZM253.501 55.8746C263.536 51.3746 272.776 56.0996 273.091 64.2596C273.331 70.5146 255.286 62.7596 250.366 72.3446C246.946 78.9746 245.431 88.2446 243.361 91.4546H242.296C243.796 84.8396 247.471 70.1246 251.791 64.9196C257.311 58.1846 266.926 62.1146 267.346 62.0096C267.511 62.0096 267.676 61.7396 267.181 61.5596C261.181 59.3846 255.076 59.4296 250.996 64.2596C246.091 70.0496 243.001 83.9996 241.711 91.4996H240.421C240.826 80.9996 243.766 60.1496 253.501 55.8746ZM232.321 73.9796C231.721 63.3896 229.771 59.5046 223.846 51.4796C218.986 44.9546 213.781 38.7296 219.151 33.2846C222.811 29.5646 227.581 31.7846 231.721 36.4646C236.79 42.3329 239.987 49.584 240.901 57.2846C241.876 69.4346 236.926 86.8796 233.401 91.3946H232.606C234.21 84.5262 235.249 77.5378 235.711 70.4996C236.056 64.4996 235.951 60.3296 234.211 55.1096C232.781 51.1352 230.796 47.383 228.316 43.9646C227.132 42.2786 225.828 40.6795 224.416 39.1796C224.38 39.1359 224.328 39.1081 224.272 39.1025C224.216 39.0969 224.159 39.1138 224.116 39.1496C224.072 39.1854 224.044 39.2372 224.038 39.2934C224.033 39.3497 224.05 39.4059 224.086 39.4496C224.461 39.8422 224.812 40.2581 225.136 40.6946C229.816 46.6946 234.436 55.4546 234.796 63.1946C235.156 70.9346 233.611 83.8496 232.186 91.4996H231.766C232.428 85.6846 232.614 79.825 232.321 73.9796ZM247.606 93.1196C250.081 95.3846 249.301 110.43 244.816 113.79C240.331 117.15 228.646 116.355 225.466 113.28C220.456 108.465 220.966 99.4496 222.676 92.7596C222.782 92.8998 222.928 93.0044 223.096 93.0596C224.249 93.3258 225.423 93.4865 226.606 93.5396C225.137 98.9832 225.394 104.748 227.341 110.04C227.412 110.191 227.541 110.307 227.698 110.364C227.856 110.42 228.029 110.411 228.181 110.34C228.332 110.268 228.448 110.139 228.505 109.982C228.561 109.824 228.552 109.651 228.481 109.5C226.591 105.72 226.081 97.3196 227.176 93.6446C231.856 93.8546 244.381 93.9446 247.606 93.1196ZM217.906 57.6296C228.076 66.6296 230.686 86.5646 229.111 91.4246H228.181C227.968 87.2565 227.242 83.1304 226.021 79.1396C222.781 68.6396 217.351 62.1896 209.026 57.3296C204.677 54.8421 200.023 52.9311 195.181 51.6446C195.125 51.6307 195.066 51.6395 195.017 51.669C194.968 51.6986 194.932 51.7464 194.918 51.8021C194.904 51.8578 194.913 51.9168 194.942 51.966C194.972 52.0152 195.02 52.0507 195.076 52.0646C200.728 53.8569 206.093 56.4535 211.006 59.7746C216.453 63.401 220.706 68.5572 223.231 74.5946C225.626 79.9314 227.145 85.6193 227.731 91.4396H226.321C225.766 87.3226 224.697 83.2912 223.141 79.4396C221.924 76.67 219.928 74.3142 217.396 72.6596C207.481 66.5546 190.396 59.8646 188.116 52.3646C186.001 45.4796 206.386 47.3096 217.906 57.6296ZM88.2006 134.865C68.2206 127.92 50.3106 124.815 39.1656 122.01C39.0276 121.971 38.8831 121.96 38.741 121.979C38.5988 121.997 38.4618 122.044 38.3381 122.117C38.2145 122.189 38.1068 122.286 38.0215 122.401C37.9362 122.517 37.875 122.648 37.8417 122.787C37.8084 122.927 37.8035 123.071 37.8275 123.213C37.8514 123.354 37.9036 123.489 37.981 123.61C38.0584 123.731 38.1594 123.834 38.2779 123.915C38.3964 123.996 38.53 124.052 38.6706 124.08C45.8406 125.805 56.6706 127.785 68.3856 130.5C87.7356 135 88.1556 136.335 88.4706 135.405C88.5042 135.297 88.4949 135.181 88.4445 135.08C88.3942 134.979 88.3068 134.902 88.2006 134.865ZM246.526 147C246.526 146.964 246.519 146.929 246.505 146.896C246.491 146.864 246.472 146.834 246.446 146.809C246.421 146.784 246.392 146.764 246.359 146.75C246.326 146.737 246.291 146.73 246.256 146.73C233.101 146.73 220.306 149.73 213.061 150.405C212.972 150.412 212.887 150.437 212.808 150.478C212.73 150.52 212.661 150.576 212.605 150.645C212.549 150.714 212.507 150.793 212.482 150.878C212.458 150.963 212.45 151.052 212.461 151.14C212.468 151.228 212.493 151.315 212.534 151.394C212.575 151.473 212.632 151.543 212.7 151.6C212.768 151.657 212.847 151.7 212.932 151.727C213.017 151.753 213.107 151.763 213.196 151.755C218.506 151.23 227.701 149.22 236.311 148.11C245.866 147 246.541 147.675 246.526 147ZM201.211 178.215C201.224 178.19 201.232 178.163 201.234 178.135C201.237 178.108 201.234 178.08 201.225 178.053C201.217 178.027 201.203 178.002 201.185 177.981C201.167 177.96 201.145 177.942 201.121 177.93L200.746 177.735L200.656 178.185C200.911 178.305 201.106 178.5 201.211 178.215Z" fill="#01004F"/>
<path d="M292.32 181.965C288.465 181.17 278.94 181.485 275.01 181.83C278.25 170.76 281.595 156.33 282.945 148.38C283.434 146.18 283.646 143.927 283.575 141.675C283.526 141.473 283.435 141.283 283.309 141.118C283.182 140.952 283.023 140.815 282.84 140.715C276.84 136.95 213.975 145.215 209.595 147.39C208.29 148.035 207.12 151.29 206.595 152.76C202.71 146.37 203.115 144.855 198.78 134.76C196.079 128.185 192.653 121.931 188.565 116.115C188.67 115.32 192.825 84.2849 188.37 75.9899C185.37 70.4399 169.125 68.4899 162.87 67.9649C162.87 67.6349 162.09 61.9649 161.76 59.3999C167.04 54.9899 169.26 46.8749 163.53 45.5099C159.465 44.5499 143.415 41.4899 131.46 44.5799C123.96 46.5299 117.96 50.9099 117.45 59.5799C117.249 62.8721 117.45 66.1765 118.05 69.4199C110.295 70.2749 96.9454 71.5499 90.1354 74.1149C81.3754 77.4149 85.0654 115.74 85.9954 118.845C85.4854 120.105 85.0054 121.38 84.5704 122.565C62.7454 117 13.8904 106.62 11.7154 106.815C11.1489 106.808 10.5895 106.941 10.087 107.203C9.58449 107.465 9.15454 107.847 8.83542 108.315C8.25042 108.45 8.04042 109.275 7.93542 109.815C6.43542 117.795 9.15042 165.45 9.63042 173.535C10.4254 176.445 33.5404 182.76 36.5404 183.585C36.6904 187.53 37.4854 207.12 37.6504 211.14C36.3454 210.902 35.0537 210.597 33.7804 210.225C31.1104 209.13 20.8804 219.09 21.7804 218.265C17.8654 221.745 60.4654 233.19 63.8704 232.23C67.2754 231.27 74.0104 224.835 72.8704 221.25C72.5552 220.612 72.0236 220.107 71.3704 219.825C68.1454 218.13 59.6104 216.045 56.0554 215.19C56.4004 207.93 56.4004 196.02 56.3854 188.79C60.6004 189.84 84.5254 195.63 88.8454 195.555C89.1551 195.559 89.4604 195.482 89.7304 195.33C91.1104 195.135 92.7304 194.79 92.8654 193.38C92.8654 192.96 93.2104 189.3 93.6454 183.87C104.22 187.905 117.045 187.605 119.325 186.675C119.94 186.378 120.46 185.916 120.825 185.34C120.93 185.475 120.975 185.445 121.77 185.565C124.77 186.045 129.57 186.495 132.27 185.085C136.095 185.7 147.18 186.585 148.005 182.88C148.11 182.385 148.26 181.38 148.41 180.165C159.51 180.765 198.93 180.495 199.08 180.495L198.165 184.62C198.142 184.586 198.111 184.558 198.074 184.54C198.037 184.522 197.996 184.513 197.955 184.515C197.955 184.395 197.955 184.425 197.955 184.515C191.813 184.031 185.65 183.871 179.49 184.035C177.3 184.14 171.525 184.41 171.42 186.54C170.653 188.35 170.542 190.371 171.105 192.255C171.435 193.44 174.225 195.36 175.26 196.065C169.395 195.48 165.975 195.705 164.205 196.335C163.784 196.408 163.392 196.597 163.072 196.88C162.752 197.163 162.516 197.529 162.392 197.938C162.268 198.347 162.259 198.782 162.368 199.196C162.476 199.609 162.697 199.985 163.005 200.28C165.015 203.04 169.2 203.97 169.65 207.585C170.505 214.44 153.075 222.195 146.715 224.91C149.91 220.71 158.475 207.495 154.32 204.3C149.7 200.745 110.085 199.185 106.44 200.115C103.875 200.775 85.0204 214.71 85.3654 219.615C85.6054 222.81 104.16 225.945 107.61 226.545C111.495 227.205 139.215 231.525 142.53 229.41C143.233 229.126 143.872 228.704 144.408 228.168C144.944 227.632 145.367 226.993 145.65 226.29C151.394 224.315 156.923 221.762 162.15 218.67C170.4 213.555 175.02 207.225 166.86 201.9C165.885 201.27 163.215 199.35 163.605 198.27C164.445 195.885 176.04 196.77 176.205 196.77C181.59 200.28 191.895 205.695 197.97 207.27C204.39 208.965 234.39 205.68 241.635 204.765C242.46 207.765 243.255 210.555 243.78 212.265C242.655 212.355 239.445 212.64 238.545 213.345C238.05 213.735 238.065 214.395 238.86 214.845C238.86 219.87 238.245 234.9 239.745 241.68C240.315 244.215 240.975 245.265 243.6 246.18C248.565 247.785 258.105 247.215 263.1 245.88C266.205 245.04 266.61 244.38 267.105 242.73C268.815 237.12 268.725 220.56 268.605 214.68C268.701 214.61 268.78 214.519 268.834 214.413C268.887 214.308 268.916 214.191 268.916 214.072C268.916 213.954 268.887 213.837 268.834 213.731C268.78 213.626 268.701 213.534 268.605 213.465C267.496 212.95 266.301 212.645 265.08 212.565C265.29 210.885 266.415 201.495 266.58 199.845C267.364 199.375 268.064 198.776 268.65 198.075C269.567 196.96 270.164 195.617 270.375 194.19C271.875 192.225 274.035 184.89 274.74 182.49C281.43 182.775 291.24 182.385 292.155 182.49C292.225 182.512 292.3 182.505 292.365 182.471C292.43 182.438 292.479 182.38 292.5 182.31C292.522 182.24 292.516 182.165 292.482 182.1C292.448 182.035 292.39 181.987 292.32 181.965ZM89.5654 214.335C90.5704 213.225 91.7554 212.07 93.0154 210.9C98.3704 205.95 105.18 200.97 106.665 200.595C110.265 199.665 149.805 202.095 153.825 205.095C154.5 205.605 154.635 206.595 154.5 207.78C153.96 212.49 149.04 220.26 146.175 224.055C142.935 221.265 93.8554 214.92 89.5654 214.335ZM163.065 69.0449C168.795 69.5849 184.86 71.4299 187.62 76.4399C191.52 83.4899 189.12 107.535 188.16 115.44C187.32 114.315 186.45 113.25 185.565 112.275C180.48 106.695 171.75 103.89 164.355 102.465C159.605 101.638 154.813 101.072 150 100.77C149.85 100.77 150.09 100.995 148.905 98.5649C147.135 94.9199 147.03 94.9799 147.21 94.8749C149.177 94.7702 151.125 94.4379 153.015 93.8849C158.085 92.3849 161.1 89.3849 162.525 82.0949C163.299 77.774 163.461 73.3658 163.005 68.9999L163.065 69.0449ZM150.15 101.235C151.095 101.37 151.35 101.355 151.425 101.4C151.425 101.775 154.71 119.4 143.46 120.21C134.16 120.975 128.04 107.925 124.74 99.2099C125.94 99.0149 126.9 98.8799 127.545 98.7899C127.86 105.63 137.7 118.035 143.16 117.165C149.295 116.16 152.31 106.83 150.15 101.235ZM127.755 73.6349C127.89 72.9657 128.189 72.3407 128.627 71.8167C129.064 71.2928 129.626 70.8865 130.26 70.6349C133.26 69.8999 133.26 73.6349 135.645 73.4249C138.645 73.2299 135.3 66.2699 137.88 62.0249C140.685 57.3449 152.055 66.8099 161.25 59.7899C162.36 67.6949 163.575 73.8449 161.88 81.9149C160.38 88.9949 157.59 91.6049 152.775 93.0149C150.797 93.4703 148.793 93.8109 146.775 94.0349C146.614 94.1258 146.479 94.2561 146.382 94.4134C146.285 94.5708 146.229 94.7502 146.22 94.9349C146.22 95.4599 147.72 98.1449 149.115 101.28C151.2 106.2 148.485 115.14 142.995 115.995C139.095 116.61 131.46 107.865 129.285 101.685C128.325 98.9549 128.61 98.8499 130.305 88.1849C132.69 88.3499 133.185 83.6849 133.305 81.2699C133.33 80.7579 133.152 80.2567 132.81 79.8749C131.73 78.6899 130.845 80.0699 128.745 77.4449C128.287 76.9356 127.958 76.3237 127.786 75.6606C127.613 74.9976 127.603 74.3028 127.755 73.6349ZM118.26 70.4999C120.27 79.6799 125.55 86.0549 129.18 87.8249C128.52 92.0399 127.77 96.7349 127.575 98.1599C118.92 98.5941 110.384 100.365 102.27 103.41C98.6674 104.79 95.3095 106.739 92.3254 109.185C90.6754 100.635 94.9204 83.9249 94.3954 79.1849C94.1554 77.1749 93.5854 75.0449 91.6204 74.6099C98.3404 72.4949 110.79 71.2949 118.26 70.4999ZM90.7204 74.9999C91.0789 75.0121 91.4312 75.0968 91.756 75.2489C92.0809 75.401 92.3715 75.6173 92.6104 75.8849C93.2866 76.9053 93.6275 78.1114 93.5854 79.3349C93.9154 83.8349 89.2504 100.425 91.8754 109.62C89.3469 111.991 87.4321 114.94 86.2954 118.215C85.0954 110.91 83.1004 77.6549 90.7204 74.9999ZM36.8254 143.34C36.9454 142.635 38.2354 142.32 38.9404 142.2C44.1454 141.345 54.9604 144.315 54.7204 147.93C54.3604 153.285 56.0104 218.175 54.6004 220.56C52.9204 223.425 43.7404 221.835 40.0804 219.285C38.4154 218.13 38.4454 217.14 38.4904 217.335C37.2154 166.26 36.6154 144.51 36.8254 143.34ZM71.5954 221.745C72.3604 224.295 66.3454 230.16 63.5554 230.94C60.7654 231.72 19.6354 221.07 22.3204 218.64C21.0754 219.765 29.0104 212.46 32.5054 211.29C32.784 211.151 33.1024 211.114 33.4054 211.185C33.8104 211.365 35.4004 211.77 37.6954 212.31C37.8304 215.475 37.9204 217.35 37.9204 217.35C38.8054 221.76 52.9204 225.09 55.3804 221.025C55.7571 219.584 55.9585 218.104 55.9804 216.615C58.2754 217.185 70.0504 220.05 71.5954 221.745ZM88.8454 194.28C84.9004 194.43 60.3454 188.67 56.3854 187.74C56.3104 170.16 55.9504 150.45 56.1304 148.02C56.4904 142.5 42.4504 139.5 37.5004 141.12C37.0099 141.228 36.5591 141.47 36.1987 141.82C35.8383 142.169 35.5827 142.613 35.4604 143.1C35.1304 145.095 36.4204 180.6 36.4954 182.73C34.0504 182.07 11.1454 175.965 10.2004 173.52C9.94542 168 7.50042 114.63 9.24042 109.575C17.4004 111.615 87.0904 125.67 91.9954 129.075C93.2254 132.45 90.4204 189.51 88.8454 194.28ZM92.3704 193.395C92.3704 194.4 91.0354 194.745 90.0454 194.895C91.6654 191.01 94.8904 131.895 93.2404 128.415C91.5904 124.935 16.3354 110.31 9.30042 108.345C9.61329 108.006 9.9942 107.738 10.4182 107.557C10.8421 107.376 11.2995 107.287 11.7604 107.295C13.8454 107.145 90.7954 124.335 95.2654 126.795C96.0154 128.955 95.2654 144 95.1604 146.475C94.8904 152.445 92.4304 192.585 92.3704 193.395ZM132.87 183.24C131.115 185.58 124.89 185.295 121.965 185.025H121.245C122.58 182.342 123.336 179.409 123.465 176.415C124.965 175.995 130.455 174.72 131.295 176.07C131.55 176.46 130.74 176.925 130.32 177.15C129.211 177.664 128.049 178.057 126.855 178.32C126.678 178.354 126.522 178.456 126.421 178.606C126.319 178.755 126.282 178.938 126.315 179.115C126.349 179.292 126.452 179.448 126.601 179.55C126.75 179.651 126.933 179.689 127.11 179.655C128.61 179.445 132.705 178.875 134.16 179.37C133.561 180.202 132.7 180.809 131.715 181.095C130.313 181.085 128.912 181.201 127.53 181.44C127.331 181.477 127.153 181.587 127.029 181.748C126.906 181.908 126.846 182.109 126.861 182.311C126.876 182.513 126.964 182.703 127.11 182.843C127.256 182.984 127.448 183.067 127.65 183.075C129.174 183.119 130.695 182.911 132.15 182.46C132.53 182.476 132.902 182.567 133.245 182.73C133.149 182.932 133.005 183.107 132.825 183.24H132.87ZM147.06 182.715C146.997 182.949 146.878 183.163 146.713 183.341C146.549 183.519 146.344 183.654 146.115 183.735C143.34 185.235 136.335 184.965 133.215 184.65C134.37 183.765 135.045 182.325 133.875 181.53C136.185 180.03 135.945 178.425 134.43 177.96C133.449 177.722 132.435 177.651 131.43 177.75C132.375 177.045 132.72 176.25 132.15 175.395C131.325 174.225 129.15 174.375 127.8 174.6C127.158 168.661 126.828 162.693 126.81 156.72C130.815 159.63 144.09 159.72 148.725 156.96C148.95 162 147.435 180.525 147 182.715H147.06ZM134.19 179.31C134.19 179.31 134.145 179.34 134.145 179.31H134.19ZM166.38 179.64C169.155 171.525 169.545 154.335 169.38 145.74C171.705 149.475 184.38 167.385 184.47 167.535C184.778 168.006 185.141 168.439 185.55 168.825C188.573 171.587 191.965 173.914 195.63 175.74C199.545 177.81 199.86 177.705 199.83 177.87L199.305 180.12C199.05 180.105 168.675 179.64 166.335 179.64H166.38ZM172.845 186.375C176.07 184.125 198 185.145 198.24 184.995V185.16C196.14 195.21 195.33 198.84 195.075 200.16C195.21 199.575 196.035 195.66 196.98 191.325C197.64 188.145 198.48 184.365 199.335 180.36C199.725 178.53 199.98 177.36 199.995 177.27C195.885 175.095 189.615 171.345 186.33 168.03C185.505 167.19 169.56 145.095 169.41 144.84C169.26 144.585 169.26 138 169.095 137.7C169.064 137.666 169.023 137.642 168.978 137.633C168.932 137.623 168.885 137.627 168.842 137.645C168.8 137.663 168.764 137.694 168.739 137.733C168.715 137.773 168.703 137.819 168.705 137.865C168.555 137.865 168.705 169.935 165.93 179.595L148.65 179.76C148.755 178.92 148.86 177.945 148.98 176.895C155.94 177.78 159.105 170.145 157.26 163.92C156.165 160.5 153.345 159.975 150.12 161.625C150.27 159.628 150.27 157.622 150.12 155.625C150.26 155.28 150.284 154.9 150.189 154.54C150.094 154.181 149.886 153.861 149.595 153.63C147.36 151.53 141.105 151.305 138.06 151.305C135.015 151.305 128.745 151.545 126.525 153.63C126.331 153.78 126.176 153.976 126.075 154.2C124.935 156.255 127.125 174.27 127.395 174.66C126.089 174.92 124.801 175.266 123.54 175.695V173.295C123.45 168.06 106.71 165.15 106.14 162.165C105.945 161.145 105.63 158.865 105.27 156.165C103.245 141.345 103.545 141.915 103.215 141.915C103.16 141.915 103.106 141.937 103.067 141.976C103.028 142.016 103.005 142.069 103.005 142.125C103.005 142.53 104.625 158.85 105.21 162.315C105.795 165.78 122.415 169.14 122.49 173.295C122.49 176.535 121.77 184.575 118.965 185.73C117.27 186.45 104.16 187.11 93.7054 183.435C93.9304 180.525 98.1004 128.43 96.0904 126.12C95.3254 125.235 86.3404 122.985 85.2004 122.7C89.7004 112.5 93.0304 104.1 124.32 99.1949C125.189 102.107 126.252 104.959 127.5 107.73C130.68 114.525 136.065 121.86 143.52 121.23C152.085 120.495 153.465 111.21 152.1 102.735C152.01 102.135 151.92 101.745 151.845 101.4C155.961 101.812 160.052 102.443 164.1 103.29C171.165 104.79 179.85 107.64 184.695 113.01C189.93 118.77 194.505 127.665 197.715 134.775C202.335 145.005 202.305 147.645 206.28 153.54C203.485 162.36 201.142 171.316 199.26 180.375C198.66 183.18 197.76 187.455 196.905 191.34C195.66 197.34 194.91 201.135 194.985 200.34C194.85 201.15 194.985 201.12 194.985 201.315C190.095 199.134 185.377 196.587 180.87 193.695C179.295 192.645 171.255 187.5 172.845 186.345V186.375ZM150 164.685C150 163.905 150.09 163.185 150.12 162.435C152.835 161.34 155.25 161.505 155.985 164.34C157.485 169.485 155.115 176.34 149.07 176.34C149.07 175.62 149.325 173.565 149.355 173.34C156.255 174.27 156.21 161.64 150 164.685ZM149.415 172.695C149.625 170.325 149.805 167.82 149.955 165.465C150.674 165.243 151.442 165.243 152.16 165.465C153.945 166.11 153.66 172.305 149.34 172.695H149.415ZM198.48 205.98C192.708 204.092 187.124 201.671 181.8 198.75C180.3 197.955 172.53 193.725 172.005 192.09C171.552 190.63 171.505 189.074 171.87 187.59C173.88 191.505 186.63 198.09 190.725 200.025C192.6 200.91 194.535 201.661 196.515 202.275C203.445 204.75 233.175 200.775 240.48 199.875C240.57 200.19 241.2 202.605 241.44 203.475C235.08 204.21 204.45 207.555 198.405 205.98H198.48ZM265.5 243.705C263.31 245.565 250.17 247.125 243.975 245.205C241.725 244.5 241.275 243.78 240.735 241.5C240.243 239.026 239.933 236.519 239.805 234C242.88 235.89 248.52 236.37 252.135 236.475C257.58 236.595 262.935 236.475 267.315 234C267.225 235.59 266.715 242.67 265.5 243.705ZM267.36 233.415C264.402 234.681 261.219 235.339 258 235.35C253.71 235.56 243.66 235.53 239.775 233.46C239.61 230.64 239.505 227.625 239.46 224.82C240.96 226.62 248.955 227.43 252.15 227.535C257.85 227.655 263.145 227.535 267.705 224.835C267.705 224.685 267.66 228.24 267.375 233.415H267.36ZM267.705 224.31C260.205 228.09 241.59 226.38 239.445 224.31V215.085C244.215 216.78 263.07 216.66 267.795 215.085C267.765 216.81 267.78 220.32 267.72 224.31H267.705ZM264.705 214.215C264.759 214.23 264.816 214.224 264.866 214.199C264.916 214.174 264.955 214.132 264.975 214.08C264.975 214.08 264.975 213.81 265.065 213.33C266.032 213.463 266.986 213.679 267.915 213.975C264.63 215.475 244.86 215.61 239.925 214.155C239.892 214.144 239.862 214.123 239.842 214.095C239.821 214.067 239.81 214.033 239.81 213.997C239.81 213.962 239.821 213.928 239.842 213.9C239.862 213.871 239.892 213.85 239.925 213.84C241.3 213.466 242.706 213.215 244.125 213.09C244.225 213.507 244.376 213.91 244.575 214.29C244.695 214.41 244.89 214.425 244.875 214.125C244.86 213.825 239.94 194.4 239.19 190.125C239.957 190.381 240.776 190.445 241.573 190.311C242.371 190.178 243.123 189.851 243.765 189.36C245.415 193.98 250.68 214.77 250.995 214.77C251.052 214.766 251.106 214.741 251.145 214.699C251.184 214.657 251.206 214.602 251.205 214.545L250.77 212.52H252.84C252.84 212.805 253.005 214.26 253.02 214.365C253.035 214.47 253.47 214.725 253.44 214.17C253.44 212.82 252.18 190.455 252.15 190.05C252.366 189.946 252.592 189.865 252.825 189.81C252.99 190.62 258.27 212.01 258.675 213.675C258.675 213.825 258.675 214.08 258.96 214.02C259.245 213.96 259.125 213.69 258.96 212.715L261.255 212.88V213.135C261.255 213.375 261.63 213.315 261.675 213.135C261.675 213.3 264.465 184.515 264.675 182.22C265.071 182.52 265.525 182.732 266.009 182.843C266.492 182.954 266.994 182.962 267.48 182.865C267.45 183.09 264.375 214.11 264.69 214.215H264.705ZM251.205 184.395C251.027 182.952 250.397 181.603 249.405 180.54C251.46 181.155 251.895 181.605 252.405 183.015C252.811 184.138 252.92 185.347 252.72 186.525C252.517 187.266 252.517 188.049 252.72 188.79C252.475 188.846 252.234 188.922 252 189.015C251.07 186.36 249 186.39 249 183.72C248.998 182.755 248.856 181.795 248.58 180.87C249.307 182.186 250.103 183.463 250.965 184.695C251.115 184.89 251.4 184.605 251.22 184.395H251.205ZM251.955 203.325C252.03 204.06 252.615 210.435 252.765 212.055H250.62C250.17 210.03 249.495 207.03 248.73 203.82L251.955 203.325ZM251.865 202.17L248.445 202.62C248.145 201.375 247.83 200.115 247.515 198.87C248.895 198.675 250.245 198.465 251.55 198.255C251.61 198.9 251.82 201.51 251.88 202.17H251.865ZM256.53 201.48C256.29 200.34 255.705 197.76 255.66 197.61C256.965 197.385 261.405 196.62 262.32 196.44C262.32 197.085 262.065 199.815 262.005 200.505C260.55 200.82 258.69 201.15 256.5 201.48H256.53ZM261.945 201.48C261.675 205.365 261.255 211.86 261.24 212.22C260.46 212.22 259.635 212.19 258.765 212.13C258.405 210.315 256.86 203.04 256.755 202.545C258.78 202.14 260.52 201.78 261.96 201.435L261.945 201.48ZM264.81 180.975C264.993 179.074 265.289 177.186 265.695 175.32C266.096 175.2 266.518 175.171 266.931 175.236C267.343 175.301 267.736 175.458 268.08 175.695C267.99 177.58 267.79 179.458 267.48 181.32C267.345 181.845 267.315 181.98 266.97 182.025C266.295 182.07 264.93 181.5 264.825 180.93L264.81 180.975ZM266.775 198.855C266.91 197.745 267.045 196.62 267.165 195.495C268.054 195.308 268.927 195.053 269.775 194.73C269.303 196.404 268.243 197.852 266.79 198.81L266.775 198.855ZM269.28 193.485C268.647 193.737 267.995 193.937 267.33 194.085C267.6 191.565 269.19 176.895 269.19 175.86C269.19 174.36 266.52 173.805 265.14 174.36C264.675 174.57 264.54 175.455 264.405 176.235C263.655 180.42 262.77 190.86 262.425 195.105L255.39 196.395C253.635 188.745 253.785 189.165 253.59 188.97C253.456 188.842 253.28 188.768 253.095 188.76C252.957 188.092 252.993 187.4 253.2 186.75C253.511 185.453 253.469 184.096 253.08 182.82C252.881 181.892 252.347 181.07 251.58 180.51C250.36 179.863 249.043 179.417 247.68 179.19C247.609 179.171 247.534 179.169 247.462 179.184C247.389 179.2 247.322 179.232 247.264 179.279C247.207 179.326 247.162 179.386 247.133 179.454C247.103 179.522 247.09 179.596 247.095 179.67C247.127 179.797 247.168 179.923 247.215 180.045C248.385 182.835 247.575 184.11 248.385 185.775C249.195 187.44 250.56 187.695 251.055 189.615C251.055 189.765 251.475 196.695 251.49 197.115L247.245 197.79C246.945 196.65 244.89 188.535 244.08 187.74C242.58 186.24 238.29 187.92 238.08 189.24C237.945 189.99 240 198.03 240.195 198.795C232.47 199.92 224.28 200.94 217.035 201.615C213.87 201.9 194.535 203.67 195.615 200.505C197.115 193.575 200.115 180.855 200.715 178.185V177.975C200.715 177.75 200.82 177.525 200.715 178.185C200.715 177.96 200.805 177.825 200.835 177.75L204.585 163.245C205.08 161.46 208.485 149.325 210.21 148.47C214.035 146.58 276.9 138.45 282.21 142.005C283.11 145.86 272.055 191.655 269.295 193.5L269.28 193.485Z" fill="#01004F"/>
<path d="M147.766 72.8404V71.6854C147.766 71.4984 147.691 71.3191 147.559 71.1869C147.427 71.0547 147.248 70.9804 147.061 70.9804C146.872 70.9804 146.691 71.0542 146.557 71.186C146.422 71.3178 146.344 71.4971 146.341 71.6854V73.0354C146.374 73.2138 146.474 73.3726 146.622 73.4786C146.769 73.5846 146.952 73.6297 147.131 73.6046C147.311 73.5795 147.474 73.486 147.587 73.3437C147.699 73.2014 147.753 73.0211 147.736 72.8404H147.766ZM243.631 165.15C243.196 164.73 242.581 164.235 242.011 164.415C241.066 164.715 240.121 167.115 239.716 168.105C238.578 171.06 237.675 174.099 237.016 177.195C237.631 178.785 248.011 176.7 249.421 176.01C249.871 175.8 249.811 175.26 249.661 174.78C248.176 171.27 246.141 168.019 243.631 165.15ZM237.421 177C237.691 175.755 241.111 166.215 242.281 165.345C244.096 166.38 247.741 172.74 248.716 175.14C247.366 175.68 238.201 178.005 237.421 177ZM115.291 208.815C115.141 208.92 111.871 210.99 111.721 211.14C111.685 211.155 111.655 211.18 111.633 211.212C111.612 211.244 111.601 211.282 111.601 211.32C111.601 211.359 111.612 211.397 111.633 211.429C111.655 211.461 111.685 211.486 111.721 211.5C112.561 211.74 115.366 212.055 116.221 212.145C136.741 207 136.876 207 136.621 207C136.759 206.982 136.884 206.91 136.971 206.801C137.057 206.692 137.098 206.554 137.086 206.415C137.086 206.16 136.681 204.39 136.561 203.85L115.291 208.815ZM155.041 66.5704C155.461 66.5704 156.286 66.7654 156.451 66.7804C157.361 66.8749 158.263 67.0353 159.151 67.2604L160.501 67.5004C160.552 67.5132 160.606 67.5075 160.654 67.4843C160.701 67.4611 160.739 67.4218 160.761 67.3735C160.782 67.3251 160.786 67.2707 160.771 67.2199C160.757 67.169 160.724 67.125 160.681 67.0954C159.898 66.4324 158.949 65.9966 157.936 65.8354C156.932 65.6203 155.888 65.7091 154.936 66.0904C154.904 66.0973 154.874 66.1103 154.848 66.1288C154.821 66.1472 154.799 66.1707 154.781 66.1978C154.764 66.225 154.752 66.2553 154.746 66.2871C154.741 66.3188 154.741 66.3514 154.748 66.3829C154.755 66.4144 154.768 66.4443 154.786 66.4708C154.805 66.4972 154.828 66.5198 154.855 66.5373C154.883 66.5547 154.913 66.5665 154.945 66.5722C154.976 66.5779 155.009 66.5773 155.041 66.5704ZM143.161 67.8904C143.566 67.8004 144.436 67.6654 144.661 67.6354C145.57 67.4369 146.492 67.3065 147.421 67.2454L148.921 67.0804C148.98 67.0804 149.037 67.0567 149.08 67.0145C149.122 66.9723 149.146 66.9151 149.146 66.8554C149.146 66.7957 149.122 66.7385 149.08 66.6963C149.037 66.6541 148.98 66.6304 148.921 66.6304C147.954 66.2205 146.893 66.0835 145.854 66.2342C144.814 66.385 143.836 66.8177 143.026 67.4854C142.99 67.4854 142.955 67.4939 142.923 67.5101C142.891 67.5264 142.864 67.5499 142.843 67.5789C142.822 67.6078 142.808 67.6412 142.803 67.6765C142.798 67.7117 142.801 67.7478 142.812 67.7816C142.823 67.8154 142.843 67.8461 142.868 67.871C142.893 67.896 142.924 67.9146 142.958 67.9252C142.992 67.9358 143.029 67.9382 143.064 67.9322C143.099 67.9261 143.132 67.9118 143.161 67.8904ZM158.161 70.5004C157.974 70.5004 157.794 70.5747 157.662 70.7069C157.53 70.8391 157.456 71.0184 157.456 71.2054V72.5554C157.481 72.7424 157.58 72.9114 157.731 73.0254C157.881 73.1393 158.071 73.1888 158.258 73.1629C158.445 73.1371 158.614 73.038 158.728 72.8875C158.842 72.737 158.891 72.5474 158.866 72.3604V71.2054C158.868 71.1123 158.851 71.0197 158.816 70.9332C158.781 70.8468 158.729 70.7682 158.664 70.7024C158.598 70.6365 158.519 70.5846 158.433 70.5499C158.346 70.5152 158.254 70.4984 158.161 70.5004ZM41.7455 200.73C43.8305 201.405 48.6906 203.22 50.9256 202.95C51.1956 202.95 51.4955 202.68 51.6905 202.2C53.1905 198.825 52.1106 181.665 51.5706 178.35C51.1956 175.965 42.5705 173.01 40.4855 174.705C39.1355 175.8 39.8105 188.505 39.9605 190.275C40.3505 194.55 39.9455 200.145 41.7455 200.73ZM41.1605 175.5C42.7805 174.33 50.2955 177.105 50.5355 178.5C50.9105 180.855 52.3055 200.655 50.8055 202.2C48.8705 202.485 43.7406 200.91 41.8056 200.31C40.4406 199.86 40.9056 193.89 40.6806 190.2C40.5756 187.71 40.4105 177.825 41.1605 175.5ZM147.751 81.8254C147.713 81.8069 147.672 81.7973 147.631 81.7973C147.589 81.7973 147.548 81.8069 147.511 81.8254C147.136 81.9604 146.911 82.3804 146.851 82.9954C146.802 84.5846 147.335 86.1368 148.351 87.3604C148.588 87.6852 148.889 87.9588 149.235 88.1649C149.581 88.371 149.965 88.5053 150.364 88.5599C150.763 88.6145 151.169 88.5882 151.557 88.4826C151.946 88.3771 152.309 88.1944 152.626 87.9454C153.53 87.2013 154.24 86.2491 154.696 85.1704C154.737 85.0863 154.758 84.994 154.758 84.9004C154.758 84.8068 154.737 84.7145 154.696 84.6304C154.231 83.9104 153.121 84.9304 147.751 81.8254ZM147.616 82.3354C149.245 83.7232 151.153 84.7461 153.211 85.3354C150.001 90.7954 146.776 83.4304 147.616 82.3354ZM151.291 78.8104C152.251 78.9904 154.906 78.6604 155.476 77.6854C155.761 77.2204 155.476 77.0704 154.846 75.1504C154.278 73.4824 153.612 71.8495 152.851 70.2604C152.581 69.8404 152.236 70.2604 152.431 70.5154C152.847 72.8152 153.511 75.0632 154.411 77.2204C153.325 77.7284 152.213 78.179 151.081 78.5704C151.079 78.6 151.082 78.6297 151.092 78.6577C151.101 78.6858 151.116 78.7117 151.136 78.734C151.155 78.7563 151.179 78.7746 151.205 78.7877C151.232 78.8008 151.261 78.8085 151.291 78.8104ZM206.611 234.795C212.236 231.225 207.856 227.94 204.136 229.5C203.221 227.835 203.011 227.7 201.136 227.79C191.401 228.285 147.436 238.455 147.016 238.62C144.796 239.535 150.436 252.78 152.671 254.52C153.181 254.91 153.016 254.985 158.521 253.905C158.881 257.175 160.306 262.905 163.636 263.085C165.188 262.801 166.699 262.328 168.136 261.675C170.917 264.443 173.879 267.023 177.001 269.4C180.451 271.71 202.501 245.955 205.801 242.955C206.746 242.64 207.586 242.43 207.481 240.09C210.331 239.565 212.536 237.81 211.021 235.29C210.001 233.76 208.231 234 206.611 234.795ZM207.136 230.715C207.751 230.94 208.066 231.18 207.871 231.795C207.466 232.735 206.874 233.583 206.131 234.285C205.733 233.065 205.267 231.869 204.736 230.7C205.512 230.421 206.363 230.426 207.136 230.715ZM191.176 230.22C191.731 232.845 192.106 234.27 192.811 236.685L182.416 238.65C181.818 236.48 181.122 234.338 180.331 232.23C182.296 231.855 189.571 230.49 191.176 230.22ZM175.801 250.245C176.351 252.13 177.164 253.928 178.216 255.585C175.336 256.98 172.621 258.255 170.311 259.305C169.482 256.79 168.316 254.398 166.846 252.195L175.801 250.245ZM171.556 250.245C171.049 247.639 170.408 245.061 169.636 242.52L181.636 239.925C182.29 242.466 183.081 244.97 184.006 247.425C179.881 248.295 175.576 249.27 171.556 250.185V250.245ZM176.551 250.32C176.386 250.08 175.366 250.44 186.406 247.905C186.601 249.02 187.013 250.085 187.621 251.04L178.831 255.345C178.309 253.553 177.541 251.842 176.551 250.26V250.32ZM187.051 247.74C192.751 246.42 197.986 245.16 201.601 244.2L188.356 250.665C188.11 249.6 187.673 248.589 187.066 247.68L187.051 247.74ZM184.516 247.275C184.034 244.716 183.424 242.183 182.686 239.685L192.931 237.165C192.931 237.24 193.621 239.55 193.936 240.54C194.086 240.99 195.361 244.62 195.436 244.68C192.331 245.37 184.756 247.155 184.501 247.215L184.516 247.275ZM179.881 232.38C180.376 235.11 180.841 236.88 181.381 238.92L169.381 241.56C168.676 239.175 168.196 237.615 167.161 234.915C169.501 234.375 178.081 232.665 179.896 232.32L179.881 232.38ZM166.666 235.005C167.251 238.005 167.686 239.58 168.316 241.8C167.311 242.025 159.106 244.08 159.106 244.08C158.806 244.08 158.926 244.545 159.226 244.485C159.226 244.485 168.121 242.835 168.571 242.73C168.571 242.73 169.216 245.31 171.061 250.365L161.386 252.525C160.002 247.293 158.263 242.161 156.181 237.165L166.666 235.005ZM153.091 254.01C150.811 252.3 145.591 239.7 147.166 239.01C147.166 239.01 150.601 238.26 155.761 237.18C157.047 242.437 158.762 247.58 160.891 252.555C153.001 254.325 153.346 254.145 153.106 253.95L153.091 254.01ZM163.591 261.99C161.056 261.99 159.541 256.515 159.091 254.025C159.091 253.74 158.296 254.025 166.141 252.39C166.531 252.315 165.916 252.21 167.791 256.11C168.328 257.336 168.992 258.502 169.771 259.59C167.797 260.535 165.751 261.318 163.651 261.93L163.591 261.99ZM177.571 268.41C174.521 266.274 171.591 263.97 168.796 261.51C171.376 260.445 174.301 259.08 176.821 257.88C178.794 260.174 181.029 262.228 183.481 264C182.461 264.87 178.996 268.08 177.631 268.35L177.571 268.41ZM183.916 263.55C181.934 261.339 179.716 259.352 177.301 257.625L186.721 252.99C188.033 254.338 189.552 255.467 191.221 256.335C188.862 258.776 186.446 261.162 183.976 263.49L183.916 263.55ZM191.731 255.855C190.479 254.578 189.056 253.483 187.501 252.6C193.951 249.345 197.656 247.365 203.671 244.035C201.001 246.39 194.221 253.32 191.791 255.795L191.731 255.855ZM206.041 241.755C205.396 242.22 196.561 244.38 195.796 244.56C194.84 239.653 193.44 234.843 191.611 230.19C194.521 229.695 200.281 228.69 202.426 228.93C202.716 229.272 202.967 229.644 203.176 230.04C202.152 230.736 201.305 231.66 200.701 232.74C200.551 233.115 200.941 233.31 201.136 233.13C201.886 232.337 202.763 231.673 203.731 231.165C204.411 232.572 205.002 234.02 205.501 235.5C204.168 236.412 202.967 237.502 201.931 238.74C201.736 238.98 201.796 239.16 201.931 239.235C202.291 239.445 202.321 238.905 205.861 236.805C206.218 238.02 206.42 239.275 206.461 240.54C206.386 240.81 206.341 241.5 206.101 241.695L206.041 241.755ZM209.776 237.735C209.106 238.503 208.262 239.099 207.316 239.475C207.177 238.406 206.962 237.348 206.671 236.31C207.646 235.815 209.161 235.185 209.671 236.1C209.863 236.311 209.982 236.577 210.012 236.861C210.042 237.144 209.98 237.43 209.836 237.675L209.776 237.735Z" fill="#01004F"/>
</svg>
