<svg width="137" height="27" viewBox="0 0 137 27" fill="none" xmlns="http://www.w3.org/2000/svg">
<path d="M8.90114 26.3312H3.74958V13.3517H0.240234V9.12585H3.74944V6.11886C3.74944 2.55557 5.30157 0 10.4392 0C11.5258 0 13.2317 0.221358 13.2317 0.221358V4.14529H11.4399C9.61425 4.14529 8.90141 4.70656 8.90141 6.25828V9.12585H13.1634L12.7839 13.3517H8.90128L8.90114 26.3312ZM20.7215 8.78815C20.6465 8.78815 20.5692 8.79092 20.4928 8.79285C15.716 8.79285 13.5305 12.4244 13.5305 17.5795C13.5305 24.0735 16.3654 26.6726 20.5301 26.6726C22.9129 26.6726 24.4785 25.6589 25.43 23.7673V26.3329H30.3299V9.12765H25.43V11.7736C24.6531 10.0713 23.0438 8.80832 20.7215 8.78815ZM21.9674 12.8537C23.9737 12.8537 25.1779 14.2681 25.1779 16.6739L25.1826 19.1311C25.1826 20.7526 24.188 22.6496 21.9674 22.6496C18.5536 22.6496 18.6448 18.9241 18.6448 17.6833C18.6448 13.5094 20.4637 12.8537 21.9674 12.8537ZM32.3087 17.7312C32.3087 15.6405 32.2097 8.79934 41.0284 8.79934C44.5684 8.79934 46.0465 9.93695 46.0465 9.93695L44.8585 13.6612C44.8585 13.6612 43.3822 12.8396 41.4586 12.8396C38.9949 12.8396 37.4228 14.2831 37.4228 16.823L37.4255 18.6441C37.4255 21.0846 38.9424 22.7137 41.4637 22.7137C43.2161 22.7137 44.8313 21.8844 44.8313 21.8844L46.0163 25.5308C46.0163 25.5308 44.6647 26.6756 41.0531 26.6756C32.6564 26.6756 32.3088 20.5378 32.3088 17.7312H32.3087ZM74.7763 8.79285C79.5532 8.79285 81.7732 12.4244 81.7732 17.5795C81.7732 24.0735 78.9381 26.6726 74.7734 26.6726C72.3906 26.6726 70.6291 25.6591 69.6776 23.7673V26.3329L64.8394 26.331V0.523135L69.9763 0.0703317V11.5405C70.7177 9.53375 73.1543 8.79285 74.7764 8.79285H74.7763ZM73.3361 12.8537C71.3298 12.8537 69.9763 14.2681 69.9763 16.6739L69.9715 19.1311C69.9685 20.7526 70.9089 22.6496 73.3361 22.6496C76.7499 22.6496 76.6587 18.9241 76.6587 17.6833C76.6587 13.5094 74.84 12.8537 73.3361 12.8537ZM54.9595 8.80708C49.5415 8.80708 46.6812 11.7927 46.6812 17.0984V18.0841C46.6812 24.9704 50.698 26.7433 55.4868 26.7433C60.1416 26.7433 62.2485 25.4275 62.2485 25.4275L61.2873 21.9233C61.2873 21.9233 58.8089 22.9891 56.1027 22.9891C53.2973 22.9891 52.0908 22.2664 51.7816 19.5416H62.6592V16.7304C62.6592 10.9751 59.449 8.80694 54.9594 8.80694L54.9595 8.80708ZM55.0901 12.3159C56.9656 12.3159 58.1808 13.4783 58.1141 16.174H51.791C51.9007 13.3368 53.2112 12.3161 55.0901 12.3161V12.3159ZM92.016 8.78345C86.4521 8.78345 83.523 11.9524 83.523 17.6313C83.523 25.4231 88.5722 26.6773 92.0253 26.6773C97.0805 26.6773 100.444 23.9266 100.444 17.702C100.444 11.2234 96.6622 8.78345 92.016 8.78345ZM91.9461 12.8678C94.3926 12.8678 95.362 14.7184 95.362 16.8249V18.636C95.362 21.1878 94.0055 22.6638 91.9368 22.6638C90.002 22.6638 88.6422 21.2832 88.6422 18.636V16.8249C88.6422 14.0017 90.2602 12.8678 91.9461 12.8678ZM110.677 8.78345C105.113 8.78345 102.184 11.9524 102.184 17.6313C102.184 25.4231 107.234 26.6773 110.687 26.6773C115.742 26.6773 119.105 23.9266 119.105 17.702C119.105 11.2234 115.323 8.78345 110.677 8.78345ZM110.607 12.8678C113.054 12.8678 114.023 14.7184 114.023 16.8249V18.636C114.023 21.1878 112.667 22.6638 110.598 22.6638C108.663 22.6638 107.304 21.2832 107.304 18.636V16.8249C107.304 14.0017 108.922 12.8678 110.607 12.8678ZM121.046 26.3312V0.523135L126.198 0.0703317V17.3685L131.309 9.12585H136.75L131.418 17.6628L136.955 26.3312H131.499L126.198 17.9143V26.3312H121.046Z" fill="#0F0F0F" fill-opacity="0.8"/>
</svg>
