<svg width="122" height="36" viewBox="0 0 122 36" fill="none" xmlns="http://www.w3.org/2000/svg">
<path d="M17.2111 28.7001L7.75794 13.0059C5.35807 9.02185 6.53268 3.77514 10.3833 1.28831C11.3456 0.666714 12.3848 0.278219 13.4388 0.105034C16.6004 -0.415455 19.9022 1.0162 21.7023 4.0059C21.9884 4.41655 22.2385 4.83531 22.4588 5.26344C23.1843 6.67138 23.5763 8.18167 23.7125 9.73331C24.3785 17.166 19.2488 25.5892 17.2111 28.7001Z" fill="#3B3C3F"/>
<path d="M40.5701 12.1672C40.1946 11.0253 39.6164 10.0161 38.891 9.16989C36.7137 6.63593 33.2196 5.56125 29.9439 6.73969C29.4626 6.87574 29.005 7.04237 28.5672 7.2363C27.1211 7.87241 25.8759 8.81572 24.8031 9.96029C25.4805 17.6018 20.2603 26.2612 18.1863 29.4587L35.3798 23.278C39.7479 21.7094 42.07 16.7326 40.5701 12.1672Z" fill="#3B3C3F"/>
<path d="M1.30438 20.6604C1.40796 23.2237 4.32507 26.903 6.60367 28.4824C6.62503 28.4971 6.64208 28.5089 6.64973 28.5138C6.69626 28.5529 6.72482 28.6013 6.71745 28.6339C6.70907 28.6706 6.68515 28.8122 6.62413 28.7803C6.60919 28.7706 6.59423 28.7615 6.57944 28.7514C6.54416 28.7278 6.4767 28.6874 6.46545 28.6806C3.178 26.695 1.50042 24.2179 1.50038 24.2179C0.6171 22.9143 -0.508534 20.625 0.250561 19.8397C0.385915 19.6998 0.72463 19.4598 0.96985 19.5737C1.29234 19.7237 1.2943 20.413 1.30438 20.6604Z" fill="#3B3C3F"/>
<path d="M4.07297 18.5884C3.59217 21.1047 5.59315 25.3904 7.44983 27.4792C7.4672 27.4985 7.48118 27.5144 7.48736 27.521C7.52368 27.5703 7.54044 27.6246 7.5259 27.6547C7.50947 27.6882 7.45405 27.8202 7.40202 27.7739C7.38974 27.7613 7.37738 27.7482 7.36506 27.7351C7.33624 27.7038 7.27991 27.6477 7.27049 27.6385C4.52532 24.909 3.45654 22.0939 3.45654 22.0939C2.89364 20.6111 2.31877 18.1129 3.23473 17.5337C3.3981 17.4309 3.78176 17.2799 3.99426 17.4504C4.27367 17.6743 4.11935 18.3446 4.07297 18.5884Z" fill="#3B3C3F"/>
<path d="M28.43 35.3928C24.4149 35.2593 13.7979 34.5332 7.80299 29.0866C15.6954 27.8826 24.9892 33.2474 28.43 35.3928Z" fill="#3B3C3F"/>
<path d="M59.097 26.7097C58.4438 26.7097 57.9406 26.5331 57.5875 26.18C57.2521 25.827 57.0844 25.3238 57.0844 24.6706V16.4612H56.131C55.0894 16.4612 54.5686 15.9669 54.5686 14.9782C54.5686 13.9719 55.0894 13.4687 56.131 13.4687H57.0844C57.1197 11.668 57.6052 10.3174 58.5409 9.41701C59.4942 8.49898 60.8713 7.95168 62.672 7.77514L63.5194 7.69569C64.1021 7.64273 64.5258 7.75748 64.7906 8.03996C65.0731 8.30478 65.2231 8.63138 65.2408 9.01979C65.2761 9.40819 65.1878 9.76128 64.9759 10.0791C64.7817 10.3792 64.4904 10.5469 64.1021 10.5822L63.7313 10.6087C62.778 10.6793 62.0983 10.9088 61.6922 11.2972C61.2861 11.668 61.0831 12.2417 61.0831 13.0186V13.4687H62.9633C64.0049 13.4687 64.5258 13.9719 64.5258 14.9782C64.5258 15.9669 64.0049 16.4612 62.9633 16.4612H61.0831V24.6706C61.0831 26.03 60.4211 26.7097 59.097 26.7097ZM70.8814 26.7626C67.7565 26.7626 66.1941 25.0237 66.1941 21.5457V9.60239C66.1941 8.24298 66.865 7.56328 68.2067 7.56328C69.5308 7.56328 70.1929 8.24298 70.1929 9.60239V21.3868C70.1929 22.1107 70.3429 22.6491 70.6431 23.0022C70.9609 23.3377 71.3757 23.5054 71.8877 23.5054C72.029 23.5054 72.1614 23.4965 72.2849 23.4789C72.4262 23.4612 72.5586 23.4524 72.6822 23.4524C72.9647 23.4348 73.1589 23.523 73.2648 23.7172C73.3884 23.9114 73.4501 24.3087 73.4501 24.9089C73.4501 25.9329 73.0176 26.5155 72.1525 26.6567C71.976 26.6744 71.773 26.692 71.5435 26.7097C71.3139 26.745 71.0933 26.7626 70.8814 26.7626Z" fill="#3B3C3F"/>
<path d="M79.8275 26.7626C78.168 26.7626 76.941 26.3036 76.1465 25.3856C75.3697 24.4676 74.9813 23.0905 74.9813 21.2544V15.2695C74.9813 13.9278 75.6434 13.2569 76.9675 13.2569C78.3092 13.2569 78.9801 13.9278 78.9801 15.2695V21.3603C78.9801 22.8963 79.6422 23.6643 80.9662 23.6643C81.7254 23.6643 82.3433 23.3994 82.82 22.8698C83.3143 22.3225 83.5615 21.6075 83.5615 20.7248V15.2695C83.5615 13.9278 84.2235 13.2569 85.5476 13.2569C86.8894 13.2569 87.5602 13.9278 87.5602 15.2695V24.6706C87.5602 26.03 86.9158 26.7097 85.6271 26.7097C84.9915 26.7097 84.506 26.5331 84.1706 26.18C83.8351 25.827 83.6674 25.3326 83.6674 24.6971C82.8023 26.0741 81.5224 26.7626 79.8275 26.7626Z" fill="#3B3C3F"/>
<path d="M97.0366 26.7626C93.3821 26.7626 91.5549 24.9884 91.5549 21.4398V16.4612H90.4426C89.401 16.4612 88.8802 15.9669 88.8802 14.9782C88.8802 13.9719 89.401 13.4687 90.4426 13.4687H91.5549V11.4561C91.5549 10.0967 92.2257 9.41701 93.5675 9.41701C94.8916 9.41701 95.5536 10.0967 95.5536 11.4561V13.4687H98.0694C99.0934 13.4687 99.6054 13.9719 99.6054 14.9782C99.6054 15.9669 99.0934 16.4612 98.0694 16.4612H95.5536V21.2809C95.5536 22.0224 95.7213 22.5785 96.0568 22.9493C96.4099 23.32 96.966 23.5054 97.7251 23.5054C97.99 23.5054 98.2371 23.4789 98.4666 23.4259C98.6961 23.373 98.908 23.3377 99.1022 23.32C99.3494 23.3023 99.5524 23.3818 99.7113 23.5583C99.8702 23.7349 99.9496 24.0968 99.9496 24.6441C99.9496 25.0855 99.879 25.465 99.7378 25.7828C99.5965 26.0829 99.3494 26.3036 98.9963 26.4449C98.7668 26.5331 98.449 26.6038 98.0429 26.6567C97.6545 26.7273 97.3191 26.7626 97.0366 26.7626Z" fill="#3B3C3F"/>
<path d="M103.427 26.7097C102.05 26.7097 101.361 26.03 101.361 24.6706V15.2695C101.361 13.9278 102.014 13.2569 103.321 13.2569C104.627 13.2569 105.28 13.9278 105.28 15.2695V15.7462C105.916 14.1749 107.231 13.3275 109.226 13.2039C109.668 13.1686 110.003 13.2834 110.232 13.5482C110.48 13.7954 110.612 14.2102 110.63 14.7928C110.665 15.3401 110.55 15.7727 110.285 16.0905C110.038 16.4082 109.615 16.6024 109.014 16.673L108.405 16.726C106.428 16.9202 105.439 17.9265 105.439 19.7449V24.6706C105.439 26.03 104.768 26.7097 103.427 26.7097Z" fill="#3B3C3F"/>
<path d="M114.34 26.7097C112.963 26.7097 112.274 26.03 112.274 24.6706V15.2695C112.274 13.9278 112.928 13.2569 114.234 13.2569C115.541 13.2569 116.194 13.9278 116.194 15.2695V15.7462C116.829 14.1749 118.145 13.3275 120.14 13.2039C120.581 13.1686 120.916 13.2834 121.146 13.5482C121.393 13.7954 121.525 14.2102 121.543 14.7928C121.578 15.3401 121.464 15.7727 121.199 16.0905C120.952 16.4082 120.528 16.6024 119.928 16.673L119.319 16.726C117.341 16.9202 116.353 17.9265 116.353 19.7449V24.6706C116.353 26.03 115.682 26.7097 114.34 26.7097Z" fill="#3B3C3F"/>
</svg>
