<svg width="113" height="37" viewBox="0 0 113 37" fill="none" xmlns="http://www.w3.org/2000/svg">
<path d="M14.3054 0H15.2986C18.7469 0.075763 22.1389 1.47738 24.5751 3.95862C23.6756 4.88671 22.7573 5.77693 21.8765 6.70503C20.5085 5.45494 18.8593 4.48896 17.0602 4.14802C14.3991 3.5798 11.5318 4.0912 9.30166 5.6254C6.8654 7.23537 5.21624 9.96284 4.86017 12.8797C4.46662 15.7587 5.27246 18.7892 7.12777 21.0242C8.90811 23.2024 11.6255 24.5662 14.4365 24.6609C17.0602 24.8124 19.7963 23.9979 21.7079 22.1417C23.2071 20.8348 23.9005 18.846 24.1254 16.9141C21.0145 16.9141 17.9035 16.933 14.7926 16.9141V13.0123H27.8922C28.5669 17.1982 27.5924 21.9144 24.444 24.9071C22.345 27.0285 19.4403 28.2785 16.4793 28.5248C13.612 28.8089 10.651 28.2596 8.10227 26.858C5.04757 25.2101 2.61131 22.4258 1.41192 19.1491C0.287495 16.1375 0.268755 12.7282 1.31822 9.69767C2.27398 6.93231 4.11055 4.48896 6.47185 2.78429C8.73945 1.09856 11.4943 0.170467 14.3054 0Z" fill="#0F0F0F" fill-opacity="0.8"/>
<path d="M89.4551 0.985352H93.4655V28.0327C92.135 28.0327 90.7856 28.0516 89.4551 28.0138C89.4738 19.0169 89.4551 10.0011 89.4551 0.985352Z" fill="#0F0F0F" fill-opacity="0.8"/>
<path d="M36.8123 10.3604C39.286 9.88689 41.9659 10.4172 44.0086 11.9135C45.8639 13.2394 47.157 15.3228 47.5506 17.5957C48.0566 20.2285 47.4194 23.1074 45.7328 25.1909C43.9149 27.5206 40.9352 28.7707 38.0304 28.5813C35.3693 28.4297 32.7831 27.085 31.2089 24.8878C29.4285 22.4634 28.9975 19.1299 29.972 16.2888C30.9465 13.2394 33.7014 10.9097 36.8123 10.3604ZM37.3745 13.9591C36.3625 14.2243 35.4255 14.8114 34.7508 15.6448C32.933 17.8419 33.0454 21.4217 35.0507 23.4673C36.1938 24.6416 37.918 25.1909 39.5109 24.8689C40.9914 24.6037 42.2845 23.5999 42.9966 22.274C44.2335 20.0201 43.8774 16.9139 41.9847 15.1524C40.7665 14.0159 38.9862 13.5424 37.3745 13.9591Z" fill="#0F0F0F" fill-opacity="0.8"/>
<path d="M56.6755 10.3608C59.5053 9.81154 62.5975 10.607 64.7152 12.6148C68.1634 15.74 68.5383 21.5927 65.596 25.1915C63.8157 27.4643 60.9296 28.7144 58.0811 28.5819C55.3637 28.5061 52.6838 27.1424 51.0721 24.8884C49.2543 22.4072 48.8607 18.9978 49.8915 16.0999C50.9222 13.1451 53.6208 10.8912 56.6755 10.3608ZM57.2377 13.9596C56.2258 14.2247 55.2887 14.8119 54.6141 15.6264C52.815 17.7856 52.89 21.3086 54.8202 23.3731C55.9634 24.6043 57.7437 25.2104 59.3929 24.8695C60.8547 24.5853 62.1665 23.6004 62.8786 22.2746C64.0968 20.0017 63.7407 16.8954 61.8292 15.1339C60.611 13.9975 58.8307 13.5429 57.2377 13.9596Z" fill="#0F0F0F" fill-opacity="0.8"/>
<path d="M73.5254 11.459C75.6805 10.0953 78.5478 9.71645 80.8716 10.8908C81.6025 11.2128 82.2022 11.762 82.7832 12.3113C82.8019 11.7999 82.7832 11.2696 82.8019 10.7392C84.0575 10.7582 85.3131 10.7392 86.5875 10.7582V27.4639C86.5687 29.983 85.9316 32.6537 84.1325 34.4909C82.1647 36.5176 79.1475 37.1426 76.4301 36.7259C73.5254 36.2903 70.9954 34.15 69.871 31.4414C70.9954 30.8922 72.176 30.4565 73.338 29.9451C73.9939 31.4983 75.3244 32.8241 76.9923 33.1272C78.6603 33.4302 80.5905 33.0135 81.6775 31.6119C82.8394 30.1724 82.8394 28.2026 82.7832 26.4411C81.9211 27.2934 80.9279 28.0511 79.7285 28.3352C77.1235 29.0739 74.2562 28.1647 72.251 26.3843C70.227 24.6038 69.0276 21.8574 69.1401 19.13C69.1963 16.0426 70.9204 13.069 73.5254 11.459ZM77.4046 13.8834C76.2615 14.0728 75.1933 14.7168 74.4624 15.607C72.7008 17.7284 72.7008 21.1188 74.4811 23.2022C75.4931 24.4334 77.1235 25.1152 78.6977 24.9448C80.1782 24.7933 81.5463 23.8462 82.2772 22.5393C83.514 20.3232 83.3079 17.3117 81.64 15.3797C80.6093 14.1865 78.9601 13.5993 77.4046 13.8834Z" fill="#0F0F0F" fill-opacity="0.8"/>
<path d="M98.2789 12.4251C100.528 10.3037 103.995 9.58397 106.881 10.7015C109.617 11.7432 111.36 14.376 112.241 17.0845C108.174 18.7892 104.126 20.4749 100.059 22.1796C100.622 23.2592 101.484 24.2441 102.645 24.6419C104.276 25.229 106.225 25.0207 107.593 23.9221C108.136 23.5054 108.567 22.9561 108.98 22.4258C110.01 23.1266 111.041 23.8085 112.072 24.5093C110.61 26.7253 108.155 28.2785 105.513 28.5247C102.589 28.8846 99.4783 27.7481 97.5855 25.4374C94.4746 21.8007 94.7745 15.7018 98.2789 12.4251ZM100.284 15.9291C99.647 16.8572 99.3846 17.9937 99.4034 19.1112C102.121 17.9747 104.838 16.8383 107.555 15.6829C107.106 14.6222 106.019 13.9782 104.913 13.8077C103.133 13.4858 101.277 14.4517 100.284 15.9291Z" fill="#0F0F0F" fill-opacity="0.8"/>
</svg>
