<svg width="380" height="378" viewBox="0 0 380 378" fill="none" xmlns="http://www.w3.org/2000/svg">
<path d="M0.200012 15.9622C0.35202 12.1802 0.634003 8.40015 0.894012 4.62015C0.894012 0.206151 4.55002 -0.721849 6.522 1.07815C20.908 14.6142 45.374 35.8442 58.672 47.4782C59.1662 47.9144 59.5167 48.49 59.6776 49.1293C59.8386 49.7685 59.8022 50.4415 59.5735 51.0597C59.3448 51.678 58.9343 52.2125 58.3961 52.5931C57.8579 52.9737 57.2171 53.1826 56.558 53.1922C56.648 53.5262 56.732 53.8642 56.806 54.2082C79.816 62.8606 103.271 70.2811 127.07 76.4382C132.002 77.7262 145.204 80.9202 146.858 81.3222C146.389 79.9944 145.463 78.8766 144.246 78.1682C138.398 74.0822 136.998 74.7682 134.23 71.9122C133.607 71.2549 133.233 70.4005 133.172 69.4967C133.112 68.5928 133.369 67.6964 133.9 66.9622C135.066 65.6682 137.348 65.4562 137.782 63.9122C138.668 60.7282 133.142 55.9122 133.43 51.6202C133.758 46.7362 140.03 40.1162 149.564 38.7342C154.994 37.8713 160.536 38.0191 165.912 39.1702C169.948 40.0048 173.641 42.0323 176.512 44.9902C178.77 47.3362 182.16 50.0742 183.3 53.1902C183.98 54.9902 184.208 57.0682 185.7 58.0942C186.296 58.4146 186.952 58.6078 187.626 58.6615C188.301 58.7152 188.979 58.6282 189.618 58.4062C196.458 56.6801 200.592 49.6462 207.13 46.5942C210.04 45.2786 213.259 44.8025 216.425 45.2195C219.59 45.6365 222.576 46.9301 225.046 48.9542C226.175 50.2134 227.585 51.1885 229.162 51.8002C230.132 51.9712 231.129 51.9268 232.08 51.6702C239.496 49.7662 244.51 44.9322 251.65 43.9342C254.97 43.483 258.351 43.8438 261.501 44.9857C264.651 46.1275 267.478 48.0163 269.738 50.4902C270.847 51.5785 271.692 52.9068 272.207 54.3727C272.722 55.8387 272.894 57.4033 272.71 58.9462C271.71 63.1301 267.196 65.2122 265.298 65.9142C262.098 67.0982 258.542 67.9482 255.946 70.2402C255.528 70.551 255.213 70.9802 255.042 71.4722C254.676 72.6202 255.94 73.6722 257.09 73.9402C258.388 74.0433 259.678 74.2256 260.954 74.4862C260.984 74.4921 261.012 74.5079 261.032 74.531C261.053 74.5542 261.065 74.5834 261.067 74.6142C261.069 74.645 261.061 74.6756 261.044 74.7013C261.026 74.727 261.001 74.7463 260.972 74.7561C257.975 75.8337 254.781 76.2519 251.608 75.9822C250.024 75.796 248.535 75.1251 247.346 74.0612C246.158 72.9973 245.326 71.5923 244.966 70.0382C244.857 69.1137 244.814 68.1827 244.836 67.2522C244.472 64.0522 242.342 64.7421 239.714 66.6122C236.801 68.7195 233.435 70.1161 229.885 70.6905C226.336 71.2649 222.701 71.0011 219.272 69.9202C216.578 69.0582 214.98 66.2762 212.144 66.2762C211.45 66.277 210.77 66.4731 210.182 66.8419C209.594 67.2108 209.121 67.7376 208.818 68.3622C208.598 69.2496 208.331 70.1248 208.018 70.9842C215.081 71.5663 222.009 73.2493 228.552 75.9722C232.143 77.483 235.337 79.8034 237.884 82.7522C240.449 82.146 243.119 82.146 245.684 82.7522C252.084 84.3862 254.12 90.0962 255.1 94.3622C255.108 94.4874 255.081 94.6124 255.021 94.723C254.962 94.8335 254.873 94.9252 254.764 94.9877C254.655 95.0501 254.531 95.0808 254.405 95.0763C254.28 95.0718 254.158 95.0323 254.054 94.9622C250.219 92.2118 245.979 90.0768 241.486 88.6342C243.266 93.2918 243.414 98.4155 241.906 103.168C245.85 104.204 250.142 105.132 252.576 108.454C254.641 111.411 255.831 114.89 256.01 118.492C256.679 127.899 255.445 137.345 252.382 146.264C252.357 146.342 252.321 146.415 252.274 146.482C254.756 147.83 257.16 149.318 259.474 150.938C261.041 151.767 262.626 152.567 264.23 153.338C264.224 153.293 264.224 153.247 264.23 153.202C264.276 152.59 264.514 152.008 264.908 151.538C265.303 151.068 265.835 150.734 266.43 150.582C268.231 150.12 270.081 149.875 271.94 149.852C283.494 148.724 283.21 148.652 284.968 148.652C285.701 148.567 286.443 148.673 287.122 148.959C287.802 149.246 288.396 149.704 288.846 150.288C288.991 150.538 289.079 150.816 289.105 151.104C289.13 151.392 289.092 151.681 288.994 151.953C288.895 152.224 288.738 152.471 288.534 152.675C288.33 152.879 288.083 153.036 287.812 153.134C282.434 156.548 280.926 155.566 276.912 158.408C306.03 167.948 332.132 163.314 334.392 163.772C334.806 163.962 335.188 164.215 335.526 164.52C337.234 163.132 339.035 161.862 340.916 160.72C341.574 160.329 342.336 160.15 343.099 160.205C343.862 160.261 344.59 160.55 345.184 161.032C346.66 162.12 347.784 163.476 349.138 164.588C354.68 169.14 361.494 171.138 361.662 174.622C361.756 176.566 360.162 176.68 359.462 176.73C353.308 177.042 348.914 174.588 340.24 174.414C339.688 174.402 339.604 174.426 339.44 174.35C339.21 178.836 334.942 180.864 330.694 182.206C299.318 192.174 260.938 191.876 221.55 177.382C219.973 176.632 218.355 175.972 216.704 175.404C223.104 184.058 223.552 184.452 224.548 186.638C228.712 185.07 229.87 184.392 231.578 183.724C236.407 185.624 241.387 187.114 246.466 188.18C250.966 189.133 255.524 189.79 260.11 190.148C258.408 191.918 259.382 191.282 243.192 206.804C239.247 211.101 234.623 214.72 229.504 217.516C225.934 219.359 222.001 220.39 217.986 220.536C214.224 220.315 210.598 219.051 207.514 216.886C201.373 212.671 195.853 207.617 191.114 201.87C181.44 190.188 180.254 189.972 173.138 176.618C171.538 177.618 157.2 175.588 149.386 155.966C147.384 150.617 145.656 145.169 144.208 139.644C141.196 129.948 139.12 119.986 138.008 109.894C126.776 107.154 120.388 103.432 102.368 94.7202C90.6506 89.1171 79.4129 82.5618 68.768 75.1202C62.9388 70.8965 57.5407 66.108 52.652 60.8242C52.567 60.6936 52.5244 60.5399 52.53 60.3842C50.9781 59.7614 49.6242 58.7294 48.6123 57.3981C47.6005 56.0669 46.9686 54.4861 46.784 52.8242C46.0225 52.8241 45.2619 52.8782 44.508 52.9862C54.79 76.4462 78 107.122 93.852 128.562C141.052 192.324 209.882 272.546 279.416 310.02C281.132 310.932 296.322 319.732 297.364 318.712L288.826 327.402C306.658 339.36 326.85 347.348 348.036 350.826C348.216 350.84 348.385 350.918 348.514 351.044C348.552 351.122 348.572 351.207 348.572 351.294C348.572 351.381 348.552 351.466 348.514 351.544C347.914 354.594 345.914 355.07 336.13 363.544C347.862 370.274 360.64 374.554 380 376.814V377.228C354.446 379.922 330.306 372.382 318.55 365.646C322.722 362.018 328.242 359.736 332.436 356.086C318.768 352.718 286.652 344.068 267.748 331.532C270.572 328.664 277.482 324.296 280.33 321.428C279.352 322.514 260.904 312.344 258.948 311.324C216.6 288.942 180.04 260.8 143.632 225.342C131.986 214.022 120.432 202.896 109.562 190.924C94.926 174.796 61.822 135.422 32.272 94.4682C25.7482 85.8727 19.796 76.8579 14.454 67.4822C13.978 66.5302 13.326 66.6562 12.932 67.6122C12.042 69.7841 11.26 71.7402 10.52 73.8121C10.2715 74.4826 9.81088 75.0537 9.20822 75.4385C8.60556 75.8234 7.89377 76.001 7.18094 75.9444C6.46811 75.8879 5.79324 75.6002 5.25882 75.1251C4.7244 74.65 4.35968 74.0134 4.22 73.3121C0.797241 54.3987 -0.55072 35.1681 0.200012 15.9622ZM339.418 173.24C343.591 173.072 347.766 173.52 351.808 174.572C354.308 175.057 356.846 175.316 359.392 175.346C360.352 175.244 360.01 174.186 359.622 173.708C357.252 171.162 355.52 171.378 347.47 165.206C346.032 163.956 344.154 161.282 342.32 161.806C341.284 162.243 340.325 162.842 339.478 163.58L336.44 165.706C337.932 167.99 338.945 170.553 339.418 173.24ZM275.818 158.056C276.415 157.071 277.346 156.334 278.442 155.978C281.38 154.952 284.205 153.628 286.874 152.028C287.146 151.844 287.458 151.564 287.402 151.268C287.328 150.868 286.696 150.41 286.056 150.268C284.816 150.08 284.764 150.178 268.93 151.742C267.354 151.896 265.808 152.142 265.708 153.252C265.709 153.379 265.676 153.504 265.612 153.614C265.548 153.724 265.455 153.814 265.344 153.876C268.756 155.459 272.252 156.855 275.816 158.056H275.818ZM158.718 57.1222C156.585 56.1242 154.503 55.0188 152.482 53.8102C151.718 53.4372 150.868 53.2762 150.021 53.3441C149.174 53.412 148.361 53.7063 147.666 54.1962C147.914 54.293 148.133 54.4497 148.306 54.652C148.478 54.8544 148.598 55.0963 148.654 55.3562C148.658 55.4941 148.613 55.629 148.529 55.7382C148.445 55.8474 148.325 55.9242 148.191 55.9557C148.057 55.9871 147.916 55.9713 147.792 55.9109C147.668 55.8506 147.568 55.7493 147.51 55.6242C147.456 55.5162 147.368 55.4293 147.259 55.3774C147.151 55.3256 147.028 55.3117 146.91 55.3382C146.563 55.4428 146.247 55.6318 145.99 55.8882C145.802 56.0791 145.562 56.2111 145.3 56.2682C145.198 56.2735 145.097 56.2534 145.005 56.2097C144.914 56.1661 144.834 56.1002 144.774 56.0182L144.452 56.0922C142.676 59.4252 141.567 63.0726 141.186 66.8302C141.072 68.4195 141.299 70.0148 141.85 71.5095C142.402 73.0043 143.267 74.3641 144.386 75.4982C147.168 77.9282 149.526 77.6402 150.83 79.8982C151.87 81.4322 150.06 80.6122 153.844 80.6402C157.234 80.6818 160.574 79.8129 163.514 78.1242C162.824 77.7315 162.092 77.4182 161.332 77.1902C160.24 76.8452 159.296 76.1402 158.656 75.1902C158.259 74.2236 158.227 73.1454 158.567 72.1571C158.906 71.1688 159.594 70.3381 160.502 69.8202C161.123 69.4801 161.674 69.0247 162.124 68.4781C164.084 65.3762 160.19 60.5302 162.872 57.0782C162.221 57.3754 161.514 57.5329 160.799 57.5405C160.083 57.548 159.373 57.4055 158.716 57.1222H158.718ZM170.334 65.8681C169.148 65.4561 166.688 67.1422 166.068 68.0822C165.212 69.3702 162.53 72.7402 162.526 74.0382C162.592 74.3776 162.728 74.6994 162.926 74.9826C163.124 75.2659 163.38 75.5042 163.676 75.6822C164.18 75.9822 164.671 76.3028 165.148 76.6441C165.581 76.1445 165.971 75.6093 166.314 75.0442C165.72 74.4365 165.292 73.6856 165.074 72.8642C165.068 72.8431 165.068 72.8211 165.072 72.7997C165.077 72.7784 165.086 72.7584 165.099 72.7411C165.112 72.7239 165.13 72.71 165.149 72.7005C165.169 72.691 165.19 72.6861 165.212 72.6861C170.168 72.6842 172.224 66.5201 170.332 65.8681H170.334ZM206.022 72.2962C203.646 72.8961 203.4 71.0822 185.21 72.5362C180.134 73.8262 174.598 76.5022 170.356 76.5262C170.716 77.8062 171.172 80.9762 172.634 86.0462C178.601 84.5824 184.772 84.1328 190.888 84.7162C190.975 84.6233 191.089 84.5591 191.214 84.5319C191.338 84.5048 191.468 84.516 191.586 84.564C191.704 84.612 191.805 84.6947 191.875 84.8011C191.946 84.9075 191.982 85.0326 191.98 85.1602C191.953 86.1718 191.86 87.1805 191.702 88.1802C194.092 86.7035 196.245 84.8726 198.086 82.7502C198.214 82.6553 198.371 82.6064 198.53 82.6115C198.689 82.6166 198.842 82.6753 198.964 82.7782C201.769 85.332 205.098 87.2427 208.718 88.3768C212.337 89.5109 216.161 89.841 219.922 89.3442C220.042 89.3444 220.159 89.3759 220.263 89.4354C220.367 89.495 220.453 89.5806 220.514 89.6838C220.574 89.787 220.607 89.9042 220.608 90.0239C220.61 90.1436 220.58 90.2615 220.522 90.3661C218.326 93.4442 215.51 96.0289 212.256 97.9542C211.964 98.8062 211.703 99.6668 211.472 100.536C211.472 100.536 213.12 100.632 213.81 100.662C213.93 100.68 214.042 100.732 214.134 100.81C214.226 100.889 214.295 100.991 214.332 101.107C214.369 101.222 214.373 101.345 214.345 101.463C214.316 101.58 214.254 101.687 214.168 101.772C206.754 111.73 205.116 119.728 202.568 126.884C202.386 127.397 202.326 127.946 202.392 128.486C202.459 129.027 202.651 129.545 202.952 129.998C203.859 131.771 205.354 133.172 207.182 133.962C207.996 134.132 209.224 133.362 209.838 133.02C215.847 130.198 221.472 126.62 226.576 122.374C231.432 118.403 235.453 113.508 238.406 107.974C240.073 104.971 241.055 101.636 241.283 98.2086C241.51 94.7812 240.978 91.3459 239.724 88.1482C238.042 87.733 236.328 87.4627 234.6 87.3401C231.77 87.8686 229.065 88.9264 226.628 90.4582C226.494 90.5367 226.337 90.5637 226.185 90.5342C226.032 90.5047 225.896 90.4206 225.802 90.2979C225.707 90.1751 225.661 90.022 225.671 89.8674C225.682 89.7128 225.748 89.5672 225.858 89.4582C228.258 86.1462 231.83 84.3821 236.572 83.0742C229.178 75.5562 216.528 73.1741 206.022 72.2962ZM166.156 97.0362L160.956 104.904C161.596 106.609 162.271 108.303 162.98 109.986C164.72 105.802 167.185 101.958 170.262 98.6301C169.33 95.6301 168.402 92.5761 167.65 89.5162C165.125 92.2743 163.067 95.4264 161.558 98.8482C160.558 101.028 160.758 101.166 160.128 102.632L160.356 103.272L164.988 96.2722C165.039 96.1955 165.104 96.1295 165.18 96.078C165.256 96.0266 165.342 95.9906 165.432 95.9723C165.522 95.9539 165.615 95.9534 165.705 95.9709C165.795 95.9884 165.881 96.0235 165.958 96.0742C166.035 96.1248 166.101 96.1901 166.152 96.2663C166.204 96.3425 166.24 96.4281 166.258 96.5181C166.276 96.6082 166.277 96.701 166.259 96.7913C166.242 96.8815 166.207 96.9675 166.156 97.0442V97.0362ZM173.646 116.474L169.714 123.722C172.267 128.429 175.095 132.982 178.184 137.356L182.102 128.756C181.179 127.013 180.299 125.249 179.462 123.462L176.824 128.19C176.734 128.352 176.582 128.472 176.404 128.523C176.225 128.574 176.033 128.552 175.871 128.461C175.709 128.371 175.589 128.219 175.538 128.041C175.487 127.862 175.51 127.67 175.6 127.508C178.164 122.92 178.554 122.124 178.746 121.908C176.946 117.908 175.006 112.882 173.654 109.06L169.914 116.374C169.873 116.457 169.816 116.532 169.746 116.593C169.676 116.653 169.594 116.7 169.506 116.729C169.418 116.758 169.325 116.77 169.233 116.762C169.14 116.755 169.05 116.73 168.967 116.688C168.885 116.645 168.811 116.587 168.751 116.516C168.691 116.445 168.646 116.363 168.618 116.274C168.591 116.186 168.581 116.093 168.589 116C168.598 115.908 168.624 115.818 168.668 115.736L173.018 107.23C172.738 106.409 172.462 105.581 172.19 104.748L168.896 110.548C168.851 110.628 168.79 110.698 168.717 110.755C168.645 110.811 168.562 110.853 168.473 110.877C168.384 110.902 168.292 110.909 168.2 110.897C168.109 110.886 168.021 110.857 167.941 110.811C167.861 110.766 167.791 110.705 167.734 110.632C167.678 110.56 167.636 110.477 167.612 110.388C167.587 110.299 167.581 110.207 167.592 110.116C167.603 110.024 167.633 109.936 167.678 109.856L171.6 102.934C171.51 102.648 170.74 100.182 170.74 100.182C167.741 103.591 165.366 107.501 163.724 111.734C165.296 115.318 167.021 118.831 168.9 122.272L172.416 115.8C172.459 115.717 172.518 115.644 172.589 115.584C172.66 115.524 172.743 115.479 172.832 115.452C172.921 115.425 173.015 115.415 173.108 115.425C173.2 115.434 173.29 115.462 173.372 115.506C173.454 115.55 173.526 115.611 173.584 115.684C173.643 115.756 173.686 115.84 173.711 115.93C173.737 116.019 173.744 116.113 173.733 116.205C173.722 116.298 173.692 116.387 173.646 116.468V116.474ZM194.122 132C194.027 131.895 193.937 131.783 193.852 131.664C193.676 131.301 193.619 130.891 193.689 130.493C193.759 130.095 193.952 129.73 194.242 129.448C194.585 129.211 194.984 129.065 195.4 129.026C195.815 128.986 196.234 129.054 196.616 129.222C197.24 129.374 197.878 129.456 198.52 129.468C198.267 129.26 198.057 129.004 197.903 128.716C197.749 128.427 197.654 128.11 197.622 127.784C197.688 127.405 197.884 127.061 198.176 126.81C198.467 126.559 198.837 126.417 199.222 126.408C198.545 124.293 197.905 122.166 197.302 120.026C194.406 121.826 194.102 122.066 191.72 123.764C191.052 124.385 190.288 124.893 189.456 125.266C191.484 130.576 191.5 130.642 193.106 134.126C193.174 134.288 193.586 135.47 193.734 135.808C193.972 135.667 194.196 135.504 194.402 135.32C194.436 135.172 194.491 135.03 194.566 134.898C192.912 133.904 193.2 132.374 194.122 132ZM196.018 135.8L196.042 135.824C197.212 136.338 198.49 136.562 199.765 136.475C201.041 136.388 202.276 135.994 203.366 135.326C203.915 135.091 204.426 134.774 204.88 134.386C204.184 133.879 203.565 133.272 203.044 132.586C202.116 131.589 201.457 130.372 201.128 129.05C200.644 128.4 199.951 127.937 199.166 127.738C199.272 127.938 198.966 127.914 199.676 128.508C200.139 128.844 200.465 129.336 200.592 129.894C200.615 129.993 200.617 130.096 200.596 130.195C200.575 130.295 200.532 130.388 200.471 130.469C200.41 130.55 200.332 130.617 200.242 130.665C200.153 130.712 200.053 130.739 199.952 130.744C198.636 130.867 197.308 130.75 196.034 130.398C195.66 130.384 194.952 130.198 195.284 130.87C195.521 131.29 195.883 131.627 196.32 131.832C196.425 131.841 196.526 131.875 196.615 131.933C196.703 131.991 196.776 132.069 196.826 132.162C196.876 132.255 196.903 132.359 196.903 132.464C196.903 132.57 196.876 132.673 196.826 132.766C196.826 133.644 195.296 133.18 194.798 133.252C195.119 133.646 195.558 133.927 196.05 134.052C196.924 134.092 197.146 134.702 196.92 135.13C196.73 135.5 196.2 135.612 196.018 135.812V135.8ZM199.05 113.654C199.55 113.504 206.622 112.036 206.822 111.994C207.63 110.305 208.505 108.647 209.446 107.02C209.373 106.161 209.405 105.296 209.54 104.444C208.014 104.644 206.454 104.796 204.94 104.936C201.628 105.242 199.04 105.548 195.426 106C195.573 106.705 195.721 107.407 195.872 108.106C197.898 107.701 199.943 107.403 202 107.212C202.125 107.202 202.249 107.239 202.348 107.315C202.447 107.392 202.513 107.503 202.534 107.626C202.555 107.749 202.529 107.876 202.462 107.981C202.394 108.087 202.289 108.162 202.168 108.194C201.382 108.394 199.492 108.608 196.152 109.35C197.488 115.374 199.136 121.238 200.952 127.198C201.04 127.274 201.124 127.35 201.206 127.426C201.443 126.034 201.887 124.686 202.524 123.426C203.504 119.949 204.746 116.551 206.24 113.262C205.214 113.518 204.186 113.75 203.164 113.988C201.861 114.354 200.539 114.649 199.204 114.87C199.054 114.87 198.909 114.815 198.797 114.715C198.684 114.616 198.612 114.479 198.593 114.33C198.574 114.181 198.61 114.03 198.694 113.906C198.778 113.781 198.905 113.692 199.05 113.654ZM211.568 96.4002C209.09 96.734 206.596 96.9343 204.096 97.0002C203.336 97.0262 199.24 96.9442 196.456 96.6342C196.036 96.6342 194.204 96.2182 193.628 96.1642C193.744 97.2664 193.931 98.36 194.188 99.4382C194.426 100.804 195.084 104.338 195.166 104.74C198.482 104.34 206.344 103.406 209.692 103.31C210.083 100.949 210.711 98.6344 211.568 96.4002ZM210.548 105.188C211.215 104.121 211.909 103.064 212.632 102.016L211.134 101.934C210.893 103.006 210.697 104.089 210.548 105.182V105.188ZM213.042 95.8822C213.008 95.9622 212.976 96.0442 212.944 96.1242C214.108 95.2548 215.213 94.3079 216.25 93.2902C217.064 92.4887 217.83 91.6398 218.544 90.7482C214.273 91.0863 209.983 90.4006 206.03 88.7482C206.112 89.3322 205.958 89.4242 205.702 89.8302C206.846 90.8122 206.55 91.8302 205.428 92.3602C204.924 92.5457 204.386 92.6208 203.85 92.5802C203.23 92.5662 202.378 92.6122 202.062 93.1462C201.862 93.4742 202.62 93.7201 203.032 93.6301C204.34 93.3441 204.57 92.8862 204.98 93.1522C205.07 93.215 205.14 93.3027 205.181 93.4046C205.223 93.5066 205.233 93.6183 205.212 93.7262C205.212 94.1262 204.212 95.0842 202.922 95.0842C202.622 95.079 202.324 95.0407 202.032 94.9702C201.978 95.0102 201.518 95.3702 201.462 95.3962C201.74 95.4722 202.02 95.5422 202.3 95.6102C205.671 95.6678 209.042 95.4639 212.382 95.0002C212.49 94.9936 212.599 95.014 212.697 95.0595C212.796 95.1051 212.882 95.1743 212.947 95.261C213.012 95.3477 213.055 95.4493 213.072 95.5567C213.088 95.664 213.078 95.7738 213.042 95.8762V95.8822ZM180.772 100.444C180.854 100.437 180.936 100.448 181.013 100.475C181.091 100.503 181.161 100.546 181.22 100.603C181.28 100.66 181.326 100.728 181.357 100.804C181.387 100.88 181.401 100.962 181.398 101.044C181.393 101.157 181.352 101.266 181.279 101.353C181.207 101.441 181.108 101.502 180.998 101.528C179.198 102.036 177.882 102.528 176.674 102.978C175.503 103.246 174.401 103.758 173.44 104.48C173.664 105.155 173.892 105.828 174.124 106.5L177.578 105.074C177.664 105.034 177.757 105.011 177.852 105.008C177.947 105.005 178.042 105.021 178.13 105.055C178.219 105.089 178.299 105.141 178.367 105.208C178.435 105.274 178.489 105.354 178.525 105.441C178.561 105.529 178.579 105.623 178.578 105.718C178.577 105.813 178.557 105.907 178.518 105.994C178.48 106.081 178.424 106.159 178.355 106.223C178.285 106.288 178.203 106.338 178.114 106.37L174.584 107.828C176.92 114.746 179.801 121.468 183.2 127.93L186.274 126.472C186.357 126.433 186.447 126.41 186.539 126.406C186.631 126.401 186.723 126.414 186.809 126.445C186.896 126.476 186.976 126.524 187.044 126.586C187.112 126.647 187.168 126.722 187.207 126.805C187.246 126.888 187.269 126.978 187.274 127.07C187.278 127.162 187.265 127.254 187.234 127.341C187.203 127.427 187.155 127.507 187.093 127.575C187.032 127.643 186.957 127.699 186.874 127.738L183.874 129.164C185.447 132.047 187.135 134.863 188.938 137.612C189.787 136.534 190.742 135.544 191.79 134.658C188.706 127.858 183.468 113.496 182.19 104.642C182.093 104.587 182.009 104.511 181.947 104.418C181.884 104.326 181.843 104.22 181.828 104.109C181.812 103.999 181.823 103.886 181.858 103.78C181.894 103.674 181.953 103.577 182.032 103.498C184.496 101.158 187.087 98.9547 189.792 96.8982C189.792 96.4982 189.792 96.0842 189.812 95.6982C183.668 96.009 177.621 97.3581 171.928 99.6882C172.086 100.208 172.806 102.5 173.008 103.128C175.505 101.988 178.105 101.087 180.772 100.438V100.444ZM187.544 113.444C188.692 112.494 189.943 111.674 191.272 111C192.339 110.343 193.459 109.776 194.62 109.306C194.404 108.322 194.195 107.337 193.994 106.35C192.473 107.156 190.993 108.038 189.56 108.992C188.05 109.993 186.604 111.087 185.23 112.268C185.714 114.028 186.926 118.158 187.842 120.856C190.398 118.764 193.147 116.921 196.054 115.352C195.645 113.741 195.256 112.125 194.888 110.504C194.556 110.682 194.222 110.856 193.888 111.03C191.938 112.052 190.052 113.192 188.242 114.446C188.11 114.515 187.957 114.534 187.812 114.499C187.667 114.463 187.54 114.376 187.454 114.254C187.369 114.132 187.331 113.982 187.347 113.834C187.364 113.686 187.434 113.549 187.544 113.448V113.444ZM188.214 121.914C188.492 122.704 188.784 123.492 189.082 124.278C191.563 122.271 194.216 120.484 197.008 118.938C196.788 118.138 196.573 117.338 196.364 116.538C188.874 121.2 189.986 120.75 188.214 121.918V121.914ZM183.26 104.248C183.902 106.448 184.302 108.624 184.848 110.824C187.586 108.595 190.577 106.695 193.758 105.164C193.515 103.935 193.285 102.704 193.068 101.472C190.09 102.926 185.588 105.848 185.542 105.872C185.465 105.922 185.379 105.957 185.288 105.974C185.198 105.991 185.105 105.989 185.015 105.97C184.925 105.951 184.84 105.915 184.764 105.863C184.688 105.811 184.623 105.744 184.573 105.667C184.523 105.59 184.488 105.504 184.471 105.413C184.455 105.323 184.456 105.23 184.475 105.14C184.494 105.05 184.53 104.965 184.582 104.889C184.634 104.813 184.701 104.748 184.778 104.698C187.374 103.001 190.059 101.443 192.82 100.03C192.639 98.9422 192.465 97.8548 192.3 96.7682C189.112 99.0437 186.091 101.545 183.26 104.252V104.248ZM192.112 95.3261C192.126 95.2362 192.158 95.1501 192.206 95.073C192.254 94.996 192.318 94.9296 192.393 94.8781C192.468 94.8266 192.553 94.7909 192.642 94.7734C192.731 94.7559 192.823 94.7568 192.912 94.7762C194.319 95.0042 195.729 95.1868 197.144 95.3242C195.089 94.5008 193.138 93.4375 191.332 92.1562C191.226 93.4081 191.132 94.6581 191.028 96.0282C191.382 95.8002 191.744 95.5562 192.112 95.3302V95.3261ZM192.4 91.2202C194.837 92.9394 197.54 94.2481 200.4 95.0942C200.388 95.0533 200.382 95.0108 200.382 94.9682C200.382 94.5682 200.382 94.5341 200.956 94.1441C200.23 92.9641 201.028 91.8722 202.272 91.4722C202.976 91.2462 204.58 91.4722 205.072 91.0722C204.895 90.8608 204.694 90.6715 204.472 90.5082C204.413 90.5684 204.341 90.6133 204.26 90.6387C204.18 90.6642 204.095 90.6695 204.012 90.6542H203.976C203.548 90.7482 203.208 90.2542 203.292 89.8142C203.33 89.6477 203.411 89.4941 203.527 89.3686C203.643 89.243 203.789 89.1498 203.952 89.0982C204.156 89.0555 204.368 89.0743 204.562 89.1522C204.592 89.1021 204.678 88.9762 204.712 88.9282C204.797 88.6908 204.971 88.4952 205.196 88.3822C202.833 87.3028 200.629 85.9059 198.644 84.2302C196.568 86.4236 194.189 88.3093 191.58 89.8302C191.55 90.0602 191.52 90.2842 191.49 90.5402C191.8 90.7562 192.106 91.0002 192.4 91.2202ZM192.336 135.868C189.862 138.468 189.1 139.368 189.1 139.368C189.1 139.368 187.012 143.228 186.544 144.212C188.927 142.129 191.192 139.916 193.33 137.582C193.026 137.442 193 137.278 192.342 135.868H192.336ZM188.11 138.902C186.267 136.102 184.541 133.235 182.93 130.302L179.15 138.596C180.901 140.765 182.806 142.804 184.85 144.698C184.964 144.496 187.692 139.6 188.116 138.902H188.11ZM170.732 95.6102C173.06 94.5922 178.406 92.8922 180.048 92.4361C180.18 92.4072 180.317 92.429 180.434 92.497C180.55 92.565 180.636 92.6743 180.676 92.8032C180.715 92.932 180.704 93.071 180.646 93.1924C180.587 93.3137 180.485 93.4086 180.36 93.4582C174.038 95.5382 174.428 95.6922 171.102 96.9022C171.242 97.3842 171.382 97.8681 171.524 98.3502C177.292 95.7893 183.535 94.4688 189.846 94.4742C189.858 94.2322 190.116 90.2301 190.136 89.9882C185.519 89.7032 180.885 90.0185 176.35 90.9262C176.197 90.9297 176.048 90.8745 175.934 90.7719C175.82 90.6692 175.75 90.5269 175.738 90.3742C175.724 90.2342 175.765 90.0943 175.85 89.9829C175.936 89.8715 176.061 89.7969 176.2 89.7742C178.653 89.004 181.211 88.6227 183.782 88.6441C185.944 88.5032 188.115 88.5554 190.268 88.8002C190.444 87.3602 190.364 87.2262 190.562 85.9641C183.158 85.4167 175.717 86.2994 168.646 88.5642C169.33 90.6962 170.058 93.2162 170.738 95.6102H170.732ZM238.22 85.9202C238.008 85.6816 237.876 85.3824 237.843 85.0648C237.81 84.7472 237.877 84.4273 238.036 84.1502C236.268 84.6043 234.535 85.1852 232.85 85.8882C235.124 85.911 237.388 86.1881 239.6 86.7141C239.592 86.6774 239.588 86.6398 239.588 86.6021V86.5522C239.067 86.5298 238.575 86.3027 238.22 85.9202ZM253.298 92.8302C251.318 86.4182 247.208 83.0302 240.478 83.7242C240.079 84.0692 239.657 84.3872 239.216 84.6762C238.936 84.8882 239.29 85.2201 239.6 85.2141C240.272 85.1441 240.296 84.9142 241.094 84.6322C241.224 84.5934 241.363 84.5965 241.492 84.641C241.62 84.6855 241.732 84.7691 241.81 84.8801C241.867 84.9845 241.895 85.1021 241.892 85.2209C241.888 85.3397 241.853 85.4554 241.79 85.5562C241.484 85.9482 241.065 86.2366 240.59 86.3822C240.574 86.6062 240.652 86.7342 240.498 86.9382C245.052 88.2063 249.373 90.1955 253.298 92.8302ZM245.044 144.86C250.1 145.322 248.804 145.104 250.044 145.238C250.45 145.316 250.868 145.316 251.274 145.238C251.566 144.725 251.769 144.165 251.874 143.584C252.802 140.573 253.537 137.505 254.074 134.4C255.164 128.347 255.208 122.152 254.202 116.084C253.816 113.176 252.5 110.471 250.45 108.372C248.03 106.172 244.512 105.494 241.408 104.652C236.854 117.41 223.662 128.064 211.408 134.082C221.826 139.798 233.245 143.457 245.044 144.86ZM172.576 153.18C176.479 153.129 180.367 152.673 184.176 151.818C194.289 149.135 203.296 143.325 209.91 135.218C209.969 135.061 210.019 134.901 210.06 134.738C209.35 135.22 208.518 135.49 207.66 135.518C207.124 135.528 206.593 135.407 206.114 135.166C205.261 135.973 204.253 136.597 203.15 137C201 138.058 198.519 138.223 196.248 137.458C195.939 137.364 195.638 137.247 195.348 137.106C192.507 140.402 189.432 143.488 186.148 146.342C186.123 146.451 186.071 146.553 185.997 146.637C185.922 146.721 185.828 146.785 185.723 146.823C185.618 146.862 185.504 146.873 185.393 146.856C185.282 146.84 185.177 146.796 185.088 146.728C178.376 141.65 173.964 133.948 170.068 127.148C168.196 123.778 164.13 116.388 162.282 112.326C160.905 109.313 159.803 106.182 158.99 102.97C158.887 102.851 158.834 102.697 158.844 102.54C159.102 101.195 159.552 99.8934 160.18 98.6762C161.788 94.7121 164.226 91.1381 167.33 88.1942C167.228 87.7402 167.798 87.3842 168.07 87.3162C169.073 86.9922 170.085 86.6942 171.108 86.4221C170.136 83.1666 169.457 79.8307 169.08 76.4542C168.381 76.3481 167.714 76.0929 167.122 75.7062C166.846 76.2955 166.505 76.8518 166.104 77.3642C166.437 77.6308 166.763 77.9075 167.082 78.1942C167.624 78.7015 167.978 79.3773 168.087 80.1116C168.196 80.8458 168.053 81.5953 167.682 82.2382C167.095 82.8829 166.316 83.3218 165.46 83.4902C164.941 83.7049 164.376 83.782 163.818 83.714C163.261 83.646 162.73 83.4353 162.278 83.1021C162.255 83.0841 162.238 83.0594 162.229 83.0314C162.221 83.0033 162.221 82.9734 162.23 82.9455C162.24 82.9177 162.257 82.8934 162.281 82.876C162.304 82.8585 162.333 82.8488 162.362 82.8482C162.926 82.854 163.482 82.7149 163.976 82.4442C164.471 82.1735 164.887 81.7802 165.186 81.3022C165.304 80.882 165.311 80.4383 165.206 80.0147C165.101 79.591 164.887 79.2021 164.586 78.8862C161.886 80.6593 158.755 81.6646 155.528 81.7942C154.168 81.8293 152.812 81.959 151.47 82.1822C151.47 82.1822 150.708 83.4882 150.634 83.5822C151.054 83.8705 151.455 84.1858 151.834 84.5262C152.093 84.8543 152.266 85.2418 152.339 85.6537C152.411 86.0655 152.379 86.4888 152.247 86.8855C152.115 87.2822 151.886 87.6399 151.582 87.9262C151.277 88.2126 150.906 88.4188 150.502 88.5262C147.672 107.926 150.984 128.748 160.36 150.54C163.941 152.958 168.316 153.904 172.576 153.18ZM55.376 61.5462C72.926 79.4921 96.642 90.2962 118.956 101.108C124.984 104.2 131.34 106.606 137.904 108.28C137.655 103.685 137.818 99.0777 138.392 94.5122C138.392 94.3776 138.43 94.2458 138.502 94.1322C138.574 94.0186 138.677 93.9278 138.798 93.8705C138.92 93.8132 139.056 93.7918 139.189 93.8087C139.323 93.8257 139.448 93.8803 139.552 93.9662C139.672 94.0468 139.767 94.1594 139.826 94.2913C139.885 94.4232 139.906 94.569 139.886 94.7122C137.398 112.856 143.382 132.384 149.258 151.238C150.959 156.896 153.684 162.193 157.298 166.866C160.775 171.285 165.776 174.248 171.322 175.176C155.364 147.976 143.448 117.012 149.7 86.3502C149.719 86.2623 149.76 86.181 149.821 86.1145C149.881 86.0481 149.958 85.999 150.044 85.9722C150.131 85.9256 150.228 85.9041 150.326 85.9101C150.424 85.916 150.519 85.9493 150.599 86.006C150.679 86.0627 150.742 86.1407 150.78 86.2312C150.819 86.3217 150.831 86.4211 150.816 86.5182C151.37 85.4241 150.232 85.1002 149.584 84.4702C148.863 84.8077 148.07 84.9658 147.274 84.931C146.479 84.8962 145.703 84.6694 145.014 84.2701C144.987 84.2544 144.967 84.2304 144.955 84.2018C144.943 84.1732 144.941 84.1416 144.949 84.1117C144.957 84.0819 144.975 84.0554 144.999 84.0364C145.023 84.0173 145.053 84.0067 145.084 84.0061C145.497 83.9756 145.888 83.8103 146.197 83.5356C146.506 83.261 146.717 82.8922 146.796 82.4862C93.164 70.8661 58.044 55.6322 56.836 55.7582C55.6066 56.9594 54.6923 58.4453 54.174 60.0842C54.232 60.5702 54.972 61.1222 55.38 61.5462H55.376ZM48.606 55.0422C49.3488 56.7923 50.7451 58.1836 52.498 58.9202C52.662 58.9981 52.826 59.0761 52.988 59.1581C53.649 57.5914 54.5029 56.1134 55.53 54.7582C55.3629 53.7934 55.1208 52.8432 54.806 51.9162C54.5932 51.4541 54.2509 51.0637 53.8207 50.7923C53.3905 50.5208 52.8908 50.3799 52.3822 50.3867C51.8736 50.3935 51.3778 50.5476 50.955 50.8304C50.5322 51.1132 50.2004 51.5126 50 51.9802C49.9144 52.1266 49.8555 52.2871 49.826 52.4542C50.0669 52.5933 50.3415 52.6632 50.6196 52.6562C50.8977 52.6491 51.1685 52.5653 51.402 52.4142C51.5244 52.3507 51.6621 52.3228 51.7996 52.3336C51.937 52.3444 52.0687 52.3935 52.1797 52.4753C52.2906 52.5572 52.3765 52.6684 52.4274 52.7965C52.4784 52.9246 52.4924 53.0645 52.468 53.2001C52.3757 53.648 52.3852 54.1109 52.4956 54.5547C52.606 54.9984 52.8146 55.4117 53.106 55.7642C53.202 55.9189 53.2372 56.1037 53.2049 56.2828C53.1726 56.462 53.075 56.6229 52.931 56.7343C52.787 56.8457 52.6068 56.8998 52.4253 56.8861C52.2437 56.8724 52.0737 56.7919 51.948 56.6602C51.3298 55.9369 50.9726 55.0268 50.934 54.0761C50.5611 54.1185 50.1835 54.0845 49.8242 53.9762C49.4648 53.8679 49.1313 53.6875 48.844 53.4462C48.6358 53.3276 48.4811 53.1335 48.412 52.9042C48.23 52.8862 48.048 52.8722 47.864 52.8602C48.0191 53.6149 48.2663 54.3477 48.6 55.0422H48.606Z" fill="#00164F"/>
<path d="M155.942 62.2155C155.626 63.4715 154.72 64.7095 153.722 63.7895C152.972 63.0995 153.618 61.0135 154.29 60.4895C154.962 59.9655 156.524 59.8995 155.942 62.2155Z" fill="#00164F"/>
<path d="M147.03 59.5201C146.646 60.9201 145.506 61.0101 145.03 60.3821C144.45 59.6021 145.062 58.0261 145.566 57.4621C146.276 56.6801 147.648 57.2621 147.03 59.5201Z" fill="#00164F"/>
<path d="M148.02 61.6804C146.634 63.7004 146.22 64.6704 145.656 65.5624C146.263 65.6936 146.857 65.8735 147.434 66.1004C147.578 66.1523 147.699 66.2518 147.778 66.3822C147.857 66.5127 147.889 66.6663 147.869 66.8175C147.849 66.9687 147.777 67.1084 147.667 67.2134C147.556 67.3183 147.412 67.3822 147.26 67.3944C146.252 67.2818 145.277 66.9676 144.392 66.4704C143.728 65.7404 144.754 64.4004 145.094 63.8344C146.09 62.0834 147.289 60.4561 148.666 58.9864C148.758 58.9133 148.872 58.8746 148.989 58.8771C149.106 58.8795 149.219 58.923 149.307 58.9999C149.395 59.0767 149.454 59.1821 149.472 59.2977C149.491 59.4133 149.468 59.5317 149.408 59.6324C148.986 60.3417 148.523 61.0256 148.02 61.6804Z" fill="#00164F"/>
<path d="M157.88 60.6402C157.857 60.7536 157.795 60.8554 157.705 60.9283C157.615 61.0012 157.502 61.0407 157.386 61.0402H157.186C157.103 61.0403 157.022 61.0198 156.949 60.9806C156.876 60.9413 156.814 60.8845 156.768 60.8153C156.722 60.7461 156.695 60.6666 156.687 60.584C156.68 60.5014 156.694 60.4183 156.726 60.3422C156.727 59.8059 156.544 59.2855 156.209 58.8669C155.874 58.4484 155.406 58.1567 154.882 58.0402C153.868 58.0402 153.566 57.4222 153.856 56.9582C153.885 56.8875 153.929 56.824 153.984 56.7722C154.532 56.6204 155.111 56.6316 155.652 56.8042C156.193 56.9769 156.672 57.3035 157.03 57.7442C157.388 58.1273 157.651 58.5887 157.798 59.0915C157.946 59.5943 157.974 60.1246 157.88 60.6402Z" fill="#00164F"/>
<path d="M154.516 66.9574C154.293 69.6252 153.094 72.1173 151.15 73.9574C149.966 74.8634 148.642 74.3174 147.452 73.4074C146.304 72.5546 145.327 71.4927 144.572 70.2774C144.507 70.1424 144.49 69.989 144.525 69.8431C144.56 69.6973 144.644 69.5679 144.763 69.4768C144.882 69.3856 145.029 69.3383 145.179 69.3428C145.329 69.3473 145.473 69.4033 145.586 69.5014C146.629 70.8796 147.922 72.0487 149.398 72.9474C149.634 73.0119 149.884 73.0028 150.114 72.9213C150.345 72.8398 150.545 72.6898 150.688 72.4914C151.793 71.2312 152.574 69.7211 152.964 68.0914C151.799 68.6081 150.556 68.9278 149.286 69.0374C147.595 69.426 145.82 69.1768 144.302 68.3374C143.716 68.0134 144.286 66.9374 144.84 67.3534C146.206 67.9294 147.721 68.0528 149.162 67.7054C150.702 67.5274 152.184 67.0155 153.506 66.2054C153.623 66.1526 153.752 66.132 153.88 66.1458C154.008 66.1596 154.129 66.2074 154.232 66.2841C154.335 66.3608 154.416 66.4637 154.466 66.5821C154.516 66.7005 154.533 66.8301 154.516 66.9574Z" fill="#00164F"/>
<path d="M285.6 117C278.878 119.024 270.6 118.238 265.098 113.278C262.209 110.606 259.777 107.48 257.898 104.022C257.55 103.556 257.814 102.766 258.708 102.92C263.279 103.682 267.938 103.755 272.53 103.136C272.647 103.133 272.762 103.16 272.866 103.213C272.97 103.266 273.06 103.343 273.127 103.439C273.193 103.535 273.235 103.646 273.249 103.762C273.262 103.878 273.247 103.995 273.204 104.104C275.45 107.296 278.7 109.645 282.437 110.774C286.173 111.904 290.18 111.749 293.818 110.336C293.958 110.309 294.102 110.324 294.233 110.379C294.364 110.435 294.476 110.528 294.553 110.647C294.631 110.767 294.671 110.906 294.669 111.049C294.666 111.191 294.622 111.329 294.54 111.446C292.277 114.258 289.124 116.217 285.6 117ZM260 104.502C261.99 107.827 264.565 110.766 267.6 113.176C267.561 113.088 267.541 112.993 267.543 112.896C267.546 112.8 267.569 112.706 267.612 112.62C267.656 112.533 267.718 112.458 267.794 112.399C267.87 112.34 267.958 112.299 268.052 112.278C268.264 112.155 268.491 112.062 268.728 112C268.707 111.645 268.767 111.291 268.904 110.963C269.04 110.635 269.25 110.343 269.516 110.108C270.073 109.706 270.758 109.522 271.441 109.592C272.125 109.662 272.758 109.981 273.222 110.488C274.126 111.238 274.938 112.452 275.978 112.072C276.508 111.892 276.45 111.672 276.416 111.54C276.312 111.28 276.156 111.045 275.957 110.848C275.758 110.651 275.521 110.497 275.26 110.396C275.224 110.454 275.177 110.505 275.121 110.544C275.065 110.583 275.001 110.61 274.934 110.624C274.72 110.674 274.598 110.576 274.394 110.424C273.854 110.04 274.442 109.202 275.178 109.148C275.817 109.2 276.416 109.478 276.868 109.932C277.008 109.951 277.15 109.951 277.29 109.932H277.512C275.382 108.555 273.562 106.751 272.166 104.634C268.127 105.128 264.04 105.085 260.012 104.504L260 104.502ZM278.232 110.916C278.168 111 278.082 111.065 277.983 111.103C277.884 111.141 277.776 111.151 277.672 111.132C277.784 111.591 277.71 112.076 277.467 112.482C277.224 112.888 276.832 113.182 276.374 113.3C274.774 113.856 273.408 112.462 272.942 111.98C272.527 111.487 271.99 111.112 271.384 110.892C271.147 110.811 270.889 110.82 270.658 110.916C270.427 111.012 270.239 111.189 270.13 111.414C270.031 111.649 270.025 111.913 270.114 112.152C270.203 112.391 270.379 112.587 270.608 112.7C271.217 112.9 271.853 113.002 272.494 113.002C272.673 112.984 272.852 113.037 272.993 113.149C273.133 113.261 273.225 113.424 273.248 113.602C273.26 113.749 273.217 113.895 273.127 114.012C273.038 114.13 272.909 114.21 272.764 114.238C272.129 114.423 271.454 114.425 270.818 114.245C270.181 114.065 269.608 113.709 269.164 113.218C268.622 113.378 268.564 113.592 268.212 113.596C270.067 114.86 272.155 115.744 274.354 116.196C277.715 116.842 281.178 116.731 284.49 115.87C287.107 115.395 289.547 114.22 291.55 112.47C287.051 113.463 282.343 112.739 278.35 110.44C278.376 110.607 278.338 110.778 278.244 110.918L278.232 110.916Z" fill="#00164F"/>
<path d="M350.338 108.75C350.325 108.885 350.274 109.013 350.19 109.12C350.107 109.226 349.995 109.307 349.867 109.353C349.74 109.399 349.602 109.407 349.47 109.378C349.337 109.348 349.216 109.282 349.12 109.186C345.175 104.776 340.312 101.283 334.874 98.95C332.26 97.86 329.431 97.3812 326.603 97.55C323.775 97.7188 321.023 98.5308 318.556 99.924C318.425 99.9912 318.277 100.018 318.13 100.002C317.983 99.9853 317.845 99.926 317.732 99.8314C317.618 99.7367 317.535 99.6108 317.493 99.4694C317.451 99.3279 317.451 99.1772 317.494 99.036C318.731 95.6099 320.362 92.3392 322.354 89.29C322.417 89.2122 322.494 89.1478 322.582 89.1004C322.67 89.0531 322.767 89.0238 322.866 89.0143C322.965 89.0048 323.065 89.0153 323.161 89.0451C323.256 89.0749 323.344 89.1235 323.42 89.188C329.668 87.2325 336.43 87.7604 342.298 90.662C345.272 91.905 347.653 94.2467 348.944 97.2C350.251 100.901 350.727 104.844 350.338 108.75ZM323.362 90.4C321.907 92.7649 320.636 95.2389 319.562 97.8C323.894 95.8598 328.776 95.5279 333.33 96.864C333.255 96.7742 333.214 96.661 333.214 96.544C333.214 96.04 333.324 96.144 333.56 95.586C333.209 95.4798 332.883 95.3033 332.602 95.0671C332.321 94.8308 332.091 94.5399 331.926 94.212C331.34 92.768 332.988 91.412 334.736 91.2C335.134 91.183 335.529 91.1389 335.92 91.068C336.019 91.0362 336.101 90.9676 336.149 90.8767C336.198 90.7857 336.21 90.6794 336.182 90.58C335.893 90.1538 335.465 89.8414 334.97 89.696C334.923 89.6806 334.878 89.6576 334.838 89.628C331.004 89.0097 327.079 89.2737 323.362 90.4ZM337.3 90.164C337.678 91.196 337.162 92.164 335.738 92.382C334.945 92.3327 334.161 92.5666 333.524 93.042C333.378 93.17 333.046 93.492 333.124 93.674C333.598 94.596 335.244 94.49 336.172 93.752C336.252 93.7018 336.342 93.6695 336.436 93.6573C336.529 93.6451 336.625 93.6532 336.715 93.6811C336.805 93.709 336.888 93.756 336.958 93.819C337.029 93.882 337.085 93.9594 337.122 94.046C337.151 94.1471 337.157 94.2535 337.14 94.3572C337.123 94.461 337.082 94.5596 337.022 94.646C336.737 94.9679 336.389 95.2283 336 95.4112C335.611 95.5942 335.188 95.6958 334.758 95.71C334.698 95.998 334.589 96.2734 334.434 96.524C334.378 96.642 334.299 96.7474 334.201 96.8337C334.103 96.9201 333.989 96.9855 333.864 97.026C339.645 99.1484 344.864 102.566 349.12 107.016C349.211 104.124 348.851 101.236 348.052 98.456C347.474 96.9251 346.588 95.5295 345.448 94.3559C344.307 93.1823 342.938 92.2558 341.424 91.634C340.087 91.044 338.709 90.5527 337.3 90.164Z" fill="#00164F"/>
<path d="M18.7859 94.1536C18.7359 94.0033 18.7222 93.8433 18.7461 93.6868C18.77 93.5302 18.8307 93.3816 18.9233 93.2531C19.0158 93.1246 19.1376 93.0199 19.2785 92.9477C19.4195 92.8754 19.5755 92.8377 19.7339 92.8376C19.9568 92.8186 20.1795 92.8749 20.3666 92.9975C20.5536 93.12 20.6942 93.3017 20.7659 93.5136C58.7099 204.386 126.51 302.2 229.932 359.2C230.17 359.361 230.339 359.606 230.405 359.886C230.471 360.166 230.43 360.461 230.289 360.712C230.149 360.963 229.92 361.152 229.646 361.243C229.373 361.333 229.076 361.318 228.814 361.2C127.23 306.432 55.8619 205.384 18.7859 94.1536Z" fill="#00164F"/>
<path d="M14.2321 86.3117C22.1069 172.228 55.3752 253.856 109.8 320.8C114.136 326.114 114.09 325.886 114.09 326.388C114.101 326.614 114.04 326.838 113.918 327.029C113.796 327.22 113.617 327.368 113.407 327.454C113.197 327.539 112.965 327.557 112.744 327.505C112.524 327.453 112.324 327.334 112.174 327.164C67.5926 274.117 36.3588 211.168 21.0842 143.58C16.8364 124.776 13.8742 105.706 12.2181 86.4997C12.1001 85.1757 14.1181 85.1197 14.2321 86.3117Z" fill="#00164F"/>
</svg>
