<svg width="50" height="50" viewBox="0 0 50 50" fill="none" xmlns="http://www.w3.org/2000/svg">
<path d="M24.9994 45.8327C36.5053 45.8327 45.8327 36.5053 45.8327 24.9994C45.8327 13.4934 36.5053 4.16602 24.9994 4.16602C13.4934 4.16602 4.16602 13.4934 4.16602 24.9994C4.16602 36.5053 13.4934 45.8327 24.9994 45.8327Z" fill="#01004F" stroke="#01004F" stroke-width="2" stroke-linejoin="round"/>
<path d="M24.039 15.1119C24.4869 14.408 25.5144 14.408 25.9623 15.1119L27.2584 17.1482C28.6915 19.4 30.6013 21.3098 32.8532 22.7429L34.8894 24.039C35.5934 24.4869 35.5934 25.5144 34.8894 25.9623L32.8532 27.2584C30.6013 28.6915 28.6915 30.6013 27.2584 32.8532L25.9623 34.8894C25.5144 35.5934 24.4869 35.5934 24.039 34.8894L22.7429 32.8532C21.3098 30.6013 19.4 28.6915 17.1482 27.2584L15.1119 25.9623C14.408 25.5144 14.408 24.4869 15.1119 24.039L17.1482 22.7429C19.4 21.3098 21.3098 19.4 22.7429 17.1482L24.039 15.1119Z" fill="white" stroke="white" stroke-width="2" stroke-linejoin="round"/>
</svg>
