<svg width="200" height="200" viewBox="0 0 200 200" fill="none" xmlns="http://www.w3.org/2000/svg">
<path d="M133.09 42.364C130.705 43.565 128.904 44.724 128.277 47.106C128.031 48.039 128.029 48.058 127.744 47.86C126.364 46.905 124.974 45.801 123.214 46.067C122.335 46.2 120.846 46.825 120.883 47.702C120.821 48.3 121.421 48.456 121.843 48.104C125.132 45.362 128.558 52.114 129.324 49.17C129.531 48.377 129.302 48.337 129.859 46.919C130.733 44.697 133.602 44.118 134.245 43.074C134.635 42.441 133.889 41.961 133.089 42.364H133.09Z" fill="black"/>
<path d="M22.3768 141.809C21.5828 141.769 20.0658 142.295 18.6968 143.679C17.5188 144.871 18.1058 145.716 17.4808 145.404C16.2528 144.791 14.8358 143.994 13.3568 144.021C10.6468 144.071 11.2908 146.153 12.3698 145.581C13.6148 144.92 15.8418 146.16 17.0538 146.822C19.8848 148.369 18.2618 145.474 20.4218 144.098C21.3218 143.525 22.1188 143.138 22.6608 142.713C23.0378 142.417 23.0788 141.844 22.3768 141.809Z" fill="black"/>
<path d="M42.1281 135.496C41.9641 135.746 41.9551 135.735 41.6721 135.598C39.3551 134.477 39.0791 134.213 37.0111 134.011C36.5471 134.117 35.8001 134.161 35.8631 134.798C35.9041 135.213 36.4321 135.357 36.8481 135.369C40.3951 135.464 41.8821 138.807 43.2211 136.471C44.3161 134.561 48.5671 132.535 48.4381 132.193C47.9511 130.898 43.5451 133.343 42.1281 135.496Z" fill="black"/>
<path d="M153.504 47.4158C151.028 48.3658 150.701 48.9138 149.726 50.4988C148.578 49.7678 147.322 48.9088 145.787 49.1038C144.002 49.3298 144.779 51.2348 145.791 50.5578C146.666 49.9728 149.178 51.9468 149.503 52.1388C150.081 52.4808 150.63 52.2868 150.878 51.6578C152.054 48.6698 153.793 49.3118 154.577 48.2338C154.96 47.7068 154.444 47.0568 153.504 47.4178V47.4158Z" fill="black"/>
<path d="M156.394 32.3944C154.084 34.1334 154.382 35.0784 154.045 34.8394C152.855 33.9964 152.116 33.3814 151.033 33.2854C150.029 33.2644 149.565 33.8784 149.819 34.4034C150.17 35.1304 150.433 34.3344 151.469 34.8174C153.229 35.6384 154.878 38.1664 155.441 35.8104C155.938 33.7294 158.942 32.8404 158.963 32.8304C159.916 32.3404 158.746 30.6224 156.395 32.3934L156.394 32.3944Z" fill="black"/>
<path d="M24.9139 126C23.8039 125.375 22.7579 124.686 21.3419 124.877C20.5419 124.985 20.3899 125.956 21.3689 126.014C24.2559 126.186 25.2479 129.371 26.3489 126.378C26.7529 125.28 28.2169 123.576 28.5549 123.206C30.6049 120.957 30.6689 121.348 31.0589 120.969C31.5669 120.475 28.2219 119.959 24.9149 125.999L24.9139 126Z" fill="black"/>
<path d="M112.136 163.848C112.136 159.839 112.336 156.611 115.146 153.672C118.81 149.838 121.459 149.061 124.887 149.138C129.502 149.242 133.246 150.698 136.167 154.272C138.858 157.565 138.321 158.067 138.827 157.061C141.48 151.787 146.219 148.486 150.626 147.599C157.586 146.199 166.903 152.825 166.472 159.635C166.293 162.466 163.431 168.134 164.343 168.164C169.006 168.317 172.464 169.034 177.875 174.423C178.994 175.537 180.615 177.858 180.843 179.386C180.986 180.346 181.478 180.261 185.127 181.183C189.466 182.28 191.239 182.56 192.952 184.257C194.372 185.664 193.746 187.631 192.225 188.545C188.849 190.576 185.539 190.69 181.986 190.636C170.058 190.453 165.509 191.102 135.371 190.117C120.452 189.629 134.371 189.946 109.961 189.184C77.2677 188.163 79.4547 189.225 75.0887 188.592C71.9707 188.14 67.4507 187.265 68.5587 184.316C69.2417 182.5 72.4327 182.021 74.6467 181.39C78.3537 180.334 79.2057 179.719 84.6667 179.64C87.0727 179.605 89.7777 179.954 90.0877 177.561C90.4287 174.935 90.0637 174.138 90.9857 171.769C91.7057 169.919 93.8287 167.341 96.9717 165.831C102.543 163.154 107.111 166.651 111.064 169.038C111.805 169.486 111.926 169.753 112.014 169.452C112.044 169.35 112.199 163.845 112.135 163.845L112.136 163.848ZM113.319 169.022C113.308 169.528 113.2 170.013 113.09 170.499C112.734 172.063 111.059 170.629 110.218 170.12C104.77 166.826 103.822 166.13 100.329 166.317C96.9397 166.499 93.0307 169.77 92.0727 172.938C90.9607 176.612 93.0977 180.474 86.5137 180.751C83.5877 180.874 83.2767 180.58 80.6627 181.005C77.4097 181.534 77.0337 182.089 71.5237 183.502C69.9177 183.914 68.1557 185.435 71.6567 186.489C77.4907 188.245 82.2927 186.967 90.7517 187.399C90.9457 187.409 90.7967 187.747 120.144 188.065C120.167 188.065 154.46 190.073 179.618 189.325C181.082 189.281 189.075 190.124 192.2 187.153C192.664 186.711 192.827 185.691 192.229 185.089C190.251 183.099 187.933 183.257 181.138 181.396C179.547 180.96 179.837 179.666 179.157 178.366C177.811 175.793 176.274 174.653 175.01 173.509C167.653 166.853 161.941 171.262 162.645 168.056C164.149 161.21 167.939 158.613 161.46 152.258C159.937 150.765 158.738 150.321 155.98 149.23C153.606 148.291 150.517 148.36 147.109 150.276C139.449 154.582 140.296 159.516 138.434 159.338C136.974 159.199 135.043 151.088 126.248 150.501C125.475 150.449 123.278 150.417 122.257 150.607C119.635 151.095 117.041 153.412 115.532 155.277C113.109 158.269 113.486 161.013 113.318 169.023L113.319 169.022Z" fill="black"/>
<path d="M136.049 72.8433C140.25 72.7983 143.177 73.0203 147.059 77.4083C149.144 79.7653 149.015 80.4383 149.273 79.9803C154.631 70.4833 157.592 69.0713 164.873 68.6623C172.602 68.2283 177.335 75.8523 177.311 80.3593C177.256 91.0273 173.123 84.9653 182.56 88.5133C185.074 89.4583 187.138 91.1583 186.978 93.8413C186.882 95.4493 186.11 96.5293 185.039 98.3543C184.499 99.2743 184.063 98.7693 189.554 100.635C190.258 100.874 192.736 101.743 193.642 102.23C195.31 103.126 195.26 104.188 194.463 104.686C191.689 106.417 186.248 105.529 181.623 105.746C177.651 105.933 132.878 105.538 127.246 105.067C125.553 104.925 122.343 105.075 122.008 105.071C110.132 104.925 101.339 106.11 98.8869 103.759C98.3289 103.224 98.3019 102.541 98.8559 101.989C99.1809 101.664 99.5809 101.458 99.9769 101.25C103.418 99.4383 106.796 98.7083 108.585 98.2593C109.912 97.9263 110.241 98.1423 110.095 97.7203C109.433 95.8023 109.854 93.2653 110.976 91.4673C112.78 88.5773 118.214 87.4643 122.506 89.6633C124.266 90.5653 123.866 90.5193 123.237 87.6803C121.73 80.8833 127.172 72.9383 136.05 72.8423L136.049 72.8433ZM189.666 104.576C191.259 104.58 194.167 104.026 193.54 103.57C193.317 103.408 193.092 103.235 192.84 103.135C185.246 100.105 182.855 100.567 183.434 98.7693C184.013 96.9723 188.857 92.4693 182.328 89.7923C180.241 88.9363 177.279 88.4003 175.892 88.4363C175.155 88.4553 174.651 87.9573 174.884 87.1553C176.852 80.3923 176.406 76.7483 171.535 72.0883C170.337 70.9433 168.598 70.4493 166.94 70.1303C165.282 69.8113 165.166 69.9493 162.37 70.2203C151.436 71.2783 150.429 85.9553 148.143 81.2943C147.268 79.5113 145.498 77.3433 142.634 75.4253C140.98 74.3173 139.22 74.3383 137.529 74.2093C133.343 73.8903 130.409 74.5893 126.74 78.6913C124.805 80.8553 123.83 84.4583 124.655 87.9143C124.942 89.1183 124.956 90.3743 125.357 91.5553C125.444 91.8113 125.332 92.0343 125.117 92.1923C124.665 92.5253 124.267 92.0943 124.057 91.9503C119.088 88.5463 111.629 89.1283 111.14 94.9163C111.06 95.8573 110.992 96.8163 111.284 97.7513C111.981 99.9863 106.185 98.6993 99.7349 102.616C99.5159 102.749 99.5139 102.891 99.7349 102.995C103.796 104.91 113.279 103.275 132.86 104.038C148.495 104.647 189.61 104.575 189.666 104.575V104.576Z" fill="black"/>
<path d="M13.608 188.582C55.941 188.582 53.785 189.985 56.249 188.52C58.077 187.432 53.379 185.954 51.007 185.36C45.263 183.923 44.361 184.758 43.665 181.184C43.047 178.012 43.176 176.462 41.055 175.308C40.064 174.769 38.022 174.233 36.556 174.315C34.282 174.442 33.214 175.127 30.516 176.796C29.279 177.561 28.547 178.404 27.804 177.271C26.653 175.516 26.177 167.268 17.034 168.492C12.741 169.067 10.579 174.227 9.21496 172.445C8.90696 172.043 8.58396 170.618 7.35696 169.906C6.10596 169.18 5.55096 169.325 5.14096 168.848C4.20796 167.765 8.12296 167.707 9.64596 170.31C10.113 171.108 9.99396 171.271 10.517 170.843C13.618 168.306 14.383 167.089 18.863 167.042C21.421 167.015 23.895 167.938 25.709 170.014C27.498 172.061 27.544 172.83 28.262 174.915C28.76 176.358 28.707 176.383 29.058 176.169C31.668 174.574 33.142 173.528 35.046 173.197C37.158 172.83 39.357 173.172 41.13 173.907C43.486 174.884 44.105 176.383 44.5 178.435C45.847 185.427 44.632 181.552 54.106 184.935C56.141 185.662 57.06 186.086 57.753 187.289C58.212 188.084 57.938 189.203 56.162 189.909C53.671 190.899 50.155 190.333 48.416 190.257C36.988 189.754 7.98696 190.321 5.75196 189.711C5.43996 189.626 5.29596 189.026 5.78696 188.905C6.97696 188.611 13.608 188.561 13.608 188.582Z" fill="black"/>
<path d="M78.8416 115.893C79.7766 106.35 79.1886 106.601 79.6846 106.041C94.0206 89.8738 106.838 75.8608 108.696 54.1948C109.823 41.0648 103.843 29.3938 97.1336 24.9218C94.4536 23.1318 93.2366 22.0708 90.1586 20.8548C89.3846 20.5488 89.1506 20.3008 88.6846 19.8088C85.2826 16.2058 78.9526 12.6678 73.0766 12.3818C72.2576 12.3428 72.2266 11.8588 69.4206 10.6958C66.8356 9.62376 62.9916 8.86876 59.9576 9.96076C59.5146 10.1208 59.3686 10.0628 58.9776 9.90976C55.9306 8.71276 51.5536 8.95276 48.6536 11.6838C48.3996 11.9238 48.3106 11.9968 48.1516 11.9748C46.9006 11.7848 45.4996 11.8078 44.1006 12.0418C35.1566 13.5368 31.8596 17.9658 30.2746 20.0938C29.7996 20.7318 29.4566 21.1918 29.1916 21.2638C27.7536 21.6548 25.8546 23.0398 24.6656 24.1088C18.1156 29.9798 16.3546 38.0848 15.5206 38.9358C11.1146 43.4448 8.13157 50.0808 7.54257 56.6878C7.22057 60.3198 7.43957 60.2338 7.43157 60.8248C7.32257 69.7228 13.6966 80.4728 19.1876 86.9758C30.8616 100.799 51.9326 109.731 53.3996 112.596C59.4836 124.492 61.2526 126.054 60.8496 126.678C60.2006 127.689 61.1506 129.333 62.1176 130.067C62.4396 130.311 62.4306 130.439 62.3816 131.148C62.2336 133.272 62.3586 136.726 62.5516 139.032C62.6466 140.166 62.6396 140.205 62.3036 140.438C61.3476 141.101 60.9366 142.426 61.6996 143.434C61.8526 143.636 61.8286 143.66 61.5916 143.893C60.5616 144.907 60.8116 145.473 58.6356 147.535C57.7756 148.349 57.2076 148.888 57.4116 150.289C57.4876 150.809 58.2226 151.618 59.3516 151.718C60.5766 151.827 61.4876 150.733 62.2446 149.605C62.1556 155.102 61.9556 157.223 64.0476 158.037C68.2246 159.661 71.4126 158.636 75.1246 157.666C83.1786 155.56 89.5416 153.903 90.8506 151.413C91.1416 150.86 91.1766 150.269 90.9546 149.658C90.4496 148.266 89.5266 146.386 89.5666 146.147C91.1566 145.738 91.7786 143.835 91.1826 142.666C89.2006 138.779 86.4676 139.401 86.5436 138.397C86.6526 136.974 85.5676 135.476 85.0716 135.282C83.7106 134.75 83.6826 134.933 83.5216 134.567C80.3656 127.364 79.3776 126.692 79.6316 126.344C80.2476 125.502 79.8966 124.111 79.4506 123.391C78.5246 121.899 78.2606 122.191 78.2756 121.953C78.3396 121.016 78.6546 117.756 78.8366 115.896L78.8416 115.893ZM62.3676 144.558C62.3466 146.908 61.9646 149.41 59.5276 150.483C58.0016 150.175 58.4066 149.082 59.6336 148.144C60.6266 147.386 61.2386 146.323 61.6866 145.547C61.9406 145.105 62.1666 144.713 62.3676 144.558ZM72.8196 139.478C62.6756 142.184 63.3866 143.537 62.8686 142.821C62.7206 142.616 62.5786 142.424 62.5896 142.159C62.6266 141.35 63.4546 140.877 64.1426 140.622C74.0066 136.972 77.0226 136.67 82.3646 136.088C83.0426 136.014 84.3006 135.878 84.8466 136.913C85.0056 137.214 85.2576 137.609 85.2936 138.017C82.2636 137.063 75.9176 138.651 72.8186 139.477L72.8196 139.478ZM63.6556 131.144C63.6686 131.139 63.7446 131.115 64.1116 131.229C67.0536 132.149 66.7556 130.525 67.1296 132.905C67.4566 134.977 67.6206 135.751 67.8256 136.68C68.2946 138.794 68.0046 137.352 63.9166 139.56C63.7896 139.63 63.8046 131.475 63.6556 131.144ZM69.2866 131.131C74.2106 130.09 74.0326 129.487 74.1926 129.951C75.0066 132.34 75.1346 132.948 76.1766 135.383C76.4066 135.92 76.2946 135.245 69.4466 137.384C69.1706 137.471 69.3616 137.963 68.2336 131.647C68.2243 131.452 68.5753 131.28 69.2866 131.131ZM82.2176 134.769C81.9276 134.797 80.6246 134.774 78.1136 135.267C77.9966 135.288 77.8386 135.283 77.6926 135.303C77.4556 135.336 77.4556 135.337 77.3826 135.128C76.8616 133.638 75.4276 129.521 75.3896 129.426C75.2556 129.102 77.0716 128.548 78.6356 127.598C78.7366 127.644 78.7636 127.786 80.9626 132.131C81.9016 133.987 82.2316 134.64 82.2176 134.769ZM78.6286 125.68C78.5756 125.652 78.5206 125.615 78.4556 125.572C77.6726 125.058 76.0416 123.987 66.6886 127.202C63.5896 128.267 63.7126 129.435 63.4876 129.413C62.9106 129.357 61.3946 127.376 62.2216 126.76C64.2496 125.253 72.8566 122.72 77.0896 122.91C77.8666 122.944 79.0606 124.36 78.6286 125.68ZM23.4886 43.1598C23.7126 57.6438 32.3806 76.0628 39.7356 87.4338C41.7146 90.4928 49.8536 101.852 53.7386 106.328C53.7856 106.383 53.8736 106.484 53.8746 106.512C53.8656 106.553 53.5456 106.792 53.5126 106.817C53.2696 107.002 53.0176 107.192 52.8396 107.476C51.6956 107.468 32.3676 88.4888 25.4386 77.7608C20.7146 70.4468 18.0256 64.3678 16.7196 58.0508L16.7146 58.0318C12.5236 37.7148 25.7976 23.5658 28.2806 23.1008C27.8226 24.7858 23.2726 29.1458 23.4886 43.1598ZM75.1536 112.601C75.2226 115.861 75.2636 117.349 75.1166 121.553C75.1139 121.62 74.9016 121.684 74.4796 121.747C74.4536 121.751 72.7216 122.034 72.6956 122.031C72.6386 121.893 72.8096 117.038 72.1806 111.251C72.1696 111.151 72.0316 109.971 72.1126 109.877C72.1326 109.863 72.2656 109.87 72.2906 109.871C73.3746 109.912 74.1656 109.528 75.0826 109.176C75.1056 109.284 75.0806 109.166 75.1536 112.601ZM69.1926 102.287C69.7016 102.622 69.9606 102.374 70.0036 102.662C70.9526 109.067 70.9056 108.993 70.6036 109.223C69.5346 110.036 67.9466 110.842 66.6046 110.785C64.2886 110.706 64.4136 111.07 63.6606 108.627C62.0836 103.515 61.7826 103.735 62.0716 103.434C64.3486 101.065 66.7446 100.679 69.1926 102.287ZM64.7916 111.854C66.5496 111.902 67.3306 112.458 70.5736 110.733C70.6716 110.681 70.7486 110.622 70.8106 110.574C70.9256 110.485 70.9246 110.293 71.0846 112.239C71.3696 115.679 71.6236 117.828 71.7976 121.689C71.8286 122.393 71.8136 122.207 69.4466 122.781C68.3636 123.042 68.3706 123.125 68.2906 122.948C68.2176 122.789 64.8006 111.964 64.7906 111.853L64.7916 111.854ZM60.2836 113.092C62.5976 112.995 63.2616 111.898 63.4396 111.886C63.4626 111.902 66.7366 121.815 67.3206 123.316C67.1556 123.434 67.1736 123.425 66.7346 123.557C63.8866 124.416 63.9896 124.599 63.8596 124.316C60.5916 117.182 58.8966 113.414 58.6906 112.832C58.8616 112.84 59.3136 113.127 60.2836 113.092ZM62.8066 110.918C61.5176 111.651 59.8396 112.376 58.2856 111.456C57.8796 111.214 58.0006 111.248 56.0276 107.026C55.9156 106.79 56.0066 106.979 56.8196 105.833C57.5876 104.753 59.5196 103.162 60.7206 103.645C60.8756 103.707 60.9666 104.006 62.1166 107.646C63.0836 110.707 63.1766 110.706 62.8056 110.917L62.8066 110.918ZM74.8496 108.025C73.8996 108.52 73.4916 108.531 72.8756 108.532C71.9246 108.534 71.9626 108.593 71.8806 107.635C71.7336 105.932 71.5546 105.12 71.2536 103.595C70.9696 102.173 70.9576 102.162 71.0606 102.114C72.5146 101.437 73.0776 101.786 73.8766 102.41C75.1756 103.425 74.9216 106.778 75.0436 107.589C75.0896 107.887 75.0816 107.903 74.8496 108.025ZM69.4676 100.94C66.8636 99.0988 63.6706 100.039 61.8176 101.947C60.7236 100.973 49.8836 73.2738 44.9476 50.9058C43.0476 42.3028 41.9436 29.0518 45.0836 20.0208C45.9136 17.6288 47.0886 15.6368 49.0126 13.3608C50.2816 11.8568 52.9166 10.6198 55.7346 10.6948C61.5516 10.8258 65.1786 16.7598 67.4006 21.2118C71.1056 28.6358 72.3726 39.8788 73.0036 47.6898C74.9646 71.9578 69.9976 99.1668 69.4676 100.94ZM52.9486 109.794C52.9636 109.643 53.0976 108.513 54.6996 107.478C54.8526 107.379 55.0076 107.275 55.0466 107.288C55.1346 107.314 56.8516 111.453 56.8696 111.527C56.7566 111.559 56.2156 111.553 56.1046 111.555C55.3396 111.568 53.8256 111.243 53.2666 110.708C53.0186 110.47 52.9116 110.163 52.9486 109.794ZM57.5616 113.169C59.3136 117.438 62.3946 123.372 63.1336 124.823C62.9826 124.949 62.9976 124.931 61.8786 125.535C61.6256 125.672 61.6466 125.704 60.7926 124.064C60.2686 123.059 55.1776 113.689 54.6716 112.665C57.5616 113.11 57.1956 112.275 57.5606 113.168L57.5616 113.169ZM77.8386 106.824C77.2766 107.393 76.1526 107.555 76.1306 107.314C76.1086 107.074 76.1996 107.01 75.9646 105.174C75.7876 103.797 75.8106 103.877 75.9286 103.904C77.2786 104.229 77.1496 104.56 77.7516 105.204C78.1476 105.627 78.1416 106.517 77.8386 106.824ZM77.2816 121.657C76.9556 121.646 76.7066 121.646 76.5166 121.646C76.2616 121.646 76.0606 121.646 76.0296 121.614C75.9676 121.509 76.1216 119.222 76.1456 118.954C76.2326 117.983 76.3076 117.144 76.2286 108.92C76.2196 107.993 76.9476 108.927 78.3746 107.759C78.4746 107.695 77.6486 120.889 77.2816 121.657ZM77.6206 103.54C77.5206 103.507 77.1616 102.895 76.2146 102.732C76.1726 102.725 76.1226 102.716 76.0946 102.708C76.1466 102.552 76.2506 102.767 79.9746 93.2208C85.2276 79.7558 87.8026 71.8998 89.4386 58.3688C90.2636 51.5538 90.1396 40.7898 87.9206 33.2618C85.0916 23.6608 81.4426 20.0418 76.8226 15.4598C76.0566 14.6998 75.5036 14.3678 75.1256 14.0178C86.0146 17.1178 93.4306 25.3988 96.5266 36.3298C98.5146 43.3488 98.1106 49.0538 98.0926 49.2318C98.0926 49.2318 98.0876 49.2518 98.0876 49.2618C98.0876 69.4958 87.9486 86.1718 81.8906 96.1358C77.5406 103.29 77.8256 103.435 77.6196 103.541L77.6206 103.54ZM88.7666 148.53C87.9476 148.262 86.9276 147.927 77.3936 150.242C67.8466 152.562 64.8836 153.996 63.9106 154.468C63.8016 154.521 63.7026 154.569 63.6416 154.593C63.6416 154.52 63.6526 154.428 63.6436 154.34C63.4226 145.969 63.5906 149.655 63.5256 144.8C63.5136 144.023 63.9036 143.698 67.4916 142.526C67.4086 142.854 66.8566 143.706 66.2296 145.211C65.3846 147.241 66.8806 148.916 68.6766 148.627C69.8826 148.436 71.1936 146.859 71.1436 145.037C71.0796 142.586 70.3246 141.863 70.4436 141.624C70.4946 141.524 70.6536 141.523 73.4346 140.74C76.1636 139.971 75.9066 140.056 75.8256 140.345C75.7766 140.512 75.7706 140.553 75.7406 140.709C75.4626 142.139 75.0406 144.3 75.8916 145.57C76.4646 146.424 77.5766 146.491 78.4266 146.269C80.8816 145.628 80.8326 141.536 79.4736 139.341C79.8646 139.197 84.9416 138.544 85.5016 139.802C85.6756 140.193 88.8296 147.573 89.1896 148.64C89.0296 148.616 88.9056 148.576 88.7666 148.53ZM77.3456 145.142C76.3236 144.895 76.5646 143.023 76.6926 142.017C76.9696 139.844 76.9366 139.859 77.1446 139.797C77.8596 139.58 78.2076 139.532 78.5386 139.987C79.8056 141.74 79.6036 145.688 77.3456 145.142ZM69.9296 144.933C69.8886 145.836 69.8796 146.428 68.9016 147.203C68.0276 147.894 66.9056 146.821 67.2276 146.036C68.4126 143.143 68.5656 143.24 68.7476 142.246C68.7676 142.134 68.8366 142.03 68.9496 142.03C69.4796 142.03 69.9786 144.008 69.9296 144.933ZM86.9406 140.188C88.7186 141.026 89.7826 142.126 90.1886 143.547C90.1696 144.165 89.7066 144.857 89.1716 145.062C89.0596 145.106 89.0626 145.133 88.9036 144.716C88.6976 144.175 86.9476 140.211 86.9396 140.189L86.9406 140.188Z" fill="black"/>
</svg>
