<svg width="350" height="350" viewBox="0 0 350 350" fill="none" xmlns="http://www.w3.org/2000/svg">
<path d="M83.5789 78.2244C84.6478 76.1839 85.8828 74.2349 87.2714 72.3969C88.3214 77.2094 95.7414 80.7094 99.4164 79.6244C99.8714 82.0569 99.8189 84.6119 100.029 87.0444C100.036 87.1022 100.063 87.1559 100.104 87.1971C100.145 87.2383 100.199 87.2646 100.256 87.2719C100.327 87.278 100.398 87.2584 100.456 87.2167C100.514 87.1749 100.555 87.1138 100.571 87.0444C100.571 86.5194 100.939 78.8019 99.8714 78.6969C103.616 70.4544 112.979 77.2794 112.839 73.2894C113.027 73.4984 113.26 73.6623 113.52 73.769C113.781 73.8757 114.062 73.9223 114.342 73.9055C114.623 73.8887 114.896 73.8089 115.142 73.6719C115.388 73.5349 115.599 73.3444 115.761 73.1144C118.369 70.3319 118.806 66.0094 128.011 68.0044C127.206 68.4769 128.764 69.6319 129.096 69.9819L132.596 74.1469C132.639 74.1795 132.691 74.1972 132.745 74.1972C132.799 74.1972 132.851 74.1795 132.894 74.1469C132.953 74.1136 132.998 74.0585 133.017 73.9932C133.037 73.9278 133.03 73.8575 132.999 73.7969C131.883 71.7784 130.487 69.9283 128.851 68.3019C132.911 66.5519 133.769 58.8169 133.016 54.8794C135.309 54.6344 138.459 54.7394 140.891 54.7394C141.224 54.7394 141.294 54.2144 140.891 54.2144C139.754 54.1269 132.491 53.2694 131.949 54.3894C128.326 52.1144 125.176 48.4919 120.836 47.5644C119.804 45.6569 112.699 37.5369 110.091 39.4619C108.814 40.4244 110.686 42.1569 111.386 42.8569C103.056 39.8119 102.811 43.8369 107.466 45.7969C109.306 46.5153 111.066 47.4244 112.716 48.5094C111.062 49.1576 109.672 50.3393 108.765 51.8672C107.858 53.3951 107.488 55.1819 107.711 56.9444C106.959 54.7394 101.464 53.7244 97.7889 55.1944C97.8933 52.1636 98.2267 49.145 98.7864 46.1644C99.0489 43.3819 95.8814 43.9944 94.2889 48.3694C93.8164 46.2169 92.1189 45.4994 91.4014 47.4419C90.2903 51.6515 90.2903 56.0773 91.4014 60.2869C89.2703 63.6387 87.9354 67.4341 87.4989 71.3819C86.5364 71.0144 83.5264 77.2969 83.2464 77.9969C83.2315 78.0233 83.2219 78.0524 83.2182 78.0826C83.2145 78.1127 83.2168 78.1433 83.2249 78.1725C83.233 78.2018 83.2468 78.2291 83.2655 78.2531C83.2842 78.277 83.3075 78.297 83.3339 78.3119C83.3603 78.3268 83.3894 78.3364 83.4196 78.3401C83.4497 78.3438 83.4803 78.3415 83.5095 78.3334C83.5388 78.3253 83.5661 78.3115 83.59 78.2928C83.614 78.2741 83.634 78.2508 83.6489 78.2244H83.5789ZM110.494 40.2494C110.739 39.6194 112.139 40.2494 112.524 40.3719C115.291 42.0743 117.675 44.3328 119.524 47.0044C116.356 44.8519 113.906 44.5194 111.579 41.9644C111.211 41.6144 110.249 40.7919 110.494 40.2494ZM109.549 45.7444C108.289 45.1669 105.839 44.5544 105.436 42.9794C105.139 41.9119 110.354 43.2769 110.809 43.4344C113.524 44.4477 116.109 45.7813 118.509 47.4069C116.834 47.4418 115.175 47.737 113.591 48.2819C112.385 47.2252 111.021 46.3631 109.549 45.7269V45.7444ZM108.499 55.3694C108.901 50.7494 112.576 48.8594 117.004 48.2644C124.809 47.2494 129.359 55.0719 132.089 55.5094C132.456 59.3769 132.334 64.7494 129.044 67.4094C121.851 65.2744 118.439 67.5319 115.849 71.8194C113.259 76.1069 111.701 70.4019 115.236 66.5694C116.699 65.3353 117.926 63.8472 118.859 62.1769C120.084 59.2194 119.034 53.6719 115.359 52.8319C112.314 52.1144 110.914 54.1794 109.829 56.5594C109.286 58.0819 108.271 57.9069 108.499 55.3694ZM107.886 57.2594C108.306 58.5019 109.741 58.4144 110.336 57.2594C111.089 55.8419 111.299 54.4069 113.066 53.8469C117.844 52.3244 119.804 59.2369 117.774 62.5969C116.304 65.0644 112.156 67.1469 112.366 71.9419C110.249 68.6519 104.176 69.5794 101.656 68.2494C97.3514 65.9044 97.7714 57.2944 105.366 58.5719C106.521 58.7294 107.956 58.7819 107.869 57.2594H107.886ZM94.9889 49.1394C96.1264 45.7269 98.4889 43.7844 98.0864 46.7419C97.9814 47.7744 96.8089 55.2294 97.1764 55.6319C95.8138 56.3498 94.5638 57.2637 93.4664 58.3444C93.6487 55.2323 94.1531 52.1475 94.9714 49.1394H94.9889ZM91.6114 51.8519C91.6114 51.3969 92.3114 45.2369 93.3614 47.9844C93.4729 48.753 93.6366 49.5131 93.8514 50.2594C93.4839 51.6769 92.4164 58.1344 92.8189 59.0094L91.9614 59.8669C91.6346 57.2085 91.5118 54.529 91.5939 51.8519H91.6114ZM92.2414 60.6019C94.9364 57.5219 98.1214 54.9144 102.426 55.1769C105.279 55.3519 106.574 56.2794 106.994 56.9269C107.571 58.0119 106.154 57.9419 105.506 57.7844C97.1764 55.7894 95.8289 66.0794 101.359 68.7569C103.424 69.7544 106.451 69.8244 108.656 70.3844C110.861 70.9444 112.961 72.8344 111.911 73.6919C110.861 74.5494 109.251 73.4994 106.486 73.4994C103.301 73.6394 99.4864 75.6869 99.0489 78.7494C96.2839 79.6244 88.4264 76.6319 87.9714 72.1694C88.7239 68.6869 89.9139 63.3144 92.2239 60.6719L92.2414 60.6019ZM42.1739 247.607C42.9264 245.612 42.4189 242.602 40.1264 241.849C41.1064 235.409 29.0139 236.354 29.2764 239.522C25.7962 239.657 22.3718 240.441 19.1789 241.832C19.2417 241.711 19.2549 241.57 19.2157 241.439C19.1765 241.309 19.088 241.198 18.9689 241.132H18.7064L9.02889 242.182C8.95773 242.191 8.89265 242.226 8.84706 242.282C8.80148 242.337 8.77887 242.408 8.78389 242.479C8.78821 242.516 8.79982 242.552 8.81806 242.584C8.83629 242.617 8.86077 242.645 8.89009 242.668C8.9194 242.691 8.95296 242.707 8.98881 242.717C9.02466 242.727 9.06208 242.729 9.09889 242.724L18.4264 242.112C18.6889 248.447 21.9264 255.989 25.4264 261.239C22.8296 263.855 19.9741 266.2 16.9039 268.239C16.6589 268.414 16.9039 268.852 17.1664 268.747C18.4964 268.117 27.3514 262.289 26.5289 261.082C32.3389 260.504 34.7364 260.609 39.0414 266.647C41.3164 269.884 44.7289 266.017 39.8639 258.824C38.8139 257.267 39.4439 257.442 39.2514 257.074C40.8957 256.044 42.2984 254.671 43.3639 253.049C43.8427 252.148 43.9859 251.107 43.7679 250.11C43.55 249.113 42.9851 248.226 42.1739 247.607ZM42.3314 252.979C41.2814 254.572 38.0439 256.479 38.3239 257.074C37.5189 258.439 40.8264 260.977 41.4564 264.512C41.5789 265.124 41.6314 267.067 40.5989 266.979C38.6739 266.822 36.5389 257.547 26.0389 260.399C22.5602 254.998 20.2475 248.931 19.2489 242.584C27.7189 240.379 25.3214 240.309 34.4214 240.029C34.4941 240.013 34.5579 239.969 34.6 239.908C34.6421 239.846 34.6596 239.771 34.6489 239.697C34.6416 239.639 34.6153 239.585 34.5741 239.544C34.5329 239.503 34.4792 239.477 34.4214 239.469C32.9598 239.347 31.4905 239.347 30.0289 239.469C33.6514 236.109 42.0514 237.947 38.1139 244.194C37.5889 245.052 39.2339 244.964 39.9864 242.444C43.7664 245.209 40.5114 248.884 40.0739 249.829C39.8114 250.372 40.8264 250.442 41.9289 248.184C42.525 248.822 42.8888 249.642 42.9619 250.512C43.0349 251.382 42.8128 252.251 42.3314 252.979ZM253.994 200.269C256.534 197.237 258.102 193.511 258.496 189.575C258.889 185.64 258.089 181.677 256.199 178.202C252.366 171.202 244.929 165.794 246.784 156.817C247.414 153.772 248.656 150.884 249.251 147.839C250.669 140.384 249.251 132.089 244.124 126.227C239.521 121.099 231.979 119.402 230.596 112.962C229.739 108.954 231.209 104.929 229.826 99.7144C228.806 95.756 226.69 92.1658 223.721 89.3567C220.751 86.5475 217.049 84.6335 213.04 83.8347C209.031 83.0358 204.878 83.3846 201.059 84.8409C197.239 86.2972 193.908 88.8018 191.449 92.0669C207.636 97.0019 212.046 115.132 205.449 130.427C202.194 138.022 195.176 145.442 186.706 151.672L186.811 150.569C194.651 144.584 201.984 134.644 204.066 129.814C211.504 112.314 203.961 93.2394 183.941 91.3144C171.796 90.1069 156.991 93.7294 149.344 103.932C147.069 106.977 143.674 117.932 148.189 119.174C147.384 123.724 145.686 134.119 145.336 138.302C144.584 147.769 147.874 157.657 158.374 159.057C158.397 161.109 158.292 163.16 158.059 165.199C130.741 170.974 113.259 189.472 105.891 200.094C102.319 194.117 98.219 188.472 93.6414 183.224C94.3939 182.087 94.4639 177.799 94.5339 176.224C96.2839 177.344 106.171 181.369 108.429 181.264C108.774 181.284 109.113 181.166 109.372 180.936C109.631 180.707 109.789 180.385 109.811 180.039C109.83 179.894 109.83 179.747 109.811 179.602C109.023 177.978 107.815 176.594 106.311 175.594C106.575 175.046 106.642 174.423 106.502 173.831C106.362 173.238 106.023 172.712 105.541 172.339C102.866 170.433 100.085 168.681 97.2114 167.089C96.9489 166.932 96.6339 167.352 96.8964 167.527L104.229 172.672C105.104 173.249 105.804 173.879 105.454 174.999C102.256 172.44 98.8887 170.102 95.3739 167.999C92.4689 166.249 92.0489 166.844 91.5064 164.307C91.1739 162.714 91.1214 159.197 88.4789 160.352C87.9189 159.407 82.4764 159.337 82.1089 161.367C77.2827 159.191 72.3056 157.366 67.2164 155.907C66.8489 155.907 66.6214 156.414 66.8664 156.659C70.5764 160.544 75.3539 163.292 79.7639 166.267C79.3854 166.388 79.0516 166.619 78.8053 166.931C78.559 167.242 78.4114 167.621 78.3814 168.017C75.1089 166.424 69.3339 170.922 74.4789 181.684C75.1995 183.21 76.092 184.649 77.1389 185.972C72.6764 202.702 73.6389 222.092 76.4739 239.084C78.9939 254.099 83.4739 271.704 98.2264 279.229C104.561 282.449 113.574 283.289 118.859 277.654L122.044 284.409C119.996 289.414 117.669 305.409 117.529 310.572C117.529 310.922 118.001 310.922 118.054 310.572C119.03 301.742 120.662 292.997 122.936 284.409C149.694 290.937 188.946 291.864 220.569 281.154C224.651 282.694 228.896 283.763 233.221 284.339C235.251 286.894 240.414 299.634 241.114 302.942C241.138 303.016 241.19 303.077 241.259 303.113C241.327 303.149 241.407 303.156 241.481 303.134C241.543 303.113 241.596 303.072 241.634 303.019C241.671 302.966 241.692 302.902 241.691 302.837C240.278 296.411 237.919 290.23 234.691 284.497C257.441 286.684 273.454 271.599 273.874 249.234C274.206 231.734 264.686 213.692 254.011 200.339L253.994 200.269ZM103.529 178.499C103.949 177.642 104.386 176.749 104.806 175.962C105.156 175.507 106.329 175.804 104.806 178.342C103.809 179.864 103.354 178.919 103.529 178.499ZM75.8964 162.749L70.9089 159.249L71.5214 158.287L77.0864 160.352C76.6492 161.13 76.252 161.931 75.8964 162.749ZM192.709 163.397C187.924 172.273 180.617 179.532 171.709 184.257C169.359 180.645 167.232 176.893 165.339 173.022C170.256 172.584 185.429 167.072 186.584 162.959C188.631 162.998 190.675 163.138 192.709 163.379V163.397ZM147.314 147.997C144.741 139.947 147.769 127.942 148.836 119.297C153.684 120.049 163.344 114.222 165.951 109.094C168.576 114.869 175.611 119.034 181.841 119.594C180.844 124.039 182.314 132.457 187.091 130.759C188.369 130.304 189.891 129.009 191.239 129.919C191.776 130.431 192.162 131.08 192.353 131.797C192.545 132.513 192.535 133.268 192.324 133.979C190.976 140.472 185.079 139.404 185.201 159.722L185.341 163.117C179.157 167.774 171.963 170.91 164.341 172.269C162.154 170.105 160.275 167.65 158.759 164.972C158.899 164.377 160.281 158.444 158.899 158.182C158.514 157.377 150.499 158.007 147.314 147.997ZM151.181 167.999C152.021 167.737 158.181 166.092 158.374 165.847C159.659 168.495 161.441 170.872 163.624 172.847C160.441 175.029 157.588 177.658 155.154 180.652C153.159 176.675 151.817 172.403 151.181 167.999ZM87.6914 160.999C87.0191 161.66 86.593 162.531 86.4839 163.467C85.2414 162.872 83.9814 162.312 82.7039 161.717C83.4264 161.227 84.2509 160.908 85.115 160.784C85.979 160.659 86.8601 160.733 87.6914 160.999ZM85.0839 170.904C86.8339 176.662 83.9114 177.257 82.3189 174.527C81.9726 172.285 80.8889 170.222 79.2389 168.664C80.3414 164.832 83.9989 167.527 85.0839 170.817V170.904ZM74.1989 178.219C73.4464 175.752 72.8339 172.497 74.5139 170.257C78.0139 165.602 81.1639 171.779 81.5139 175.262C81.7414 177.904 80.3239 177.554 79.4139 176.417C78.5039 175.279 77.6639 173.652 76.3864 173.389C75.1089 173.127 77.4539 175.349 77.5239 175.419C77.9789 175.944 78.2939 176.557 78.7664 177.169C80.3764 179.094 82.5989 178.464 82.4764 175.752C83.3339 176.749 84.5764 177.502 85.6089 176.557C85.4514 179.269 86.1339 178.079 86.1339 178.044C86.2389 173.827 88.1814 171.972 87.8839 168.244C87.5033 166.67 87.3734 165.046 87.4989 163.432C87.7264 162.312 88.6364 160.772 89.9664 161.157C90.8764 163.344 90.1589 164.797 92.0139 168.157C93.8689 171.517 93.7639 172.917 93.5364 176.907C93.4139 178.657 93.1339 180.407 92.9764 182.157C91.2264 185.009 80.8489 186.882 77.8564 185.797C76.4177 183.353 75.1939 180.788 74.1989 178.132V178.219ZM77.8039 186.462C81.3039 187.757 90.2114 186.672 93.1864 183.767C95.7239 187.092 98.3314 190.329 100.711 193.759C93.3964 199.744 81.6189 199.832 75.7564 199.324C76.2114 194.932 76.9989 190.749 77.8039 186.374V186.462ZM269.166 265.667C261.466 281.837 244.789 286.334 228.269 282.537C215.441 279.597 199.849 270.987 189.524 262.604C196.944 255.884 200.129 244.124 199.446 236.354C212.886 234.324 224.121 233.309 237.631 232.557C237.696 232.557 237.759 232.531 237.805 232.485C237.851 232.439 237.876 232.377 237.876 232.312C237.876 232.247 237.851 232.185 237.805 232.139C237.759 232.093 237.696 232.067 237.631 232.067C231.016 232.207 224.401 232.697 217.821 233.292C218.171 232.259 212.746 228.427 208.424 219.397C208.301 219.117 207.759 219.222 207.864 219.572C209.899 224.771 213.033 229.468 217.051 233.344C206.244 234.207 195.502 235.744 184.886 237.947C182.121 233.292 176.591 228.847 171.131 228.094C169.871 222.319 167.439 209.772 165.881 204.487C165.689 203.839 158.881 205.152 157.936 205.257C158.181 206.587 158.689 209.054 156.781 209.404C152.651 210.174 135.099 212.904 130.706 212.904C128.956 212.904 128.851 210.542 128.781 209.404C127.889 209.527 122.394 210.034 122.219 210.734C121.799 212.484 132.841 263.392 133.856 267.942C133.996 268.607 138.056 268.082 138.739 268.047C152 267.468 165.219 266.177 178.341 264.179C178.45 264.166 178.549 264.111 178.617 264.026C178.686 263.941 178.719 263.833 178.709 263.724C178.717 263.69 178.717 263.654 178.709 263.619C179.059 263.252 176.959 254.519 176.696 253.364C177.449 253.469 178.306 253.644 179.111 253.714C191.536 269.464 211.469 277.864 219.361 280.839C185.499 290.184 156.501 290.499 122.499 283.604C117.441 271.249 112.349 257.249 111.474 243.932C110.161 224.087 119.349 203.524 132.281 188.807C132.491 188.562 132.141 188.194 131.914 188.439C119.331 201.809 109.951 222.757 110.231 241.237C110.406 252.472 114.361 265.964 118.526 276.622C114.029 281.767 106.171 281.557 100.326 279.089C85.3814 272.807 80.4114 255.744 77.8039 241.254C75.1744 227.66 74.4499 213.766 75.6514 199.972C83.9989 201.372 94.4114 199.622 101.289 194.564C104.997 200.006 108.319 205.702 111.229 211.609C111.469 212.233 111.793 212.822 112.191 213.359C112.263 213.426 112.356 213.463 112.454 213.463C112.551 213.463 112.645 213.426 112.716 213.359C112.763 213.318 112.8 213.266 112.824 213.209C112.848 213.151 112.859 213.089 112.856 213.027C112.629 211.277 107.151 202.002 106.399 200.777C117.297 185.606 132.668 174.224 150.359 168.227C150.044 169.487 153.596 182.594 155.154 181.492C158.008 178.549 161.098 175.845 164.394 173.407C166.219 177.576 168.571 181.493 171.394 185.062C172.549 186.584 189.734 173.879 193.654 163.449C215.301 166.477 236.021 180.949 250.144 197.119C265.369 214.637 279.999 242.777 269.166 265.579V265.667ZM168.104 245.157C164.604 242.812 159.564 239.907 158.181 235.549C157.604 233.799 161.156 235.812 161.891 235.899C163.662 237.923 165.706 239.69 167.964 241.149C168.244 241.324 168.506 240.887 168.244 240.694C165.496 238.804 160.509 234.237 160.316 230.667C160.211 228.269 163.501 231.612 164.481 232.224C165.461 232.837 171.604 237.614 173.004 236.022C173.686 235.269 172.514 233.659 172.199 232.924C171.901 231.454 171.586 230.002 171.254 228.549C178.254 230.299 179.864 233.169 184.151 238.332C185.674 243.092 181.579 251.562 179.146 252.944C174.211 251.894 168.996 251.387 164.814 248.289C162.959 246.924 159.564 244.439 159.126 241.989C158.759 240.082 162.854 242.567 163.414 242.969C164.845 243.933 166.329 244.816 167.859 245.612C167.919 245.644 167.99 245.652 168.056 245.632C168.121 245.612 168.176 245.567 168.209 245.507C168.241 245.447 168.249 245.376 168.229 245.31C168.209 245.245 168.164 245.189 168.104 245.157ZM182.104 250.582C184.457 247.054 185.491 242.81 185.026 238.594L198.746 236.319C198.589 246.504 195.789 254.414 188.631 261.887C185.433 259.227 182.432 256.338 179.654 253.242C180.694 252.569 181.559 251.657 182.174 250.582H182.104Z" fill="#01004F"/>
<path d="M156.484 204.067C155.469 201.512 152.284 202.614 150.271 202.912C148.749 203.139 146.929 204.049 146.316 202.719C145.214 200.269 143.849 198.169 140.716 198.747C136.306 199.499 138.249 204.452 136.656 204.872C133.804 205.624 129.201 204.242 129.814 209.772C129.814 210.174 130.006 211.662 130.636 211.679C134.679 211.679 152.056 208.984 156.501 208.179C157.656 207.969 156.729 204.679 156.501 204.032L156.484 204.067ZM140.734 204.627C138.581 202.999 140.734 200.269 142.256 201.687C144.479 203.717 142.291 205.764 140.821 204.627H140.734ZM161.401 139.037C161.944 138.932 161.856 137.987 161.296 138.057C158.251 138.389 158.636 137.532 159.021 133.927C159.235 131.602 159.651 129.301 160.264 127.049C160.261 126.988 160.239 126.93 160.2 126.883C160.161 126.836 160.107 126.803 160.048 126.789C159.988 126.775 159.926 126.781 159.87 126.806C159.814 126.831 159.768 126.873 159.739 126.927C158.691 130.161 158.039 133.51 157.796 136.902C157.709 139.037 159.686 139.352 161.401 139.037ZM286.771 58.5541L278.196 61.3541C275.991 57.0491 271.301 50.6441 266.891 48.1416L272.561 40.5116C272.701 40.3191 272.456 40.0041 272.264 40.1791C271.546 40.8441 266.104 46.6716 265.876 47.9841C253.451 54.5466 248.936 65.1341 255.376 66.3241C254.624 68.3541 256.566 70.1216 258.456 70.2791C258.036 73.0616 263.461 76.6841 267.451 69.4566C269.096 69.6491 269.849 72.8516 270.811 74.5666C272.806 78.0666 276.061 79.2566 276.761 77.0866C277.566 74.2691 271.984 66.8841 277.846 62.3866C278.599 62.7541 286.019 59.5691 287.016 58.8866C287.244 58.8166 286.999 58.4841 286.771 58.5541ZM257.984 69.4216H257.844C257.216 69.2491 256.681 68.8372 256.354 68.2743C256.026 67.7114 255.933 67.0425 256.094 66.4116C258.824 66.4116 260.574 64.5391 262.236 62.5791C262.779 62.0891 264.669 61.6866 264.809 62.8066C265.106 65.8341 261.116 70.2616 257.984 69.4216ZM261.904 72.9216C261.19 72.8995 260.507 72.6257 259.975 72.1485C259.443 71.6713 259.098 71.0216 258.999 70.3141C261.431 70.1741 263.059 68.2666 264.459 66.4816C265.176 65.7466 267.644 65.0991 267.346 67.1466C267.049 69.1941 264.354 73.2191 261.904 72.8516V72.9216ZM274.731 72.0641C274.959 72.8691 276.989 77.6116 275.081 77.3141C270.881 76.7541 270.671 69.1591 267.731 68.8441C269.044 65.9916 267.556 64.1541 265.141 65.3441C265.964 63.3316 265.841 60.6541 262.814 61.5116C265.211 56.1391 258.246 58.5366 256.374 61.2841C256.111 61.6691 256.654 62.1066 256.934 61.7216C259.156 58.6241 265.176 57.1366 261.309 62.6141C255.796 70.3491 245.559 62.6141 262.341 51.2216L266.366 48.5966C270.813 52.26 274.519 56.7385 277.286 61.7916C274.171 64.1541 273.716 68.4066 274.749 71.9941L274.731 72.0641ZM341.004 241.674C337.215 241.883 333.441 242.304 329.699 242.934C329.209 243.109 329.296 244.054 329.349 244.439C323.276 242.497 325.761 232.189 322.856 231.279C322.393 231.168 321.908 231.201 321.464 231.373C321.02 231.545 320.639 231.848 320.371 232.242C318.534 234.622 318.621 238.034 318.726 240.992C315.524 239.907 309.101 241.149 310.466 246.137C308.839 246.697 308.716 251.054 309.521 252.769C308.925 254.844 309.174 257.07 310.213 258.962C311.253 260.853 312.998 262.257 315.069 262.867L315.594 262.989C318.78 263.812 322.075 264.131 325.359 263.934C324.764 265.684 334.109 269.184 335.596 269.552C335.665 269.573 335.739 269.566 335.803 269.535C335.867 269.503 335.917 269.447 335.941 269.38C335.966 269.313 335.964 269.239 335.936 269.173C335.907 269.107 335.855 269.055 335.789 269.027C332.467 267.559 329.225 265.918 326.076 264.109C330.101 258.982 331.326 250.109 330.311 243.897C333.811 243.389 337.521 243.127 341.056 242.322C341.336 242.147 341.249 241.674 341.004 241.674ZM325.674 263.147C320.529 262.027 309.924 264.302 310.134 253.609C310.974 254.484 311.394 253.889 311.044 253.609C309.679 252.559 309.521 248.132 310.764 246.872C311.394 248.219 311.674 247.379 311.586 247.152C309.241 241.744 315.436 240.887 318.691 241.902C318.499 243.792 316.714 243.197 315.559 242.654C315.496 242.628 315.425 242.627 315.361 242.649C315.296 242.672 315.242 242.717 315.209 242.777C315.176 242.826 315.158 242.884 315.158 242.943C315.158 243.002 315.176 243.06 315.209 243.109C316.766 244.492 319.304 244.317 319.461 241.867C319.584 239.889 319.111 233.397 321.701 232.242C324.291 231.087 322.979 237.177 324.659 241.132C325.341 242.742 327.844 245.839 329.401 245.542C330.224 252.384 328.754 256.969 325.674 263.147ZM312.759 164.499C313.844 164.412 316.136 164.027 316.259 162.627C319.689 162.837 323.119 162.924 326.549 162.889C326.881 164.132 335.894 164.394 337.206 164.184C337.469 164.184 337.591 163.729 337.206 163.659L327.616 162.469C328.386 157.412 327.459 146.247 324.274 142.799C325.744 141.277 332.744 138.057 335.159 136.762C335.201 136.716 335.224 136.657 335.224 136.595C335.224 136.534 335.201 136.474 335.159 136.429C335.133 136.385 335.094 136.35 335.046 136.331C334.998 136.312 334.946 136.309 334.896 136.324C333.304 136.814 323.521 140.874 323.101 142.677C313.424 142.274 312.776 132.562 309.381 133.734C306.844 134.627 308.226 139.719 309.136 141.452C309.486 142.152 311.079 144.217 309.399 144.374C305.199 144.794 301.961 149.834 305.146 152.302C303.991 154.454 304.429 157.674 305.986 158.532C304.306 163.397 308.996 164.902 312.759 164.499ZM306.599 160.474C306.562 159.894 306.643 159.312 306.839 158.764C307.034 158.216 307.34 157.715 307.736 157.289C308.086 156.957 307.439 156.204 306.424 157.884C305.094 154.752 305.076 153.089 307.701 150.587C308.226 150.097 306.949 149.834 305.601 151.759C303.606 148.014 306.721 146.177 309.749 145.074C312.181 144.462 310.396 142.029 309.994 141.312C308.909 139.352 308.244 134.819 309.994 134.487C311.744 134.154 312.269 138.757 317.274 141.872C319.261 143.236 321.665 143.856 324.064 143.622C326.461 147.874 327.284 156.747 326.899 161.857H310.974C310.694 161.857 310.711 162.224 310.974 162.259C312.409 162.399 313.844 162.504 315.279 162.609C314.999 163.957 306.686 164.814 306.599 160.474ZM154.559 121.414C153.501 121.592 152.536 122.13 151.829 122.937C150.884 124.144 151.671 124.687 151.829 124.179C152.485 123.271 153.46 122.646 154.559 122.429C155.574 122.079 155.136 121.414 154.559 121.414ZM168.471 122.674C169.717 122.831 170.856 123.457 171.656 124.424C171.919 124.774 172.549 124.564 171.656 123.252C171.327 122.752 170.888 122.335 170.372 122.032C169.856 121.728 169.278 121.547 168.681 121.502C167.999 121.659 167.859 122.499 168.471 122.674ZM47.6689 128.117C46.2285 127.333 44.6186 126.912 42.9789 126.892C42.9789 124.809 44.3789 123.112 45.2539 121.274C47.1964 117.144 45.0089 114.642 43.3114 115.482C41.3514 116.462 39.2514 123.689 31.3939 122.482C31.3939 121.082 24.5689 116.724 23.1164 116.042C22.8364 115.902 22.6614 116.339 22.9239 116.479C25.6103 118.223 28.1086 120.24 30.3789 122.499C23.9214 127.329 24.3064 138.652 24.6389 139.054C21.4364 139.177 18.2689 138.354 15.0839 138.669C14.7689 138.669 14.7689 139.212 15.0839 139.212C16.6764 139.212 24.6564 140.297 25.4089 139.859C28.4889 142.782 37.5364 146.562 42.0864 145.652C42.7823 145.542 43.4491 145.294 44.047 144.921C44.6449 144.549 45.1617 144.06 45.5666 143.483C45.9716 142.907 46.2564 142.255 46.4041 141.566C46.5518 140.877 46.5594 140.166 46.4264 139.474C46.8179 139.335 47.1781 139.12 47.4862 138.841C47.7943 138.562 48.0441 138.226 48.2214 137.85C48.3987 137.474 48.4999 137.067 48.5192 136.652C48.5386 136.237 48.4756 135.822 48.3339 135.432C48.217 135.102 48.0455 134.794 47.8264 134.522C48.3917 134.192 48.8581 133.716 49.177 133.145C49.496 132.573 49.6557 131.927 49.6396 131.273C49.6235 130.618 49.4322 129.98 49.0856 129.425C48.7389 128.87 48.2497 128.418 47.6689 128.117ZM45.4989 142.012C42.6639 148.469 27.9989 141.732 25.5664 138.512C25.3564 138.214 25.3039 128.222 31.1489 123.024C38.4814 125.702 42.7689 116.024 44.1164 116.024C45.0789 116.024 45.3764 117.407 45.3764 118.142C45.3764 121.362 42.2439 123.654 42.2614 126.892C39.2864 127.189 38.2889 129.762 39.6539 131.074C36.3814 131.197 35.6114 133.892 38.4989 135.537C33.2489 136.027 37.1864 140.419 41.8414 141.067C42.1389 141.067 42.1914 140.664 41.8414 140.577C32.3564 137.234 38.3414 134.662 43.3639 137.182C45.2889 138.249 46.4964 139.614 45.4989 142.012ZM46.1289 138.512C45.137 137.126 43.6647 136.159 41.9989 135.799C40.2489 135.309 39.4089 135.922 37.6589 134.137C36.2939 132.772 38.4989 130.777 43.1539 132.387C48.1764 134.049 48.7364 137.497 46.0764 138.564L46.1289 138.512ZM48.4389 132.369C48.1068 132.894 47.6723 133.346 47.1614 133.699C45.3426 132.157 43.0817 131.232 40.7039 131.057C40.4239 130.724 39.5839 130.602 39.6714 129.517C39.8639 125.999 50.5739 127.749 48.3864 132.422L48.4389 132.369ZM167.509 131.389C168.296 131.389 168.961 129.009 167.929 128.659C166.896 128.309 166.634 131.389 167.509 131.389ZM153.141 127.749C152.476 127.749 151.934 130.409 152.756 130.409C153.579 130.409 154.104 127.837 153.141 127.749ZM166.861 144.392C173.529 145.284 172.846 138.074 171.394 139.282C170.711 139.894 172.724 143.604 166.914 143.937C166.651 143.937 166.564 144.392 166.861 144.392Z" fill="#01004F"/>
</svg>
