<svg width="142" height="35" viewBox="0 0 142 35" fill="none" xmlns="http://www.w3.org/2000/svg">
<path d="M16.0031 0.0368365C14.1766 0.243725 11.4367 1.10311 9.87781 1.96249C5.68928 4.23827 2.85494 7.78721 1.43777 12.5138C1.15434 13.4369 0.823662 15.9514 0.839409 17.129C0.839409 18.1635 1.15434 20.6939 1.34329 21.2986C1.43777 21.5851 1.64247 22.2694 1.81568 22.7946C2.09912 23.6858 3.46905 26.4868 3.70524 26.6778C3.75248 26.7255 4.00442 27.0438 4.24062 27.4098C4.82323 28.2851 6.35063 29.8447 7.50011 30.736C8.38191 31.4203 10.8698 32.8685 11.1848 32.8844C11.2635 32.8844 11.2792 32.2797 11.232 31.4839C11.1218 29.7174 11.4524 27.3143 12.161 24.8635C12.287 24.4497 12.3815 23.9086 12.3815 23.6699C12.3815 23.4312 12.4445 23.1766 12.5232 23.097C12.6019 23.0015 12.7436 22.54 12.8224 22.0625C12.9169 21.5851 13.0743 20.853 13.1845 20.4393C13.342 19.8186 13.3263 19.5799 13.1058 18.9115C12.7909 17.8929 12.7751 16.2378 13.0901 15.4421C13.8301 13.5483 14.6489 12.8321 16.0346 12.8321C17.7037 12.8321 18.5068 14.1053 18.1919 16.2378C18.0502 17.2086 17.6565 18.7364 17.4046 19.2138C17.3416 19.3571 17.2313 19.7549 17.1841 20.0891C17.1211 20.4393 16.9952 20.9326 16.9164 21.2032C16.696 21.8238 17.1211 23.0333 17.688 23.4949C18.2234 23.9245 19.3414 24.0519 20.3649 23.8131C21.0892 23.654 21.3884 23.463 22.1442 22.731C23.0417 21.8397 23.7188 20.8053 23.7188 20.3119C23.7188 20.1687 23.7976 19.9777 23.892 19.8823C24.3329 19.4366 24.5691 15.9673 24.2385 14.5031C23.8763 12.8958 22.7583 11.3202 21.3096 10.3972C19.861 9.45824 16.8692 9.18769 15.0269 9.82427C13.7357 10.2699 12.5862 11.0179 11.8461 11.8932C11.1848 12.673 10.4919 13.9461 10.4919 14.3917C10.4919 14.5509 10.4132 14.7578 10.3187 14.8533C10.2242 14.9487 10.114 15.5535 10.0668 16.206C9.98803 17.1768 10.051 17.6224 10.3345 18.5773C10.5234 19.2298 10.8698 19.9937 11.0745 20.2801C11.4997 20.853 11.4997 21.0758 11.106 22.6036C10.9958 23.0174 10.8068 23.3994 10.6966 23.4471C9.7046 23.8291 7.68907 21.426 7.01197 19.0388C6.76003 18.1317 6.74429 14.901 6.99623 13.9461C7.10645 13.5483 7.29541 13.0072 7.42138 12.7207C7.54735 12.4502 7.65757 12.1796 7.65757 12.116C7.65757 12.0523 7.9725 11.5112 8.36616 10.9224C10.4132 7.80313 13.7357 6.14802 17.9399 6.14802C18.9005 6.14802 19.8925 6.21167 20.1602 6.29125C22.3332 6.97557 22.9158 7.19837 23.7661 7.70764C25.4194 8.71025 26.6162 10.0789 27.8129 12.3706C27.8916 12.5138 28.0018 12.8958 28.0491 13.2141C28.1121 13.5324 28.2223 13.8347 28.301 13.8825C28.3798 13.9302 28.4427 14.9647 28.4427 16.1901C28.4427 18.4022 28.2853 19.2934 27.6239 21.1077C26.8839 23.097 24.9785 25.2932 23.2464 26.1526C22.2544 26.63 20.3964 27.1552 19.6563 27.1552C18.6643 27.1552 16.7117 26.3276 16.1763 25.6592C15.9244 25.3569 15.6882 25.4683 15.6882 25.8979C15.6882 26.0571 15.6252 26.3276 15.5307 26.4868C15.452 26.63 15.3103 27.0756 15.2316 27.4735C14.7749 29.5742 14.1293 31.2771 13.1373 32.8685C12.8381 33.3619 13.0901 33.6483 13.9089 33.7597C14.3183 33.8234 14.8694 33.9348 15.1213 34.0144C15.7512 34.2212 19.1681 34.1894 20.3176 33.9825C21.3569 33.7915 23.0417 33.3141 23.7976 32.9958C28.553 31.0224 32.1589 27.012 33.7178 21.9034C34.5523 19.182 34.5996 16.015 33.8437 12.8321C33.5918 11.7977 33.5131 11.559 32.836 9.9675C31.8597 7.64398 29.6552 4.9226 27.4192 3.25157C25.4982 1.81926 23.6086 0.991708 20.6641 0.275554C19.8452 0.08458 16.9322 -0.0745652 16.0031 0.0368365ZM57.9986 5.78198C57.3845 5.87747 56.4082 6.896 56.1563 7.69172C55.8886 8.56702 56.1563 9.50598 56.9121 10.238C58.5812 11.8772 61.4786 10.3335 61.1164 7.97819C60.8959 6.48222 59.5418 5.52735 57.9986 5.78198ZM40.8351 6.72094C40.6934 6.88008 40.6934 26.073 40.8509 26.2958C40.9296 26.4231 41.6067 26.4709 42.9294 26.455L44.8977 26.439L44.9764 23.2084C45.0394 20.5825 45.1024 19.9459 45.2913 19.8345C45.4173 19.7549 46.488 19.6754 47.669 19.6754C50.2514 19.6754 51.3379 19.4844 52.5189 18.8478C54.062 18.0043 54.9596 16.7948 55.4477 14.8692C55.7469 13.6597 55.7469 12.7844 55.432 11.543C55.1485 10.429 55.0226 10.1585 54.3455 9.25135C53.5109 8.12142 52.6606 7.50075 51.2749 7.0074C50.5034 6.75277 49.8578 6.70502 45.685 6.65728C43.0868 6.62545 40.8981 6.65728 40.8351 6.72094ZM49.4799 10.6837C50.5349 11.0179 51.0545 11.4953 51.2907 12.3547C51.5899 13.4846 51.3694 14.535 50.7081 15.1716C49.9837 15.8559 49.3381 16.015 47.2281 16.015C45.8424 16.015 45.4173 15.9673 45.2283 15.7604C45.0236 15.5694 44.9764 15.1079 44.9764 13.2936C44.9764 10.429 44.9606 10.4449 47.1494 10.4449C48.0942 10.4449 49.0075 10.5404 49.4799 10.6837ZM77.0989 9.7447C77.0989 10.8428 77.0202 11.8772 76.9415 12.0523C76.8312 12.2592 76.6108 12.3547 76.2329 12.3547C75.9494 12.3547 75.6818 12.4183 75.6503 12.5138C75.6345 12.5934 75.6345 13.1504 75.6818 13.7392C75.7605 14.7896 75.7762 14.8055 76.2486 14.9169C76.5163 14.9647 76.8155 15.0602 76.91 15.1238C77.0517 15.2034 77.0989 16.4606 77.0989 19.6435C77.0989 23.9245 77.1147 24.0837 77.4611 24.7203C78.1854 26.073 79.3192 26.5504 81.6181 26.4868L83.1613 26.439L83.2085 24.8953L83.2558 23.3357H82.8621C82.2637 23.3357 81.3819 22.8583 81.2875 22.4763C81.2402 22.2853 81.193 20.5984 81.193 18.7046C81.193 16.0946 81.2402 15.2193 81.3977 15.092C81.5079 14.9965 81.9488 14.901 82.374 14.8692L83.1613 14.8214V12.4343L82.2952 12.3865C81.8228 12.3547 81.3819 12.2433 81.3189 12.1478C81.256 12.0364 81.193 11.0019 81.193 9.84019V7.73947H77.0989V9.7447ZM135.628 7.83496C135.565 7.89861 135.518 8.90123 135.518 10.063C135.518 12.3229 135.502 12.3547 134.636 12.3547C134.242 12.3547 134.242 12.3706 134.29 13.5801C134.337 14.7896 134.353 14.8214 134.762 14.8692C134.982 14.901 135.25 15.0124 135.329 15.1079C135.423 15.2193 135.518 17.145 135.565 19.5958C135.612 21.9511 135.691 24.0996 135.754 24.3542C135.943 25.0545 136.919 25.9457 137.848 26.2481C138.888 26.5982 141.533 26.63 141.801 26.2958C141.927 26.1526 141.974 25.5797 141.942 24.7521L141.895 23.4153L141.344 23.3198C140.746 23.2243 140.069 22.906 139.895 22.6355C139.832 22.54 139.769 20.8053 139.769 18.7841C139.769 14.6305 139.675 14.901 141.045 14.901C141.942 14.901 142.021 14.7419 141.942 13.2936L141.895 12.4343L140.872 12.3547L139.848 12.2751L139.769 10.0471L139.691 7.81904L137.707 7.7713C136.62 7.75538 135.691 7.78721 135.628 7.83496ZM69.3045 11.9727C68.5329 12.1796 67.6354 12.7048 67.037 13.3255C66.3127 14.0894 66.1237 14.0416 66.045 13.0708L65.9978 12.4343H62.0612V26.439L64.0452 26.4709C65.9978 26.5186 66.045 26.5027 66.1395 26.1526C66.1867 25.9616 66.234 23.9405 66.234 21.6488C66.234 17.1131 66.2497 16.9858 67.1787 16.0946C67.5881 15.6967 67.8086 15.6172 68.6904 15.5694L69.7139 15.5058L70.328 16.1583C71.0523 16.9221 70.9736 16.1901 71.0366 22.7787C71.0523 24.5293 71.0681 26.073 71.0838 26.2321C71.1153 26.455 71.3673 26.4868 73.1309 26.455L75.1306 26.439V15.267L74.674 14.3599C73.8867 12.7844 72.6742 12.0364 70.8161 11.9409C70.1548 11.925 69.4777 11.925 69.3045 11.9727ZM88.9874 11.9727C87.2868 12.4343 86.468 12.8958 85.413 13.9461C83.9958 15.3944 83.3502 17.0813 83.3502 19.3571C83.366 23.3516 85.8382 26.3117 89.4913 26.6618C92.6091 26.9642 95.0183 26.0412 96.5614 23.9564C96.7819 23.654 97.2543 22.6832 97.2543 22.5082C97.2543 22.4445 96.341 22.3808 95.2387 22.3808H93.2232L92.7508 22.8742C92.1997 23.4471 91.4281 23.8131 90.7195 23.8131C90.0109 23.8131 88.9244 23.3039 88.4206 22.7628C88.0426 22.3331 87.4915 21.0918 87.4915 20.6621C87.4915 20.5188 88.641 20.4711 92.3414 20.4711C95.0025 20.4711 97.2543 20.4074 97.3645 20.3438C97.6007 20.1846 97.3802 17.6542 97.0338 16.7312C96.3252 14.8055 94.9868 13.1822 93.6326 12.6093C93.2389 12.4502 92.7823 12.2433 92.6248 12.1637C92.2942 11.9886 89.4913 11.8454 88.9874 11.9727ZM92.058 15.458C92.6721 15.8877 93.2074 16.9062 93.1287 17.4792C93.0815 17.8452 93.05 17.8452 90.3889 17.8929C87.3183 17.9407 87.3026 17.9248 87.7907 16.7789C88.1371 15.9832 88.83 15.267 89.4756 15.0602C90.2156 14.8214 91.4124 15.0124 92.058 15.458ZM112.292 11.9727C110.465 12.4661 109.19 13.2777 108.198 14.535C107.804 15.0442 107.489 15.5217 107.489 15.6172C107.489 15.6967 107.379 15.9832 107.237 16.2537C107.096 16.5084 106.891 17.3041 106.781 18.0203C106.23 21.426 107.741 24.6089 110.576 26.0412L111.662 26.5982H113.945C116.307 26.5982 116.512 26.5504 117.961 25.7706C119.016 25.1977 120.748 22.9697 120.48 22.5241C120.417 22.4445 119.52 22.3808 118.465 22.3808H116.528L116.134 22.8424C114.559 24.6407 111.615 23.7177 110.985 21.2191C110.891 20.8849 110.891 20.5984 110.969 20.5347C111.048 20.487 113.3 20.4552 115.992 20.4711C119.835 20.4711 120.874 20.4393 120.89 20.2801C121.031 18.2908 120.086 15.3466 118.905 14.0735C118.244 13.3573 117.095 12.5616 116.528 12.4183C116.276 12.3547 115.992 12.2433 115.882 12.1637C115.662 11.9886 112.78 11.8454 112.292 11.9727ZM114.748 15.0761C115.457 15.3307 116.276 16.2219 116.402 16.9062C116.591 17.9407 116.606 17.9407 113.678 17.8929C111.048 17.8452 111.032 17.8452 110.985 17.4792C110.922 17.0336 111.473 15.9354 111.946 15.5217C112.623 14.9487 113.804 14.7578 114.748 15.0761ZM125.991 11.9727C122.763 12.7525 121.598 13.9143 121.582 16.3333C121.582 18.9433 122.874 20.0414 126.7 20.7257C129.33 21.1872 130.085 21.601 130.054 22.6036C130.038 23.3198 129.55 23.7813 128.574 23.9882C127.346 24.2587 126.385 23.9564 125.613 23.0811L124.999 22.3808H123.094C121.551 22.3808 121.189 22.4286 121.189 22.6036C121.189 23.0652 121.819 24.2747 122.338 24.8794C122.826 25.4046 123.204 25.6592 124.684 26.3754C124.826 26.455 125.598 26.5823 126.369 26.6778C127.802 26.8528 130.29 26.6937 130.92 26.3754C131.062 26.3117 131.471 26.1048 131.817 25.9457C132.715 25.516 133.565 24.5452 133.88 23.6222C134.227 22.5718 134.132 21.1077 133.644 20.0891C133.061 18.8956 131.518 18.0362 129.219 17.6224C126.259 17.0972 126.212 17.0813 125.739 16.6198C125.173 16.0309 125.173 15.824 125.739 15.1875C126.196 14.6782 126.228 14.6623 127.487 14.6623C128.747 14.6623 128.778 14.6782 129.235 15.1875C129.487 15.4739 129.692 15.8081 129.692 15.9354C129.692 16.1264 130.022 16.1742 131.66 16.1742C133.833 16.1742 133.77 16.2219 133.392 15.092C132.699 13.0867 130.92 12.0682 127.96 11.9568C127.046 11.925 126.165 11.925 125.991 11.9727ZM105.049 12.3069C104.356 12.5457 103.395 13.3414 103.096 13.9143C102.797 14.4872 102.529 14.2485 102.451 13.2936L102.372 12.4343H98.4352L98.388 19.1184C98.3722 22.7946 98.388 25.9616 98.4352 26.1685C98.514 26.5186 98.5612 26.5186 100.451 26.4868C101.537 26.4709 102.419 26.3754 102.482 26.2799C102.545 26.2003 102.608 24.5134 102.608 22.54C102.608 19.4207 102.64 18.8637 102.907 18.1635C103.458 16.7153 104.639 15.8559 106.119 15.8559C106.529 15.8559 106.702 15.7763 106.749 15.5694C106.86 15.1079 106.875 12.9594 106.781 12.482C106.686 12.1 106.608 12.0364 106.182 12.0523C105.899 12.0682 105.395 12.1796 105.049 12.3069ZM56.55 12.5457C56.5027 12.6571 56.487 15.7922 56.5027 19.5162L56.55 26.2799L58.4238 26.3595C59.5575 26.4072 60.3763 26.3754 60.5023 26.2799C60.6755 26.1526 60.7227 24.7998 60.7227 19.3889C60.7385 15.6967 60.6912 12.5934 60.644 12.5138C60.4865 12.2751 56.6287 12.3069 56.55 12.5457Z" fill="#0F0F0F" fill-opacity="0.8"/>
</svg>
