<svg width="200" height="200" viewBox="0 0 200 200" fill="none" xmlns="http://www.w3.org/2000/svg">
<path d="M149.379 87.8904C150.242 88.3156 151.188 88.5477 152.149 88.5704C152.203 88.5642 152.256 88.5473 152.303 88.5208C152.351 88.4942 152.392 88.4585 152.426 88.4157C152.459 88.3729 152.484 88.3239 152.498 88.2714C152.513 88.219 152.516 88.1643 152.509 88.1104C152.429 87.4804 151.719 88.0204 149.749 87.1104L149.849 86.3704C149.899 86.1604 149.649 85.8204 149.379 85.9204C149.109 86.0204 149.039 86.3404 148.959 86.9204C148.88 87.5004 148.839 87.6204 149.379 87.8904ZM44.9995 90.7304C46.2028 90.4032 47.3329 89.85 48.3295 89.1004C48.7195 88.8004 48.5895 88.1004 48.4795 87.7004C48.4482 87.5966 48.3797 87.508 48.2871 87.4517C48.1945 87.3953 48.0844 87.3751 47.9778 87.3949C47.8712 87.4147 47.7757 87.4732 47.7096 87.5591C47.6435 87.645 47.6114 87.7523 47.6195 87.8604C47.6385 88.0771 47.6787 88.2915 47.7395 88.5004C45.3695 90.2304 44.4495 89.8004 44.5895 90.5004C44.6206 90.5803 44.6785 90.6469 44.7533 90.6888C44.8281 90.7308 44.9151 90.7455 44.9995 90.7304ZM42.2795 88.8804C44.2795 88.8804 43.5995 87.7004 43.0595 87.8804L42.2895 88.0004C41.6295 84.8704 42.1595 84.2104 41.5895 84.1904C41.5035 84.1848 41.4188 84.2131 41.3534 84.2691C41.288 84.3252 41.2472 84.4046 41.2395 84.4904C41.1689 85.7269 41.2596 86.9673 41.5095 88.1804C41.6195 88.7204 41.8195 88.8804 42.2795 88.8804ZM100.349 87.1604C100.919 87.1604 103.919 86.5104 104.429 86.4304C105.179 86.3004 106.069 86.0704 106.129 85.2604C106.129 84.7604 105.769 84.1804 105.359 84.4804C105.274 84.5402 105.211 84.6267 105.18 84.7263C105.15 84.8258 105.153 84.9328 105.189 85.0304C105.339 85.4204 105.019 85.3904 100.189 86.4404C100.101 86.4678 100.025 86.5277 99.9788 86.608C99.9321 86.6884 99.9174 86.7834 99.9376 86.8741C99.9577 86.9648 100.011 87.0446 100.088 87.0977C100.164 87.1507 100.257 87.1731 100.349 87.1604ZM34.5795 62.6804C34.7995 62.9304 35.3395 62.6804 35.1795 62.3004C34.1795 59.8604 32.3395 57.1404 31.1795 54.4604C30.9995 54.0304 30.6395 53.3004 30.2895 53.2604C30.2457 53.2542 30.201 53.2603 30.1604 53.2779C30.1198 53.2956 30.0849 53.3241 30.0595 53.3604C29.8395 53.6604 30.1595 54.4904 30.3095 54.8404C30.7695 55.8304 32.9995 60.8704 34.5795 62.6804ZM66.9995 58.4604C67.0182 58.5384 67.0571 58.6102 67.1122 58.6686C67.1673 58.727 67.2367 58.77 67.3135 58.7933C67.3904 58.8165 67.472 58.8193 67.5502 58.8012C67.6285 58.7832 67.7006 58.7449 67.7595 58.6904C68.5851 57.9386 69.3353 57.108 69.9995 56.2104C72.9995 65.8104 72.9995 66.1504 73.4695 66.1504C73.5369 66.1485 73.6031 66.1321 73.6636 66.1024C73.7241 66.0727 73.7775 66.0303 73.8201 65.9782C73.8628 65.926 73.8938 65.8653 73.9109 65.8001C73.9281 65.7349 73.931 65.6668 73.9195 65.6004C72.7995 62.0604 71.6195 58.6004 70.5995 55.0704C70.5766 54.9826 70.5284 54.9036 70.4607 54.8432C70.3931 54.7828 70.3092 54.7438 70.2194 54.731C70.1297 54.7181 70.0381 54.7321 69.9563 54.7712C69.8745 54.8102 69.806 54.8725 69.7595 54.9504C69.1852 55.8536 68.5147 56.6918 67.7595 57.4504C67.1595 54.7104 65.7595 48.4504 65.7595 48.4504C65.7343 48.3496 65.6701 48.2629 65.581 48.2095C65.4919 48.156 65.3853 48.1402 65.2845 48.1654C65.1837 48.1906 65.0971 48.2548 65.0436 48.3438C64.9902 48.4329 64.9743 48.5396 64.9995 48.6404C65.3395 50.1904 66.7895 57.7704 66.9995 58.4604ZM14.9095 110.48C11.6895 108.94 8.8195 107.36 5.5195 105.62C4.8795 105.28 4.4395 106.45 5.4395 106.72C8.32065 108.519 11.3929 109.991 14.5995 111.11C14.9995 111.22 15.2795 110.7 14.9095 110.48ZM17.4695 87.3904C17.5382 87.4512 17.6239 87.4895 17.7151 87.5002C17.8063 87.511 17.8985 87.4936 17.9795 87.4504C18.6395 87.1304 17.7895 86.3404 18.1095 81.5904C26.2195 91.3804 25.7695 91.1304 26.1095 91.1304C26.1799 91.1347 26.2501 91.1189 26.3118 91.0848C26.3735 91.0506 26.4242 90.9995 26.4578 90.9375C26.4914 90.8755 26.5066 90.8051 26.5016 90.7348C26.4966 90.6644 26.4716 90.597 26.4295 90.5404C25.1595 88.9404 19.5995 82.0304 18.1195 80.1504C18.0638 80.0798 17.9891 80.0267 17.9042 79.9974C17.8193 79.968 17.7278 79.9636 17.6405 79.9846C17.5531 80.0057 17.4737 80.0513 17.4115 80.1161C17.3492 80.1809 17.3069 80.2622 17.2895 80.3504C17.0862 82.1767 17.0527 84.0179 17.1895 85.8504C14.1895 83.1604 11.3195 80.3104 8.2895 77.6904C8.19777 77.6167 8.08302 77.5778 7.96544 77.5804C7.84785 77.583 7.73495 77.627 7.64658 77.7047C7.55822 77.7823 7.50004 77.8886 7.48229 78.0048C7.46453 78.1211 7.48833 78.2399 7.5495 78.3404C8.7295 80.1704 15.3895 85.5004 17.4695 87.3904ZM96.3495 50.3004C96.3495 50.3985 96.3885 50.4926 96.4579 50.562C96.5273 50.6314 96.6214 50.6704 96.7195 50.6704C96.8176 50.6704 96.9117 50.6314 96.9811 50.562C97.0505 50.4926 97.0895 50.3985 97.0895 50.3004C97.2609 46.6273 97.107 42.9463 96.6295 39.3004C96.6192 39.2042 96.5812 39.113 96.5202 39.038C96.4591 38.9629 96.3776 38.9072 96.2855 38.8776C96.1934 38.8479 96.0947 38.8456 96.0013 38.871C95.908 38.8963 95.824 38.9482 95.7595 39.0204C95.3095 39.6004 96.3895 41.4304 96.3495 50.3004ZM123.409 67.6704C131.019 54.8304 130.609 55.4704 130.549 55.2404C130.379 54.6604 129.899 54.9404 126.049 56.1004C127.049 52.5504 128.299 48.7604 129.129 45.1704C129.147 45.0543 129.12 44.9359 129.054 44.8386C128.989 44.7413 128.889 44.672 128.775 44.6445C128.661 44.6169 128.541 44.633 128.438 44.6896C128.335 44.7462 128.257 44.8392 128.219 44.9504C127.089 48.9504 125.969 52.8604 124.889 56.7004C124.872 56.7797 124.875 56.8622 124.898 56.9401C124.921 57.018 124.964 57.0888 125.022 57.1458C125.08 57.2027 125.151 57.244 125.23 57.2658C125.308 57.2876 125.39 57.2892 125.469 57.2704C125.469 57.2704 128.119 56.4504 129.189 56.1004L122.799 67.3304C122.762 67.4106 122.756 67.5022 122.783 67.5866C122.81 67.671 122.868 67.742 122.946 67.7851C123.023 67.8283 123.114 67.8405 123.2 67.8192C123.286 67.7979 123.361 67.7447 123.409 67.6704ZM194.909 97.0004C194.389 96.7504 184.769 102.73 184.669 102.8C184.319 103.05 184.669 103.67 185.029 103.48C185.609 103.22 194.799 98.1104 195.109 97.5604C195.133 97.5105 195.147 97.4564 195.15 97.4012C195.152 97.3461 195.144 97.2909 195.126 97.2389C195.107 97.1868 195.078 97.139 195.041 97.0981C195.004 97.0572 194.959 97.0239 194.909 97.0004ZM169.449 85.5704C169.449 85.5704 179.089 78.2204 180.889 76.8204C181.279 76.5104 180.889 75.8204 180.429 75.8704C178.615 75.9136 176.808 76.1177 175.029 76.4804C177.611 73.7266 179.897 70.7102 181.849 67.4804C182.179 66.9404 181.379 66.3804 181.059 66.9304C178.856 70.5242 176.235 73.8441 173.249 76.8204C172.929 77.1304 173.129 77.8904 173.649 77.8204C175.415 77.3709 177.214 77.0699 179.029 76.9204C179.029 76.9204 171.389 83.0704 169.029 85.0204C168.99 85.0841 168.97 85.1585 168.974 85.2335C168.978 85.3085 169.004 85.3807 169.05 85.4404C169.095 85.5001 169.158 85.5445 169.229 85.5677C169.301 85.5909 169.378 85.5918 169.449 85.5704ZM155.659 56.6204C161.799 46.0404 162.869 44.5004 161.839 44.2404C161.399 44.1304 161.419 44.1704 154.969 56.2404C154.939 56.3293 154.941 56.4261 154.975 56.5137C155.009 56.6014 155.073 56.6742 155.155 56.7196C155.238 56.7649 155.333 56.7798 155.425 56.7617C155.518 56.7435 155.6 56.6935 155.659 56.6204Z" fill="#01004F"/>
<path d="M183.999 121.891C179.919 109.021 169.609 99.121 155.689 94.741C155.68 94.4861 155.653 94.2322 155.609 93.981C159.409 92.321 160.259 86.611 159.419 81.641C160.149 80.451 162.089 74.331 160.659 75.171L158.049 76.711C157.679 75.711 157.249 74.781 156.789 73.861C156.889 72.261 155.429 69.401 152.859 67.531C150.499 65.811 146.439 64.271 140.519 66.731C135.899 68.651 130.689 72.891 129.899 79.051C128.899 87.051 131.549 90.931 126.599 98.361C121.13 95.8844 115.299 94.2977 109.329 93.661C109.329 93.2128 109.299 92.7651 109.239 92.321C111.789 91.031 112.329 86.831 112.439 85.461C115.439 82.861 115.789 77.681 113.439 77.561C114.043 73.85 114.274 70.0879 114.129 66.331C113.999 64.001 112.999 63.481 112.539 63.381C112.215 63.3196 111.879 63.3508 111.572 63.471C111.264 63.5913 110.996 63.7957 110.799 64.061C110.049 62.531 108.609 62.721 107.799 63.881C107.72 63.4693 107.513 63.093 107.208 62.8053C106.903 62.5176 106.515 62.333 106.099 62.2778C105.683 62.2225 105.261 62.2993 104.891 62.4972C104.522 62.6952 104.224 63.0043 104.039 63.381C103.845 62.9681 103.533 62.6222 103.142 62.3873C102.751 62.1523 102.299 62.0389 101.844 62.0614C101.388 62.0839 100.95 62.2413 100.584 62.5137C100.218 62.786 99.9414 63.161 99.7892 63.591C98.7892 61.421 96.2392 61.921 95.6692 64.121C94.9192 62.431 92.8692 62.441 92.1592 64.401C90.2892 63.021 88.8192 64.401 88.5192 66.671C88.3375 70.5309 88.4981 74.3994 88.9992 78.231C85.6092 77.471 88.2492 85.411 90.2692 85.601C90.6192 88.601 91.8592 91.901 94.2692 92.701C94.2692 93.101 94.2092 93.511 94.2092 93.911C87.7435 94.9435 81.5211 97.1498 75.8492 100.421C72.7292 98.221 65.7892 95.231 59.1192 95.781C57.9106 93.2276 57.0013 90.5431 56.4092 87.781C55.9692 85.371 57.0992 84.421 57.0892 82.341C58.3839 79.7317 58.7066 76.7466 57.9992 73.921C54.8492 63.921 35.8192 67.721 36.3592 78.701C36.4292 79.951 36.5392 81.201 36.6492 82.171C34.2992 82.881 34.6492 83.051 35.2992 85.911C35.6492 87.471 36.0492 88.761 37.6892 88.421C38.4392 91.671 40.3292 96.861 44.7892 96.861C45.0592 96.861 44.7892 96.691 45.0392 98.371C33.8492 103.241 19.7992 112.371 16.1592 128.371C15.2792 132.231 14.7492 137.711 17.2692 141.851C20.0392 146.461 24.9392 146.751 28.4592 146.521C27.6353 151.048 27.3699 155.659 27.6692 160.251C27.671 160.315 27.6904 160.378 27.7253 160.431C27.7602 160.485 27.8092 160.528 27.867 160.556C27.9248 160.584 27.9892 160.596 28.0531 160.589C28.1169 160.583 28.1779 160.56 28.2292 160.521C28.7692 160.201 27.7092 159.861 29.3992 146.451C38.8192 145.581 47.7992 141.531 56.0992 137.271C57.4692 138.271 58.8292 139.271 60.2392 140.171C61.3984 142.515 63.1749 144.499 65.3774 145.908C67.5799 147.318 70.1252 148.1 72.7392 148.171C72.4892 152.381 72.4892 156.601 72.7392 160.811C72.7429 160.862 72.7569 160.911 72.7802 160.957C72.8035 161.002 72.8357 161.042 72.8749 161.075C72.9141 161.108 72.9595 161.132 73.0083 161.147C73.0572 161.162 73.1085 161.166 73.1592 161.161C74.0192 161.081 72.9092 160.651 73.5892 148.161C81.9092 148.161 88.7392 142.731 95.5892 138.581C103.649 142.271 123.409 149.141 133.859 147.161C134.339 151.421 134.269 155.461 134.679 159.581C134.692 159.655 134.731 159.722 134.789 159.77C134.846 159.818 134.919 159.845 134.994 159.845C135.069 159.845 135.142 159.818 135.2 159.77C135.257 159.722 135.296 159.655 135.309 159.581C135.572 155.371 135.401 151.146 134.799 146.971C142.049 145.251 146.499 140.141 147.679 132.201C148.159 131.881 148.679 131.521 149.219 131.111C155.409 133.581 168.219 139.591 174.479 139.811C174.189 144.461 173.779 149.371 173.709 154.191C173.723 154.272 173.765 154.346 173.829 154.4C173.892 154.453 173.972 154.482 174.054 154.482C174.137 154.482 174.217 154.453 174.28 154.4C174.343 154.346 174.385 154.272 174.399 154.191C174.539 152.861 175.449 141.511 175.399 139.781C185.419 139.551 186.999 131.351 183.999 121.891ZM112.639 79.151C112.909 78.791 113.059 78.371 113.449 78.491C114.849 78.901 113.729 82.381 112.559 83.931C112.659 82.341 112.689 80.731 112.639 79.151ZM88.7692 79.151C89.0892 79.151 89.0492 79.291 89.7692 79.431L90.1692 84.371C88.6892 83.001 87.6192 79.171 88.7692 79.171V79.151ZM158.249 78.151C158.292 78.0104 158.388 77.8924 158.518 77.8231C158.647 77.7537 158.799 77.7385 158.939 77.781C159.08 77.8234 159.198 77.9199 159.267 78.0493C159.337 78.1787 159.352 78.3304 159.309 78.471C158.959 79.711 158.689 80.611 158.459 81.471C158.4 81.578 158.317 81.6698 158.216 81.7392C158.116 81.8086 158 81.8537 157.879 81.871C156.999 81.901 157.939 79.051 158.249 78.131V78.151ZM141.419 82.151C141.989 81.721 142.679 82.271 142.789 82.281C143.729 82.881 144.789 82.011 144.519 81.761L144.319 81.601C143.579 81.021 142.059 79.821 142.379 79.001C142.619 78.381 143.599 78.471 144.239 78.441C144.262 78.4403 144.284 78.4344 144.304 78.4239C144.324 78.4133 144.342 78.3983 144.355 78.38C144.369 78.3617 144.378 78.3406 144.382 78.3182C144.386 78.2959 144.385 78.2729 144.379 78.251C144.279 77.931 144.159 77.611 144.039 77.251C147.818 75.3766 151.962 74.3527 156.179 74.251C156.609 75.251 156.979 76.201 157.309 77.141C156.059 77.851 154.639 78.631 154.309 80.051C154.012 80.0141 153.711 80.0443 153.427 80.1395C153.143 80.2347 152.884 80.3924 152.669 80.601C151.099 78.711 144.599 78.871 143.289 78.921C141.599 78.991 146.059 82.401 147.289 83.361C151.419 86.571 154.119 84.361 153.089 81.431C153.234 81.2539 153.423 81.1194 153.638 81.0419C153.853 80.9644 154.085 80.9468 154.309 80.991C154.347 81.181 154.407 81.3657 154.489 81.541C154.439 81.5163 154.385 81.5035 154.329 81.5035C154.274 81.5035 154.219 81.5163 154.169 81.541C153.759 81.801 154.169 82.151 155.109 83.821C154.993 83.9389 154.87 84.0491 154.739 84.151C154.359 84.431 154.689 85.651 155.959 84.151C156.149 83.921 155.789 83.251 155.389 82.661C155.872 82.99 156.45 83.1489 157.033 83.1127C157.617 83.0765 158.171 82.8472 158.609 82.461C159.046 85.1457 158.799 87.8974 157.889 90.461C156.889 92.911 154.379 93.051 154.889 93.981C155.021 97.2779 154.752 100.579 154.089 103.811C151.519 103.251 146.459 96.981 144.439 94.071C144.648 91.6394 144.335 89.1912 143.519 86.891C142.849 85.731 141.519 85.201 141.169 83.891C141.033 83.5988 140.984 83.2734 141.028 82.954C141.072 82.6346 141.208 82.3348 141.419 82.091V82.151ZM156.579 80.481C156.469 80.811 156.399 81.271 156.039 81.271C155.679 81.271 155.499 80.851 155.539 80.491C155.579 80.131 155.679 79.301 156.059 79.081C156.132 79.0448 156.213 79.026 156.294 79.026C156.376 79.026 156.456 79.0448 156.529 79.081C156.999 79.211 156.749 79.911 156.579 80.421V80.481ZM151.189 82.781C151.079 83.051 150.969 83.541 150.649 83.691C150.593 83.7184 150.532 83.7326 150.469 83.7326C150.407 83.7326 150.345 83.7184 150.289 83.691C149.689 83.471 150.349 81.241 150.889 80.811C150.936 80.763 150.995 80.7276 151.059 80.7082C151.124 80.6888 151.192 80.686 151.258 80.6999C151.323 80.7139 151.385 80.7442 151.436 80.7881C151.487 80.832 151.526 80.888 151.549 80.951C151.759 81.411 151.249 82.571 151.189 82.721V82.781ZM148.999 81.811C148.869 82.071 148.809 82.311 148.469 82.311C148.389 82.3165 148.309 82.3023 148.236 82.2697C148.163 82.2371 148.099 82.187 148.049 82.1238C148 82.0606 147.967 81.9863 147.953 81.9073C147.939 81.8284 147.944 81.7472 147.969 81.671C148.079 81.341 148.199 80.591 148.599 80.391C148.663 80.3617 148.731 80.3457 148.801 80.3441C148.871 80.3424 148.94 80.3551 149.005 80.3813C149.07 80.4076 149.128 80.4468 149.177 80.4967C149.226 80.5465 149.264 80.6058 149.289 80.671C149.429 81.001 149.199 81.451 148.999 81.811ZM143.999 94.631C146.839 99.531 154.319 106.631 154.899 104.251C155.553 101.426 155.856 98.5304 155.799 95.631C169.499 100.471 178.799 109.341 182.849 121.311C179.918 119.912 176.696 119.226 173.449 119.311C173.309 116.021 168.799 109.661 167.069 107.751C166.719 107.361 166.069 107.861 166.449 108.251C169.043 111.188 171.028 114.611 172.289 118.321C167.389 114.631 157.519 109.481 143.989 113.721C140.479 107.729 135.354 102.847 129.199 99.631C133.628 96.7346 138.721 95.0139 143.999 94.631ZM91.8492 72.071C97.8627 70.4296 104.181 70.2479 110.279 71.541C110.177 73.2356 110.23 74.9361 110.439 76.621H110.259C109.429 72.801 104.109 71.621 102.319 75.621C101.405 75.3108 100.414 75.3108 99.4992 75.621C97.7692 72.021 92.7592 73.181 91.8392 76.741H91.6492C91.8594 75.1938 91.9264 73.6305 91.8492 72.071ZM105.449 80.301C105.629 79.791 107.249 76.011 108.299 75.901C108.387 75.8999 108.473 75.9196 108.551 75.9585C108.629 75.9975 108.697 76.0545 108.749 76.1249C108.801 76.1953 108.835 76.277 108.849 76.3632C108.863 76.4495 108.856 76.5379 108.829 76.621C107.937 77.8926 107.141 79.2297 106.449 80.621C106.199 81.241 105.219 81.001 105.449 80.301ZM103.999 78.901C103.879 79.201 103.339 79.381 103.149 79.031C102.959 78.681 103.419 77.351 104.719 75.401C105.049 74.911 105.359 74.671 105.629 74.711C105.717 74.7361 105.797 74.7823 105.863 74.8456C105.929 74.9089 105.979 74.9874 106.007 75.0742C106.036 75.1609 106.043 75.2534 106.027 75.3435C106.012 75.4336 105.975 75.5185 105.919 75.591C105.158 76.6195 104.514 77.7297 103.999 78.901ZM95.2992 80.561C95.7292 79.621 96.2092 78.671 96.6692 77.741C96.7183 77.6513 96.7906 77.5764 96.8786 77.5243C96.9666 77.4722 97.0669 77.4446 97.1692 77.4446C97.2715 77.4446 97.3718 77.4722 97.4598 77.5243C97.5478 77.5764 97.6201 77.6513 97.6692 77.741C97.732 77.8359 97.7655 77.9472 97.7655 78.061C97.7655 78.1748 97.732 78.286 97.6692 78.381C97.2292 79.251 96.7792 80.161 96.2992 81.041C95.9192 81.541 94.9992 81.161 95.2992 80.561ZM94.0892 79.301L94.0292 79.371C93.7192 79.821 92.9392 79.531 93.1492 78.961C93.7265 77.4245 94.4639 75.9531 95.3492 74.571C95.7792 74.051 96.6492 74.501 96.3492 75.111C95.6392 76.531 94.7692 77.861 94.0892 79.301ZM90.5192 79.391C91.1592 79.121 91.3392 78.391 91.5192 77.761L91.7292 77.701C91.6768 78.3947 91.762 79.092 91.98 79.7527C92.1979 80.4134 92.5443 81.0246 92.9992 81.551C93.5385 82.0806 94.2144 82.45 94.9515 82.618C95.6885 82.7859 96.4577 82.7458 97.1733 82.5021C97.8889 82.2584 98.5227 81.8207 99.004 81.2378C99.4853 80.6549 99.7952 79.9497 99.8992 79.201C99.7958 80.164 99.7524 81.1325 99.7692 82.101C99.7692 82.701 99.6292 83.451 100.369 83.501H101.369C101.889 83.501 102.029 82.601 101.429 82.591H100.689C100.631 80.8092 100.728 79.0258 100.979 77.261C101.049 76.771 100.339 76.701 100.239 77.161C99.7992 79.311 100.239 78.081 99.8492 76.491C100.547 76.2406 101.311 76.2406 102.009 76.491C101.789 77.2927 101.746 78.1327 101.882 78.9528C102.018 79.7729 102.331 80.5537 102.799 81.241C103.156 81.7026 103.607 82.0823 104.123 82.3542C104.639 82.6262 105.207 82.7842 105.789 82.8173C106.372 82.8505 106.954 82.7582 107.498 82.5466C108.041 82.335 108.533 82.0091 108.939 81.591C109.922 80.4947 110.444 79.0623 110.399 77.591H110.589C110.709 78.461 110.889 79.661 111.809 79.591C111.709 83.011 112.009 88.871 109.299 91.011C108.949 91.291 108.549 91.611 108.499 91.931C108.374 92.9906 108.374 94.0613 108.499 95.121C108.789 97.891 103.939 103.371 101.429 105.711C96.5892 99.131 95.1992 98.481 95.2092 92.711C95.2092 92.131 95.1392 92.041 94.7392 91.841C90.6892 89.881 91.0592 84.231 90.5192 79.391ZM94.2592 94.791C94.3692 97.861 96.7792 102.011 101.029 106.481C101.889 107.601 109.489 98.271 109.339 96.251V94.561C129.809 96.971 144.479 108.751 146.819 124.631C138.319 122.961 127.579 124.921 125.759 125.271C124.979 120.298 123.508 115.458 121.389 110.891C121.353 110.802 121.284 110.731 121.196 110.694C121.107 110.656 121.008 110.655 120.919 110.691C120.83 110.727 120.759 110.796 120.722 110.885C120.684 110.973 120.683 111.072 120.719 111.161C122.558 115.668 123.899 120.363 124.719 125.161C119.459 119.621 111.459 117.161 100.309 117.661C93.5979 117.972 86.9314 118.92 80.3992 120.491C80.9217 117.441 82.1664 114.561 84.0292 112.091C84.07 112.016 84.0824 111.93 84.0639 111.847C84.0455 111.764 83.9976 111.69 83.929 111.64C83.8605 111.59 83.7761 111.567 83.6915 111.574C83.6069 111.582 83.5279 111.62 83.4692 111.681C81.368 114.277 79.9883 117.382 79.4692 120.681C72.219 122.42 65.1781 124.938 58.4692 128.191C59.3892 108.601 77.4992 98.101 94.2592 94.791ZM50.8892 76.271C50.8789 77.2204 50.9357 78.1695 51.0592 79.111C47.4592 79.201 41.7392 80.601 37.4792 81.921C37.3692 81.041 37.1192 79.441 37.1092 78.491C41.3956 76.4481 46.1781 75.6776 50.8892 76.271ZM47.7092 81.641C45.7092 85.041 46.1392 85.641 45.4692 85.641C45.394 85.6455 45.3188 85.632 45.25 85.6014C45.1811 85.5709 45.1206 85.5243 45.0736 85.4654C45.0265 85.4066 44.9943 85.3374 44.9796 85.2635C44.9649 85.1896 44.9682 85.1133 44.9892 85.041C45.8992 81.601 46.7692 80.961 47.2092 80.881C47.3051 80.8614 47.4047 80.8711 47.4951 80.9086C47.5855 80.9462 47.6625 81.01 47.7163 81.0918C47.7701 81.1736 47.7982 81.2696 47.7969 81.3675C47.7957 81.4654 47.7651 81.5606 47.7092 81.641ZM44.6192 82.391C44.2492 83.001 44.1592 83.851 43.6192 83.721C43.0792 83.591 43.4692 82.371 43.7892 81.721C44.1092 81.071 44.3892 81.061 44.5792 81.111C44.6863 81.1401 44.7815 81.2021 44.8515 81.2882C44.9214 81.3743 44.9626 81.4802 44.9692 81.591C44.93 81.8852 44.8087 82.1625 44.6192 82.391ZM37.1792 84.391C37.0692 84.651 37.0592 85.451 36.5192 85.451C36.4141 85.455 36.3107 85.4238 36.2255 85.3621C36.1403 85.3005 36.0782 85.212 36.0492 85.111C35.9963 84.4114 36.2187 83.7188 36.6692 83.181C36.7621 83.0979 36.8789 83.0465 37.0028 83.0339C37.1268 83.0213 37.2515 83.0483 37.3592 83.111C37.5992 83.271 37.5492 83.691 37.1792 84.361V84.391ZM37.5492 86.721C38.4592 83.451 38.9792 82.971 39.2892 82.901C39.3529 82.8863 39.4195 82.8897 39.4813 82.9109C39.5432 82.9321 39.5979 82.9703 39.6392 83.021C39.7751 83.1785 39.8434 83.3834 39.8292 83.591L38.5092 87.001C38.4681 87.1283 38.3781 87.234 38.259 87.295C38.1399 87.3559 38.0015 87.3671 37.8742 87.326C37.7469 87.2849 37.6411 87.1949 37.5802 87.0758C37.5192 86.9567 37.5081 86.8183 37.5492 86.691V86.721ZM38.5492 88.231C40.4692 87.671 41.0892 87.831 40.8792 84.911C40.8092 84.081 40.6492 82.191 41.4892 82.221C42.1692 82.221 42.1892 85.381 43.1992 86.361C44.2092 87.341 45.5192 86.651 46.6192 86.361C49.6192 85.541 48.9592 84.261 48.7392 80.291L51.2592 80.091C52.3892 85.951 53.9092 81.561 54.9292 80.901C55.5792 80.491 56.1392 81.391 56.2592 82.081C56.4892 83.561 55.2592 85.181 55.5192 87.351C56.1085 90.4918 57.1175 93.5391 58.5192 96.411C56.3292 100.571 50.0392 104.411 47.2392 105.931C46.0592 101.651 45.9592 96.031 45.2392 96.051C41.9192 96.071 39.7392 93.561 38.5092 88.201L38.5492 88.231ZM45.1292 99.331C45.3092 100.841 46.0492 107.331 47.1292 106.791C49.8492 105.511 58.1292 100.071 59.3092 96.571C61.0592 96.971 66.5192 95.911 74.9992 101.021C68.7415 104.759 63.7202 110.253 60.5592 116.821C52.4692 115.821 42.4592 114.571 34.0492 119.011C36.6192 112.951 38.1592 112.351 37.4292 111.871C37.3914 111.845 37.3488 111.827 37.3039 111.818C37.259 111.809 37.2127 111.809 37.1679 111.819C37.1231 111.828 37.0806 111.846 37.043 111.873C37.0054 111.899 36.9735 111.932 36.9492 111.971C36.6892 112.361 33.0392 118.391 32.9492 119.621C31.5392 120.481 28.5292 122.681 27.6292 124.411C23.9529 124.483 20.3704 125.584 17.2892 127.591C20.3292 115.821 29.9392 106.051 45.0892 99.301L45.1292 99.331ZM19.1992 143.001C15.3792 139.001 16.1992 132.311 16.9892 128.641C26.7492 122.231 39.6492 124.971 55.3492 136.801C50.0692 139.061 26.9992 151.091 19.1992 143.001ZM28.6392 124.391C36.5792 115.601 48.0592 116.161 60.1492 117.651C57.0492 124.801 56.7792 132.351 59.3692 138.511C50.3692 131.771 39.7392 124.361 28.6392 124.361V124.391ZM73.5192 147.391C63.6692 147.391 58.3792 138.741 58.5192 129.141C72.5192 122.851 84.7492 119.631 98.1492 118.701C110.389 117.851 118.629 120.081 124.029 125.701C97.6492 131.611 86.7592 147.361 73.5192 147.361V147.391ZM133.999 146.291C124.209 148.501 107.999 142.721 96.4792 138.111C114.839 127.271 131.359 123.181 146.949 125.611C148.179 136.781 143.579 144.121 133.999 146.291ZM147.869 131.151C148.388 125.369 147.166 119.563 144.359 114.481C155.099 111.701 164.169 113.321 172.049 119.421C161.699 120.191 151.269 128.271 147.859 131.151H147.869ZM175.069 138.921C168.949 138.921 156.069 132.921 150.139 130.501C156.479 125.701 163.989 120.611 173.029 120.251C176.561 120.033 180.083 120.805 183.199 122.481C185.879 131.521 184.539 138.861 175.059 138.921H175.069Z" fill="#01004F"/>
</svg>
