<svg width="200" height="200" viewBox="0 0 200 200" fill="none" xmlns="http://www.w3.org/2000/svg">
<path d="M93.9251 51.1877C94.0495 51.1883 94.1708 51.1489 94.2711 51.0752C94.3714 51.0016 94.4454 50.8976 94.4821 50.7787C94.5142 50.401 94.4169 50.0237 94.2061 49.7087C93.9711 49.3767 93.7061 49.1387 93.2711 49.3927C92.6381 49.7627 93.2051 51.1877 93.9251 51.1877Z" fill="black"/>
<path d="M95.5132 49.465C96.1632 50.2795 96.8917 51.0281 97.6882 51.7C96.8602 52.172 96.5152 52.3 96.5132 52.63C96.5188 52.737 96.56 52.8391 96.6302 52.92C96.6894 52.973 96.7612 53.01 96.8387 53.0275C96.9162 53.045 96.9969 53.0424 97.0732 53.02C97.5345 52.8124 97.9751 52.5616 98.3892 52.271C98.4771 52.2109 98.5488 52.1302 98.5982 52.0358C98.6475 51.9415 98.6729 51.8365 98.6722 51.73C98.6642 51.353 98.3132 51.096 98.1262 50.961C97.4122 50.34 96.7492 49.626 96.0262 48.932C95.9364 48.8682 95.8293 48.8333 95.7192 48.832C95.6453 48.832 95.5733 48.8554 95.5135 48.8988C95.4537 48.9422 95.4092 49.0035 95.3863 49.0737C95.3635 49.144 95.3634 49.2197 95.3862 49.29C95.409 49.3603 95.4535 49.4216 95.5132 49.465Z" fill="black"/>
<path d="M97.674 52.7861C97.2304 53.028 96.7304 53.1475 96.2253 53.1324C95.7203 53.1173 95.2283 52.9681 94.8 52.7001C94.8073 52.6413 94.8014 52.5817 94.7828 52.5255C94.7642 52.4693 94.7334 52.4179 94.6926 52.375C94.6517 52.3321 94.6018 52.2989 94.5466 52.2776C94.4913 52.2564 94.432 52.2477 94.373 52.2521C94.152 52.2521 94.073 52.3631 93.646 52.7381C93.59 52.7897 93.5502 52.8564 93.5315 52.9302C93.5128 53.004 93.516 53.0817 93.5408 53.1537C93.5655 53.2257 93.6106 53.289 93.6707 53.3357C93.7307 53.3825 93.8031 53.4108 93.879 53.4171C94.209 55.4351 96.147 56.1511 97.366 55.0361C97.68 54.6691 97.278 54.0821 96.746 54.4361C96.5661 54.6055 96.3316 54.7051 96.0848 54.7168C95.838 54.7286 95.5951 54.6517 95.4 54.5001C95.0984 54.2486 94.8778 53.9136 94.766 53.5371C96.234 54.1991 97.947 53.6751 98.159 53.2531C98.1948 53.1859 98.2077 53.1089 98.1957 53.0337C98.1838 52.9585 98.1477 52.8893 98.0928 52.8365C98.038 52.7837 97.9674 52.7502 97.8918 52.7411C97.8163 52.732 97.7398 52.7478 97.674 52.7861Z" fill="black"/>
<path d="M93.2542 48.6457C93.9142 48.5807 93.9042 47.8777 93.4882 47.8057C93.1378 47.8148 92.7981 47.928 92.5123 48.1309C92.2265 48.3337 92.0075 48.617 91.8832 48.9447C91.8606 49.0065 91.855 49.0732 91.867 49.1379C91.879 49.2026 91.9081 49.2629 91.9513 49.3125C91.9944 49.3621 92.0502 49.3992 92.1126 49.42C92.175 49.4408 92.2418 49.4445 92.3062 49.4307C92.5772 49.3677 92.4932 49.1307 92.9382 48.8157C93.0356 48.7453 93.1418 48.6882 93.2542 48.6457Z" fill="black"/>
<path d="M47.4171 82.0281C47.8241 81.7741 47.4241 81.0581 47.0031 81.3191C44.9831 82.5811 31.4431 90.9781 26.7501 94.0191C26.6633 94.0861 26.605 94.1833 26.5867 94.2914C26.5684 94.3996 26.5915 94.5106 26.6514 94.6024C26.7113 94.6943 26.8037 94.7601 26.91 94.787C27.0163 94.8138 27.1288 94.7995 27.2251 94.7471C34.0001 90.6771 40.6691 86.2871 47.4171 82.0281Z" fill="black"/>
<path d="M39.7752 61.2626C39.8265 61.2654 39.8776 61.2566 39.925 61.2367C39.9723 61.2169 40.0145 61.1866 40.0483 61.1481C40.0822 61.1096 40.1069 61.0639 40.1206 61.0144C40.1343 60.965 40.1365 60.9131 40.1272 60.8626C40.1342 60.8148 40.1313 60.7661 40.1185 60.7195C40.1058 60.673 40.0836 60.6295 40.0532 60.5919C40.0229 60.5544 39.9851 60.5235 39.9423 60.5012C39.8994 60.479 39.8524 60.4658 39.8042 60.4626C31.3471 59.9963 22.867 60.1658 14.4352 60.9696C14.3447 60.9826 14.2616 61.0272 14.2008 61.0956C14.14 61.1639 14.1054 61.2516 14.1031 61.3431C14.1009 61.4345 14.1311 61.5238 14.1884 61.5952C14.2457 61.6665 14.3264 61.7152 14.4162 61.7326C14.4162 61.7326 38.9312 61.2516 39.7752 61.2626Z" fill="black"/>
<path d="M42.3531 27.0236C42.4022 27.0653 42.4599 27.0956 42.522 27.1126C42.5841 27.1296 42.6492 27.1328 42.7127 27.1219C42.7761 27.111 42.8365 27.0864 42.8894 27.0497C42.9423 27.0131 42.9866 26.9652 43.0191 26.9096C43.048 26.8329 43.0559 26.7499 43.0418 26.6692C43.0277 26.5884 42.9923 26.513 42.9391 26.4506C39.5001 22.8496 35.7611 19.1996 31.5201 15.3066C31.4802 15.2699 31.4324 15.2429 31.3804 15.2278C31.3283 15.2126 31.2735 15.2098 31.2202 15.2195C31.1668 15.2292 31.1165 15.2512 31.0731 15.2836C31.0297 15.3161 30.9944 15.3582 30.9701 15.4066C30.6841 15.9786 30.4091 15.0116 42.3531 27.0236Z" fill="black"/>
<path d="M57.4534 12.9845C60.5304 18.8325 60.4884 18.8735 60.8214 18.8735H60.9124C60.9759 18.8731 61.0382 18.8554 61.0924 18.8223C61.1467 18.7893 61.191 18.7421 61.2206 18.6858C61.2501 18.6296 61.2639 18.5663 61.2603 18.5029C61.2568 18.4394 61.236 18.3781 61.2004 18.3255C60.6864 17.2075 60.0734 16.1125 59.4814 15.0515C59.2884 14.7075 56.9884 10.4725 56.5664 9.70553C56.5329 9.64263 56.4814 9.59114 56.4186 9.55764C56.3557 9.52415 56.2842 9.51019 56.2134 9.51753C56.1533 9.51786 56.0943 9.53358 56.0421 9.56321C55.9899 9.59283 55.9461 9.63536 55.915 9.68673C55.8839 9.73811 55.8665 9.7966 55.8645 9.85662C55.8624 9.91663 55.8758 9.97617 55.9034 10.0295C56.4134 11.0135 56.9354 11.9995 57.4534 12.9845Z" fill="black"/>
<path d="M106.889 20.3709C107.419 20.1639 106.679 20.6109 110.489 5.12191C110.503 5.0496 110.496 4.9749 110.47 4.90605C110.444 4.8372 110.4 4.77687 110.342 4.73169C110.284 4.68651 110.214 4.65824 110.141 4.64998C110.068 4.64173 109.994 4.65382 109.927 4.68491C109.819 4.73824 109.736 4.83198 109.696 4.94591C108.338 9.89905 107.242 14.9204 106.412 19.9889C106.402 20.0504 106.408 20.1136 106.43 20.172C106.452 20.2303 106.489 20.2817 106.538 20.3207C106.587 20.3597 106.645 20.3849 106.707 20.3938C106.769 20.4026 106.832 20.3947 106.889 20.3709Z" fill="black"/>
<path d="M142.718 32.3257C143.821 30.8777 145.105 29.5771 146.539 28.4557C146.539 28.4557 157.896 18.4937 160.085 16.5377C160.46 16.2147 160.095 15.5547 159.511 15.8907C157.488 17.6317 145.795 27.9907 145.795 27.9907C144.384 29.1029 143.132 30.4022 142.072 31.8527C142.016 31.9486 141.999 32.0621 142.023 32.1704C142.047 32.2787 142.112 32.3738 142.203 32.4367C142.29 32.4745 142.386 32.4841 142.478 32.4642C142.571 32.4443 142.655 32.3958 142.718 32.3257Z" fill="black"/>
<path d="M153.973 48.0726C153.841 48.1216 153.786 48.2596 153.746 48.4196C153.73 48.4817 153.732 48.5469 153.751 48.6082C153.77 48.6694 153.805 48.7244 153.853 48.767C153.901 48.8096 153.959 48.8382 154.022 48.8498C154.085 48.8614 154.15 48.8554 154.21 48.8326C161.372 46.1016 162.629 45.9136 165.868 44.8016C165.966 44.7526 166.045 44.6719 166.091 44.5726C166.12 44.5051 166.13 44.4311 166.119 44.3585C166.109 44.286 166.078 44.2177 166.032 44.1611C165.985 44.1045 165.924 44.0619 165.855 44.0378C165.785 44.0137 165.711 44.0092 165.639 44.0246C162.811 44.7996 156.69 47.0516 153.973 48.0726Z" fill="black"/>
<path d="M185.666 82.3C185.434 82.209 154.504 81.053 152.228 81.1C152.167 81.1014 152.107 81.1189 152.055 81.1507C152.002 81.1824 151.959 81.2274 151.93 81.281C151.9 81.3347 151.885 81.3952 151.886 81.4564C151.887 81.5176 151.905 81.5775 151.936 81.63C151.963 81.6934 152.008 81.7479 152.064 81.7871C152.121 81.8264 152.187 81.8489 152.256 81.852C155.208 81.952 184.134 83.115 185.51 83.115C185.607 83.1132 185.701 83.0781 185.775 83.0154C185.85 82.9527 185.9 82.8664 185.919 82.7708C185.937 82.6753 185.922 82.5763 185.876 82.4906C185.83 82.4049 185.756 82.3376 185.666 82.3Z" fill="black"/>
<path d="M174.146 102.959C174.062 102.859 174.538 103.099 166.269 99.2855C166.725 98.4695 167.197 97.6605 167.684 96.8585C167.72 96.7595 167.723 96.6513 167.691 96.5507C167.66 96.4501 167.596 96.3628 167.509 96.3023C167.423 96.2418 167.319 96.2116 167.214 96.2163C167.108 96.2211 167.008 96.2605 166.927 96.3285L163.512 98.1075C157.212 95.1645 151.421 92.6335 145.836 90.3795C143.559 89.4635 137.519 87.0795 137.499 87.0665L137.491 87.0815C137.126 86.9755 137.091 87.0545 137.013 87.2455C136.873 87.5925 136.893 87.5855 138.287 88.1535C132.773 98.8195 127.587 107.425 121.462 119.985C120.549 120.41 119.806 121.129 119.35 122.028C118.733 123.593 120.294 123.602 113.35 93.4405C110.706 81.9545 110.912 82.5995 110.776 82.4875C110.717 82.4382 110.645 82.4061 110.569 82.3946C110.492 82.3832 110.414 82.3928 110.343 82.4225C110.343 82.4225 105.523 83.3015 103.769 83.6645C103.619 82.4861 103.761 81.2888 104.184 80.1785C104.253 80.2422 104.34 80.2809 104.434 80.2885C104.527 80.2961 104.62 80.2722 104.698 80.2205C106.361 79.285 107.896 78.137 109.263 76.8055C109.983 76.1851 110.594 75.4486 111.071 74.6265C111.287 73.8458 111.185 73.0116 110.788 72.3055C110.118 70.3955 109.316 68.5344 108.388 66.7355C118.93 60.0757 128.165 51.544 135.638 41.5615C135.914 41.5955 137.674 41.8135 137.798 41.8135C138.667 41.8135 139.028 40.9805 138.509 40.4625C138.881 40.4505 139.458 40.3705 139.569 39.8255C139.594 39.674 139.572 39.5185 139.506 39.38C139.439 39.2415 139.332 39.1269 139.198 39.0515C139.247 38.9743 139.28 38.888 139.295 38.7977C139.31 38.7075 139.307 38.6151 139.286 38.5261C139.265 38.4371 139.226 38.3532 139.172 38.2794C139.118 38.2057 139.05 38.1435 138.971 38.0965C138.318 37.6983 137.551 37.5281 136.791 37.6125C136.881 37.5263 136.948 37.4192 136.986 37.3008C137.024 37.1824 137.033 37.0564 137.01 36.934C136.988 36.8116 136.936 36.6966 136.859 36.5991C136.781 36.5017 136.681 36.4249 136.567 36.3755C136.263 36.2789 135.934 36.3055 135.65 36.4495C134.639 36.7559 133.761 37.397 133.162 38.2675C132.752 38.3505 124.536 42.1355 119.162 45.0375C113.852 47.9095 101.973 55.1165 97.368 58.0095C97.306 57.8595 97.234 57.6805 97.193 57.5495C97.413 57.484 97.629 57.4059 97.84 57.3155C99.866 56.1335 100.515 53.4885 100.079 51.3255C100.048 51.1625 99.999 51.0055 99.964 50.8435C100.5 50.1242 100.937 49.3365 101.264 48.5015C101.308 48.0792 101.268 47.6522 101.147 47.2453C101.025 46.8385 100.823 46.4599 100.554 46.1315C100.365 45.8871 100.26 45.5884 100.254 45.2795C100.324 44.6665 101.354 44.0905 100.654 42.8315C100.419 42.3984 100.104 42.0139 99.725 41.6985C98.4188 40.3254 96.8116 39.2745 95.03 38.6285C93.3729 38.0366 91.562 38.0366 89.905 38.6285C89.1746 39.0244 88.4692 39.4649 87.793 39.9475C87.1202 40.2909 86.4133 40.563 85.684 40.7595C84.8464 41.1032 84.1113 41.6565 83.5493 42.3662C82.9873 43.076 82.6174 43.9185 82.475 44.8125C82.144 46.6515 82.939 48.4125 82.718 50.2125C82.543 51.6305 80.978 52.5475 79.47 53.2575C78.9703 53.4457 78.4892 53.68 78.033 53.9575C64.917 49.5575 52.898 46.0635 45.384 44.1445C45.2847 44.1021 45.1728 44.1 45.072 44.1385C44.7107 43.4832 44.2344 42.8982 43.666 42.4115C43.5437 42.3282 43.4024 42.2769 43.2552 42.2622C43.1079 42.2476 42.9593 42.27 42.823 42.3275C42.374 42.5585 42.465 43.1365 42.602 43.6215C41.8518 43.2967 41.0218 43.2027 40.218 43.3515C40.1097 43.3708 40.0082 43.4172 39.9228 43.4866C39.8375 43.5559 39.7712 43.6458 39.7302 43.7478C39.6892 43.8499 39.6748 43.9606 39.6884 44.0697C39.702 44.1789 39.7432 44.2827 39.808 44.3715C39.6516 44.4098 39.511 44.4959 39.4058 44.6179C39.3007 44.7398 39.2362 44.8916 39.2213 45.0519C39.2065 45.2123 39.242 45.3733 39.3229 45.5125C39.4039 45.6517 39.5263 45.7621 39.673 45.8285C39.5251 45.957 39.4309 46.1362 39.4089 46.3309C39.3868 46.5255 39.4386 46.7213 39.554 46.8795C40.113 47.6855 40.887 47.1015 43.354 48.4505C43.345 48.5075 43.325 48.5575 43.316 48.6145C43.316 49.7325 44.264 50.3385 45.025 50.8265C52.911 55.8845 60.25 60.5145 72.983 67.4775C71.933 69.7705 70.773 72.0405 69.52 74.2265C69.4764 74.3123 69.4608 74.4096 69.4755 74.5047C69.4902 74.5998 69.5345 74.6879 69.602 74.7565C72.65 77.2442 75.9912 79.3492 79.551 81.0245C80.1338 81.4135 80.7957 81.668 81.489 81.7695C81.7686 81.7752 82.0407 81.6785 82.254 81.4975C82.354 81.3805 82.437 81.2545 82.527 81.1315C82.556 81.1435 82.586 81.1525 82.615 81.1645C82.738 83.9275 81.25 86.1495 79.797 88.5305C70.26 90.5995 60.625 92.8225 51.097 95.1625C50.9937 95.2089 50.9107 95.2913 50.8636 95.3944C50.8165 95.4974 50.8085 95.614 50.841 95.7225C53.319 102.417 55.576 109.207 57.941 116.11C57.841 116.07 33.932 106.655 29.528 105.481C28.969 104.896 27.98 105.944 28.84 106.151C36.858 117.403 45.419 132.33 56.74 151.351C52.9377 150.611 49.0045 150.943 45.38 152.31C42.517 153.416 39.357 155.96 39.88 159.493C40.393 162.993 44.225 164.852 47.089 166.107C51.1363 167.826 55.0063 169.936 58.644 172.407C62.1857 174.935 64.9192 178.436 66.514 182.485C66.4322 182.533 66.3699 182.608 66.338 182.698C65.772 184.44 64.608 189.767 64.164 191.779C63.8869 192.761 63.6916 193.764 63.58 194.779C63.581 194.881 63.6193 194.98 63.6879 195.057C63.7564 195.133 63.8505 195.182 63.9526 195.195C64.0546 195.207 64.1576 195.181 64.2423 195.123C64.3271 195.065 64.3877 194.978 64.413 194.879C64.7079 193.89 64.9328 192.881 65.086 191.861C65.298 190.869 66.792 184.417 66.986 183.552C82.686 189.698 99.619 190.562 116.234 187.001C117.236 186.912 118.211 186.634 119.108 186.18C119.337 186.841 122.333 195.039 122.333 195.039C122.374 195.152 122.458 195.245 122.567 195.297C122.676 195.348 122.801 195.354 122.915 195.314C123.029 195.273 123.121 195.189 123.173 195.079C123.225 194.97 123.231 194.845 123.19 194.732C123.19 194.732 120.148 186.502 119.729 185.504C120.042 185.029 120.217 184.477 120.237 183.91C120.77 180.888 121.928 178.011 123.637 175.462C125.346 172.914 127.568 170.75 130.161 169.11C136.648 164.997 141.238 163.948 148.434 161.456C150.453 160.85 152.422 160.09 154.324 159.182C157.296 157.729 160.104 154.736 158.407 151.419C156.756 148.19 151.963 146.907 148.218 147.086C147.605 147.12 146.995 147.193 146.391 147.302C156.371 133.119 164.039 118.402 174.148 103.512C174.212 103.434 174.247 103.336 174.247 103.235C174.247 103.134 174.211 103.036 174.146 102.959ZM139.1 88.5995C139.2 88.5995 148.059 92.1345 152.527 94.0685C154.652 94.9885 161.413 98.0195 162.635 98.5615L122.806 119.3C127.182 110.467 139.036 88.6995 139.1 88.5995ZM119.286 125.167C119.342 125.116 119.386 125.054 119.416 124.985C119.446 124.916 119.461 124.842 119.46 124.767C119.46 124.726 119.448 124.684 119.443 124.643C119.982 122.852 120.177 121.626 121.792 120.817C123.541 119.941 165.927 97.8365 166.028 97.7835C163.58 102.179 161.451 106.744 159.656 111.444C159.156 112.668 144.238 148.313 143.456 149.849C142.625 151.274 140.893 151.96 139.436 152.762C126.729 159.771 114.298 166.425 102.119 173.986C108.678 157.813 114.136 141.84 119.289 125.168L119.286 125.167ZM93.248 84.7105C93.3282 84.964 93.4623 85.1972 93.6412 85.394C93.82 85.5907 94.0393 85.7465 94.284 85.8505C92.89 85.9818 91.4863 85.9687 90.095 85.8115C88.7896 85.5397 87.4986 85.2027 86.227 84.8015L86.695 82.4205C88.9157 82.934 91.184 83.2142 93.463 83.2565C93.2346 83.7047 93.1591 84.2154 93.248 84.7105ZM97.1 84.3765C97.3378 84.3504 97.5741 84.3121 97.808 84.2615C97.5996 84.5273 97.3335 84.7423 97.0298 84.8903C96.7261 85.0382 96.3928 85.1152 96.055 85.1155C95.561 85.1755 94.642 85.2885 94.277 84.8475C94.1185 84.6025 94.0463 84.3117 94.0716 84.021C94.097 83.7303 94.2185 83.4564 94.417 83.2425C95.3741 83.2231 96.3281 83.1274 97.27 82.9565C97.285 82.9565 97.3 82.9765 97.315 82.9775C97.51 83.0004 97.6889 83.097 97.815 83.2475L97.015 83.3835C96.8913 83.4044 96.78 83.4711 96.7032 83.5702C96.6264 83.6693 96.5896 83.7937 96.6001 83.9187C96.6107 84.0436 96.6679 84.1601 96.7603 84.2449C96.8527 84.3297 96.9736 84.3767 97.099 84.3765H97.1ZM93.308 104.137C93.386 103.829 93.641 103.066 93.926 102.911C95.161 97.3565 96.058 92.6395 95.114 87.1915C95.0913 87.0608 95.1215 86.9264 95.1979 86.8179C95.2744 86.7094 95.3907 86.6357 95.5215 86.613C95.6522 86.5904 95.7867 86.6205 95.8951 86.697C96.0036 86.7734 96.0773 86.8898 96.1 87.0205C96.456 89.3606 96.5673 91.7314 96.432 94.0945C96.7508 93.8997 97.0218 93.6358 97.2249 93.3221C97.4279 93.0085 97.5578 92.6532 97.605 92.2825C97.7232 90.484 97.6194 88.6777 97.296 86.9045C97.2829 86.8393 97.2829 86.7721 97.2961 86.7069C97.3093 86.6417 97.3353 86.5798 97.3727 86.5248C97.4101 86.4698 97.4582 86.4228 97.5139 86.3866C97.5697 86.3504 97.6322 86.3257 97.6977 86.3139C97.7631 86.3021 97.8303 86.3035 97.8952 86.318C97.9601 86.3325 98.0215 86.3598 98.0757 86.3984C98.13 86.4369 98.176 86.4858 98.211 86.5424C98.2461 86.5989 98.2696 86.6618 98.28 86.7275C98.6268 88.6064 98.7323 90.5219 98.594 92.4275C98.5111 93.062 98.2554 93.6616 97.8549 94.1606C97.4544 94.6597 96.9245 95.0392 96.323 95.2575C96.061 97.4635 95.462 100.493 94.959 102.839C94.9868 102.846 95.0142 102.854 95.041 102.865C95.464 103.034 95.516 104.313 95.612 104.746C97.494 113.408 98.84 116.046 106.422 135.767C104.674 136.367 106.209 135.96 95.922 139.874C94.009 140.602 87.212 143.019 85.745 143.555C85.116 142.197 81.907 135.255 80.911 133.122C82.291 130.365 86.94 119.641 87.579 118.083C89.826 112.608 86.915 119.958 93.308 104.137ZM98.493 82.6935C99.2049 82.5082 99.9046 82.2787 100.588 82.0065L100.697 84.3935C99.85 84.6935 99.005 84.9695 98.165 85.1865C98.5342 84.896 98.7752 84.4726 98.8365 84.0068C98.8978 83.541 98.7745 83.0697 98.493 82.6935ZM106.706 136.51C108.119 140.18 109.548 143.846 111.027 147.492C111.077 147.719 106.911 159.383 101.113 174.432C95.936 165.396 90.757 154.356 86.05 144.213C91.674 142.351 104.983 137.3 106.706 136.51ZM109.733 83.3435C109.852 83.3061 109.972 83.2751 110.094 83.2505C110.187 83.4981 110.26 83.753 110.311 84.0125C113.776 99.4355 116.932 111.828 118.511 124.403C118.38 124.816 118.276 125.232 118.161 125.647C118.059 122.937 117.715 120.243 117.133 117.595C114.408 104.095 110.971 96.2145 106.504 89.2395C105.375 87.7844 104.499 86.1496 103.913 84.4035C104.284 84.3405 109.376 83.4495 109.733 83.3435ZM104.461 88.7635C104.544 88.724 104.635 88.7029 104.727 88.7017C104.819 88.7005 104.91 88.7192 104.994 88.7565C105.089 88.8052 105.166 88.8831 105.214 88.9787C105.261 89.0743 105.277 89.1827 105.258 89.2879C105.24 89.3931 105.188 89.4896 105.111 89.5633C105.034 89.637 104.935 89.6841 104.829 89.6975C102.065 90.5855 100.563 88.9815 100.037 86.2025C100.012 86.0722 100.041 85.9374 100.116 85.8279C100.19 85.7184 100.306 85.6431 100.436 85.6185C100.566 85.594 100.701 85.6222 100.811 85.6971C100.92 85.7719 100.995 85.8872 101.02 86.0175C101.427 88.1685 102.38 89.4445 104.461 88.7635ZM102.885 83.5185C102.443 83.7185 102.002 83.9075 101.561 84.0805C101.618 83.7805 101.615 83.9385 101.348 81.6945C101.93 81.4328 102.497 81.14 103.048 80.8175C102.826 81.6999 102.771 82.6159 102.885 83.5185ZM109.609 71.6995C109.961 72.3821 110.202 73.1168 110.321 73.8755C110.321 74.5095 109.535 75.1985 109.084 75.6875C107.838 77.0273 106.412 78.1868 104.846 79.1325C104.829 79.0325 104.114 75.2955 104.093 75.1935C104.127 75.0935 105.272 65.2935 104.701 62.3505C106.708 65.2575 108.356 68.3966 109.609 71.6995ZM135.89 37.3995C135.083 38.0285 135.056 37.9045 134.976 38.0995C134.945 38.1865 134.94 38.2805 134.961 38.3702C134.983 38.46 135.029 38.5417 135.096 38.6055C135.151 38.6513 135.215 38.6841 135.285 38.7014C135.354 38.7187 135.426 38.7201 135.496 38.7055C135.981 38.5772 136.484 38.5339 136.984 38.5775C136.781 38.6046 136.58 38.6491 136.384 38.7105C136.275 38.7402 136.181 38.8092 136.12 38.9043C136.059 38.9993 136.036 39.1136 136.055 39.2249C136.073 39.3362 136.133 39.4366 136.221 39.5066C136.31 39.5765 136.421 39.6111 136.534 39.6035C136.977 39.542 137.425 39.542 137.868 39.6035C138.061 39.6085 137.932 39.6125 136.568 39.6635C135.789 39.4875 135.637 40.5025 136.268 40.5805C136.605 40.6418 136.936 40.7281 137.26 40.8385C136.992 40.8075 135.816 40.6585 135.487 40.6235C135.025 39.9285 134.492 39.2831 133.897 38.6975C134.435 38.0983 135.123 37.6527 135.89 37.4065V37.3995ZM127.3 41.8885C127.4 41.8405 133.075 39.1745 133.176 39.2135C133.781 39.8544 134.319 40.5546 134.783 41.3035C134.644 41.4828 134.497 41.6547 134.34 41.8185C127.035 51.3548 118.101 59.5233 107.95 65.9465C107.155 64.4661 106.276 63.0324 105.317 61.6525C105.273 61.5886 105.213 61.5373 105.143 61.5035C105.073 61.4698 104.996 61.4547 104.919 61.4598C104.841 61.465 104.766 61.4901 104.702 61.5329C104.637 61.5756 104.584 61.6344 104.549 61.7035C104.33 60.6447 103.841 59.6605 103.129 58.8465C102.417 58.0326 101.507 57.4167 100.487 57.0585C109.11 51.7805 118.028 46.3255 127.3 41.8885ZM99.5 57.6635C103.044 57.9825 104.035 62.0635 104.06 64.4315C104.06 66.0215 103.943 66.9675 103.501 72.4985C102.65 68.6164 101.532 64.7979 100.153 61.0705C99.8805 60.0045 99.3515 59.0213 98.612 58.2065L99.5 57.6635ZM97.224 59.0045C97.445 58.9385 97.413 58.9395 97.898 58.6435C98.7919 59.6978 99.4189 60.9518 99.726 62.2995C100.107 63.4875 100.766 65.2995 101.678 68.6265C102.631 72.1049 103.384 75.635 103.933 79.1995C101.085 81.237 97.6887 82.367 94.188 82.4415C87.754 82.5915 83.416 80.3845 82.947 80.4895C84.0468 78.7018 85.016 76.8369 85.847 74.9095C87.9829 69.9835 89.2165 64.7138 89.489 59.3515C89.518 59.2885 89.613 59.0675 89.632 59.0195C96.537 61.5895 89.848 59.0925 94.308 60.7635C94.3513 60.7813 94.3978 60.7903 94.4447 60.7898C94.4915 60.7893 94.5378 60.7794 94.5808 60.7607C94.6238 60.742 94.6625 60.7148 94.6948 60.6808C94.7271 60.6468 94.7522 60.6067 94.7687 60.5628C94.7852 60.519 94.7926 60.4722 94.7907 60.4254C94.7888 60.3786 94.7775 60.3326 94.7575 60.2903C94.7374 60.2479 94.7091 60.21 94.6742 60.1787C94.6392 60.1475 94.5984 60.1237 94.554 60.1085C90.554 58.6085 91.142 58.8455 90.936 58.7035C90.922 58.5957 90.9013 58.4888 90.874 58.3835C90.874 58.3525 90.859 58.3295 90.855 58.3005C91.8823 58.8885 93.027 59.2416 94.207 59.3345C94.8889 59.4735 95.5842 59.5362 96.28 59.5215C96.4661 59.5158 96.6482 59.466 96.8113 59.3761C96.9744 59.2862 97.1138 59.1589 97.218 59.0045H97.224ZM85.408 84.5365C84.6897 84.3084 83.9924 84.0186 83.324 83.6705C83.5153 82.9631 83.5726 82.2261 83.493 81.4975C84.248 81.7625 85.015 81.9915 85.793 82.1925C85.393 84.0645 85.353 84.0995 85.408 84.5365ZM86.7 52.1055C87.06 50.8435 89.066 51.8775 89.165 52.8585C89.1583 53.1348 89.2165 53.4088 89.335 53.6585C89.503 53.8965 89.649 53.8435 90.014 54.2785C90.3 54.6185 90.814 55.2315 90.969 54.8155C91.1157 54.2171 91.0612 53.5869 90.814 53.0225C90.8368 52.5584 91.0154 52.1156 91.321 51.7655C92.081 50.6205 91.298 49.1495 92.068 48.0605C92.914 46.9905 93.614 47.2995 94.746 46.2815C94.9364 46.107 95.0756 45.8839 95.1486 45.6361C95.2215 45.3883 95.2255 45.1254 95.16 44.8755C95.9326 45.3048 96.6415 45.84 97.266 46.4655C97.307 46.5295 97.347 46.5945 97.386 46.6595H97.373C97.0697 46.7025 96.7948 46.8613 96.606 47.1025C96.357 47.4205 96.806 47.9025 97.106 47.6855C97.2104 47.5887 97.3377 47.5199 97.476 47.4855C97.5969 47.4584 97.7228 47.4636 97.841 47.5005H97.852C97.975 47.7425 98.095 47.9865 98.203 48.2365C98.1353 48.1554 98.048 48.093 97.9494 48.0552C97.8508 48.0174 97.7442 48.0054 97.6396 48.0204C97.5351 48.0355 97.4361 48.077 97.3522 48.1411C97.2682 48.2052 97.2021 48.2897 97.16 48.3865C97.0995 48.6374 97.1132 48.9005 97.1994 49.1437C97.2857 49.387 97.4409 49.5999 97.646 49.7565C97.7343 49.8363 97.8454 49.8865 97.9637 49.9C98.0819 49.9135 98.2015 49.8896 98.3055 49.8317C98.4095 49.7738 98.4928 49.6848 98.5436 49.5771C98.5945 49.4695 98.6103 49.3486 98.589 49.2315C99.247 51.1615 99.596 53.5945 98.596 55.3105C98.3766 55.6966 98.0768 56.0311 97.7169 56.2913C97.357 56.5514 96.9454 56.7312 96.51 56.8185C96.4479 56.8347 96.3897 56.8633 96.3389 56.9026C96.2881 56.9419 96.2458 56.991 96.2145 57.0471C96.1832 57.1031 96.1636 57.1649 96.1568 57.2288C96.15 57.2926 96.1562 57.3571 96.175 57.4185C96.357 57.9525 96.475 58.2495 96.575 58.5475C96.395 58.7095 95.802 58.6565 95.475 58.6265C93.8022 58.5959 92.1625 58.155 90.7 57.3425C90.554 57.2605 90.641 57.4565 90.473 56.8495C90.3777 56.3846 90.2439 55.9283 90.073 55.4855C90.019 55.3695 89.822 54.7355 89.373 55.0175C88.9784 55.0754 88.5756 55.0076 88.2217 54.8238C87.8678 54.6401 87.5806 54.3496 87.401 53.9935C87.1505 53.7512 86.9575 53.4558 86.8362 53.1291C86.7149 52.8024 86.6683 52.4526 86.7 52.1055ZM88.435 61.4315C87.9939 65.7001 86.9313 69.8813 85.281 73.8425C85.424 68.9305 85.131 66.6955 85.167 64.7425C86.6343 64.0897 87.8014 62.9073 88.435 61.4315ZM43.566 47.5525C42.8441 47.1709 42.0732 46.8903 41.275 46.7185C40.9795 46.6645 40.6899 46.5824 40.41 46.4735C40.8545 46.4393 41.3016 46.4867 41.729 46.6135C41.8104 46.6306 41.895 46.6245 41.9731 46.5959C42.0512 46.5673 42.1197 46.5173 42.1708 46.4516C42.2219 46.3859 42.2535 46.3072 42.262 46.2245C42.2705 46.1417 42.2556 46.0582 42.219 45.9835C42.2097 45.9173 42.1816 45.8551 42.138 45.8044C42.0944 45.7537 42.0371 45.7166 41.973 45.6975C41.7582 45.6329 41.5389 45.5841 41.317 45.5515L40.325 45.2215C40.5454 45.1915 40.7698 45.2106 40.982 45.2775C41.3458 45.3469 41.7043 45.4414 42.055 45.5605C42.64 45.7605 42.783 44.8265 42.339 44.6675C41.9783 44.566 41.6366 44.4066 41.327 44.1955C41.9737 44.2699 42.5866 44.5242 43.096 44.9295C43.1613 45.0159 43.2562 45.075 43.3625 45.0955C43.4688 45.1159 43.5789 45.0963 43.6716 45.0404C43.7643 44.9845 43.833 44.8963 43.8645 44.7927C43.8959 44.6891 43.8879 44.5775 43.842 44.4795C43.682 44.1004 43.55 43.71 43.447 43.3115C43.8863 43.84 44.2591 44.4203 44.557 45.0395L43.981 46.5395C43.8141 46.8648 43.6752 47.2037 43.566 47.5525ZM82.553 79.3465C82.313 79.7565 81.866 80.7885 81.481 80.8725C81.062 80.9645 79.865 80.2495 79.362 80.0115C76.3528 78.5646 73.5165 76.7827 70.907 74.6995C70.539 74.4495 70.463 74.3475 70.446 74.3885C71.683 72.2997 72.7853 70.134 73.746 67.9045C73.823 67.9455 73.899 67.9905 73.977 68.0305C74.0808 68.0832 74.2012 68.0928 74.312 68.0572C74.4229 68.0216 74.5152 67.9438 74.569 67.8405C74.6225 67.7403 74.6339 67.6229 74.601 67.5141C74.568 67.4054 74.4932 67.3142 74.393 67.2605C63.493 61.4225 55.83 56.7995 45.439 50.1455C44.501 49.5455 43.99 49.1405 44.296 48.2455C44.6141 47.1714 45.0247 46.1268 45.523 45.1235C45.623 45.1405 56.213 48.1045 57.396 48.4495C66.125 50.9315 71.596 52.7575 77.096 54.5985C76.6704 54.8429 76.3079 55.1834 76.0374 55.5928C75.7669 56.0022 75.5959 56.4692 75.538 56.9565C75.484 58.1635 76.671 59.5455 75.838 60.5765C75.273 61.2925 74.038 61.1765 73.288 61.7765C73.0519 62.0272 72.878 62.3298 72.7802 62.66C72.6824 62.9902 72.6635 63.3387 72.725 63.6775C72.7865 64.0163 72.9266 64.336 73.1342 64.6108C73.3417 64.8855 73.6109 65.1078 73.92 65.2595C73.9333 65.2703 73.9502 65.2753 73.9672 65.2735C73.9842 65.2717 73.9997 65.2633 74.0105 65.25C74.0212 65.2368 74.0263 65.2198 74.0245 65.2028C74.0227 65.1858 74.0143 65.1703 74.001 65.1595C73.634 64.7425 74.001 64.0105 74.527 63.8255C75.1018 63.7042 75.7003 63.7701 76.235 64.0135C78.1962 64.7676 80.266 65.2009 82.365 65.2965C83.0285 65.3177 83.6911 65.2329 84.328 65.0455C84.315 68.1385 84.709 71.1455 84.374 75.8705C83.792 77.0995 83.181 78.2745 82.553 79.3465ZM80.762 89.5345C81.875 89.71 83.0146 89.5069 83.9984 88.9577C84.9822 88.4085 85.7533 87.545 86.188 86.5055C86.2453 86.3892 86.3456 86.2997 86.4676 86.2559C86.5896 86.2121 86.7239 86.2174 86.8421 86.2708C86.9603 86.3241 87.0532 86.4212 87.1011 86.5417C87.149 86.6622 87.1483 86.7966 87.099 86.9165C86.5743 88.1419 85.6603 89.1601 84.4984 89.8135C83.3365 90.4668 81.9916 90.7188 80.672 90.5305C80.6063 90.5246 80.5425 90.5058 80.4841 90.4752C80.4257 90.4447 80.3739 90.4029 80.3316 90.3523C80.2894 90.3016 80.2575 90.2432 80.2378 90.1803C80.2182 90.1174 80.2111 90.0512 80.217 89.9855C80.2229 89.9199 80.2417 89.856 80.2723 89.7976C80.3029 89.7392 80.3446 89.6874 80.3953 89.6452C80.4459 89.6029 80.5043 89.571 80.5672 89.5514C80.6301 89.5317 80.6963 89.5246 80.762 89.5305V89.5345ZM52.387 97.4595C51.826 95.9375 51.787 96.0215 51.787 95.9035C52.301 95.6965 78.092 89.8095 79.206 89.5665C73.897 98.8595 71.963 110.617 70.657 121.255C70.106 121.028 62.304 117.864 58.902 116.505C57.012 110.224 54.855 104.154 52.387 97.4595ZM30.218 106.446C30.618 106.586 74.029 123.563 75.466 124.307C76.79 125.507 89.989 156.562 99.526 173.607C98.3991 172.952 97.2298 172.372 96.026 171.873C93.245 170.529 61.792 156.325 60.652 155.73C60.049 155.361 40.651 121.438 30.218 106.446ZM151.871 148.255C153.749 148.593 155.487 149.473 156.871 150.788C157.475 151.39 157.854 152.18 157.947 153.028C158.039 153.876 157.838 154.73 157.378 155.448C156.345 156.81 154.963 157.867 153.378 158.507C144.326 162.271 138.366 162.873 130.105 167.936C127.326 169.664 124.931 171.946 123.071 174.638C121.211 177.331 119.924 180.377 119.29 183.589C119.242 183.978 119.158 184.363 119.037 184.737C118.919 184.977 118.742 185.183 118.522 185.335C118.302 185.487 118.046 185.58 117.78 185.605C110.376 187.317 102.797 188.161 95.198 188.121C85.7172 187.998 76.3353 186.176 67.498 182.741V182.728L67.491 182.701C65.191 174.572 57.34 169.883 51.636 167.063C46.936 164.742 44.581 164.174 42.153 161.802C41.5974 161.254 41.1954 160.57 40.9869 159.818C40.7784 159.066 40.7709 158.272 40.965 157.517C41.5795 155.936 42.7661 154.645 44.289 153.9C47.78 151.9 52.666 151.406 57.421 152.5C57.886 153.282 58.353 154.068 58.821 154.825C59.0995 155.372 59.4422 155.884 59.842 156.351C60.1399 156.575 60.4682 156.755 60.817 156.887C96.609 173.15 96.34 172.926 99.96 174.979C100.713 175.406 100.944 175.832 101.839 175.269C103.373 174.305 109.101 170.384 136.092 155.654C140.786 153.093 140.378 153.364 141.632 152.619C141.584 152.702 141.531 152.783 141.471 152.859C141.227 153.289 141.589 153.695 142.015 153.259L142.03 153.267C142.656 152.51 143.239 151.719 143.778 150.898C143.817 150.875 143.851 150.845 143.878 150.809C143.92 150.751 145.183 149.009 145.716 148.264C147.747 147.854 149.839 147.851 151.871 148.255ZM172.371 104.599C162.482 119.494 155.293 132.849 145.971 146.399C164.207 102.95 163.737 103.973 165.849 100.074C173.849 103.748 173.071 103.346 173.172 103.439C172.949 103.854 172.681 104.243 172.373 104.6L172.371 104.599Z" fill="black"/>
</svg>
