<svg width="184" height="192" viewBox="0 0 184 192" fill="none" xmlns="http://www.w3.org/2000/svg">
<path d="M156.402 45.3024C156.809 45.2161 157.181 45.0108 157.472 44.7124C157.438 44.8781 157.394 45.0417 157.342 45.2024C157.262 45.4724 157.562 45.5524 157.662 45.3824C158.015 44.8574 158.155 44.217 158.052 43.5924C158.046 43.5334 158.025 43.4771 157.988 43.4302C157.952 43.3833 157.903 43.3478 157.847 43.3278C157.792 43.3078 157.731 43.3042 157.674 43.3174C157.616 43.3307 157.563 43.3601 157.522 43.4024C157.102 43.9124 157.022 44.6324 156.312 44.8524C156.255 44.8677 156.207 44.9038 156.177 44.9534C156.146 45.0029 156.135 45.0623 156.147 45.1194C156.158 45.1765 156.191 45.2272 156.238 45.2612C156.285 45.2951 156.344 45.3099 156.402 45.3024ZM154.432 41.9324C154.487 41.9683 154.552 41.9885 154.618 41.9909C154.684 41.9933 154.75 41.9779 154.808 41.9462C154.867 41.9145 154.915 41.8677 154.949 41.8107C154.983 41.7538 155.001 41.6887 155.002 41.6224C155.002 41.5424 155.002 41.4524 154.522 40.7324C154.422 40.5824 154.302 40.3024 154.042 40.4424C153.782 40.5824 153.962 40.8424 154.102 41.1924C154.382 41.9324 154.382 41.9324 154.432 41.9324ZM154.272 40.1024C154.762 40.1024 155.102 40.1024 155.162 40.5124C155.17 40.5734 155.202 40.6288 155.25 40.6663C155.299 40.7038 155.361 40.7204 155.422 40.7124C155.483 40.7045 155.538 40.6726 155.576 40.6238C155.613 40.5751 155.63 40.5134 155.622 40.4524C155.543 40.1284 155.352 39.8426 155.083 39.6452C154.814 39.4477 154.485 39.3511 154.152 39.3724C154.073 39.4053 154.007 39.4639 153.965 39.5388C153.924 39.6137 153.909 39.7004 153.923 39.7849C153.936 39.8694 153.979 39.9468 154.042 40.0044C154.105 40.062 154.186 40.0966 154.272 40.1024ZM31.9617 70.5824C29.1567 71.9392 26.0699 72.6113 22.9548 72.5435C19.8396 72.4757 16.785 71.67 14.0417 70.1924C13.9913 70.1619 13.9308 70.1527 13.8736 70.1667C13.8165 70.1808 13.7672 70.217 13.7367 70.2674C13.7062 70.3178 13.697 70.3783 13.711 70.4354C13.7251 70.4926 13.7613 70.5419 13.8117 70.5724C19.2917 74.1424 27.3417 74.3424 32.1117 70.8424C32.1462 70.8225 32.1713 70.7897 32.1816 70.7513C32.192 70.7129 32.1866 70.6719 32.1667 70.6374C32.1468 70.6029 32.114 70.5778 32.0756 70.5675C32.0371 70.5571 31.9962 70.5625 31.9617 70.5824ZM31.2217 40.9324C31.7917 41.1624 32.7317 40.9324 32.4817 40.4024C32.3148 39.998 32.1973 39.575 32.1317 39.1424C32.1317 39.0814 32.1075 39.0229 32.0643 38.9798C32.0212 38.9366 31.9627 38.9124 31.9017 38.9124C31.8407 38.9124 31.7822 38.9366 31.739 38.9798C31.6959 39.0229 31.6717 39.0814 31.6717 39.1424C31.6657 39.5655 31.7059 39.988 31.7917 40.4024C31.6553 40.48 31.4975 40.5116 31.3417 40.4924C31.3128 40.4845 31.2826 40.4824 31.2529 40.4862C31.2232 40.49 31.1945 40.4996 31.1685 40.5144C31.1425 40.5293 31.1197 40.5491 31.1014 40.5728C31.0831 40.5965 31.0696 40.6235 31.0617 40.6524C31.0538 40.6813 31.0517 40.7115 31.0555 40.7412C31.0592 40.7709 31.0688 40.7995 31.0837 40.8255C31.0986 40.8516 31.1184 40.8744 31.1421 40.8927C31.1657 40.911 31.1928 40.9245 31.2217 40.9324ZM30.0717 38.7424C30.2265 38.3827 30.3536 38.0116 30.4517 37.6324C30.4606 37.5976 30.4625 37.5614 30.4572 37.5258C30.452 37.4902 30.4397 37.4561 30.4211 37.4254C30.4024 37.3946 30.3779 37.3679 30.3488 37.3468C30.3197 37.3257 30.2867 37.3106 30.2517 37.3024C29.9517 37.2124 29.9017 37.5324 29.7517 37.9224C29.6656 38.1164 29.5953 38.3171 29.5417 38.5224C29.5414 38.584 29.5594 38.6442 29.5934 38.6955C29.6275 38.7467 29.676 38.7867 29.7328 38.8103C29.7897 38.8339 29.8523 38.8401 29.9126 38.828C29.9729 38.8159 30.0283 38.7861 30.0717 38.7424ZM33.4017 39.6824C33.4586 39.7074 33.5219 39.7141 33.5828 39.7016C33.6437 39.689 33.6993 39.6579 33.7417 39.6124C33.895 39.2521 34.0221 38.8811 34.1217 38.5024C34.1322 38.4683 34.1356 38.4323 34.1316 38.3968C34.1276 38.3613 34.1164 38.327 34.0986 38.296C34.0807 38.2651 34.0567 38.2381 34.028 38.2168C33.9993 38.1956 33.9665 38.1804 33.9317 38.1724C33.6217 38.0824 33.5617 38.4424 33.4317 38.7824C33.3017 39.1224 33.0517 39.5424 33.4017 39.6824ZM28.6017 41.7324C28.9606 41.9121 29.3719 41.9582 29.7617 41.8624C30.0117 41.7524 29.8417 41.3724 29.6017 41.4524C29.3375 41.4343 29.0841 41.3406 28.8717 41.1824C28.7364 41.0937 28.6199 40.9791 28.529 40.8452C28.438 40.7114 28.3744 40.5609 28.3417 40.4024C28.2717 39.9824 27.6117 40.1424 27.7117 40.5624C27.7602 40.8127 27.8658 41.0484 28.0201 41.2513C28.1745 41.4542 28.3735 41.6188 28.6017 41.7324ZM99.6917 151.202C99.6917 150.937 99.5863 150.683 99.3988 150.495C99.2113 150.308 98.9569 150.202 98.6917 150.202C98.4265 150.202 98.1721 150.308 97.9846 150.495C97.797 150.683 97.6917 150.937 97.6917 151.202C97.6917 151.468 97.797 151.722 97.9846 151.91C98.1721 152.097 98.4265 152.202 98.6917 152.202C98.9569 152.202 99.2113 152.097 99.3988 151.91C99.5863 151.722 99.6917 151.468 99.6917 151.202ZM99.6717 161.052C99.8297 161.067 99.989 161.049 100.14 160.999C100.29 160.948 100.428 160.867 100.546 160.76C100.663 160.654 100.757 160.523 100.821 160.378C100.885 160.233 100.918 160.076 100.918 159.917C100.918 159.759 100.885 159.602 100.821 159.457C100.757 159.311 100.663 159.181 100.546 159.074C100.428 158.968 100.29 158.886 100.14 158.836C99.989 158.786 99.8297 158.768 99.6717 158.782C99.5137 158.768 99.3543 158.786 99.2038 158.836C99.0533 158.886 98.9149 158.968 98.7976 159.074C98.6802 159.181 98.5865 159.311 98.5223 159.457C98.4582 159.602 98.425 159.759 98.425 159.917C98.425 160.076 98.4582 160.233 98.5223 160.378C98.5865 160.523 98.6802 160.654 98.7976 160.76C98.9149 160.867 99.0533 160.948 99.2038 160.999C99.3543 161.049 99.5137 161.067 99.6717 161.052ZM99.9617 169.152C99.6893 169.178 99.4364 169.305 99.2524 169.508C99.0684 169.71 98.9664 169.974 98.9664 170.247C98.9664 170.521 99.0684 170.785 99.2524 170.987C99.4364 171.19 99.6893 171.316 99.9617 171.342C100.234 171.316 100.487 171.19 100.671 170.987C100.855 170.785 100.957 170.521 100.957 170.247C100.957 169.974 100.855 169.71 100.671 169.508C100.487 169.305 100.234 169.178 99.9617 169.152ZM93.8917 125.722C94.3844 128.333 94.7184 130.971 94.8917 133.622C94.8917 133.715 94.9286 133.804 94.9942 133.87C95.0598 133.936 95.1488 133.972 95.2417 133.972C95.3345 133.972 95.4235 133.936 95.4892 133.87C95.5548 133.804 95.5917 133.715 95.5917 133.622C95.3955 130.927 94.9842 128.252 94.3617 125.622C94.3362 125.575 94.2958 125.536 94.2466 125.513C94.1974 125.49 94.1421 125.484 94.089 125.495C94.036 125.507 93.988 125.535 93.9524 125.576C93.9168 125.617 93.8955 125.668 93.8917 125.722ZM95.7917 155.002C95.7917 154.933 95.7643 154.867 95.7155 154.819C95.6668 154.77 95.6006 154.742 95.5317 154.742C95.4627 154.742 95.3966 154.77 95.3478 154.819C95.2991 154.867 95.2717 154.933 95.2717 155.002C95.1717 161.852 95.0517 178.222 95.1117 180.002C95.1254 180.081 95.1665 180.153 95.2278 180.204C95.289 180.256 95.3666 180.284 95.4467 180.284C95.5268 180.284 95.6043 180.256 95.6656 180.204C95.7269 180.153 95.768 180.081 95.7817 180.002C95.9217 176.772 95.7917 156.602 95.7917 155.002ZM122.632 86.2224C122.642 86.2504 122.662 86.2743 122.687 86.2905C122.712 86.3067 122.742 86.3144 122.772 86.3124C125.412 84.9489 127.789 83.1273 129.792 80.9324C129.82 80.9027 129.835 80.8633 129.835 80.8224C129.835 80.7815 129.82 80.7421 129.792 80.7124C127.502 79.0924 121.032 76.4024 121.022 77.1624C120.971 80.2578 121.518 83.334 122.632 86.2224ZM49.0117 100.732C49.8219 100.766 50.6222 100.545 51.3002 100.1C51.9782 99.655 52.4998 99.0089 52.7917 98.2524C53.0617 97.4024 52.9617 97.2524 52.1417 92.3024C52.7396 92.782 53.3675 93.2229 54.0217 93.6224C54.2275 93.7018 54.4554 93.7019 54.6613 93.6227C54.8671 93.5436 55.0363 93.3908 55.1359 93.194C55.2355 92.9973 55.2586 92.7705 55.2005 92.5577C55.1424 92.345 55.0074 92.1613 54.8217 92.0424C53.1488 91.1722 51.8639 89.7053 51.2217 87.9324C51.1317 87.6224 49.9617 87.5224 49.5217 88.2724C49.5217 88.3624 51.0517 96.8624 51.0717 96.9524C51.1369 97.2083 51.1369 97.4765 51.0717 97.7324C50.9231 98.0536 50.6958 98.332 50.4108 98.5418C50.1258 98.7515 49.7925 98.8859 49.4417 98.9324C49.162 98.9877 48.8742 98.9868 48.5949 98.9298C48.3155 98.8728 48.0504 98.7608 47.8147 98.6003C47.5791 98.4399 47.3777 98.2342 47.2223 97.9952C47.0669 97.7562 46.9606 97.4887 46.9096 97.2083C46.8585 96.9278 46.8637 96.64 46.9249 96.3616C46.9862 96.0831 47.1021 95.8197 47.2661 95.5865C47.4301 95.3533 47.6388 95.1551 47.8801 95.0033C48.1214 94.8515 48.3905 94.7492 48.6717 94.7024C48.9064 94.6613 49.1152 94.5286 49.2521 94.3336C49.389 94.1386 49.4428 93.8971 49.4017 93.6624C49.3606 93.4277 49.2279 93.2189 49.0329 93.082C48.8378 92.9451 48.5964 92.8913 48.3617 92.9324C47.6679 93.0482 47.0169 93.345 46.4744 93.7927C45.9319 94.2404 45.5171 94.8232 45.2717 95.4824C45.0465 96.0784 44.9715 96.7207 45.0533 97.3525C45.1352 97.9843 45.3714 98.5863 45.741 99.1052C46.1107 99.6241 46.6025 100.044 47.1729 100.328C47.7433 100.612 48.3748 100.751 49.0117 100.732Z" fill="#00164F"/>
<path d="M60.0916 93.8025C59.9866 91.782 59.279 89.8391 58.0599 88.2244C56.8408 86.6096 55.1661 85.3969 53.2516 84.7425C44.6216 81.8225 36.6816 91.9325 41.7916 99.6025C42.9971 101.398 44.7523 102.755 46.794 103.468C48.8356 104.182 51.0536 104.215 53.1154 103.561C55.1772 102.908 56.9715 101.604 58.2293 99.8441C59.487 98.0846 60.1405 95.9648 60.0916 93.8025ZM44.0916 87.4025C50.2216 81.7625 59.2216 86.4025 59.4616 93.8125C59.4389 95.7 58.8945 97.5445 57.8885 99.1418C56.8825 100.739 55.4541 102.027 53.7616 102.863C48.1816 105.293 41.4416 101.103 40.9716 95.2025C40.8482 93.752 41.063 92.2925 41.5992 90.9391C42.1353 89.5856 42.9782 88.375 44.0616 87.4025H44.0916ZM115.792 86.0325C116.66 87.3622 117.836 88.4636 119.219 89.244C120.602 90.0244 122.153 90.4609 123.74 90.5167C125.327 90.5725 126.905 90.246 128.339 89.5648C129.774 88.8835 131.024 87.8674 131.984 86.602C132.943 85.3367 133.585 83.8592 133.855 82.294C134.124 80.7288 134.013 79.1218 133.532 77.6083C133.05 76.0949 132.212 74.7193 131.088 73.5975C129.964 72.4758 128.586 71.6406 127.072 71.1625C118.092 68.3825 110.872 78.8425 115.792 86.0325ZM118.092 73.8425C124.342 68.0825 133.222 73.0725 133.452 80.2525C133.432 82.1356 132.893 83.9767 131.894 85.5733C130.895 87.17 129.476 88.4603 127.792 89.3025C122.222 91.7325 115.472 87.5525 114.992 81.6425C114.871 80.1885 115.091 78.7264 115.634 77.3723C116.177 76.0183 117.029 74.8097 118.122 73.8425H118.092ZM54.1216 38.6925C46.7316 23.0925 27.7916 16.4425 12.5116 26.8425C-7.28844 40.3725 -2.60844 68.9325 19.6516 76.6125C41.3916 84.3325 65.1216 61.9325 54.1216 38.6925ZM40.1916 74.5925C38.3769 75.4811 36.4636 76.1524 34.4916 76.5925C34.6216 75.3525 34.7816 72.1525 34.8416 70.6525C35.7816 72.1525 37.4816 73.6525 39.5916 73.3525C41.4316 73.0625 43.0616 71.3525 44.5916 68.3525C46.0895 65.074 46.932 61.5343 47.0716 57.9325C47.2345 57.5156 47.3388 57.0781 47.3816 56.6325C47.8897 55.4617 48.4813 54.3287 49.1516 53.2425C49.5115 52.9288 49.8247 52.5651 50.0816 52.1625C50.361 51.3873 50.4233 50.5505 50.2616 49.7425C50.2302 48.9322 49.9313 48.155 49.4116 47.5325C49.8216 46.7025 50.9616 42.9125 51.1516 42.1725C51.1679 42.0932 51.1545 42.0107 51.1139 41.9406C51.0734 41.8706 51.0085 41.8178 50.9316 41.7925C48.9268 41.4869 46.8988 41.3597 44.8716 41.4125C44.8016 41.2825 41.2016 51.5625 40.8716 52.4125C40.8563 52.4591 40.8507 52.5083 40.8552 52.5571C40.8596 52.606 40.874 52.6534 40.8974 52.6964C40.9208 52.7395 40.9528 52.7773 40.9913 52.8076C41.0299 52.8379 41.0742 52.86 41.1216 52.8725C42.1154 53.0267 43.1169 53.1268 44.1216 53.1725C44.1216 53.6025 43.9316 54.7925 43.8616 55.1725C43.5764 55.5345 43.3441 55.9352 43.1716 56.3625C41.93 57.4424 41.0561 58.8826 40.6716 60.4825C38.9016 52.7125 37.6716 49.3725 30.6716 45.4825C30.3216 45.2925 29.9016 45.1525 29.5216 44.9025C34.3616 46.0625 34.9016 46.6125 35.0816 46.3725C40.5616 38.6525 38.0116 29.8225 32.3916 26.2725C27.1316 22.4725 21.9416 26.0625 20.0516 32.0725C18.6516 36.8025 21.0516 40.9425 22.2916 42.6625C21.1516 42.7725 20.7616 42.9025 19.8516 43.0025C12.1516 43.8325 5.91156 53.0625 3.05156 60.2725C-5.47844 40.7025 13.1016 18.4225 34.7016 23.5825C59.3916 30.3525 63.8816 63.1325 40.1916 74.5925ZM9.60156 69.5925C10.3616 68.4125 12.2616 65.1325 12.7016 64.3625C18.2616 68.6425 28.7016 69.2025 34.1816 65.5525C34.1816 65.7225 33.9316 75.3625 33.9316 76.7325C29.6003 77.5252 25.1435 77.2923 20.9185 76.0524C16.6934 74.8125 12.8176 72.6001 9.60156 69.5925ZM40.9716 62.7125C40.9535 62.4006 40.9168 62.09 40.8616 61.7825C40.9516 61.5025 41.0116 61.2525 41.1016 60.9225C41.7516 62.0025 43.9016 63.9225 44.7916 64.0325C44.8364 64.036 44.881 64.0244 44.9184 63.9994C44.9557 63.9744 44.9836 63.9376 44.9974 63.8948C45.0113 63.8521 45.0104 63.8059 44.9948 63.7638C44.9792 63.7216 44.9499 63.686 44.9116 63.6625C43.431 62.7423 42.2417 61.4212 41.4816 59.8525C41.7119 59.2252 42.0503 58.643 42.4816 58.1325C43.2654 59.3629 44.3677 60.3581 45.6716 61.0125C45.6945 61.0184 45.7185 61.0198 45.742 61.0164C45.7654 61.0131 45.7881 61.0052 45.8085 60.9931C45.8289 60.981 45.8468 60.965 45.861 60.9461C45.8753 60.9271 45.8857 60.9055 45.8916 60.8825C45.8975 60.8595 45.8988 60.8356 45.8955 60.8121C45.8921 60.7886 45.8842 60.766 45.8721 60.7456C45.8601 60.7252 45.8441 60.7073 45.8251 60.6931C45.8061 60.6788 45.7845 60.6684 45.7616 60.6625C44.592 59.8586 43.6291 58.7895 42.9516 57.5425C43.0816 57.3825 43.2216 57.2225 43.3616 57.0725C44.1648 57.863 45.2353 58.3233 46.3616 58.3625C46.1847 61.3597 45.5681 64.3147 44.5316 67.1325C43.7121 69.1136 42.4296 70.8694 40.7916 72.2525C42.1696 69.5775 42.484 66.4799 41.6716 63.5825C41.6515 63.514 41.6092 63.4541 41.5512 63.4124C41.4932 63.3707 41.4229 63.3497 41.3516 63.3525C40.5016 63.3525 41.6916 66.8325 35.7016 70.6825C35.3921 70.2396 35.1147 69.7751 34.8716 69.2925C34.9316 65.8925 34.7916 62.5025 34.6516 59.2225C34.6516 59.1615 34.6273 59.103 34.5842 59.0599C34.5411 59.0168 34.4826 58.9925 34.4216 58.9925C34.3606 58.9925 34.3021 59.0168 34.2589 59.0599C34.2158 59.103 34.1916 59.1615 34.1916 59.2225C34.2516 60.9625 34.1916 62.6825 34.1916 64.7425C30.8316 66.8525 26.9816 67.5825 22.0616 67.0325C18.7887 66.8601 15.6355 65.7454 12.9816 63.8225C13.3316 63.1825 14.7916 60.3825 15.2016 59.6325C15.2213 59.5984 15.2315 59.5595 15.2311 59.5201C15.2307 59.4806 15.2197 59.442 15.1993 59.4083C15.1789 59.3745 15.1497 59.3469 15.1149 59.3283C15.0801 59.3097 15.041 59.3008 15.0016 59.3025C14.7616 59.3025 15.0016 59.2425 13.0016 62.6725C9.84706 61.4368 7.29957 59.0185 5.90156 55.9325C7.52015 52.8427 9.64258 50.0443 12.1816 47.6525C13.4857 49.4632 15.1406 50.9933 17.0478 52.1518C18.955 53.3103 21.0756 54.0736 23.2837 54.3964C25.4917 54.7192 27.7421 54.5948 29.9011 54.0306C32.0601 53.4665 34.0837 52.4742 35.8516 51.1125C35.8855 51.0764 35.9055 51.0294 35.9081 50.9799C35.9107 50.9304 35.8957 50.8816 35.8658 50.8421C35.8358 50.8026 35.7929 50.7749 35.7445 50.764C35.6962 50.7531 35.6455 50.7597 35.6016 50.7825C34.1503 51.7798 32.5733 52.5801 30.9116 53.1625C27.6337 54.2008 24.112 54.1799 20.8467 53.1028C17.5814 52.0257 14.7384 49.9472 12.7216 47.1625C13.6793 46.3854 14.7187 45.7148 15.8216 45.1625C19.6116 53.6925 28.9616 54.3025 33.4816 48.1625C35.8216 49.9825 36.5416 50.2125 38.4116 54.7325C34.1216 58.4725 30.2116 60.3325 26.4716 60.2925C23.3638 60.3142 20.2916 59.6297 17.487 58.2906C14.6824 56.9515 12.2186 54.9929 10.2816 52.5625C10.1216 52.3425 9.76156 52.5625 9.92156 52.8025C12.9216 57.3725 18.6116 60.3725 25.5716 61.0325C30.2816 61.4925 35.2816 58.8025 38.6416 55.3825C39.1616 57.1025 39.7916 59.6325 39.8616 59.9325C39.5516 60.9325 36.2016 64.0425 35.6716 64.1625C35.3616 64.2325 35.5216 64.7125 35.8016 64.5925C37.4133 63.6599 38.865 62.4748 40.1016 61.0825C40.2116 61.6025 40.4116 62.5325 40.4416 62.7625C40.4716 62.9925 40.9916 63.0325 40.9716 62.7125ZM46.9716 47.6325C46.8476 47.5976 46.717 47.5936 46.5912 47.6207C46.4653 47.6478 46.348 47.7053 46.2494 47.7881C46.1508 47.8709 46.074 47.9765 46.0256 48.0958C45.9771 48.2151 45.9586 48.3444 45.9716 48.4725C44.9016 48.7025 44.9716 49.4725 45.5916 49.9725C46.2053 50.3599 46.8396 50.7137 47.4916 51.0325C47.2616 51.5825 47.0816 52.0325 46.8416 52.5625C45.8416 52.5625 42.7316 52.3725 41.6516 52.2825C42.0516 51.0325 44.1616 45.2225 45.3216 42.0825C46.3216 42.1325 49.4516 42.2125 50.4616 42.3725C50.2216 43.3725 49.2016 46.2825 48.9116 47.1925C48.7572 47.0907 48.5837 47.0211 48.4017 46.9881C48.2197 46.9551 48.0329 46.9592 47.8526 47.0003C47.6722 47.0415 47.5021 47.1187 47.3524 47.2273C47.2027 47.336 47.0765 47.4738 46.9816 47.6325H46.9716ZM47.4116 53.0425C47.5816 52.5025 47.7916 51.9825 48.0716 51.3025C48.1161 51.3103 48.162 51.3036 48.2024 51.2832C48.2428 51.2629 48.2755 51.2301 48.2957 51.1896C48.316 51.1492 48.3226 51.1033 48.3146 51.0587C48.3067 51.0142 48.2845 50.9735 48.2516 50.9425C48.0016 50.7125 45.6816 49.4825 45.7716 49.2425C45.8616 49.0025 46.4416 49.1725 46.7716 49.3625C47.4224 49.6305 48.0906 49.8544 48.7716 50.0325C48.8153 50.0373 48.8594 50.0275 48.897 50.0046C48.9346 49.9818 48.9636 49.9472 48.9795 49.9062C48.9955 49.8652 48.9975 49.8201 48.9852 49.7778C48.9729 49.7356 48.947 49.6986 48.9116 49.6725C48.1306 49.3891 47.369 49.0551 46.6316 48.6725C46.4816 48.5325 46.4116 48.1525 46.6316 48.1625C47.3663 48.3376 48.0507 48.6798 48.6316 49.1625C48.6545 49.1842 48.6816 49.2011 48.7111 49.2123C48.7406 49.2236 48.7721 49.2289 48.8036 49.2279C48.8352 49.227 48.8663 49.2199 48.8951 49.2069C48.9239 49.194 48.9499 49.1755 48.9716 49.1525C48.9932 49.1295 49.0102 49.1025 49.0214 49.073C49.0326 49.0435 49.0379 49.012 49.037 48.9804C49.036 48.9489 49.0289 48.9178 49.016 48.889C49.003 48.8602 48.9845 48.8342 48.9616 48.8125C48.5859 48.5159 48.188 48.2485 47.7716 48.0125C47.2716 47.7225 47.6316 47.3625 48.1316 47.4325C48.8016 47.5325 49.6616 48.4325 49.5716 50.2825C49.6549 50.7794 49.5903 51.2899 49.3858 51.7503C49.1813 52.2108 48.846 52.6011 48.4216 52.8725C47.7771 53.8951 47.2314 54.9767 46.7916 56.1025C46.3518 56.2163 45.8888 56.2024 45.4566 56.0625C45.0245 55.9226 44.6412 55.6625 44.3516 55.3125C44.4216 54.9625 44.6316 53.7625 44.6916 53.3125C46.9216 53.3825 47.3116 53.3725 47.4216 53.0425H47.4116ZM41.2816 65.1525C41.6259 67.7041 41.2048 70.3005 40.0716 72.6125C39.341 72.8219 38.5633 72.7986 37.8465 72.546C37.1297 72.2933 36.5094 71.8238 36.0716 71.2025C38.5084 69.9142 40.3691 67.7535 41.2816 65.1525ZM22.8816 43.5625C22.8994 43.5836 22.9226 43.5993 22.9488 43.608C22.9749 43.6168 23.003 43.6181 23.0299 43.6119C23.0567 43.6057 23.0814 43.5922 23.1011 43.5729C23.1208 43.5536 23.1348 43.5293 23.1416 43.5025C24.6516 37.5625 24.6116 37.9325 24.4716 37.8525C22.7916 36.9325 23.3216 35.1425 24.0016 34.9325C24.3416 34.8225 24.7916 35.0425 25.2416 35.5425C25.5354 35.8188 25.7584 36.1618 25.8916 36.5425C26.8916 39.3425 32.4316 35.6525 34.8316 33.8825C34.9981 33.7441 35.1951 33.6471 35.4063 33.5995C35.6176 33.5519 35.8371 33.555 36.047 33.6087C36.2568 33.6624 36.4509 33.765 36.6133 33.9082C36.7758 34.0514 36.902 34.2311 36.9816 34.4325C37.2116 34.8725 36.7916 35.2425 36.5416 34.7625C36.0216 33.8825 35.1116 34.3725 35.1316 34.6125C35.3316 37.0925 34.8716 40.6125 32.9416 42.3325C31.0116 44.0525 28.7716 43.1625 28.5716 43.3325C28.3716 43.5025 28.4816 43.6625 28.4816 43.8525C28.3921 44.0648 28.3524 44.2946 28.3655 44.5246C28.3786 44.7545 28.4441 44.9784 28.557 45.1792C28.6699 45.3799 28.8272 45.5521 29.017 45.6827C29.2067 45.8133 29.4237 45.8987 29.6516 45.9325C30.4688 46.2413 31.2473 46.644 31.9716 47.1325C28.4116 52.6325 20.6316 51.8225 17.6516 44.4125C19.3175 43.8437 21.0538 43.5072 22.8116 43.4125L22.8816 43.5625ZM5.57156 56.5625C6.21765 58.1065 7.18219 59.4969 8.40217 60.6428C9.62216 61.7887 11.0701 62.6643 12.6516 63.2125C12.5316 63.4025 9.74156 67.9625 9.08156 69.0825C6.6535 66.7498 4.68 63.9862 3.26156 60.9325C4.25156 59.1525 4.79156 58.0725 5.57156 56.5725V56.5625ZM180.352 38.8425C174.722 20.8425 154.432 12.5725 138.672 22.1525C120.912 32.9325 119.852 56.9325 136.792 69.0525C159.052 84.9325 188.092 63.0125 180.352 38.8425ZM149.952 66.1225C153.262 70.5125 156.582 70.8525 158.802 70.3425C162.942 69.4025 166.572 64.7525 167.632 59.0225C167.646 58.9549 167.633 58.8842 167.596 58.8261C167.558 58.768 167.499 58.7271 167.432 58.7125C167.364 58.6979 167.293 58.7108 167.235 58.7483C167.177 58.7858 167.136 58.8449 167.122 58.9125C166.651 61.3593 165.624 63.6652 164.122 65.6525C158.242 73.3125 152.122 69.5725 147.432 61.0925C145.907 58.6612 145.052 55.8705 144.952 53.0025C147.332 51.8825 147.282 51.8225 147.562 52.0625C150.342 54.4525 155.392 60.1525 156.092 60.9225C156.104 60.989 156.139 61.049 156.191 61.0921C156.243 61.1353 156.309 61.1589 156.377 61.1589C156.444 61.1589 156.51 61.1353 156.562 61.0921C156.614 61.049 156.649 60.989 156.662 60.9225C157.782 56.4025 158.662 51.7125 161.992 48.4825C163.228 48.1979 164.48 47.9876 165.742 47.8525C170.172 53.4525 169.542 60.9225 169.522 68.0125C166.552 70.2803 163.14 71.9011 159.506 72.7709C155.872 73.6406 152.096 73.74 148.422 73.0625C148.638 70.6941 149.152 68.3623 149.952 66.1225ZM166.592 47.7625C167.132 47.7625 167.082 46.8825 166.592 46.9525C164.504 47.1266 162.455 47.612 160.512 48.3925C160.242 48.5025 159.932 48.5625 160.032 48.8325C160.132 49.1025 160.352 48.9025 161.102 48.7125C158.162 51.8225 157.052 56.2025 156.282 60.1425C155.732 59.4725 154.372 57.9225 154.022 57.5225C157.102 50.7325 156.932 50.5225 158.742 49.1525C159.442 48.5925 162.292 46.5325 164.652 45.0525C165.912 44.2525 166.812 43.6925 168.912 46.6025C170.862 49.3125 170.912 49.3525 169.662 55.3025C169.286 52.5626 168.204 49.9676 166.522 47.7725L166.592 47.7625ZM144.592 41.8725C144.772 41.8725 144.862 42.0125 145.002 42.2225C148.302 47.2225 148.052 46.6525 148.052 46.7525C148.052 47.2325 148.702 47.9525 149.352 48.5625C148.822 48.7625 147.832 49.1625 147.242 49.4025C147.242 47.5625 145.942 47.5625 145.592 48.3325C144.972 47.4225 143.592 45.6225 143.312 45.2725C143.236 45.1648 143.133 45.0787 143.014 45.0226C142.895 44.9665 142.763 44.9423 142.632 44.9525C142.162 44.3525 141.102 42.9525 140.692 42.3425C140.792 42.3225 144.272 41.9325 144.582 41.8725H144.592ZM151.392 51.3525C151.242 52.5725 149.332 51.2125 150.072 50.5325C150.208 50.7641 150.399 50.9594 150.627 51.1021C150.855 51.2448 151.114 51.3307 151.382 51.3525H151.392ZM151.282 50.7225C150.872 50.6525 150.042 49.7225 150.282 49.5125C150.522 49.3025 151.552 50.5625 151.532 50.7125C151.448 50.7408 151.357 50.7443 151.272 50.7225H151.282ZM153.572 57.0725C152.702 56.1525 148.752 52.0725 148.652 51.9925C148.507 51.776 148.319 51.5908 148.101 51.4482C147.883 51.3056 147.638 51.2085 147.382 51.1625C147.25 50.8221 147.199 50.456 147.232 50.0925L149.812 48.9925C150.052 49.2025 149.812 48.9925 149.692 49.4525C149.634 49.6671 149.659 49.8954 149.762 50.0925C148.762 50.8325 149.762 52.5525 151.082 52.4225C151.474 52.6913 151.813 53.0303 152.082 53.4225C152.377 54.4433 152.797 55.4239 153.332 56.3425C153.662 56.9325 153.642 56.8625 153.562 57.0725H153.572ZM152.722 53.5025C152.722 53.1825 153.872 51.9825 154.052 51.8325C154.587 51.9883 155.109 52.189 155.612 52.4325C155.322 53.0925 154.392 55.2025 153.932 56.2725C153.43 55.3941 153.021 54.4658 152.712 53.5025H152.722ZM152.312 52.8625C152.118 52.6077 151.889 52.382 151.632 52.1925C151.755 52.0594 151.847 51.9008 151.903 51.7281C151.958 51.5553 151.975 51.3725 151.952 51.1925C152.009 51.1543 152.057 51.1041 152.094 51.0454C152.13 50.9867 152.153 50.921 152.162 50.8525C152.242 50.3825 151.712 49.9925 151.362 49.6625C150.326 48.8497 149.404 47.9012 148.622 46.8425C149.416 47.2406 150.176 47.7056 150.892 48.2325C152.092 49.1225 153.632 49.9625 153.512 51.4425C153.07 51.882 152.665 52.3569 152.302 52.8625H152.312ZM142.792 45.5525C143.808 46.7006 144.74 47.9204 145.582 49.2025C145.611 49.2471 145.652 49.2821 145.701 49.3032C145.75 49.3242 145.804 49.3302 145.857 49.3206C145.909 49.311 145.957 49.2861 145.996 49.2491C146.034 49.2121 146.06 49.1645 146.072 49.1125C146.072 48.8325 146.202 48.3325 146.462 48.4425C147.012 49.1925 146.462 50.3625 146.832 51.2925C144.152 52.4725 146.342 52.1725 144.692 50.2925C143.162 48.6825 142.562 46.0625 142.792 45.5525ZM153.102 44.5525C153.467 43.2442 153.467 41.8609 153.102 40.5525C152.953 39.9695 152.863 39.3733 152.832 38.7725C153.432 38.8366 154.039 38.8096 154.632 38.6925C156.382 38.4025 157.282 37.4625 157.712 37.7525C157.992 37.9425 158.042 38.5325 157.862 39.4725C157.858 39.503 157.863 39.534 157.877 39.5613C157.892 39.5885 157.914 39.6107 157.941 39.6249C157.968 39.6391 157.999 39.6446 158.03 39.6406C158.06 39.6366 158.089 39.6233 158.112 39.6025C158.492 39.2907 158.969 39.121 159.462 39.1225C160.792 39.2325 160.742 41.1225 159.462 41.9325C159.434 41.9544 159.415 41.9853 159.408 42.0198C159.401 42.0542 159.406 42.0901 159.423 42.1211C159.439 42.1521 159.467 42.1762 159.499 42.1893C159.532 42.2023 159.568 42.2035 159.602 42.1925C160.082 42.0276 160.597 41.9916 161.095 42.0881C161.593 42.1846 162.058 42.4103 162.442 42.7425C162.651 43.5797 162.935 44.3964 163.292 45.1825C161.902 46.1325 160.042 47.4325 158.712 48.4625C157.512 45.9425 156.022 47.7325 154.992 45.7125C153.952 43.9825 153.292 44.5825 153.052 44.5225L153.102 44.5525ZM169.862 56.5525C170.582 54.3566 170.996 52.0717 171.092 49.7625C170.95 48.6509 170.499 47.6013 169.792 46.7325C166.952 42.6325 165.792 43.3125 163.602 44.7925C163.402 44.1825 162.962 42.9125 162.882 42.5725C163.012 42.4425 163.352 42.1125 163.452 42.0425C163.821 41.5234 164.108 40.9499 164.302 40.3425C164.557 39.4941 164.662 38.6073 164.612 37.7225C164.662 36.8839 164.529 36.0444 164.222 35.2625C163.585 34.1507 162.58 33.2968 161.38 32.8492C160.179 32.4016 158.86 32.3886 157.652 32.8125C155.782 32.1925 153.372 31.5525 152.462 31.9425C151.738 32.117 151.089 32.5189 150.611 33.0892C150.133 33.6595 149.85 34.3682 149.804 35.1111C149.758 35.854 149.952 36.5921 150.356 37.2169C150.761 37.8417 151.355 38.3203 152.052 38.5825C152.021 39.3546 152.109 40.1268 152.312 40.8725C152.651 41.9221 152.678 43.0475 152.392 44.1125C152.212 44.9125 152.472 45.2725 153.392 45.1125C154.472 45.1925 153.882 47.1125 156.332 47.4725C156.922 47.5725 157.392 47.6625 158.002 48.7925C156.981 49.6079 156.215 50.6971 155.792 51.9325C155.248 51.6119 154.671 51.3504 154.072 51.1525C154.005 50.6539 153.832 50.1757 153.562 49.7509C153.293 49.3261 152.934 48.965 152.512 48.6925C151.58 47.9144 150.575 47.2279 149.512 46.6425C149.302 46.5325 148.862 46.1925 148.512 46.2625C145.032 40.9625 145.392 41.1925 144.302 41.1925C142.894 41.2465 141.494 41.434 140.122 41.7525C140.072 41.771 140.028 41.8004 139.991 41.8385C139.955 41.8766 139.928 41.9224 139.912 41.9725C139.852 42.2125 139.912 42.0725 141.312 44.0725C142.612 45.8925 142.142 45.0025 142.222 45.9825C142.399 47.872 143.169 49.657 144.422 51.0825C144.66 51.449 144.756 51.8901 144.692 52.3225L144.562 52.3825C144.222 52.5525 144.652 55.9625 144.892 56.7625C145.99 59.9054 147.573 62.8576 149.582 65.5125C148.597 67.8759 147.993 70.3802 147.792 72.9325C138.862 70.9325 131.232 64.8625 127.792 56.9825C124.352 49.1025 125.232 39.8625 130.452 31.2325C144.902 10.0225 176.592 18.5425 180.352 43.3225C181.732 52.7325 177.612 61.6625 170.212 67.5225C170.313 63.8673 170.172 60.2093 169.792 56.5725L169.862 56.5525ZM165.922 76.8525C166.009 78.4566 166.287 80.0446 166.752 81.5825C166.784 81.6779 166.852 81.7567 166.942 81.8017C167.032 81.8467 167.136 81.8542 167.232 81.8225C167.992 81.6025 166.872 80.5525 166.542 76.8225C166.512 76.4325 165.892 76.4525 165.922 76.8525ZM168.982 88.8025C168.962 88.719 168.909 88.6468 168.836 88.6017C168.763 88.5567 168.675 88.5426 168.592 88.5625C168.508 88.5824 168.436 88.6347 168.391 88.7078C168.346 88.781 168.332 88.869 168.352 88.9525C169.632 95.4525 169.462 96.0825 170.112 95.9525C170.762 95.8225 170.302 95.2025 168.982 88.8025ZM171.332 104.263C170.782 104.413 171.512 104.493 172.002 110.563C172.002 111.113 172.902 111.083 172.842 110.563C172.59 108.51 172.192 106.478 171.652 104.483C171.649 104.445 171.637 104.409 171.619 104.377C171.6 104.345 171.575 104.317 171.544 104.296C171.513 104.275 171.478 104.261 171.442 104.255C171.405 104.25 171.367 104.252 171.332 104.263ZM145.952 87.7225C147.019 84.5543 147.911 81.3294 148.622 78.0625C148.637 77.9873 148.622 77.9092 148.582 77.8442C148.541 77.7792 148.477 77.7323 148.403 77.7131C148.328 77.6939 148.249 77.7039 148.182 77.741C148.115 77.7781 148.065 77.8395 148.042 77.9125C147.242 81.1225 146.182 84.2325 145.192 87.4925C145.175 87.5887 145.194 87.6877 145.245 87.7708C145.296 87.854 145.376 87.9154 145.47 87.9437C145.563 87.972 145.664 87.9651 145.753 87.9244C145.841 87.8836 145.912 87.8118 145.952 87.7225ZM141.892 100.933C142.452 100.933 142.352 100.253 143.942 94.3025C143.963 94.2309 143.955 94.1538 143.919 94.0882C143.883 94.0225 143.823 93.9737 143.752 93.9525C143.68 93.9313 143.603 93.9394 143.537 93.975C143.472 94.0107 143.423 94.0709 143.402 94.1425C143.092 95.1425 141.732 99.3525 141.482 100.413C141.466 100.475 141.465 100.539 141.479 100.602C141.493 100.664 141.52 100.722 141.56 100.773C141.599 100.823 141.65 100.863 141.707 100.891C141.765 100.919 141.828 100.933 141.892 100.933ZM137.352 113.933C137.702 113.933 137.682 113.673 137.972 112.513C138.362 110.933 138.972 108.513 139.212 107.833C139.362 107.433 138.752 107.253 138.602 107.633C137.927 109.591 137.396 111.597 137.012 113.633C137.019 113.716 137.059 113.794 137.122 113.85C137.185 113.906 137.267 113.935 137.352 113.933ZM134.052 122.443C133.13 124.228 132.419 126.114 131.932 128.063C131.905 128.163 131.92 128.27 131.972 128.361C132.025 128.451 132.111 128.516 132.212 128.543C132.312 128.569 132.42 128.554 132.51 128.502C132.6 128.449 132.665 128.363 132.692 128.263C134.362 122.593 134.902 122.543 134.412 122.263C134.376 122.249 134.338 122.242 134.3 122.244C134.262 122.245 134.225 122.255 134.191 122.272C134.157 122.289 134.127 122.313 134.103 122.342C134.079 122.372 134.062 122.406 134.052 122.443ZM123.602 93.3725C123.702 94.1525 124.062 97.3725 124.182 98.2625C124.189 98.3177 124.207 98.3709 124.235 98.4191C124.262 98.4673 124.299 98.5095 124.343 98.5434C124.388 98.5773 124.438 98.6022 124.492 98.6166C124.545 98.631 124.601 98.6347 124.657 98.6275C124.712 98.6203 124.765 98.6023 124.813 98.5745C124.861 98.5467 124.904 98.5097 124.937 98.4656C124.971 98.4215 124.996 98.3712 125.011 98.3174C125.025 98.2637 125.029 98.2077 125.022 98.1525C124.892 97.2925 124.332 94.0625 124.212 93.2925C124.152 92.9325 123.552 93.0025 123.602 93.3725ZM125.172 107.683C125.282 108.313 125.692 111.033 125.822 111.753C125.922 112.293 126.722 112.093 126.622 111.563C126.382 110.233 126.062 108.893 125.812 107.563C125.732 107.113 125.102 107.273 125.172 107.683ZM126.792 121.593C126.836 123.271 127.017 124.943 127.332 126.593C127.452 127.143 128.272 126.923 128.172 126.383C127.83 124.794 127.569 123.188 127.392 121.573C127.302 121.203 126.722 121.193 126.792 121.593ZM100.792 38.3725C100.602 38.0125 100.072 38.3125 100.242 38.6725C103.492 45.3425 103.242 45.4025 103.712 45.4025C103.789 45.4018 103.865 45.3815 103.933 45.3435C104 45.3056 104.057 45.2511 104.098 45.1853C104.139 45.1194 104.163 45.0443 104.167 44.9669C104.171 44.8895 104.155 44.8123 104.122 44.7425C103.022 42.5925 101.862 40.5025 100.792 38.3725ZM106.992 51.4125C106.842 51.0725 106.332 51.3425 106.482 51.6825C107.482 53.9125 108.312 56.2025 109.332 58.4425C109.552 58.9425 110.282 58.5425 110.062 58.0525C109.072 55.7525 107.902 53.4425 106.992 51.4125ZM115.792 71.7825C115.852 71.7858 115.913 71.7742 115.968 71.7487C116.023 71.7231 116.07 71.6844 116.107 71.636C116.144 71.5876 116.168 71.531 116.177 71.4711C116.187 71.4112 116.181 71.3499 116.162 71.2925C115.812 70.2925 114.082 66.6225 113.642 65.6325C113.462 65.2225 112.862 65.5425 113.032 65.9525C115.412 71.4125 115.372 71.7825 115.792 71.7825ZM134.012 68.1525C133.642 68.7825 131.942 71.0925 131.482 71.6825C131.447 71.7265 131.422 71.7768 131.408 71.8305C131.393 71.8842 131.389 71.9403 131.396 71.9956C131.403 72.0508 131.421 72.1041 131.448 72.1525C131.476 72.2009 131.513 72.2434 131.557 72.2775C131.601 72.3117 131.651 72.3368 131.705 72.3515C131.758 72.3662 131.814 72.3702 131.87 72.3632C131.925 72.3563 131.978 72.3385 132.027 72.3109C132.075 72.2834 132.117 72.2465 132.152 72.2025C133.013 71.0015 133.794 69.7455 134.492 68.4425C134.53 68.3789 134.542 68.3026 134.524 68.2304C134.506 68.1581 134.46 68.096 134.397 68.0575C134.333 68.0191 134.257 68.0075 134.184 68.0253C134.112 68.0431 134.05 68.0889 134.012 68.1525ZM116.542 30.4325C116.952 30.4325 117.172 29.8125 116.742 29.6225C115.832 29.2125 112.002 27.9425 111.052 27.6225C110.662 27.4725 110.462 28.0725 110.852 28.2225C111.862 28.5825 116.212 30.4325 116.542 30.4325ZM120.012 31.9325C121.807 32.9091 123.692 33.7095 125.642 34.3225C125.753 34.3418 125.869 34.319 125.965 34.2585C126.061 34.1981 126.131 34.1042 126.162 33.9949C126.193 33.8857 126.183 33.7688 126.133 33.6668C126.083 33.5649 125.997 33.485 125.892 33.4425C123.978 32.923 122.116 32.2266 120.332 31.3625C119.952 31.1925 119.632 31.7725 120.012 31.9325ZM72.2816 31.3325C76.2816 28.6425 77.4816 29.2525 77.2816 28.5425C77.2701 28.5016 77.2505 28.4634 77.2241 28.4301C77.1977 28.3968 77.1649 28.3691 77.1277 28.3486C77.0904 28.3282 77.0495 28.3153 77.0072 28.3108C76.965 28.3063 76.9223 28.3103 76.8816 28.3225C75.0761 28.7974 73.3579 29.5569 71.7916 30.5725C71.3316 30.9325 71.7916 31.6525 72.2816 31.3325ZM63.1916 34.7025C62.8816 34.9525 63.1316 35.3625 63.4816 35.3625C63.6016 35.3625 63.6216 35.3625 64.7216 34.8125C65.8216 34.2625 67.0816 33.6725 67.5516 33.5325C67.6305 33.5014 67.695 33.442 67.7323 33.3658C67.7696 33.2896 67.7771 33.2022 67.7533 33.1208C67.7295 33.0393 67.6761 32.9698 67.6036 32.9257C67.5312 32.8816 67.4448 32.8662 67.3616 32.8825C65.9144 33.3488 64.5175 33.9585 63.1916 34.7025Z" fill="#00164F"/>
<path d="M59.3319 36.5926C58.8119 36.8826 55.9419 38.3926 55.6319 38.5926C55.5681 38.637 55.5195 38.6999 55.4925 38.7728C55.4656 38.8457 55.4617 38.9251 55.4813 39.0003C55.501 39.0755 55.5432 39.1429 55.6023 39.1934C55.6614 39.2438 55.7345 39.275 55.8119 39.2826C57.1404 38.655 58.4295 37.947 59.6719 37.1626C59.728 37.1095 59.7645 37.0388 59.7751 36.9622C59.7857 36.8856 59.7699 36.8077 59.7303 36.7413C59.6907 36.6749 59.6296 36.624 59.5572 36.5969C59.4848 36.5699 59.4053 36.5684 59.3319 36.5926ZM50.7919 20.6126C52.134 20.6216 53.464 20.3587 54.7018 19.8398C55.9395 19.3209 57.0594 18.5568 57.9938 17.5933C58.9283 16.6299 59.6579 15.4873 60.1388 14.2342C60.6197 12.9812 60.8418 11.6438 60.7919 10.3026C60.4919 1.37257 48.9219 -2.88743 43.0719 4.71257C37.7919 11.3226 42.8719 20.6126 50.7919 20.6126ZM44.7919 3.93257C50.9219 -1.71743 59.9219 2.93257 60.1519 10.3426C60.1334 12.2233 59.5913 14.0617 58.5862 15.6514C57.5811 17.2411 56.1529 18.5193 54.4619 19.3426C48.8719 21.7826 42.1419 17.5926 41.6619 11.6926C41.5466 10.245 41.7693 8.79049 42.3125 7.44378C42.8557 6.09707 43.7045 4.89504 44.7919 3.93257ZM73.0319 12.1426C74.8019 12.3326 76.5819 12.3526 78.3519 12.4326C78.4314 12.4326 78.5077 12.401 78.564 12.3447C78.6202 12.2884 78.6519 12.2121 78.6519 12.1326C78.6519 12.053 78.6202 11.9767 78.564 11.9204C78.5077 11.8642 78.4314 11.8326 78.3519 11.8326C76.4919 11.6626 75.3519 11.4326 73.0319 11.2826C72.5019 11.2526 72.4919 12.0826 73.0319 12.1426ZM62.5519 11.0826C63.3619 11.1726 66.6919 11.4026 67.5519 11.5126C68.0019 11.5826 68.1819 10.9026 67.7119 10.8226C66.0192 10.5568 64.3133 10.3833 62.6019 10.3026C62.5506 10.2993 62.4993 10.3061 62.4507 10.3227C62.4021 10.3393 62.3573 10.3652 62.3188 10.3991C62.2802 10.433 62.2487 10.4742 62.2261 10.5202C62.2035 10.5663 62.1901 10.6164 62.1869 10.6676C62.1836 10.7188 62.1904 10.7701 62.207 10.8187C62.2235 10.8673 62.2495 10.9121 62.2834 10.9507C62.3173 10.9892 62.3584 11.0207 62.4045 11.0433C62.4506 11.0659 62.5006 11.0793 62.5519 11.0826ZM22.7919 85.0726C23.0819 83.2326 23.1519 81.4026 23.3719 79.5726C23.4219 79.2326 22.8619 79.1526 22.8119 79.5026C22.5319 81.3026 22.1019 83.1126 21.8919 84.9426C21.8928 85.0525 21.9331 85.1584 22.0054 85.2411C22.0778 85.3239 22.1773 85.378 22.2861 85.3937C22.3948 85.4094 22.5056 85.3857 22.5984 85.3268C22.6912 85.2679 22.7598 85.1777 22.7919 85.0726ZM21.7119 90.0226C20.7119 95.5126 20.4819 96.1826 21.2019 96.1826C21.7419 96.1826 21.6419 95.8226 22.3219 90.1026C22.3719 89.7326 21.7919 89.6526 21.7119 90.0226ZM40.1019 99.1626C38.5819 99.9626 36.6919 100.893 36.1019 101.243C36.0199 101.291 35.9563 101.365 35.9211 101.454C35.8859 101.542 35.8811 101.64 35.9074 101.732C35.9338 101.823 35.9897 101.903 36.0665 101.96C36.1433 102.016 36.2367 102.045 36.3319 102.043C37.7263 101.351 39.0817 100.583 40.3919 99.7426C40.453 99.696 40.496 99.6295 40.5133 99.5547C40.5307 99.4798 40.5214 99.4012 40.4871 99.3325C40.4527 99.2637 40.3954 99.2091 40.3251 99.1781C40.2547 99.1471 40.1758 99.1416 40.1019 99.1626ZM34.2519 102.243C33.1601 102.754 32.0954 103.322 31.0619 103.943C30.7419 104.233 31.1219 104.713 31.5019 104.533C31.8819 104.353 34.0119 103.033 34.5019 102.803C34.9919 102.573 34.6219 102.083 34.2519 102.243ZM74.5219 110.573C74.8819 110.803 75.2219 110.253 74.8719 110.013C74.1119 109.513 71.2219 107.373 70.4219 106.953C70.3183 106.903 70.2002 106.892 70.0896 106.924C69.979 106.955 69.8838 107.026 69.8219 107.123C69.4119 107.763 70.7919 108.123 74.5219 110.573ZM60.6719 101.333C61.1719 101.683 61.6719 102.013 62.1819 102.333C65.5919 104.593 65.4319 104.663 65.6419 104.663C65.711 104.662 65.7782 104.64 65.8352 104.601C65.8921 104.562 65.9362 104.507 65.9619 104.443C65.9876 104.378 65.9937 104.308 65.9794 104.24C65.9652 104.173 65.9312 104.111 65.8819 104.063C64.3637 102.813 62.778 101.648 61.1319 100.573C60.6519 100.283 60.2119 101.023 60.6719 101.333ZM159.142 134.473C157.502 134.703 155.812 134.873 154.142 135.253C154.039 135.284 153.951 135.352 153.894 135.443C153.836 135.534 153.814 135.642 153.829 135.748C153.845 135.855 153.898 135.952 153.979 136.022C154.061 136.093 154.164 136.132 154.272 136.133C154.662 136.133 157.152 135.463 159.272 135.133C159.792 135.093 159.592 134.393 159.142 134.473ZM150.302 136.093C148.622 136.343 146.772 136.493 144.952 136.803C144.442 136.893 144.582 137.633 145.082 137.633C145.582 137.633 149.162 136.913 150.432 136.713C150.842 136.643 150.702 136.033 150.302 136.093ZM89.7919 100.243C89.7415 100.158 89.6594 100.096 89.5638 100.072C89.4681 100.048 89.3667 100.062 89.2819 100.113C89.197 100.163 89.1356 100.245 89.1112 100.341C89.0868 100.436 89.1015 100.538 89.1519 100.623C89.6452 101.427 90.423 102.016 91.3307 102.274C92.2383 102.531 93.2097 102.438 94.0519 102.013C94.1082 101.978 94.1493 101.924 94.167 101.86C94.1847 101.797 94.1775 101.729 94.147 101.67C94.1165 101.612 94.0649 101.567 94.0027 101.545C93.9404 101.523 93.8722 101.526 93.8119 101.553C93.0947 101.841 92.2987 101.868 91.5636 101.629C90.8285 101.389 90.2012 100.898 89.7919 100.243ZM96.7919 96.5426C96.7219 97.1226 96.2019 96.8026 96.1619 97.1526C96.1619 97.3426 96.3219 97.4126 96.5219 97.4126C96.6994 97.4064 96.8721 97.353 97.0221 97.258C97.1722 97.163 97.2942 97.0297 97.3757 96.8718C97.4572 96.714 97.4951 96.5373 97.4857 96.3599C97.4762 96.1825 97.4197 96.0108 97.3219 95.8626C96.761 95.2613 96.2493 94.6158 95.7919 93.9326C95.7746 93.8702 95.7333 93.8173 95.6771 93.7854C95.6208 93.7535 95.5542 93.7453 95.4919 93.7626C95.4295 93.7798 95.3766 93.8211 95.3447 93.8774C95.3128 93.9336 95.3046 94.0002 95.3219 94.0626C95.5569 94.5914 95.8522 95.0914 96.2019 95.5526C96.4305 95.8624 96.6281 96.194 96.7919 96.5426ZM91.4819 89.2226C91.4553 89.1032 91.3825 88.9993 91.2793 88.9337C91.1762 88.868 91.0512 88.846 90.9319 88.8726C90.8125 88.8991 90.7086 88.9719 90.6429 89.0751C90.5773 89.1782 90.5553 89.3032 90.5819 89.4226C90.8619 91.3226 90.6919 92.1326 91.4419 92.1326C91.5851 92.1326 91.7224 92.0757 91.8237 91.9744C91.925 91.8731 91.9819 91.7358 91.9819 91.5926C91.9819 91.3426 91.5619 89.6426 91.4819 89.2226ZM99.3419 89.3126C99.3207 89.2035 99.2607 89.1058 99.1731 89.0375C99.0854 88.9692 98.976 88.9349 98.8651 88.941C98.7541 88.9471 98.6491 88.9931 98.5695 89.0706C98.4899 89.1481 98.441 89.2518 98.4319 89.3626C98.4319 89.5126 98.5719 91.3026 98.6219 91.4426C98.6364 91.5752 98.7031 91.6966 98.8072 91.78C98.9113 91.8635 99.0443 91.9022 99.1769 91.8876C99.3095 91.873 99.4308 91.8063 99.5143 91.7022C99.5977 91.5981 99.6364 91.4652 99.6219 91.3326C99.6019 91.2126 99.4419 90.2326 99.3419 89.3126ZM89.9119 88.7126C90.0402 88.2874 90.3065 87.9171 90.6686 87.66C91.0307 87.4029 91.4681 87.2736 91.9119 87.2926C91.9896 87.3015 92.0679 87.2807 92.131 87.2344C92.194 87.188 92.2372 87.1195 92.2519 87.0426C92.3519 86.3226 89.6618 86.6126 89.0719 88.4826C89.0414 88.594 89.0564 88.7129 89.1136 88.8132C89.1708 88.9136 89.2655 88.9871 89.3769 89.0176C89.4882 89.0481 89.6072 89.0331 89.7075 88.9759C89.8079 88.9187 89.8814 88.824 89.9119 88.7126ZM97.3919 86.9326C97.7557 86.9115 98.1163 87.0107 98.4181 87.215C98.7199 87.4192 98.9461 87.717 99.0619 88.0626C99.2419 88.4526 99.8719 88.1926 99.7519 87.7726C99.556 87.3011 99.2029 86.912 98.7526 86.6714C98.3024 86.4307 97.7827 86.3534 97.2819 86.4526C97.2277 86.4754 97.1833 86.5166 97.1565 86.569C97.1297 86.6213 97.1222 86.6814 97.1354 86.7387C97.1485 86.7961 97.1814 86.8469 97.2283 86.8823C97.2752 86.9178 97.3331 86.9356 97.3919 86.9326ZM174.562 120.583C174.562 120.583 174.032 118.163 173.892 117.463C173.875 117.384 173.827 117.316 173.759 117.273C173.692 117.23 173.61 117.215 173.532 117.233C173.454 117.25 173.385 117.297 173.342 117.365C173.299 117.432 173.285 117.514 173.302 117.593L173.772 120.443C172.183 120.241 170.57 120.38 169.039 120.849C167.508 121.319 166.095 122.108 164.892 123.165C163.689 124.223 162.725 125.523 162.063 126.981C161.401 128.439 161.056 130.021 161.052 131.623C161.652 146.693 183.282 146.393 183.582 131.623C183.602 129.019 182.712 126.491 181.064 124.475C179.417 122.458 177.117 121.082 174.562 120.583ZM177.142 136.353C175.562 140.843 169.602 140.043 169.602 134.683V131.443C169.427 131.465 169.25 131.45 169.081 131.398C168.913 131.347 168.758 131.26 168.625 131.143C168.493 131.027 168.387 130.884 168.315 130.723C168.242 130.563 168.205 130.389 168.205 130.213C168.205 130.036 168.242 129.862 168.315 129.702C168.387 129.541 168.493 129.398 168.625 129.282C168.758 129.165 168.913 129.079 169.081 129.027C169.25 128.975 169.427 128.96 169.602 128.983C169.602 127.983 169.602 126.983 169.672 125.893C169.676 125.731 169.711 125.572 169.777 125.424C169.842 125.276 169.936 125.143 170.053 125.032C170.17 124.92 170.308 124.833 170.459 124.775C170.61 124.716 170.77 124.689 170.932 124.693C171.259 124.703 171.569 124.842 171.794 125.08C172.018 125.318 172.14 125.635 172.132 125.963C172.132 127.013 172.132 128.013 172.072 128.963H174.182C174.343 128.959 174.504 128.987 174.654 129.046C174.804 129.105 174.941 129.193 175.057 129.306C175.172 129.419 175.264 129.554 175.327 129.702C175.39 129.851 175.422 130.011 175.422 130.173C175.424 130.335 175.395 130.496 175.335 130.647C175.275 130.798 175.186 130.936 175.072 131.052C174.959 131.168 174.824 131.261 174.674 131.324C174.525 131.388 174.364 131.421 174.202 131.423H172.042C172.042 135.073 171.942 135.683 172.442 136.303C173.152 137.203 174.232 136.903 174.792 135.523C174.902 135.211 175.131 134.956 175.429 134.813C175.728 134.671 176.07 134.653 176.382 134.763C176.693 134.873 176.949 135.102 177.091 135.4C177.234 135.698 177.252 136.041 177.142 136.353ZM94.2019 6.37257C92.1551 6.36197 90.1264 6.75714 88.2333 7.53523C86.3401 8.31332 84.6199 9.4589 83.1721 10.9058C81.7243 12.3526 80.5777 14.0721 79.7984 15.9647C79.0191 17.8574 78.6226 19.8858 78.6319 21.9326C79.0419 42.5326 109.362 42.5426 109.762 21.9326C109.772 19.8862 109.377 17.8581 108.599 15.9655C107.821 14.0729 106.675 12.3533 105.228 10.9063C103.781 9.45935 102.062 8.31361 100.169 7.5354C98.2763 6.7572 96.2482 6.36196 94.2019 6.37257ZM98.6919 14.2326C98.5387 14.5197 98.2789 14.7352 97.9683 14.8325C97.6578 14.9298 97.3214 14.9011 97.0319 14.7526C96.516 14.469 95.917 14.3757 95.3393 14.489C94.7617 14.6023 94.2423 14.9151 93.8719 15.3726C92.7219 16.5726 92.7719 20.6526 92.7719 20.8726L95.7719 20.4126C96.0954 20.3635 96.4252 20.445 96.6887 20.6391C96.9522 20.8332 97.1278 21.124 97.1769 21.4476C97.2259 21.7711 97.1444 22.1009 96.9503 22.3644C96.7562 22.6279 96.4654 22.8035 96.1419 22.8526L92.7819 23.3626C92.7819 25.7426 92.8919 28.0426 92.9719 30.3626C92.9576 30.6735 92.827 30.9677 92.6059 31.1868C92.3848 31.4058 92.0894 31.5337 91.7783 31.5451C91.4673 31.5564 91.1633 31.4503 90.9268 31.248C90.6904 31.0456 90.5387 30.7616 90.5019 30.4526C90.3919 27.1726 90.3119 23.8426 90.2719 20.2826C90.2719 18.2826 90.2719 15.6726 92.0519 13.7026C94.8419 10.6526 99.7919 12.1826 98.6919 14.2326Z" fill="#00164F"/>
<path d="M141.571 140.933C145.661 129.053 145.461 129.753 145.391 129.653C145.321 129.553 132.391 129.313 125.211 129.453C122.348 125.16 118.606 121.523 114.232 118.784C109.859 116.045 104.954 114.265 99.8414 113.563C99.064 112.71 97.9916 112.185 96.8414 112.093L95.5914 111.663C95.5416 110.687 95.5416 109.709 95.5914 108.733C98.3977 107.664 100.69 105.564 102.001 102.863C103.471 99.5628 102.741 95.3428 101.881 84.6128C103.941 85.2528 103.991 83.1328 102.741 81.4728C102.798 81.118 102.78 80.7554 102.689 80.4079C102.598 80.0604 102.436 79.7354 102.214 79.4535C101.991 79.1717 101.712 78.939 101.395 78.7702C101.078 78.6014 100.73 78.5002 100.371 78.4728C100.564 78.1778 100.675 77.8372 100.693 77.4856C100.712 77.1339 100.637 76.7836 100.477 76.47C100.316 76.1565 100.076 75.8908 99.7802 75.6999C99.4843 75.509 99.1432 75.3996 98.7914 75.3828C98.5831 74.9251 98.2368 74.544 97.801 74.293C97.3653 74.0419 96.8619 73.9335 96.3614 73.9828C96.2906 73.6464 96.1313 73.3351 95.8999 73.0809C95.6685 72.8267 95.3734 72.6389 95.0452 72.5369C94.7169 72.435 94.3673 72.4226 94.0326 72.501C93.698 72.5793 93.3903 72.7457 93.1414 72.9828C92.9314 72.6628 92.4114 71.8728 92.1414 71.5728C92.355 71.3624 92.5021 71.0938 92.5643 70.8004C92.6265 70.507 92.6012 70.2019 92.4914 69.9228C92.9814 69.7695 93.4096 69.4637 93.7136 69.0499C94.0177 68.6362 94.1816 68.1362 94.1816 67.6228C94.1816 67.1094 94.0177 66.6094 93.7136 66.1957C93.4096 65.782 92.9814 65.4762 92.4914 65.3228C93.2814 62.4428 90.5814 60.6728 88.1314 61.8228C87.9989 61.4924 87.7715 61.2087 87.4778 61.0076C87.1841 60.8064 86.8374 60.6969 86.4814 60.6928C88.4814 58.1728 85.6314 56.4128 82.9214 57.2728C82.7432 56.8157 82.4439 56.4157 82.0555 56.1159C81.6671 55.8161 81.2043 55.6278 80.7169 55.5713C80.2296 55.5147 79.736 55.5921 79.2893 55.7949C78.8425 55.9978 78.4595 56.3186 78.1814 56.7228C77.5252 56.5505 76.8276 56.6425 76.2386 56.9791C75.6496 57.3157 75.2161 57.87 75.0314 58.5228C74.6115 58.4239 74.175 58.4192 73.7531 58.5091C73.3312 58.599 72.9345 58.7813 72.5914 59.0428C72.3626 58.6472 71.9974 58.3485 71.5643 58.2026C71.1312 58.0567 70.6597 58.0735 70.2381 58.25C69.8166 58.4265 69.4737 58.7505 69.2737 59.1615C69.0737 59.5724 69.0302 60.0421 69.1514 60.4828C68.8747 60.56 68.6293 60.7223 68.4499 60.9466C68.2704 61.1709 68.166 61.4459 68.1514 61.7328C68.0414 61.7143 67.9288 61.7193 67.8209 61.7475C67.7129 61.7757 67.6122 61.8264 67.5253 61.8963C67.4384 61.9662 67.3673 62.0537 67.3166 62.1531C67.266 62.2525 67.2369 62.3614 67.2314 62.4728C66.971 62.4067 66.6969 62.4181 66.4429 62.5056C66.1889 62.593 65.9659 62.7527 65.8013 62.9651C65.6367 63.1774 65.5377 63.4332 65.5164 63.7011C65.4951 63.9689 65.5525 64.2371 65.6814 64.4728C65.3557 64.546 65.0587 64.7135 64.8275 64.9544C64.5963 65.1953 64.4412 65.4989 64.3815 65.8274C64.3217 66.1559 64.3601 66.4946 64.4916 66.8015C64.6232 67.1083 64.8423 67.3697 65.1214 67.5528C63.5414 68.0128 62.5214 69.5528 63.1214 70.9528C61.3214 72.0428 60.5814 74.2528 61.8514 75.7928C61.6229 76.4285 61.6328 77.1255 61.8792 77.7544C62.1256 78.3834 62.5919 78.9016 63.1914 79.2128C62.9299 79.5343 62.7636 79.9226 62.7113 80.3337C62.6591 80.7448 62.7229 81.1623 62.8957 81.539C63.0684 81.9157 63.3431 82.2366 63.6888 82.4652C64.0344 82.6939 64.4372 82.8212 64.8514 82.8328C64.8819 83.1951 65.0055 83.5433 65.2102 83.8437C65.4149 84.1441 65.6937 84.3866 66.0197 84.5475C66.3456 84.7085 66.7077 84.7825 67.0706 84.7624C67.4336 84.7423 67.7852 84.6288 68.0914 84.4328C68.2544 84.6927 68.4898 84.8992 68.7688 85.0267C69.0478 85.1543 69.358 85.1973 69.6612 85.1505C69.9643 85.1037 70.2471 84.9691 70.4747 84.7634C70.7022 84.5576 70.8645 84.2897 70.9414 83.9928C71.4309 84.1769 71.9562 84.2456 72.4765 84.1935C72.9968 84.1415 73.4981 83.9702 73.9414 83.6928C73.5314 86.1828 71.6414 86.3628 72.2314 88.9728C71.883 89.4312 71.6902 89.9889 71.6812 90.5646C71.6722 91.1403 71.8475 91.7038 72.1814 92.1728C72.068 92.4139 72.0039 92.6753 71.9929 92.9416C71.9819 93.2078 72.0242 93.4736 72.1174 93.7233C72.2106 93.9729 72.3527 94.2015 72.5354 94.3954C72.7181 94.5894 72.9378 94.7449 73.1814 94.8528C73.0878 95.0365 73.0435 95.2413 73.0529 95.4472C73.0622 95.6532 73.1249 95.8531 73.2348 96.0275C73.3447 96.202 73.498 96.3448 73.6797 96.4422C73.8615 96.5395 74.0653 96.588 74.2714 96.5828C74.468 97.318 74.8456 97.9924 75.3696 98.5443C75.8936 99.0963 76.5474 99.5083 77.2714 99.7428C77.3714 112.313 77.8314 110.803 76.6314 112.263C75.5262 112.843 74.6205 113.742 74.0314 114.843C56.4914 120.933 49.4114 134.843 47.0914 153.513C45.7514 153.303 45.6914 153.253 45.6414 153.423C45.1016 155.524 44.9124 157.7 45.0814 159.863C45.0814 159.993 45.0814 159.983 46.6814 160.373C47.1314 168.083 51.3014 176.443 59.6814 177.913C59.5714 179.533 59.4414 188.813 59.6814 190.913C59.6921 190.962 59.7192 191.006 59.7583 191.037C59.7974 191.069 59.8462 191.086 59.8964 191.086C59.9467 191.086 59.9954 191.069 60.0345 191.037C60.0736 191.006 60.1008 190.962 60.1114 190.913C60.1114 189.793 60.2514 179.733 60.3414 178.063C65.4314 178.563 68.4114 176.433 72.4214 172.063C78.7214 165.063 82.2914 157.513 86.0114 149.593C86.6648 148.314 87.1907 146.974 87.5814 145.593C88.1683 145.83 88.8151 145.876 89.4294 145.723C90.0437 145.57 90.5939 145.227 91.0014 144.743C92.4338 145.205 93.9553 145.322 95.4414 145.083C95.6928 145.036 95.9318 144.938 96.1436 144.795C96.3554 144.652 96.5354 144.467 96.6724 144.251C96.8094 144.035 96.9005 143.793 96.9399 143.541C96.9793 143.288 96.9662 143.03 96.9014 142.783C98.1814 142.723 98.9814 141.563 97.7014 140.593C97.2939 140.28 96.8626 139.999 96.4114 139.753C97.4714 139.683 100.271 139.373 101.181 138.753C102.091 138.133 102.061 136.583 100.801 136.413C100.271 136.343 92.4814 136.663 90.7114 136.913C88.96 137.098 87.3015 137.794 85.9414 138.913C83.9414 140.563 69.8014 152.313 64.7514 156.553C61.8214 156.023 50.8414 154.143 47.9214 153.683C50.3414 133.513 58.5614 121.453 73.7614 115.773C72.8314 119.573 77.3314 123.473 78.7614 124.633C81.1114 126.563 84.9514 128.633 88.2414 127.733C90.3314 127.173 91.8914 125.563 92.8914 122.933C97.3314 126.783 99.4214 126.353 100.121 125.993C102.811 124.583 102.701 117.723 100.461 114.423C105.261 115.166 109.855 116.891 113.957 119.491C118.059 122.091 121.581 125.51 124.301 129.533C119.711 129.633 119.991 129.633 119.951 129.753C118.867 132.678 117.814 135.615 116.791 138.563C116.391 136.073 115.791 132.683 115.531 131.703C115.509 131.649 115.468 131.606 115.417 131.58C115.365 131.554 115.305 131.548 115.249 131.563C115.193 131.577 115.144 131.612 115.112 131.659C115.079 131.707 115.065 131.765 115.071 131.823C115.361 133.043 115.961 137.673 116.291 140.013C112.231 151.763 109.051 162.353 109.131 162.463C109.211 162.573 119.131 162.573 120.411 162.553C121.411 170.913 122.171 188.343 122.141 190.413C122.141 190.471 122.165 190.527 122.206 190.568C122.247 190.61 122.303 190.633 122.361 190.633C122.42 190.633 122.476 190.61 122.517 190.568C122.558 190.527 122.581 190.471 122.581 190.413C122.761 186.733 122.581 175.673 122.411 173.283C124.776 172.89 126.943 171.722 128.571 169.963C129.791 168.713 131.571 165.013 132.801 162.033C134.741 161.903 134.801 161.933 134.801 161.803C135.941 159.153 137.071 156.033 138.021 152.993C142.741 152.283 145.131 145.663 143.221 142.663C142.793 141.981 142.232 141.393 141.571 140.933ZM60.0414 162.193C60.6814 162.083 59.9714 161.193 84.1114 141.353C88.1114 138.083 88.4214 137.773 93.2714 137.443C95.0714 137.323 99.7414 137.153 100.271 137.143C100.681 137.143 101.041 137.143 101.011 137.513C101.011 138.153 100.011 138.343 99.3214 138.513C97.2515 139.014 95.131 139.275 93.0014 139.293C92.9378 139.293 92.8767 139.318 92.8317 139.363C92.7867 139.408 92.7614 139.469 92.7614 139.533C92.7614 139.596 92.7867 139.658 92.8317 139.703C92.8767 139.748 92.9378 139.773 93.0014 139.773H95.0814C95.7191 140.082 96.3281 140.446 96.9014 140.863C97.1414 141.033 97.5714 141.193 97.6014 141.423C97.7614 142.753 94.4014 141.523 93.2214 140.953C93.1803 140.932 93.1324 140.928 93.0884 140.942C93.0443 140.956 93.0076 140.987 92.9864 141.028C92.9652 141.069 92.9612 141.117 92.9752 141.161C92.9893 141.205 93.0203 141.242 93.0614 141.263C93.9114 141.793 96.8514 142.823 96.1714 143.823C95.3014 145.083 93.0214 144.543 91.5114 144.243C91.8269 143.988 92.2062 143.824 92.6081 143.769C93.0101 143.715 93.4193 143.771 93.7914 143.933C93.8422 143.946 93.896 143.94 93.9429 143.916C93.9898 143.893 94.0268 143.854 94.0473 143.805C94.0678 143.757 94.0704 143.703 94.0547 143.653C94.0389 143.603 94.0059 143.561 93.9614 143.533C93.3471 143.274 92.6676 143.213 92.0172 143.359C91.3667 143.504 90.7775 143.848 90.3314 144.343C89.1414 145.483 87.6614 145.213 86.5114 144.053C86.4703 144.016 86.4176 143.996 86.3627 143.995C86.3079 143.994 86.2545 144.013 86.2122 144.048C86.17 144.083 86.1416 144.132 86.1323 144.186C86.123 144.24 86.1333 144.296 86.1614 144.343C86.3914 144.696 86.6908 144.999 87.0414 145.233C85.2598 149.615 83.2572 153.904 81.0414 158.083C77.0414 165.583 72.9814 170.883 68.4214 174.743C63.4814 178.993 56.2214 177.433 52.0514 172.573C49.5514 169.683 47.9814 165.633 47.4014 160.573C49.4814 160.933 57.7914 162.123 60.0414 162.193ZM77.3814 78.7728C76.5187 79.3788 75.8515 80.2233 75.4614 81.2028C75.0711 80.8583 74.7692 80.425 74.5813 79.9395C74.3933 79.4539 74.3248 78.9304 74.3814 78.4128C75.2714 74.4128 79.3814 70.9128 82.7914 69.8828C84.8914 69.0328 90.2314 69.9828 91.9514 72.5528C91.3903 72.5019 90.8304 72.6624 90.3814 73.0028C90.1124 72.6529 89.7677 72.3683 89.3733 72.1702C88.9788 71.9722 88.5447 71.8658 88.1033 71.8591C87.662 71.8524 87.2248 71.9454 86.8245 72.1314C86.4242 72.3173 86.071 72.5913 85.7914 72.9328C85.2443 73.0923 84.7503 73.3963 84.3614 73.8128C83.9934 73.6158 83.5758 73.5307 83.16 73.568C82.7442 73.6053 82.3485 73.7634 82.0214 74.0228C81.6731 74.1173 81.367 74.3268 81.1528 74.6173C80.9385 74.9078 80.8288 75.2621 80.8414 75.6228C80.4025 75.5794 79.9593 75.6287 79.5406 75.7674C79.1219 75.9061 78.737 76.1313 78.4108 76.4282C78.0846 76.7252 77.8244 77.0873 77.6471 77.4912C77.4698 77.8951 77.3793 78.3317 77.3814 78.7728ZM96.2914 120.323C91.6214 125.163 77.5914 119.523 76.6814 115.023C76.6094 114.539 76.6525 114.045 76.8071 113.581C76.9618 113.117 77.2236 112.697 77.5714 112.353C77.6714 112.253 77.7414 112.143 77.8414 112.043C77.8531 112.014 77.8531 111.982 77.8414 111.953L78.0314 111.713C78.2814 111.243 77.9714 101.293 77.9214 99.8628C78.2978 99.8678 78.666 99.7534 78.9733 99.536C79.2805 99.3186 79.5109 99.0094 79.6314 98.6528C79.8444 98.7687 80.0869 98.819 80.3285 98.7975C80.57 98.776 80.7998 98.6835 80.9889 98.5318C81.178 98.38 81.3181 98.1758 81.3915 97.9446C81.4649 97.7135 81.4684 97.4659 81.4014 97.2328L83.8614 94.5928C83.858 94.9211 83.9486 95.2435 84.1226 95.522C84.2966 95.8004 84.5466 96.0232 84.8431 96.1642C85.1397 96.3051 85.4703 96.3582 85.7961 96.3172C86.1218 96.2762 86.429 96.1428 86.6814 95.9328C86.9399 95.745 87.1537 95.5024 87.3075 95.2223C87.4614 94.9423 87.5515 94.6317 87.5714 94.3128C87.5753 94.2784 87.5672 94.2437 87.5483 94.2146C87.5295 94.1855 87.5013 94.1638 87.4683 94.1532C87.4353 94.1426 87.3996 94.1437 87.3674 94.1564C87.3352 94.1691 87.3083 94.1926 87.2914 94.2228C87.1252 94.4719 86.8793 94.657 86.594 94.7479C86.3087 94.8387 86.001 94.8299 85.7214 94.7228C85.8193 94.3082 85.8 93.8745 85.6658 93.4702C85.5316 93.0658 85.2878 92.7067 84.9614 92.4328C83.4614 87.6328 83.6014 85.7328 86.2914 83.9328C88.2914 82.4228 95.2914 79.0628 100.001 83.3528C100.325 83.7287 100.711 84.0466 101.141 84.2928C102.361 100.903 103.141 101.123 98.5814 105.943C97.1846 107.359 95.3245 108.225 93.3414 108.383C92.9914 108.383 92.9514 108.893 93.3414 108.933C93.849 109.003 94.3638 109.003 94.8714 108.933C94.8714 112.323 94.7214 112.063 95.6914 112.403C99.0014 113.933 98.7114 117.793 96.2914 120.323ZM125.701 171.143C124.651 171.725 123.528 172.166 122.361 172.453C122.211 170.773 121.601 165.453 121.201 162.453C124.841 162.373 128.501 162.223 131.991 162.003C130.531 165.643 128.321 169.863 125.701 171.143ZM132.311 138.143C130.111 138.083 130.111 135.363 132.311 135.303C134.511 135.243 134.511 138.133 132.311 138.193V138.143ZM123.401 132.993C122.935 133.272 122.557 133.677 122.311 134.163C122.011 134.733 113.421 158.103 113.011 159.433C112.99 159.504 112.941 159.565 112.876 159.6C112.81 159.636 112.733 159.644 112.661 159.623C112.59 159.602 112.53 159.553 112.494 159.487C112.458 159.422 112.45 159.344 112.471 159.273C112.981 157.383 120.391 136.163 120.471 136.033C122.241 131.613 122.931 131.683 126.311 131.573C127.861 131.523 139.141 131.473 140.771 131.743C141.131 131.803 141.051 132.313 140.771 132.343C139.881 132.453 124.101 132.693 123.401 133.043V132.993ZM138.321 151.993C138.701 150.713 139.051 149.463 139.321 148.273C139.767 148.453 140.229 148.587 140.701 148.673C140.753 148.685 140.807 148.676 140.852 148.648C140.897 148.619 140.929 148.575 140.941 148.523C140.953 148.471 140.944 148.417 140.916 148.372C140.888 148.327 140.843 148.295 140.791 148.283C139.701 147.856 138.688 147.255 137.791 146.503C137.181 145.813 136.901 145.303 137.611 144.803C138.971 145.873 140.741 146.803 141.391 147.273C141.433 147.293 141.48 147.299 141.525 147.288C141.57 147.278 141.61 147.252 141.638 147.216C141.666 147.179 141.681 147.134 141.68 147.088C141.679 147.042 141.662 146.998 141.631 146.963C140.901 146.303 138.431 144.643 137.141 143.353C137.121 143.149 137.164 142.943 137.264 142.765C137.364 142.586 137.517 142.442 137.701 142.353C138.862 143.365 140.129 144.247 141.481 144.983C141.525 145.01 141.578 145.018 141.628 145.007C141.679 144.996 141.723 144.966 141.751 144.923C141.901 144.733 141.751 144.663 140.751 143.833C140.001 143.213 138.951 142.343 138.181 141.583C137.091 140.583 139.181 140.763 141.091 141.583C141.756 141.963 142.298 142.526 142.653 143.205C143.008 143.883 143.16 144.65 143.091 145.413C142.941 148.303 141.161 151.303 138.321 152.093V151.993ZM56.3714 7.98281C55.9698 8.0414 55.5603 7.9602 55.2114 7.75281C54.9811 7.16703 54.5909 6.65772 54.0853 6.2829C53.5796 5.90808 52.9788 5.68283 52.3514 5.63281C50.8214 5.73281 50.5214 7.89281 49.3514 8.05281C48.6514 8.15281 47.7914 7.43281 46.7914 5.93281C46.7791 5.90745 46.76 5.88606 46.7361 5.8711C46.7122 5.85613 46.6846 5.8482 46.6564 5.8482C46.6282 5.8482 46.6006 5.85613 46.5768 5.8711C46.5529 5.88606 46.5337 5.90745 46.5214 5.93281C46.4111 6.30818 46.3781 6.70203 46.4246 7.09051C46.471 7.47899 46.5958 7.854 46.7914 8.19281C46.6294 8.18535 46.476 8.11758 46.3614 8.00281C46.0214 7.67281 45.8514 8.89281 46.6714 9.73281C46.4197 9.71939 46.174 9.65114 45.9514 9.53281C45.4514 9.14281 45.6614 11.2028 47.3014 12.1428C46.8376 12.1135 46.3843 11.9913 45.9686 11.7834C45.5529 11.5755 45.1832 11.2863 44.8814 10.9328C44.8617 10.9055 44.8335 10.8857 44.8011 10.8764C44.7688 10.8671 44.7343 10.869 44.7032 10.8816C44.672 10.8943 44.646 10.9171 44.6294 10.9463C44.6128 10.9756 44.6064 11.0096 44.6114 11.0428C44.7891 12.5264 45.4749 13.9027 46.5522 14.9381C47.6295 15.9735 49.0319 16.6041 50.5214 16.7228C53.8314 16.7228 55.9214 13.1628 55.1514 10.4328C55.3467 10.3714 55.5561 10.3714 55.7514 10.4328C55.7803 10.4545 55.816 10.465 55.852 10.4624C55.8881 10.4599 55.922 10.4444 55.9475 10.4189C55.973 10.3933 55.9885 10.3595 55.991 10.3234C55.9936 10.2874 55.9831 10.2517 55.9614 10.2228C55.8592 10.0597 55.7909 9.87764 55.7607 9.68752C55.7305 9.4974 55.739 9.30314 55.7857 9.11638C55.8324 8.92962 55.9163 8.75421 56.0324 8.60067C56.1485 8.44712 56.2944 8.3186 56.4614 8.22281C56.4773 8.20256 56.4877 8.17855 56.4917 8.1531C56.4956 8.12766 56.4929 8.10162 56.4839 8.07751C56.4748 8.0534 56.4598 8.03202 56.4401 8.01544C56.4204 7.99885 56.3967 7.98762 56.3714 7.98281ZM53.2914 8.75281C53.0934 8.73071 52.9104 8.63638 52.7776 8.48786C52.6447 8.33935 52.5713 8.14708 52.5713 7.94781C52.5713 7.74855 52.6447 7.55627 52.7776 7.40776C52.9104 7.25925 53.0934 7.16492 53.2914 7.14281C53.4895 7.16492 53.6724 7.25925 53.8052 7.40776C53.9381 7.55627 54.0116 7.74855 54.0116 7.94781C54.0116 8.14708 53.9381 8.33935 53.8052 8.48786C53.6724 8.63638 53.4895 8.73071 53.2914 8.75281ZM26.3614 108.463C23.1032 108.281 19.835 108.445 16.6114 108.953C16.5778 108.958 16.5472 108.975 16.5251 109C16.503 109.026 16.4911 109.059 16.4914 109.093C16.4832 110.834 16.7189 112.567 17.1914 114.243C17.201 114.27 17.2185 114.294 17.2415 114.312C17.2646 114.33 17.2924 114.341 17.3214 114.343C20.215 114.573 23.1249 114.492 26.0014 114.103C26.5714 114.023 26.9814 108.503 26.3614 108.463ZM23.6714 111.733C23.6053 112.059 23.4445 112.358 23.2091 112.593C22.9738 112.828 22.6744 112.988 22.3484 113.053C22.0224 113.119 21.6843 113.087 21.3765 112.961C21.0686 112.836 20.8047 112.622 20.6177 112.347C20.4307 112.072 20.329 111.748 20.3253 111.415C20.3216 111.083 20.4161 110.757 20.5969 110.478C20.7777 110.199 21.0368 109.979 21.3418 109.847C21.6468 109.714 21.984 109.675 22.3114 109.733C22.5333 109.772 22.745 109.856 22.9341 109.978C23.1233 110.101 23.286 110.26 23.4127 110.446C23.5394 110.633 23.6276 110.843 23.672 111.063C23.7164 111.284 23.7162 111.512 23.6714 111.733ZM24.2514 107.313C24.4261 107.345 24.6054 107.342 24.779 107.305C24.9527 107.268 25.1174 107.197 25.2636 107.097C25.4099 106.996 25.5349 106.867 25.6314 106.718C25.728 106.569 25.7942 106.402 25.8264 106.228C25.8586 106.053 25.856 105.874 25.8189 105.7C25.7818 105.527 25.7109 105.362 25.6101 105.216C25.5094 105.069 25.3808 104.944 25.2317 104.848C25.0827 104.751 24.9161 104.685 24.7414 104.653C24.3887 104.588 24.0246 104.666 23.7292 104.869C23.4338 105.073 23.2314 105.385 23.1664 105.738C23.1014 106.091 23.1792 106.455 23.3827 106.75C23.5862 107.045 23.8987 107.248 24.2514 107.313Z" fill="#00164F"/>
<path d="M29.5317 104.013C24.5317 96.7726 13.1517 99.3327 11.7717 107.843C11.4924 109.268 11.537 110.738 11.9024 112.144C12.2678 113.55 12.9446 114.855 13.8826 115.964C14.8207 117.073 15.9961 117.957 17.3218 118.55C18.6475 119.144 20.0897 119.432 21.5417 119.393C29.8617 119.393 33.7917 110.213 29.5317 104.013ZM27.4317 115.013C27.4257 115.041 27.4108 115.067 27.3893 115.087C27.3678 115.107 27.3407 115.119 27.3117 115.123C23.5964 115.621 19.8388 115.725 16.1017 115.433C16.0719 115.428 16.0438 115.416 16.0208 115.396C15.9979 115.377 15.9808 115.351 15.9717 115.323C14.9784 111.642 14.7942 107.791 15.4317 104.033C15.4362 104.001 15.4517 103.971 15.4753 103.95C15.499 103.928 15.5295 103.915 15.5617 103.913C19.5846 103.451 23.6496 103.494 27.6617 104.043C27.6915 104.048 27.7189 104.063 27.7403 104.084C27.7617 104.105 27.7762 104.133 27.7817 104.163C28.4081 107.769 28.289 111.465 27.4317 115.023V115.013Z" fill="#00164F"/>
</svg>