<svg width="200" height="209" viewBox="0 0 200 209" fill="none" xmlns="http://www.w3.org/2000/svg">
<path d="M68.1057 159.392C69.9265 158.748 71.792 158.236 73.6873 157.863L73.9167 158.704C73.9423 158.803 74.0028 158.89 74.087 158.948C74.1713 159.006 74.2736 159.032 74.3754 159.021L81.8794 158.147C83.9439 153.44 87.7341 146.307 87.7887 146.198C87.7341 144.417 87.7887 142.921 87.7887 141.217C83.496 142.812 75.5551 145.837 71.4044 147.771C71.3105 147.831 71.238 147.919 71.1968 148.023C71.1557 148.127 71.1481 148.241 71.175 148.349C71.175 148.349 71.2515 148.623 71.3498 149.016C69.3181 149.016 63.2341 148.721 61.7704 150.108C61.5428 150.425 61.431 150.811 61.4536 151.2C61.3663 152.708 62.1199 164.417 63.3215 167.858C63.9441 169.66 65.2548 169.463 66.1505 167.738C67.1871 165.139 67.8527 162.406 68.1275 159.622C68.1275 159.48 68.0948 159.491 68.1057 159.392ZM66.8496 149.616C68.1821 149.507 68.5972 149.529 71.459 149.442C71.9724 151.386 73.0319 155.384 73.578 157.426C71.6509 157.725 69.7487 158.167 67.8872 158.748C67.3072 155.735 66.9603 152.682 66.8496 149.616Z" fill="#00164F"/>
<path d="M168.639 54.0182C168.913 53.6359 168.563 53.1443 168.268 52.762C169.103 51.9027 170.03 51.1372 171.032 50.4791C172.722 49.6369 174.266 48.5308 175.608 47.2023C176.165 46.6234 177.214 45.4328 176.821 44.7337C176.427 44.0346 175.728 43.9909 174.778 44.3951C175.19 43.9628 175.526 43.4643 175.772 42.9205C176.078 42.0685 175.357 41.3804 173.795 42.0139C174.363 41.1073 174.494 40.157 173.533 39.6983C172.757 39.3269 171.621 40.2116 170.966 40.7905C169.679 41.915 168.471 43.1266 167.351 44.4169C166.662 42.9751 165.57 41.3148 164.205 41.8391C162.839 42.3634 163.899 44.7119 164.598 45.9898L162.118 47.7047C161.744 47.5024 161.32 47.4079 160.895 47.4317C158.077 47.9123 145.133 57.7647 143.823 57.7647C142.818 57.7647 128.465 50.8833 116.057 48.8953C116.033 48.8209 115.988 48.7548 115.928 48.7045C115.868 48.6543 115.796 48.622 115.718 48.6113C113.554 48.242 111.36 48.0774 109.164 48.1198C109.098 48.1243 109.033 48.1432 108.975 48.1753C108.916 48.2073 108.865 48.2518 108.826 48.3055H107.908C107.69 47.4207 106.881 45.3782 106.597 44.5917C107.34 43.9473 108.367 43.6196 108.902 42.5819C109.885 40.6595 109.842 37.3171 109.568 35.1762C110.803 34.2368 110.836 32.7295 110.552 31.1893C110.442 30.5667 110.104 29.1577 109.579 28.8081C109.284 28.6115 108.662 28.8081 108.127 29.0047C107.591 27.7595 107.591 28.3275 107.81 27.8251C107.911 27.5935 107.971 27.3457 107.985 27.0932C108.564 27.268 109.765 26.1102 109.35 24.581C109.133 24.0336 108.866 23.5071 108.553 23.0081C108.706 22.6367 109.033 22.1889 108.007 20.8235C107.564 20.3465 106.99 20.0119 106.357 19.8623H105.855C105.492 19.3361 104.96 18.9505 104.347 18.77C103.422 18.5341 102.441 18.6714 101.617 19.1523C101.398 19.3161 101.223 19.5346 101.005 19.6875C100.511 19.3876 99.9443 19.229 99.3665 19.229C98.7887 19.229 98.222 19.3876 97.7281 19.6875C97.4389 19.801 97.1757 19.9717 96.9542 20.1894C96.7327 20.4072 96.5575 20.6674 96.4392 20.9546C95.904 20.7699 95.3362 20.6988 94.772 20.7459C94.2078 20.7929 93.6596 20.957 93.1623 21.2277C91.2754 22.2508 89.8639 23.972 89.2301 26.0228C89.2124 26.332 89.2124 26.642 89.2301 26.9512H89.1099C87.4715 26.7109 85.3852 30.5995 87.0564 33.6251C87.253 33.9856 87.5043 34.3242 87.7446 34.7174C88.4436 35.8097 88.1705 36.1374 89.7325 37.47C90.1913 37.8632 90.2677 37.8304 90.5517 38.0707C90.8357 38.311 90.7265 38.1909 90.8903 38.8026C90.9797 39.1629 91.1396 39.5019 91.3608 39.8001C91.5821 40.0982 91.8602 40.3494 92.1792 40.5393C92.2953 41.6077 92.7509 42.6107 93.4791 43.4011C93.7097 43.6592 93.9786 43.8802 94.2764 44.0565C94.3568 44.1018 94.4465 44.1279 94.5386 44.1329C94.8663 46.1646 95.2704 48.8079 95.4452 49.933L94.4731 50.4573C93.2011 50.9691 91.9642 51.5638 90.7702 52.2377C90.6765 52.3025 90.6104 52.3999 90.5845 52.5108C89.4267 53.1225 88.3344 53.7014 87.7118 54.0728C79.039 59.2174 54.4079 93.133 54.1567 94.6841C54.129 94.773 54.129 94.8682 54.1567 94.9571C54.5097 95.5204 54.9399 96.0314 55.4347 96.4754C55.2822 96.7535 55.099 97.0137 54.8885 97.2509C52.7039 98.6818 49.4271 100.812 47.6685 102.712C47.5451 102.822 47.4526 102.963 47.4 103.119C47.3474 103.276 47.3366 103.444 47.3686 103.606C47.4005 103.768 47.4742 103.919 47.5824 104.044C47.6905 104.169 47.8294 104.263 47.9852 104.318C48.3129 104.427 48.3676 104.395 50.4975 103.226C49.9121 103.739 49.4334 104.363 49.0885 105.061C48.9465 105.662 49.4926 106.011 50.1807 105.902C50.5679 105.8 50.9366 105.638 51.273 105.421C51.076 105.725 50.9712 106.08 50.9712 106.443C50.9712 106.805 51.076 107.16 51.273 107.464C52.3653 108.84 55.2271 104.504 56.7345 103.433C57.3462 104.209 58.1763 106.022 59.498 105.541C60.6449 105.115 59.3887 102.592 59.498 101.86C59.9424 101.434 60.417 101.039 60.9179 100.681C61.7605 101.306 62.724 101.748 63.747 101.981C65.5492 101.981 84.3585 82.9966 85.7894 81.4783C85.276 86.3062 82.6873 107.027 83.2334 111.057C83.4846 112.882 87.8647 113.144 89.7107 113.242C89.1536 126.35 88.7822 146.207 88.6839 146.415C85.7894 152.652 85.0029 154.356 84.0308 156.245C82.2613 159.632 74.8119 172.127 73.9708 174.967C73.8506 175.415 73.8397 175.59 74.3094 176.42C72.9018 177.9 71.5954 179.473 70.399 181.128C69.7983 182.22 72.3761 192.4 74.2002 196.005C74.6152 196.813 75.2925 198.058 76.1991 198.025C78.9298 197.927 78.9189 188.118 78.8424 185.377C78.842 185.292 78.8109 185.211 78.755 185.147C79.25 184.409 79.7899 183.701 80.3716 183.028C80.7188 183.267 81.084 183.479 81.4639 183.662C81.8353 183.826 82.2503 183.542 82.5562 183.291C86.1935 180.429 105.811 155.983 110.016 144.449C111.928 139.184 114.473 131.909 115.194 126.754C115.634 123.494 115.675 120.193 115.314 116.923C115.314 116.877 115.332 116.832 115.365 116.799C115.398 116.767 115.442 116.748 115.489 116.748C115.535 116.748 115.579 116.767 115.612 116.799C115.645 116.832 115.663 116.877 115.663 116.923C116.21 120.211 116.317 123.558 115.98 126.874C115.172 134.028 109.525 148.938 106.51 154.421C109.11 153.941 114.396 152.892 116.952 152.128C125.472 149.539 133.337 141.816 134.025 133.144C134.247 129.058 134.247 124.963 134.025 120.877C133.951 115.237 133.218 109.624 131.84 104.154C134.156 102.898 136.275 101.423 136.963 100.069C138.438 97.1745 134.538 80.5171 133.686 75.8421C138.35 76.3555 146.291 77.2839 149.994 74.3893C154.232 70.9814 163.386 61.3911 168.639 54.0182ZM78.2526 184.776C76.2864 183.585 73.5339 180.756 73.1188 178.539C73.5666 177.971 74.0363 177.447 74.4732 176.857C75.9535 179.116 77.7992 181.113 79.9347 182.766C79.3348 183.402 78.7731 184.073 78.2526 184.776ZM165.09 46.2957C165.146 46.2596 165.187 46.2033 165.203 46.1383C165.219 46.0733 165.21 46.0045 165.177 45.9461C164.795 45.2362 163.648 42.7348 164.445 42.4508C164.904 42.2761 165.308 42.5601 165.647 42.9424C166.164 43.5983 166.566 44.3369 166.837 45.1269C166.857 45.1912 166.895 45.2487 166.945 45.2933C166.996 45.338 167.057 45.3681 167.123 45.3805C167.19 45.3928 167.258 45.3869 167.321 45.3634C167.384 45.3399 167.44 45.2997 167.482 45.2471C168.574 44.0346 171.13 41.2711 172.572 40.5284C173.664 39.9604 173.926 41.009 171.25 43.4557C170.635 43.9244 170.045 44.4239 169.481 44.9522C169.449 44.995 169.433 45.0467 169.433 45.0996C169.433 45.1526 169.449 45.2042 169.481 45.2471C169.481 45.5311 169.71 45.8478 170.103 45.5529C171.053 44.7195 172.056 43.9495 173.107 43.2482C173.643 42.8671 174.267 42.6268 174.92 42.5491C174.592 43.554 171.545 46.2848 171.283 46.5906C171.2 46.6651 171.149 46.7693 171.142 46.8807C171.135 46.9921 171.172 47.1019 171.245 47.1864C171.318 47.2708 171.421 47.3232 171.532 47.3323C171.644 47.3414 171.754 47.3065 171.84 47.235C173.052 46.4486 175.171 44.6136 175.903 44.8866C176.635 45.1597 174.461 47.1914 173.915 47.672C170.78 50.3918 171.589 48.6441 167.962 52.336C166.384 50.6068 164.571 49.1068 162.577 47.8795L165.09 46.2957ZM117.63 98.5398C117.444 97.0325 117.215 95.405 116.931 93.7119L117.4 93.0893C119.585 90.2821 120.24 85.8147 120.033 82.3084C121.201 87.4313 122.13 92.4667 122.84 97.4694L117.63 98.5398ZM101.387 61.1399C98.5145 58.9553 93.8941 55.1869 91.2071 52.6091L95.5763 50.4245C99.5882 54.172 103.023 58.4934 105.767 63.248C109.964 70.9577 113.077 79.2094 115.019 87.7699L99.443 65.7384L101.475 61.5222C101.502 61.4573 101.508 61.3856 101.492 61.3171C101.476 61.2486 101.44 61.1867 101.387 61.1399ZM108.771 48.7533C108.837 48.8735 109.59 50.4791 110.737 53.2863C110.737 53.4065 110.53 56.1372 110.431 57.0984C109.037 56.5458 107.722 55.8112 106.521 54.9138C106.761 53.9635 107.843 49.649 107.919 48.6769L108.771 48.7533ZM104.893 60.4845C104.97 60.2879 105.046 60.0257 105.134 59.7199L105.866 60.1022C106.281 60.3753 106.117 59.5451 106.488 61.9482C106.488 62.3523 106.597 62.8002 106.619 63.2917C106.117 62.3851 105.494 61.4129 104.904 60.4845H104.893ZM104.282 59.567C102.218 56.64 99.8692 53.9251 97.2693 51.4622L105.494 55.034C105.177 55.7877 104.719 58.0924 104.293 59.567H104.282ZM112.682 65.9678C111.589 62.9858 110.748 59.6544 110.333 58.7805C110.358 58.508 110.358 58.2338 110.333 57.9613C110.491 58.0201 110.657 58.0569 110.825 58.0705C110.93 58.0717 111.032 58.0348 111.113 57.9666C111.193 57.8983 111.246 57.8034 111.262 57.6992C111.349 57.3387 111.491 55.5146 111.513 55.1104C114.69 63.1328 117.343 71.3532 119.454 79.7197C113.282 66.5904 114.233 70.3916 112.692 65.9678H112.682ZM121.715 86.8196C119.224 74.8809 114.844 59.993 109.863 48.9609C111.693 48.9619 113.519 49.108 115.325 49.3978C116.253 57.6992 115.478 57.4152 116.1 57.7429C116.723 58.0705 120.47 59.5779 121.027 59.8073C120.972 60.6483 121.758 84.7005 121.726 86.8196H121.715ZM109.142 29.5072C109.712 30.7498 109.913 32.1297 109.721 33.4831C109.632 33.8276 109.45 34.1406 109.193 34.3874C108.937 34.6341 108.617 34.8049 108.27 34.8808C107.922 34.9567 107.561 34.9346 107.225 34.817C106.889 34.6995 106.592 34.4911 106.368 34.215C105.847 33.1171 105.455 31.9625 105.199 30.7743C105.494 30.392 108.64 29.6274 109.142 29.5072ZM94.1126 40.4301C93.7136 40.2484 93.3052 40.088 92.8892 39.9495C92.61 39.8347 92.3608 39.6576 92.1607 39.4316C91.9606 39.2056 91.8149 38.9368 91.7347 38.6457C91.6546 38.3547 91.6422 38.0492 91.6984 37.7526C91.7546 37.456 91.878 37.1763 92.0591 36.9348C92.7472 36.3559 93.3698 36.3886 93.9378 37.2515C94.2983 37.9178 94.2874 37.9724 94.4512 38.038C94.4982 38.0587 94.5491 38.0691 94.6005 38.0686C94.6518 38.068 94.7025 38.0565 94.749 38.0348C94.7955 38.013 94.8369 37.9816 94.8703 37.9426C94.9037 37.9036 94.9284 37.8579 94.9427 37.8086C95.1046 37.1249 95.1306 36.416 95.0192 35.7223C94.8881 34.9686 94.8663 31.6262 94.8881 31.517C95.2072 31.6852 95.5656 31.7644 95.9258 31.7464C97.9028 31.6699 98.2961 30.6541 99.0825 29.824C99.9891 29.9113 100.175 30.3483 101.202 29.824C101.682 29.5505 102.123 29.2124 102.512 28.8191C102.826 28.9476 103.129 29.101 103.419 29.2778C104.074 29.5926 104.812 29.6893 105.525 29.5537C106.239 29.418 106.89 29.0572 107.384 28.5241C107.504 28.7535 107.613 28.9829 107.712 29.2232C106.708 29.5347 105.763 30.0108 104.915 30.6323C104.73 30.8616 105.003 32.1068 105.068 32.4018C104.153 32.5169 103.268 32.8021 102.458 33.2428C102.294 32.6748 101.933 31.6153 101.365 31.3204C101.195 31.2681 101.012 31.2681 100.841 31.3204C99.858 31.4733 96.3299 32.5328 95.904 33.1118C95.5326 33.5159 96.5921 36.6398 96.9198 37.1532C98.1759 39.0975 101.857 38.5295 102.545 36.2575C102.715 35.4951 102.715 34.7044 102.545 33.9419C102.862 33.9419 103.812 33.6033 103.921 33.5705C104.675 35.2636 104.893 35.3619 105.767 37.186C105.647 37.2843 105.451 37.4481 105.287 37.5574C104.511 38.0707 104.347 37.9834 104.391 38.2018C104.404 38.2452 104.432 38.2824 104.47 38.3065C104.508 38.3307 104.554 38.34 104.599 38.3329C105.057 38.2674 105.505 38.1426 105.931 37.9615C106.186 37.8664 106.397 37.6794 106.521 37.4372C106.827 36.7491 105.134 34.1604 104.467 33.3848C104.599 33.3848 104.904 33.1664 105.134 33.0462C105.44 34.2696 105.647 35.2308 106.827 35.7114C107.168 35.8401 107.531 35.8987 107.895 35.8837C108.259 35.8687 108.617 35.7804 108.946 35.624C109.121 37.5464 109.088 40.6704 108.17 42.3744C107.701 43.2591 106.543 43.5977 105.8 44.3296C105.582 44.5371 105.724 44.832 105.8 45.1488C107.013 48.5239 107.034 48.513 106.969 48.9499C106.647 50.7634 106.198 52.5519 105.625 54.3022C105.352 54.182 102.283 52.5545 96.2753 50.217C96.0896 48.9827 95.0957 42.3962 94.7789 41.1838C94.8007 40.7578 94.7461 40.6595 94.1126 40.3755V40.4301ZM101.759 35.9736C101.409 37.1641 99.7597 37.6775 98.5801 37.3498C97.4004 37.0221 97.3239 36.4214 96.7669 35.0014C96.5058 34.4589 96.3254 33.8812 96.2316 33.2865C96.5921 32.8933 100.535 32.085 101.027 32.0085C101.716 33.1879 101.975 34.5701 101.759 35.9189V35.9736ZM59.0174 101.555C58.6023 101.959 59.1594 103.28 59.2467 104.427C59.2467 104.526 59.2467 104.952 59.1812 104.984C58.5804 105.181 58.0234 104.274 57.6848 103.728C57.3462 103.182 57.0076 102.439 56.4723 102.636C55.38 103.149 52.8459 106.514 51.8519 106.863C51.3495 105.902 54.2222 103.16 54.3205 103.007C54.3627 102.937 54.3847 102.857 54.3844 102.775C54.384 102.693 54.3612 102.613 54.3184 102.543C54.2756 102.473 54.2144 102.416 54.1416 102.379C54.0688 102.341 53.9872 102.324 53.9055 102.33C53.7088 102.33 53.5778 102.505 53.2719 102.778C52.3417 103.686 51.2769 104.445 50.1152 105.028C51.1685 103.82 52.2957 102.678 53.4904 101.609C53.5494 101.549 53.5909 101.473 53.6105 101.391C53.6105 101.391 53.3812 100.812 52.9333 101.041C52.2998 101.391 49.2195 103.171 48.2474 103.63C48.1163 103.543 48.1928 103.411 48.2474 103.28C49.7875 101.391 53.1736 99.0969 55.249 97.6442C55.4925 97.3933 55.6953 97.1059 55.8497 96.7922C57.287 98.1295 58.8203 99.3598 60.4373 100.473C59.9392 100.8 59.4647 101.161 59.0174 101.555ZM84.4349 111.483C84.1946 111.331 84.0198 111.189 83.9871 110.992C83.3863 106.535 86.7287 81.2817 86.6741 80.2877C86.6741 80.2294 86.6625 80.1717 86.6398 80.1179C86.6172 80.0642 86.584 80.0155 86.5423 79.9748C86.5006 79.9341 86.4511 79.9022 86.3968 79.8808C86.3426 79.8595 86.2846 79.8493 86.2263 79.8508C85.6692 79.8508 86.6523 79.8508 72.7365 93.1767C71.819 94.0396 64.8065 100.746 63.6377 101.194C62.0321 101.074 55.9917 96.257 55.0087 94.7387C56.9092 90.8938 79.9565 59.2611 87.9302 54.4223C88.5419 54.0509 89.5905 53.472 90.7374 52.8603C91.134 53.2344 91.5615 53.5742 92.0154 53.8762C94.5495 56.2792 98.0776 59.2721 100.754 61.5222L98.6674 65.662C98.6358 65.7168 98.6191 65.7789 98.6191 65.8422C98.6191 65.9055 98.6358 65.9676 98.6674 66.0224C115.609 90.3258 115.358 90.0528 115.467 90.0528C116.553 95.6688 117.228 101.356 117.488 107.071C117.488 108.611 117.488 108.48 117.553 108.37C117.619 108.261 117.553 108.447 117.553 108.447C114.91 111.331 88.7495 114.018 84.4349 111.483ZM144.817 75.2959C139.869 75.9841 134.276 74.9573 133.195 74.9136C132.594 72.0018 131.396 69.2459 129.678 66.8198C129.651 66.7844 129.613 66.7603 129.569 66.7522C129.526 66.7441 129.481 66.7526 129.444 66.7761C129.407 66.7995 129.38 66.8362 129.368 66.8787C129.357 66.9212 129.362 66.9665 129.383 67.0055C130.016 68.2944 132.135 73.8541 132.659 75.2086C132.496 75.7329 137.597 96.8249 136.155 99.6649C134.866 102.232 127.362 105.465 124.653 106.393C124.117 100.313 123.242 94.2664 122.031 88.2832C122.403 85.1375 121.922 66.4375 121.78 59.5233C121.776 59.443 121.749 59.3654 121.703 59.2997C121.656 59.234 121.592 59.1827 121.518 59.1519L116.614 57.0875C116.591 54.4917 116.427 51.8992 116.122 49.3213C128.367 51.4404 142.632 58.4419 143.823 58.4528C145.548 58.4528 158.372 48.6223 161.026 48.229C162.206 48.0433 167.274 52.4671 167.864 53.6905C162.686 60.9214 153.588 70.4243 149.371 73.7121C148.013 74.6203 146.445 75.1655 144.817 75.2959Z" fill="#00164F"/>
<path d="M100.633 33.7898C100.62 33.7181 100.592 33.6497 100.552 33.5887C100.512 33.5276 100.46 33.4751 100.4 33.434C100.34 33.3929 100.272 33.3641 100.2 33.3493C100.129 33.3344 100.055 33.3338 99.9835 33.3474C99.9118 33.3611 99.8434 33.3887 99.7824 33.4287C99.7213 33.4687 99.6688 33.5204 99.6277 33.5808C99.5866 33.6411 99.5578 33.709 99.543 33.7804C99.5281 33.8519 99.5275 33.9256 99.5411 33.9973C99.7596 35.0896 99.8032 35.3408 100.284 35.3408C100.375 35.3412 100.464 35.3188 100.544 35.2758C100.624 35.2328 100.692 35.1706 100.742 35.0946C100.792 35.0187 100.822 34.9316 100.83 34.841C100.838 34.7505 100.823 34.6595 100.786 34.5762C100.754 34.4015 100.655 33.8881 100.633 33.7898ZM103.976 41.0208C104.686 41.2283 105.363 40.8897 105.341 40.7149C105.319 40.5401 105.341 40.6275 104.38 40.2671C103.735 40.0268 103.025 39.1748 102.774 39.3059C102.523 39.4369 102.905 40.136 102.993 40.2671C103.226 40.6216 103.573 40.8871 103.976 41.0208ZM123.954 30.644C122.523 36.6407 121.474 41.7307 121.299 42.7466C121.183 43.1885 121.161 43.6499 121.234 44.101C121.813 45.3353 129.295 47.7711 130.245 47.2905C131.196 46.8099 133.664 41.2501 136.537 35.5156C138.297 35.5718 140.058 35.4437 141.791 35.1333C143.616 34.7985 145.392 34.2371 147.077 33.4621C150.769 31.7581 154.811 24.4617 155.357 20.7916C155.767 16.8069 154.923 12.7938 152.943 9.31161C143.779 -6.58119 116.898 1.97143 119.082 19.6228C119.706 23.6618 121.387 27.464 123.954 30.644ZM130.617 43.6532C130.617 43.8279 130.42 43.8061 129.524 43.6532C127.692 43.4229 125.919 42.8564 124.292 41.982C123.528 41.5669 123.32 41.4795 123.397 41.2938C123.473 41.1081 123.637 41.1737 124.817 41.5014C124.926 41.5014 128.312 42.5936 129.284 42.9323C130.54 43.5002 130.617 43.5002 130.617 43.6532ZM130.42 25.8816C131.587 25.9421 132.749 25.7014 133.795 25.1826C134.768 25.6537 135.82 25.939 136.897 26.0236C135.062 29.4425 131.338 36.4113 130.136 40.1251L125.505 38.8471C126.597 36.1601 129.011 29.8685 130.398 25.8816H130.42ZM130.038 24.975C129.222 24.8518 128.47 24.4646 127.896 23.8727C127.322 23.2808 126.958 22.5169 126.859 21.6982C126.553 19.5136 127.952 17.0669 130.06 17.6458C131.381 18.0062 131.545 19.0548 131.316 20.3765C131.119 21.3377 130.409 23.7517 130.016 24.9313L130.038 24.975ZM133.009 22.3535C133.125 21.6388 133.394 20.9573 133.795 20.3546C133.986 20.0262 134.266 19.7578 134.602 19.5802C134.938 19.4026 135.317 19.3227 135.696 19.3497C136.504 19.59 136.854 21.1193 136.187 22.0805C135.547 22.9303 134.75 23.6495 133.839 24.1995C133.526 24.0156 133.276 23.7401 133.124 23.4101C132.971 23.0801 132.924 22.7114 132.987 22.3535H133.009ZM122.971 8.47055C127.864 2.58311 137.072 0.245617 143.724 2.6705C147.338 3.91094 150.377 6.42258 152.277 9.7376C154.16 13.0511 154.966 16.8686 154.582 20.6605C154.079 24.0575 150.212 31.1137 146.815 32.6757C143.709 34.0924 140.321 34.7799 136.908 34.6855C136.537 34.6855 136.144 34.6855 136.002 34.9476C135.357 36.2584 134.178 38.7925 133.02 41.1737C132.22 40.7876 131.391 40.4662 130.54 40.2125C131.807 36.5861 135.805 29.4643 137.706 26.0127C139.352 26.1538 141.008 25.8679 142.512 25.1826C142.918 24.9687 143.255 24.6433 143.483 24.2447C143.711 23.846 143.82 23.3906 143.799 22.9319C143.777 22.4732 143.625 22.0303 143.36 21.655C143.095 21.2798 142.729 20.9878 142.304 20.8134C140.611 19.9833 139.093 21.9712 138.208 23.6424C137.968 24.0794 137.695 24.5927 137.389 25.1716C136.505 25.1136 135.634 24.9335 134.8 24.6364C135.631 24.0526 136.368 23.3454 136.985 22.5392C137.331 22.017 137.506 21.4003 137.486 20.7742C137.467 20.1481 137.253 19.5435 136.876 19.0439C136.579 18.6993 136.167 18.4748 135.716 18.4124C135.266 18.3501 134.808 18.4542 134.429 18.7053C133.664 19.1753 133.051 19.8562 132.663 20.6661C132.276 21.476 132.13 22.3805 132.244 23.2711C132.363 23.7738 132.634 24.2276 133.02 24.5709C132.303 24.8676 131.534 25.0162 130.759 25.0078C131.196 23.7189 131.906 21.3923 132.091 20.442C132.208 19.9003 132.234 19.3429 132.168 18.7927C132.083 18.3203 131.864 17.8824 131.537 17.5317C131.209 17.181 130.787 16.9323 130.322 16.8156C127.668 16.062 125.712 19.0002 126.095 21.7419C126.203 22.7244 126.624 23.6459 127.297 24.3699C127.97 25.094 128.858 25.5819 129.83 25.7615C128.432 29.6937 126.248 36.0399 125.155 38.7488L122.752 38.1262C124.292 30.3928 124.478 30.5785 124.26 30.4802C121.778 27.3158 120.19 23.5439 119.661 19.5573C119.404 17.5805 119.565 15.5717 120.135 13.6615C120.706 11.7514 121.672 9.98268 122.971 8.47055ZM138.132 25.2372C138.896 23.85 140.425 20.8134 141.911 21.5562C142.208 21.6759 142.467 21.8745 142.659 22.1305C142.852 22.3865 142.971 22.6902 143.003 23.0089C142.981 24.9313 139.989 25.2699 138.088 25.2372H138.132ZM179.944 30.0542C181.261 29.2801 182.815 29.0158 184.314 29.3114C185.959 29.3409 187.531 29.9989 188.707 31.1505C189.883 32.3021 190.574 33.86 190.638 35.5047C189.648 34.9305 188.491 34.7145 187.361 34.893C184.619 35.1333 181.037 36.6188 181.517 39.2622C181.911 41.4467 184.794 41.1518 186.979 40.562C189.163 39.9722 190.9 38.9017 191.348 36.7936C194.002 38.7269 194.625 42.113 194.734 45.4227C194.734 45.469 194.752 45.5135 194.785 45.5463C194.818 45.579 194.862 45.5974 194.909 45.5974C194.955 45.5974 195 45.579 195.032 45.5463C195.065 45.5135 195.084 45.469 195.084 45.4227C195.16 41.7198 194.494 38.0934 191.468 35.9853C191.499 35.037 191.338 34.0922 190.993 33.2081C190.648 32.324 190.128 31.5191 189.463 30.8421C188.798 30.165 188.003 29.63 187.125 29.2692C186.248 28.9085 185.306 28.7296 184.357 28.7434C182.841 28.522 181.295 28.8389 179.988 29.6391C179.584 29.8357 179.77 30.1306 179.944 30.0542ZM189.906 37.8859C188.672 39.5025 185.177 40.3435 183.56 40.0705C182.959 39.9722 182.468 39.7209 182.337 39.0983C181.943 36.9137 185.712 35.7232 187.962 35.6467C188.878 35.5765 189.792 35.8107 190.562 36.313C190.479 36.8841 190.253 37.4251 189.906 37.8859ZM174.942 17.2853C176.111 15.8435 175.324 13.3312 172.058 13.3203C170.791 13.3203 170.179 14.6092 170.267 15.8435C170.463 18.7818 173.773 18.6944 174.942 17.2853ZM171.031 15.7889C171.031 15.068 171.37 14.1286 172.124 14.1395C173.882 14.1395 174.691 14.9587 174.691 15.8653C174.647 17.9298 170.889 19.0002 171.031 15.7889ZM170.584 139.622C160.982 135.788 156.526 154.346 148.683 170.293C148.634 170.963 148.656 171.637 148.749 172.303C148.749 173.974 148.934 185.039 149.907 186.295C150.169 186.798 151.272 186.295 151.785 185.978C156.145 183.279 160.254 180.194 164.063 176.759C164.095 176.722 164.12 176.679 164.135 176.632C164.15 176.585 164.155 176.535 164.15 176.486C166.182 173.592 173.795 158.518 175.641 150.96C176.93 145.607 175.652 141.621 170.584 139.622ZM174.013 153.494C168.873 152.835 163.904 151.212 159.366 148.709C161.922 143.871 165.078 138.355 170.289 140.43C176.089 142.735 175.969 147.508 174.013 153.461V153.494ZM155.838 181.893C155.502 181.612 155.136 181.37 154.745 181.172C153.269 180.422 151.564 180.258 149.972 180.714C149.863 179.414 149.24 170.959 149.24 170.883C157.421 173.876 154.898 172.576 163.003 176.607C162.151 177.415 158.951 179.654 155.838 181.871V181.893ZM161.474 150.282C162.539 150.864 163.633 151.393 164.751 151.866C162.247 155.799 160.035 159.91 158.131 164.165C156.296 167.999 156.362 167.977 154.494 172.161C153.402 171.811 152.31 171.484 151.217 171.156C152.397 168.808 160.786 151.637 161.474 150.261V150.282ZM154.92 172.27C158.47 165.902 162.086 157.983 165.188 152.008C166.28 152.467 167.372 152.838 168.464 153.166C167.886 154.258 166.193 157.164 165.745 158.005C165.297 158.846 160.808 167.693 160.491 168.371C159.988 169.463 158.612 172.51 158.186 173.483C157.072 172.991 156.001 172.62 154.876 172.248L154.92 172.27ZM158.579 173.625C159.246 172.412 161.987 167.322 162.326 166.667C162.839 165.651 168.563 153.952 168.88 153.275C169.884 153.559 170.944 153.8 171.621 153.931C169.622 159.392 163.866 169.911 161.791 175.099C159.901 174.214 159.475 173.996 158.536 173.603L158.579 173.625ZM159.246 149.026L161.201 150.119C157.261 156.829 153.829 163.824 150.933 171.047L149.295 170.544C155.641 157.022 155.936 155.252 159.202 149.004L159.246 149.026ZM163.746 176.049L162.096 175.263C163.877 171.768 169.448 162.8 171.993 154.007C172.604 154.116 173.205 154.215 173.784 154.291C170.977 161.781 167.607 169.047 163.702 176.028L163.746 176.049ZM129.524 183.138C129.96 182.778 130.271 182.29 130.414 181.743C130.557 181.196 130.525 180.618 130.322 180.091C130.229 179.33 129.88 178.623 129.332 178.087C128.784 177.55 128.07 177.217 127.307 177.14C126.544 177.064 125.778 177.25 125.135 177.667C124.492 178.084 124.01 178.708 123.768 179.436C122.37 178.529 120.852 177.568 119.399 176.65C120.491 175.197 123.703 175.842 124.03 177.033C124.037 177.079 124.063 177.12 124.101 177.148C124.139 177.176 124.186 177.187 124.232 177.18C124.279 177.173 124.32 177.147 124.348 177.109C124.376 177.072 124.387 177.024 124.38 176.978C124.216 175.077 120.262 173.963 118.667 176.202C117.258 175.339 115.51 174.291 114.047 173.493C115.303 172.401 118.11 173.013 118.416 174.149C118.43 174.188 118.458 174.22 118.494 174.241C118.53 174.261 118.572 174.268 118.613 174.26C118.654 174.252 118.69 174.23 118.716 174.198C118.742 174.165 118.756 174.125 118.754 174.083C118.612 172.314 114.953 171.123 113.293 173.068C112.597 172.678 111.866 172.356 111.108 172.106C110.97 172.049 110.818 172.033 110.671 172.06C110.523 172.087 110.387 172.156 110.278 172.259C107.515 175.7 98.1976 184.635 93.894 185.673C93.7858 185.689 93.6838 185.733 93.5983 185.802C93.5128 185.87 93.4467 185.959 93.4069 186.061C93.367 186.163 93.3547 186.274 93.3712 186.382C93.3876 186.49 93.4323 186.592 93.5007 186.677C94.4458 187.637 95.528 188.45 96.7121 189.091C95.6198 190.184 94.7678 191.167 94.1343 191.877C93.8066 192.226 93.6318 198.911 93.9158 200.386C93.9581 200.53 94.0512 200.654 94.178 200.735C95.5542 201.675 113.282 209.342 115.095 208.316C116.308 207.628 130.781 192.565 131.01 192.106C131.359 191.385 131.239 186.579 131.217 184.657C131.13 184.078 130.049 183.455 129.524 183.138ZM94.5712 197.568V195.132C99.1042 197.316 109.481 201.773 113.413 203.018C114.418 203.346 114.505 203.302 115.03 203.018C118.034 201.096 128.64 189.146 130.584 187.322V189.627C124.686 195.536 114.669 205.891 114.484 205.301C113.402 205.235 95.5106 198.004 94.5712 197.568ZM129.251 179.457C129.644 180.119 129.855 180.873 129.863 181.642C129.859 181.887 129.799 182.127 129.687 182.345C129.576 182.563 129.415 182.752 129.219 182.898C128.301 182.286 126.564 181.15 124.511 179.818C125.636 177.601 128.137 177.568 129.208 179.457H129.251ZM94.2981 186.448C98.9513 185.072 107.788 176.552 110.759 172.86C111.474 173.059 112.163 173.341 112.812 173.701C111.72 175.733 112.889 177.961 113.304 177.644C113.533 177.469 113.118 177.404 113.053 176.333C113.025 175.551 113.202 174.776 113.566 174.083C115.073 174.87 116.843 175.897 118.339 176.759C117.422 178.802 118.525 180.823 118.907 180.528C119.29 180.233 118.733 180.298 118.667 179.228C118.64 178.526 118.775 177.827 119.06 177.185C120.6 178.092 122.173 179.031 123.615 179.916C123.393 180.46 123.305 181.05 123.358 181.636C123.411 182.221 123.604 182.785 123.921 183.28C123.935 183.299 123.953 183.315 123.974 183.326C123.994 183.338 124.016 183.346 124.04 183.349C124.063 183.352 124.087 183.35 124.11 183.344C124.132 183.338 124.154 183.328 124.172 183.313C124.191 183.299 124.206 183.281 124.218 183.261C124.23 183.24 124.238 183.218 124.241 183.194C124.244 183.171 124.242 183.147 124.236 183.125C124.23 183.102 124.219 183.081 124.205 183.062C124.009 182.628 123.912 182.156 123.921 181.68C123.931 181.203 124.046 180.735 124.26 180.309C126.805 181.86 128.858 183.16 129.492 183.586C129.371 183.695 117.979 193.832 114.101 196.847C111.556 196.18 98.1976 189.55 94.2981 186.448ZM94.7132 192.532C99.6612 194.717 110.901 199.785 113.49 200.276C113.937 200.364 114.112 200.397 114.964 199.719C118.602 196.803 130.431 184.427 130.54 184.558C130.546 184.591 130.546 184.624 130.54 184.657V186.841C128.104 188.796 114.56 203.018 114.342 202.341C113.249 202.341 95.4996 195.099 94.593 194.695C94.5712 194.236 94.6695 193.013 94.7132 192.532ZM114.604 207.584C113.511 208.206 96.8759 201.445 94.6476 200.069C94.564 199.373 94.5238 198.673 94.5275 197.972C99.3117 200.331 113.227 206.208 114.505 206.153C116.373 206.055 129.579 191.189 130.518 190.151C130.529 190.709 130.474 191.266 130.355 191.811C130.169 192.172 115.325 207.18 114.604 207.584ZM24.1076 146.012C24.1841 147.18 24.2387 148.196 24.2387 149.146C24.2387 149.291 24.2963 149.43 24.3987 149.533C24.5011 149.635 24.64 149.693 24.7849 149.693C24.9297 149.693 25.0686 149.635 25.171 149.533C25.2735 149.43 25.331 149.291 25.331 149.146C25.331 148.131 25.2764 147.126 25.1999 145.935C25.1898 145.79 25.1225 145.655 25.0129 145.56C24.9033 145.465 24.7604 145.417 24.6156 145.427C24.4707 145.437 24.3358 145.505 24.2406 145.614C24.1453 145.724 24.0975 145.867 24.1076 146.012ZM190.54 124.111C190.468 124.115 190.399 124.134 190.334 124.165C190.27 124.197 190.213 124.241 190.166 124.295C190.12 124.349 190.084 124.411 190.062 124.479C190.04 124.547 190.031 124.619 190.037 124.69C190.103 125.695 190.168 126.776 190.168 127.825C190.168 127.97 190.226 128.109 190.328 128.211C190.431 128.314 190.57 128.371 190.714 128.371C190.859 128.371 190.998 128.314 191.101 128.211C191.203 128.109 191.261 127.97 191.261 127.825C191.261 126.733 191.195 125.64 191.119 124.614C191.114 124.542 191.096 124.473 191.065 124.408C191.033 124.344 190.989 124.287 190.935 124.24C190.881 124.193 190.818 124.158 190.75 124.136C190.683 124.114 190.611 124.105 190.54 124.111ZM21.2786 143.292C21.4235 143.292 21.5624 143.234 21.6648 143.132C21.7672 143.029 21.8248 142.89 21.8248 142.746C21.8248 142.601 21.7672 142.462 21.6648 142.359C21.5624 142.257 21.4235 142.199 21.2786 142.199C19.9569 142.199 18.8537 142.298 17.7614 142.276C17.6156 142.276 17.4755 142.333 17.3714 142.435C17.2672 142.537 17.2072 142.676 17.2044 142.822C17.2044 142.967 17.2619 143.106 17.3643 143.208C17.4668 143.311 17.6057 143.368 17.7505 143.368C18.8756 143.39 20.1099 143.346 21.2786 143.292ZM187.154 120.878C185.843 120.878 184.74 120.954 183.636 120.965C183.492 120.965 183.353 121.023 183.25 121.125C183.148 121.228 183.09 121.367 183.09 121.511C183.09 121.656 183.148 121.795 183.25 121.898C183.353 122 183.492 122.058 183.636 122.058C184.816 122.058 186.039 122.058 187.219 121.97C187.364 121.962 187.499 121.896 187.596 121.787C187.692 121.679 187.741 121.536 187.732 121.391C187.724 121.246 187.658 121.111 187.549 121.015C187.441 120.918 187.298 120.869 187.154 120.878ZM23.8127 136.541C23.8783 137.546 23.9438 138.628 23.9438 139.676C23.9466 139.82 24.005 139.958 24.1069 140.059C24.2087 140.161 24.346 140.22 24.4899 140.222C24.6348 140.222 24.7737 140.165 24.8761 140.062C24.9785 139.96 25.0361 139.821 25.0361 139.676C25.0361 138.584 24.9705 137.492 24.905 136.465C24.8949 136.32 24.8276 136.185 24.718 136.09C24.6084 135.995 24.4655 135.947 24.3206 135.957C24.1758 135.967 24.0409 136.034 23.9457 136.144C23.8504 136.254 23.8026 136.397 23.8127 136.541ZM190.966 118.355C190.966 117.262 190.9 116.17 190.824 115.143C190.814 114.999 190.746 114.864 190.637 114.768C190.527 114.673 190.384 114.625 190.239 114.636C190.094 114.646 189.96 114.713 189.864 114.823C189.769 114.932 189.721 115.075 189.731 115.22C189.797 116.225 189.862 117.306 189.862 118.355C189.862 118.5 189.92 118.639 190.022 118.741C190.125 118.843 190.264 118.901 190.409 118.901C190.554 118.901 190.695 118.844 190.799 118.742C190.903 118.64 190.963 118.501 190.966 118.355ZM31.8738 143.15C31.9456 143.147 32.016 143.13 32.0812 143.1C32.1464 143.07 32.205 143.027 32.2537 142.974C32.3024 142.922 32.3402 142.86 32.365 142.792C32.3898 142.725 32.401 142.653 32.3981 142.582C32.3871 142.439 32.3224 142.305 32.2171 142.208C32.1117 142.111 31.9735 142.057 31.8301 142.057C30.5085 142.112 29.4052 142.156 28.302 142.134C28.1572 142.134 28.0183 142.191 27.9158 142.294C27.8134 142.396 27.7559 142.535 27.7559 142.68C27.7559 142.825 27.8134 142.964 27.9158 143.066C28.0183 143.169 28.1572 143.226 28.302 143.226C29.4708 143.248 30.6941 143.204 31.8738 143.15ZM197.749 120.736C196.656 120.791 195.444 120.823 194.232 120.823C194.159 120.82 194.088 120.832 194.02 120.858C193.953 120.883 193.891 120.922 193.839 120.972C193.787 121.022 193.745 121.082 193.717 121.149C193.689 121.215 193.674 121.286 193.675 121.359C193.674 121.504 193.732 121.645 193.834 121.749C193.936 121.853 194.075 121.913 194.221 121.916C195.466 121.916 196.471 121.916 197.792 121.828C197.864 121.825 197.935 121.809 198 121.778C198.065 121.748 198.124 121.706 198.172 121.653C198.221 121.6 198.259 121.538 198.284 121.471C198.308 121.404 198.32 121.332 198.317 121.26C198.303 121.118 198.238 120.986 198.133 120.889C198.028 120.793 197.891 120.738 197.749 120.736ZM6.77302 110.785C6.91502 110.894 37.7176 106.329 39.0392 105.52C39.1124 105.467 39.1709 105.396 39.2091 105.314C39.2473 105.232 39.264 105.141 39.2577 105.051C39.2577 103.642 37.4117 90.414 36.527 87.1153C36.4177 86.7112 36.3085 86.307 36.0573 86.165C34.3861 85.1601 4.93798 90.709 3.17939 91.8449C3.13173 91.8731 3.09055 91.911 3.05856 91.9562C3.02656 92.0014 3.00446 92.0528 2.9937 92.1071C2.62232 93.4288 5.82273 110.13 6.77302 110.785ZM3.66 92.3692C5.75719 91.4189 32.4855 86.5255 35.5439 86.9078C36.2867 88.8193 38.2746 102.822 38.4057 104.876C36.8874 105.324 7.18809 110.425 7.07886 110.447C6.96963 110.468 6.95871 110.6 6.72933 109.911C5.76812 107.028 3.60539 94.8378 3.66 92.3692Z" fill="#00164F"/>
<path d="M41.4424 106.492C41.5018 106.381 41.5284 106.256 41.5189 106.131C41.5189 104.395 39.0285 85.1157 38.1437 83.5756C38.0743 83.462 37.9762 83.3688 37.8591 83.3055C37.7421 83.2422 37.6104 83.211 37.4774 83.2151C33.8182 82.7673 2.95016 88.7967 0.918504 90.2058C0.634509 90.4024 0.6782 90.8939 0.710968 91.4182C0.885735 94.2909 3.98783 113.188 5.08012 113.078C5.20027 113.078 5.15658 112.991 4.87259 113.57C3.16862 117.076 -0.064556 128.305 0.000981334 130.566C0.000981334 131.516 0.219438 132.75 1.15881 132.685C7.89823 131.855 40.94 126.612 50.4429 124.657C50.8142 124.58 51.0546 124.241 51.0436 123.684C50.9315 122.756 50.6501 121.857 50.2135 121.03C48.8809 118.529 43.3539 108.622 41.4424 106.492ZM5.14566 112.74C4.29368 111.647 1.15881 92.8272 1.39911 90.741C3.80215 89.4958 34.2552 83.6083 37.4446 84.0889C38.3185 86.492 40.5795 103.848 40.7215 105.935C36.8548 107.267 10.0828 111.593 5.14566 112.74ZM5.62627 113.067C6.54379 112.838 37.7942 107.606 40.656 106.852C42.2179 108.305 49.2741 120.855 49.7329 121.926C43.4631 123.018 6.27072 129.233 0.798352 130.063C0.874812 126.754 4.27183 115.186 5.62627 113.067Z" fill="#00164F"/>
<path d="M9.73304 124.395C10.6833 124.253 30.847 121.828 38.1325 119.851C38.1774 119.839 38.2159 119.81 38.2395 119.77C38.263 119.73 38.2697 119.683 38.2582 119.638C38.2466 119.593 38.2176 119.555 38.1777 119.531C38.1377 119.507 38.0901 119.501 38.0452 119.512C36.6143 119.807 19.1595 122.134 9.71119 124.056C9.68509 124.051 9.65826 124.053 9.63274 124.06C9.60722 124.067 9.58367 124.08 9.56388 124.098C9.5441 124.115 9.52859 124.137 9.51853 124.162C9.50848 124.186 9.50414 124.213 9.50585 124.239C9.50755 124.266 9.51526 124.292 9.52839 124.315C9.54151 124.338 9.55971 124.357 9.5816 124.372C9.6035 124.387 9.62851 124.397 9.65474 124.401C9.68098 124.405 9.70776 124.403 9.73304 124.395ZM24.468 48.3934C24.06 49.3149 23.7169 50.2639 23.4413 51.2333C23.425 51.3889 23.4679 51.5448 23.5614 51.6702C24.6646 53.3305 35.9698 66.0775 38.919 67.8689C39.3231 68.1201 39.8037 68.2949 40.0987 67.9344C42.241 65.2686 45.0369 63.2027 48.2144 61.9377C50.8005 61.0228 53.5119 60.5107 56.2536 60.4195C58.4382 60.2228 58.8205 60.0044 59.6615 58.5735C60.6537 56.6904 61.97 54.9969 63.5501 53.5708C65.5648 51.8092 67.8011 50.3183 70.2021 49.1361C70.3102 49.0749 70.3947 48.9792 70.4422 48.8645C70.4897 48.7497 70.4975 48.6223 70.4643 48.5026C70.095 47.563 69.6068 46.6746 69.0115 45.8592C69.4048 45.7282 69.8417 45.608 69.8417 45.2148C69.8417 44.1225 60.3169 30.3378 57.6736 27.7382C57.4005 27.4651 57.0073 27.1046 56.6468 27.1265C51.1854 27.4323 45.8659 32.5879 42.7857 37.0882C39.2576 36.9571 36.9747 36.6403 32.9551 38.3334C30.1174 39.5379 27.559 41.3154 25.4401 43.5545C25.1125 43.8931 22.8842 46.2525 22.8514 46.4382C22.8187 46.6238 22.8842 46.6238 24.468 48.3934ZM68.1596 48.0875C63.6047 48.863 60.6992 52.6533 58.5583 56.7712C57.608 58.6063 57.6954 58.6936 56.6905 58.6718C54.9333 58.5723 53.1706 58.6381 51.4257 58.8684C50.1459 59.0597 48.8875 59.3743 47.6682 59.8078C44.8938 60.7908 41.7152 63.9366 40.0222 66.2741C39.9862 66.3222 39.9405 66.3621 39.888 66.3913C39.8355 66.4205 39.7775 66.4382 39.7177 66.4434C39.6579 66.4485 39.5976 66.441 39.5409 66.4212C39.4842 66.4015 39.4323 66.3699 39.3887 66.3287C35.8387 62.6696 29.5581 56.2469 26.4014 52.555C26.2484 52.3911 26.5106 52.1508 26.6635 52.3256C28.7061 54.5102 33.9818 59.7422 39.6399 65.4331C41.5514 62.9973 44.5006 60.0481 47.417 59.0213C49.0073 58.454 50.6621 58.0871 52.3432 57.929C53.9175 57.8095 55.4986 57.8095 57.0728 57.929C57.7173 57.1863 60.9068 48.7538 68.1377 47.8144C68.1589 47.83 68.1763 47.8501 68.1886 47.8733C68.2009 47.8964 68.2079 47.9221 68.2089 47.9483C68.21 47.9746 68.2051 48.0007 68.1947 48.0248C68.1842 48.0489 68.1685 48.0703 68.1486 48.0875H68.1596ZM56.6359 28.0112C58.8205 29.5404 67.7117 42.7025 68.8695 45.0073C66.8605 45.6438 64.9209 46.4819 63.0804 47.5086C61.3375 48.3823 59.8115 49.6338 58.6135 51.1719C57.4155 52.7101 56.5757 54.4961 56.1553 56.3998C52.234 50.0209 46.7616 42.9974 43.1243 37.8309C43.3428 37.6889 49.4814 28.4372 56.6359 28.0112ZM33.1954 38.9341C37.1823 37.3285 39.3887 37.6998 42.6874 37.8418C45.9642 43.4344 51.8517 51.3207 55.7293 56.4872C52.1504 55.6403 48.3843 56.1583 45.1669 57.94C43.2335 59.0322 40.8742 61.6537 39.4214 63.2812C37.3242 61.5991 25.2217 48.7101 23.2774 46.5255C26.2703 43.1394 29.0338 40.5944 33.1954 38.8904V38.9341ZM13.2065 66.711C12.9365 66.5216 12.6174 66.4145 12.2878 66.4029C11.9582 66.3913 11.6323 66.4755 11.3496 66.6455C11.1438 66.7373 10.958 66.8687 10.803 67.0323C10.648 67.1959 10.5267 67.3884 10.446 67.5989C10.3654 67.8094 10.327 68.0336 10.333 68.2589C10.3391 68.4842 10.3895 68.7062 10.4813 68.912C10.5731 69.1178 10.7045 69.3036 10.8681 69.4586C11.0317 69.6137 11.2242 69.735 11.4347 69.8156C11.6451 69.8962 11.8694 69.9346 12.0947 69.9286C12.32 69.9225 12.5419 69.8722 12.7478 69.7804C13.0766 69.7085 13.3758 69.5383 13.6057 69.2925C13.8356 69.0466 13.9854 68.7367 14.0351 68.4038C14.0849 68.0709 14.0323 67.7308 13.8843 67.4285C13.7363 67.1261 13.4999 66.8759 13.2065 66.711ZM12.4856 68.8956C11.721 69.1359 11.2622 68.8956 11.0766 68.5242C10.727 67.7487 11.1639 66.5581 12.2999 66.9076C13.0973 67.2026 13.7417 68.5461 12.4856 68.9502V68.8956ZM68.7494 16.7279C69.0662 17.3724 70.5407 17.132 71.1852 16.9245C71.5238 16.8153 71.7423 16.6951 71.775 16.3674C71.8733 15.5482 71.9826 8.44835 71.6112 7.76021C71.5728 7.68805 71.514 7.62883 71.4421 7.58997C71.3702 7.55111 71.2884 7.53433 71.207 7.54175C70.0416 7.53852 68.8821 7.70784 67.7663 8.04421C67.3185 8.31728 68.3562 16.007 68.7494 16.7279ZM67.9957 8.30636C69.0047 8.16201 70.0252 8.11446 71.0432 8.16436C71.1087 8.97265 70.934 15.9742 70.923 16.0835C70.4616 16.2488 69.9688 16.3085 69.4812 16.2582C69.4048 16.007 69.2737 15.3298 69.1098 14.4778C68.6285 12.442 68.2566 10.3819 67.9957 8.30636ZM12.147 57.4921C12.2518 57.5458 12.3679 57.5738 12.4856 57.5738C12.6034 57.5738 12.7194 57.5458 12.8242 57.4921C13.2462 57.2318 13.5809 56.8515 13.7854 56.3998C13.8132 56.3276 13.8218 56.2493 13.8103 56.1727C13.7988 56.0961 13.7677 56.0239 13.7199 55.9629C13.1956 55.3403 7.472 48.7101 6.77293 49.1252C5.91463 49.6808 5.1003 50.3016 4.33713 50.9821C4.30637 51.0096 4.28173 51.0432 4.2648 51.0809C4.24786 51.1185 4.23902 51.1593 4.23883 51.2005C4.21698 51.7685 10.5741 56.8586 12.147 57.4921ZM6.90401 49.4092C7.70138 49.9881 10.3884 53.3087 12.8788 56.2469C12.7717 56.4156 12.639 56.5667 12.4856 56.6947C9.86724 55.0189 7.36728 53.1649 5.00343 51.1459C5.59601 50.5237 6.23106 49.9434 6.90401 49.4092ZM24.0639 25.3133C24.3042 21.0752 26.7727 19.1091 29.3505 18.6066C28.6187 21.2937 28.7389 24.789 31.3931 25.2368C32.6602 25.4444 33.2828 24.789 34.2003 24.0244C38.1216 20.7475 34.954 17.4707 30.5302 17.7C32.1796 13.178 35.9917 9.49695 41.049 9.3768C41.0953 9.3768 41.1398 9.35839 41.1725 9.32561C41.2053 9.29283 41.2237 9.24838 41.2237 9.20203C41.2237 9.15568 41.2053 9.11123 41.1725 9.07845C41.1398 9.04568 41.0953 9.02727 41.049 9.02727C35.5875 8.91804 31.2948 12.8503 29.6018 17.7656C26.6854 18.268 23.7908 20.4526 23.7143 25.2478C23.71 25.2707 23.7103 25.2943 23.7151 25.3171C23.7199 25.34 23.7292 25.3617 23.7423 25.3809C23.7555 25.4002 23.7724 25.4167 23.7919 25.4294C23.8115 25.4422 23.8334 25.451 23.8563 25.4553C23.8793 25.4596 23.9029 25.4593 23.9257 25.4545C23.9486 25.4497 23.9702 25.4405 23.9895 25.4273C24.0088 25.4141 24.0253 25.3972 24.038 25.3777C24.0508 25.3581 24.0596 25.3362 24.0639 25.3133ZM30.279 18.4756C31.9065 18.3663 34.3314 18.8688 34.9977 20.3434C35.38 21.1844 34.9977 22.2221 33.6432 23.3581C33.2755 23.7265 32.856 24.0393 32.398 24.2865C30.7596 24.9856 28.9464 22.9649 30.279 18.4756ZM33.4029 172.958C32.3476 172.675 31.2465 172.607 30.1642 172.756C29.0819 172.905 28.0405 173.269 27.1011 173.827C26.1616 174.385 25.3433 175.125 24.6941 176.003C24.045 176.882 23.5782 177.882 23.3211 178.944C22.8359 181.15 23.2468 183.458 24.4636 185.361C25.6804 187.264 27.6033 188.606 29.8093 189.091C32.0153 189.576 34.3237 189.165 36.2267 187.949C38.1297 186.732 39.4714 184.809 39.9567 182.603C40.1639 181.539 40.1586 180.444 39.9409 179.382C39.7231 178.321 39.2974 177.312 38.6882 176.416C38.0789 175.519 37.2983 174.752 36.3912 174.159C35.4841 173.565 34.4685 173.157 33.4029 172.958ZM36.7781 181.86C36.3398 183.608 35.2906 185.142 33.8202 186.183C32.3497 187.225 30.5551 187.706 28.7607 187.54C27.1135 186.896 25.7461 185.693 24.899 184.14C24.0519 182.588 23.7794 180.786 24.1294 179.053C24.5381 177.263 25.5776 175.679 27.0577 174.592C28.5379 173.505 30.3598 172.987 32.1905 173.133C33.8539 173.82 35.2216 175.072 36.0528 176.668C36.884 178.265 37.1253 180.103 36.7344 181.86H36.7781Z" fill="#00164F"/>
<path d="M47.9527 176.071C47.0018 175.743 45.9826 175.664 44.9925 175.842C44.5822 174.901 44.0771 174.004 43.4852 173.165C44.1952 172.521 46.1395 170.73 45.6698 169.889C43.9982 167.889 42.0136 166.174 39.7933 164.809C38.8661 164.29 37.8451 163.96 36.7895 163.837C36.0904 163.936 34.4301 166.655 34.0587 167.267C33.8184 167.267 32.9665 166.994 32.9009 166.961C32.9009 166.175 32.6715 163.335 31.9615 163.007C31.1676 162.715 30.3431 162.513 29.5039 162.406C28.7284 162.286 21.7487 163.564 21.2353 164.504C20.8967 165.137 21.6831 167.529 21.9125 168.195C21.3234 168.52 20.7577 168.885 20.2194 169.288C19.1272 170.063 19.4221 170.031 19.2255 169.943C18.9878 169.83 18.7332 169.756 18.4718 169.725C17.5992 169.213 16.5762 169.02 15.5772 169.179C14.5723 169.506 12.202 174.902 11.8197 176.289C11.6946 176.639 11.6608 177.015 11.7214 177.382C11.9836 178.103 13.7313 178.681 14.4631 178.911C14.261 180.316 14.261 181.743 14.4631 183.149C13.5019 183.411 11.503 184.001 11.6122 184.984C11.7214 185.967 14.2774 192.455 15.3369 192.969C15.9173 193.293 16.5592 193.493 17.2213 193.555C17.8834 193.617 18.5511 193.54 19.1818 193.329C19.5369 193.152 19.8799 192.951 20.2085 192.728C20.6454 193.056 21.1042 193.351 21.5739 193.635C21.2353 194.476 20.4816 196.355 20.7219 197.207C20.8421 197.655 21.2025 197.797 21.705 197.982C23.0922 198.485 30.5634 200.276 31.6994 200.079C32.1254 200.014 32.3548 199.566 32.4858 199.14C32.7285 198.17 32.8713 197.179 32.9118 196.18C33.4728 196.125 34.0306 196.041 34.583 195.929C34.9204 196.522 35.352 197.057 35.861 197.513C36.4181 197.906 36.8878 197.709 37.5213 197.305C37.8271 197.698 38.2859 198.244 38.7774 198.299C40.0117 198.441 45.1127 193.635 45.637 192.652C46.0739 191.833 44.4792 190.369 43.7692 189.725C44.5372 188.569 45.1402 187.311 45.5605 185.989C46.3484 186.108 47.1456 186.152 47.9417 186.12C48.3022 186.12 48.7173 185.989 48.8702 185.65C49.5365 184.132 49.3399 178.376 48.8702 176.912C48.8046 176.486 48.3131 176.202 47.9527 176.071ZM48.2148 177.076C48.5862 178.496 48.7063 183.859 48.1602 185.246C47.2158 185.339 46.2629 185.295 45.3312 185.115C45.2317 185.098 45.1294 185.119 45.0445 185.173C44.9596 185.228 44.8982 185.312 44.8724 185.41C44.4374 186.887 43.7621 188.282 42.8735 189.539C42.8102 189.622 42.7817 189.727 42.7939 189.831C42.8061 189.934 42.8582 190.03 42.939 190.096C43.7054 190.703 44.3566 191.443 44.8615 192.28C44.3153 193.176 40.0445 197.087 38.8648 197.414C38.69 197.414 38.2094 196.759 38.0893 196.584C37.6858 195.978 37.321 195.347 36.997 194.694C36.9497 194.599 36.8686 194.525 36.7696 194.487C36.6706 194.449 36.5608 194.449 36.4618 194.487C33.2941 195.677 32.0926 194.978 32.0926 195.765C32.094 196.942 31.9022 198.112 31.5246 199.227C28.9577 198.948 26.4298 198.384 23.9878 197.545C24.1058 196.379 24.4313 195.244 24.9491 194.192C25.2767 193.46 23.966 193.668 21.5193 191.177C21.4405 191.104 21.3371 191.064 21.2298 191.064C21.1225 191.064 21.0191 191.104 20.9404 191.177C19.8481 192.073 18.4281 192.947 18.1441 192.805C17.587 192.532 15.0202 186.71 14.8672 185.53C15.6441 184.989 16.5261 184.617 17.456 184.438C17.5551 184.41 17.6408 184.347 17.697 184.26C17.7532 184.174 17.7763 184.07 17.7618 183.968C17.4941 182.421 17.4941 180.84 17.7618 179.293C17.7785 179.198 17.7585 179.1 17.7058 179.019C17.6531 178.938 17.5716 178.88 17.4778 178.856C16.6544 178.64 15.8616 178.321 15.1185 177.906C14.8782 177.731 14.9 177.742 14.9218 177.556C15.6288 175.007 16.7627 172.595 18.2752 170.424C18.865 170.26 20.4597 171.429 21.0059 171.844C21.063 171.899 21.1394 171.93 21.2189 171.93C21.2984 171.93 21.3748 171.899 21.4319 171.844C21.9338 171.323 22.4742 170.841 23.0485 170.402C24.7088 169.146 25.1566 169.31 25.0146 168.873C24.5125 167.777 24.2304 166.593 24.1845 165.388C24.3537 165.248 24.5458 165.137 24.7524 165.061C25.7722 164.657 26.8199 164.329 27.8873 164.078C29.1811 163.717 30.5109 163.501 31.8523 163.433C32.0817 163.531 32.2892 164.525 32.3438 164.831C32.748 167.016 32.4749 167.464 32.7917 167.496C35.9047 167.802 36.5382 168.665 36.7567 168.283C37.3624 167.224 38.0683 166.225 38.8648 165.301C39.0942 165.072 39.0833 164.962 39.7714 165.356C41.8272 166.699 43.6684 168.345 45.2329 170.238C45.3967 170.522 43.9767 172.029 42.939 172.914C42.5786 173.231 43.092 173.373 44.0313 175.164C44.9707 176.956 44.7522 177.458 45.2547 177.349C46.2233 177.117 47.2201 177.025 48.2148 177.076ZM199.814 85.8042C197.524 84.8689 195.123 84.2338 192.67 83.9145C190.879 83.6305 188.77 83.3465 186.99 83.1171C188.705 80.6922 193.784 74.5536 194.636 73.0571C194.876 72.653 194.418 72.085 194.079 71.7464C192.178 69.7147 188.508 68.9501 185.69 68.5132C184.074 68.2511 177.323 67.4209 176.176 67.9671C174.8 68.6225 164.62 83.9145 164.314 86.2411C164.314 86.6343 164.445 86.7872 164.828 86.9292C166.433 87.5191 173.675 88.4366 175.292 88.8189C173.107 92.6419 163.397 105.564 162.446 107.388C162.217 107.847 162.359 108.12 162.632 108.207C163.615 108.597 164.627 108.911 165.658 109.146C166.051 109.267 166.914 108.731 168.17 107.967C173.806 104.581 197.989 88.6113 199.846 86.5469C199.898 86.4985 199.938 86.4396 199.964 86.3742C199.991 86.3088 200.003 86.2385 200 86.168C199.997 86.0976 199.978 86.0286 199.946 85.9658C199.914 85.903 199.869 85.8479 199.814 85.8042ZM176.34 98.9116C167.056 105.039 163.921 106.831 163.812 106.907C165.308 104.624 174.604 91.8882 176.198 88.8407C176.226 88.7819 176.24 88.7175 176.24 88.6525C176.24 88.5874 176.225 88.5232 176.197 88.4646C176.168 88.4059 176.127 88.3544 176.077 88.3136C176.026 88.2729 175.967 88.244 175.903 88.229C174.811 87.8358 166.859 86.9838 164.98 86.3175C165.221 84.2859 175.139 68.9283 176.34 68.3166C177.542 67.7049 189.196 69.0921 191.381 70.6541C190.234 72.8933 183.899 80.7359 182.872 82.5601C182.665 82.9314 182.599 83.2919 183.003 83.3902C183.407 83.4885 193.675 84.69 195.914 85.4219C193.183 87.7047 179.399 96.8581 176.34 98.8679V98.9116ZM106.27 32.1291C106.27 32.2274 106.335 32.3475 106.499 32.9811C106.542 33.1185 106.637 33.2339 106.763 33.3032C106.889 33.3724 107.038 33.3901 107.177 33.3525C107.316 33.3119 107.433 33.2178 107.502 33.0908C107.572 32.9638 107.588 32.8143 107.548 32.6752C107.439 32.2492 107.34 31.8888 107.275 31.714C107.211 31.5941 107.105 31.5021 106.977 31.4561C106.85 31.4101 106.709 31.4134 106.584 31.4652C106.458 31.517 106.357 31.6138 106.299 31.7365C106.241 31.8592 106.23 31.9992 106.27 32.1291Z" fill="#00164F"/>
</svg>
