


<svg width="190" height="137" viewBox="0 0 190 137" fill="none" xmlns="http://www.w3.org/2000/svg">
<path d="M78.1726 32.1559C76.5526 31.9459 62.1726 31.9459 59.5926 32.1559C59.5484 32.1655 59.5095 32.1915 59.4835 32.2285C59.4576 32.2656 59.4466 32.3111 59.4526 32.3559C59.4618 32.3894 59.4795 32.4199 59.5041 32.4444C59.5286 32.469 59.5592 32.4867 59.5926 32.4959C61.9126 32.6959 76.5226 32.7859 78.1226 32.5759C78.3526 32.5559 78.4226 32.1859 78.1726 32.1559ZM145.723 57.1759C145.523 57.1759 142.953 58.0859 143.633 58.4559L144.353 59.0559C144.193 59.4159 145.763 61.0559 144.683 64.9159C144.233 64.6059 144.223 64.9159 144.283 65.0159C145.953 66.7359 157.883 76.2859 160.543 78.0159C160.783 78.3659 162.303 77.6159 162.543 77.5359C167.826 75.2833 172.984 72.7463 177.993 69.9359C179.823 68.9359 179.803 65.3459 177.583 63.9359C175.247 62.383 172.816 60.9802 170.303 59.7359L173.403 57.3059C173.623 57.1359 173.503 56.5059 172.663 57.1859C170.854 54.2631 170.122 50.8007 170.593 47.3959C170.713 47.3259 172.053 46.5259 171.463 46.2659C168.463 45.0159 158.523 41.3659 155.463 41.1759C154.463 41.1059 146.463 47.5059 145.713 48.7959C144.113 51.4659 144.603 54.5159 145.773 57.2059L145.723 57.1759ZM144.923 65.0659C145.923 63.9759 145.613 60.9859 145.133 59.6659C146.503 60.7659 157.513 69.0659 161.013 71.2859C162.903 75.2859 160.793 77.2259 160.863 77.5259C155.003 73.4559 150.233 68.8059 144.923 65.0659ZM177.513 64.6159C179.183 65.4759 178.803 69.0559 177.603 69.4759C172.163 72.3859 166.783 75.0059 161.163 77.4759C161.901 76.48 162.303 75.2755 162.313 74.0359L170.013 70.8759C170.153 70.8059 170.013 70.6159 169.903 70.6459C167.317 71.5101 164.786 72.5286 162.323 73.6959C162.303 72.7239 162.001 71.7787 161.453 70.9759C163.803 70.0459 175.813 63.8159 177.513 64.6159ZM160.843 54.4559C163.785 52.0197 166.863 49.7527 170.063 47.6659C169.829 48.8818 169.785 50.1266 169.933 51.3559C169.443 51.5159 163.383 55.9559 163.073 56.1959C162.943 56.2959 163.073 56.5059 163.233 56.4259L170.003 51.8259C170.213 53.2359 171.063 56.4459 172.373 57.3159C171.043 58.3959 164.463 63.6059 162.863 63.6059C161.663 62.4487 160.833 60.9622 160.477 59.3338C160.121 57.7054 160.255 56.0081 160.863 54.4559H160.843ZM159.533 45.8259C160.233 46.4259 157.333 48.1159 157.223 48.1459C156.893 48.2459 156.673 47.9059 157.383 47.2259C157.743 46.9159 159.063 45.4559 159.533 45.8359V45.8259ZM154.083 47.4959C154.583 46.4959 156.663 44.8359 157.543 44.2359C157.586 44.2057 157.635 44.1843 157.686 44.173C157.738 44.1617 157.791 44.1606 157.843 44.1699C157.895 44.1792 157.945 44.1986 157.99 44.2271C158.034 44.2556 158.072 44.2926 158.103 44.3359C158.133 44.3792 158.154 44.4281 158.166 44.4797C158.177 44.5313 158.178 44.5846 158.169 44.6366C158.159 44.6886 158.14 44.7383 158.111 44.7828C158.083 44.8273 158.046 44.8657 158.003 44.8959C157.223 45.4959 155.103 47.4859 154.513 47.8959C154.468 47.9204 154.418 47.9333 154.368 47.9333C154.317 47.9333 154.267 47.9204 154.223 47.8959C154.188 47.8798 154.156 47.8569 154.13 47.8284C154.104 47.8 154.084 47.7666 154.071 47.7303C154.058 47.694 154.052 47.6554 154.054 47.6169C154.056 47.5784 154.066 47.5406 154.083 47.5059V47.4959ZM146.743 49.2259C151.033 50.39 155.247 51.816 159.363 53.4959C159.623 53.6259 159.533 54.0659 159.223 54.0059C154.935 52.8114 150.724 51.3587 146.613 49.6559C146.567 49.6303 146.531 49.5898 146.512 49.5413C146.492 49.4927 146.49 49.4388 146.505 49.3887C146.52 49.3385 146.552 49.295 146.595 49.2654C146.638 49.2358 146.69 49.2219 146.743 49.2259ZM146.003 57.6559C150.773 60.3459 159.653 63.7659 163.003 64.2659C163.673 64.3659 169.113 60.5459 170.003 59.8959C170.583 60.4659 175.413 63.1959 176.643 63.9559C174.863 64.0459 161.943 70.0659 161.013 70.6559C155.463 66.5059 149.703 62.2959 144.013 58.3459L146.013 57.6559H146.003ZM78.1726 32.1559H78.1826H78.1726ZM94.4126 13.0959C94.3518 13.0709 94.2835 13.0709 94.2226 13.0959C93.6326 13.4559 90.2226 18.0959 89.5326 18.9659C88.8726 18.0659 88.2026 17.1759 87.5326 16.3059C87.4026 16.1459 87.1326 16.3059 87.2326 16.5159C87.9026 17.5859 88.6226 18.6159 89.3526 19.6459C89.4726 19.8059 89.7026 19.7259 89.8026 19.5959C90.4326 18.7959 94.4426 13.9559 94.6126 13.4059C94.62 13.3724 94.6206 13.3378 94.6145 13.304C94.6084 13.2703 94.5957 13.2381 94.5771 13.2093C94.5586 13.1805 94.5345 13.1556 94.5062 13.1362C94.478 13.1167 94.4462 13.103 94.4126 13.0959ZM75.3426 34.0959C69.3426 34.2159 62.6926 34.0959 60.1126 34.3159C60.0596 34.3159 60.0087 34.337 59.9712 34.3745C59.9337 34.412 59.9126 34.4629 59.9126 34.5159C59.9126 34.5689 59.9337 34.6198 59.9712 34.6573C60.0087 34.6948 60.0596 34.7159 60.1126 34.7159C63.2126 34.7159 72.8626 35.0359 75.3426 34.5059C75.5526 34.4559 75.5126 34.1559 75.3426 34.0959ZM75.5626 24.0459C75.7626 24.0459 75.8226 23.7059 75.5626 23.6759C73.5626 23.3759 61.5626 23.9659 58.6526 24.4159C58.5996 24.4159 58.5487 24.437 58.5112 24.4745C58.4737 24.512 58.4526 24.5629 58.4526 24.6159C58.4526 24.6689 58.4737 24.7198 58.5112 24.7573C58.5487 24.7948 58.5996 24.8159 58.6526 24.8159C62.5726 24.8159 71.4826 24.2059 75.5126 24.0659L75.5626 24.0459ZM71.5826 26.0459C71.7526 26.0459 71.8426 25.7059 71.5826 25.6459C70.5826 25.3959 60.5826 25.6459 59.0726 25.8159C59.0489 25.8195 59.026 25.8279 59.0055 25.8405C58.985 25.8531 58.9673 25.8696 58.9533 25.8892C58.9393 25.9088 58.9294 25.931 58.9241 25.9545C58.9189 25.9779 58.9183 26.0022 58.9226 26.0259C58.928 26.0648 58.9454 26.1011 58.9722 26.1297C58.9991 26.1584 59.0342 26.178 59.0726 26.1859C61.0026 26.2959 70.4026 26.3659 71.5826 26.0459ZM92.9026 31.5459C93.4526 30.7459 87.4226 31.0359 87.1626 31.3059C86.9026 31.5759 87.1626 35.6859 87.1626 36.0659C87.1626 36.6559 92.7526 36.6459 92.9726 36.4759C93.2221 34.8487 93.2221 33.1931 92.9726 31.5659L92.9026 31.5459ZM92.4726 36.0259C91.9426 36.0259 88.0126 36.0959 87.6926 35.8459C87.6926 34.4359 87.6026 33.0359 87.5526 31.6359H92.5526C92.3727 33.0924 92.3458 34.5638 92.4726 36.0259Z" fill="#00164F"/>
<path d="M163.402 59.3367C164.802 58.5066 166.232 57.6967 167.582 56.7966C167.772 56.6666 167.582 56.3267 167.362 56.4467L163.252 59.1067C163.229 59.1293 163.214 59.1593 163.211 59.1915C163.207 59.2236 163.215 59.2561 163.233 59.2832C163.25 59.3103 163.277 59.3304 163.308 59.3402C163.339 59.3499 163.372 59.3487 163.402 59.3367ZM153.322 70.3167C153.202 70.2367 153.042 70.4267 153.162 70.5267C154.162 71.3967 159.082 74.8367 160.162 75.5967C160.302 75.6967 160.422 75.4667 160.292 75.3667C158.192 73.7667 155.552 71.6567 153.322 70.3167ZM88.5421 28.0667C89.0621 28.0667 93.1321 28.5367 93.0921 27.8667C93.0521 27.1967 92.9921 23.3467 92.7321 23.2267C92.6621 22.5567 87.5921 23.0467 87.1221 23.1367C86.8321 23.1367 86.9521 27.0367 86.9721 27.5067C87.0021 28.1867 88.0921 28.0467 88.5421 28.0667ZM92.4721 23.4567V27.6667C90.7878 27.4933 89.092 27.4599 87.4021 27.5667C87.4684 26.1964 87.4417 24.8233 87.3221 23.4567C88.1521 23.4567 91.9421 23.5867 92.4721 23.4567ZM159.942 73.6767C159.967 73.6978 159.999 73.7094 160.032 73.7094C160.065 73.7094 160.097 73.6978 160.122 73.6767C160.142 73.6547 160.153 73.6262 160.153 73.5967C160.153 73.5671 160.142 73.5387 160.122 73.5167C155.542 70.2667 150.992 66.3567 146.492 63.3067C146.362 63.2067 146.162 63.3967 146.292 63.5267C148.812 65.9267 156.682 71.5266 159.982 73.7267L159.942 73.6767ZM172.752 67.9367H172.772H172.752ZM93.0721 16.6467C93.0582 16.602 93.0275 16.5645 92.9864 16.5421C92.9454 16.5197 92.8972 16.5141 92.8521 16.5267C92.822 16.5338 92.7941 16.5486 92.7714 16.5696C92.7486 16.5906 92.7316 16.6171 92.7221 16.6467V20.1467H87.1821C87.0851 18.5351 86.9049 16.9296 86.6421 15.3367C88.2063 15.4093 89.7737 15.3692 91.3321 15.2167C91.3673 15.2053 91.3974 15.1822 91.4174 15.1513C91.4375 15.1203 91.4462 15.0833 91.4421 15.0467C91.4364 15.0254 91.4263 15.0055 91.4126 14.9883C91.3988 14.9711 91.3816 14.9569 91.3621 14.9467C90.9921 14.8267 86.3621 14.4267 86.5021 15.2267C86.0421 15.2267 86.7121 20.2267 86.7121 20.2267C86.9521 20.8367 87.9621 20.6267 88.4921 20.6267C89.0221 20.6267 92.7021 20.7167 93.0021 20.6267C93.4821 20.4367 93.2121 17.2367 93.1021 16.6267L93.0721 16.6467Z" fill="#00164F"/>
<path d="M189.703 107.367C176.963 108.147 164.22 108.813 151.473 109.367C151.306 107.543 150.972 105.739 150.473 103.977C163.14 103.643 175.806 103.253 188.473 102.807C188.537 102.799 188.598 102.77 188.645 102.725C188.692 102.68 188.723 102.621 188.733 102.557C188.741 102.479 188.719 102.4 188.67 102.339C188.622 102.277 188.551 102.237 188.473 102.227C175.753 102.7 163.036 103.09 150.323 103.397C147.323 92.9368 140.993 82.9867 133.613 75.1068C133.383 72.4467 133.373 71.1068 132.233 68.4368C130.033 63.3868 127.603 62.3368 127.663 63.5368C127.662 63.8528 127.713 64.1669 127.813 64.4668C127.413 63.9668 124.473 60.9067 123.873 62.5568C123.43 62.2784 122.931 62.1033 122.412 62.0445C121.892 61.9856 121.366 62.0445 120.873 62.2168C119.003 59.2168 115.873 59.2168 113.873 58.2168C110.053 56.2168 111.813 49.8368 114.623 47.4568C114.623 47.4568 126.693 47.2268 126.703 47.0768C126.923 44.2468 129.333 1.17675 129.333 1.17675C99.5929 0.586753 67.5929 1.17675 38.0729 1.77675C37.8729 1.77675 37.7029 1.90675 37.7229 2.08675C39.5029 17.2368 43.8729 48.2468 43.8729 48.2468C44.5929 48.5368 109.963 47.5168 113.873 47.4568C112.201 49.2806 111.285 51.6725 111.313 54.1468C111.513 60.4468 116.523 57.7668 120.623 62.3768C117.963 63.5168 117.623 66.8867 118.623 69.2967C118.805 69.7588 119.05 70.1931 119.353 70.5867C119.395 71.5265 119.662 72.4423 120.133 73.2568C121.413 75.6868 123.693 76.5267 123.813 76.8867C123.813 82.5468 125.003 89.4468 126.133 94.9668C122.323 92.9668 111.023 88.1967 99.4029 87.8568C100.063 82.1267 105.013 81.4068 104.333 77.5768C106.403 77.4967 108.473 77.4167 110.543 77.3167C111.063 77.3167 110.493 75.7167 110.433 75.4467C109.593 71.7467 108.75 68.0534 107.903 64.3668C107.773 63.8668 107.193 60.5068 106.703 60.5068L100.253 60.6268C98.8329 59.2768 95.5029 58.7768 94.1429 60.3468C92.1429 56.4968 85.9629 57.0567 85.7629 60.7967C84.0729 59.6467 81.5629 59.4167 80.0329 60.9767C79.8729 61.0467 49.6229 61.4568 45.1229 61.6368H45.0429C44.9943 61.6676 44.9597 61.7164 44.9466 61.7725C44.9335 61.8285 44.943 61.8875 44.9729 61.9368C45.0529 62.4568 42.4429 74.7967 42.1329 77.7667C42.1329 78.1867 46.6629 78.1267 47.1329 78.1267C40.6729 85.6967 34.8629 94.2368 33.1329 104.227C22.2329 104.057 11.3329 103.787 0.432885 103.827C0.379842 103.827 0.328971 103.848 0.291464 103.885C0.253956 103.923 0.232885 103.974 0.232885 104.027C0.232885 104.08 0.253956 104.131 0.291464 104.168C0.328971 104.206 0.379842 104.227 0.432885 104.227C11.2829 104.697 22.1629 104.747 33.0229 104.827C32.6994 106.81 32.5654 108.819 32.6229 110.827C21.8229 110.607 11.0229 110.267 0.232885 110.087C-0.00711472 110.087 -0.0471147 110.467 0.232885 110.467C11.0329 111.017 21.8529 111.217 32.6729 111.377C32.9529 116.807 35.0929 123.467 40.4129 125.907C42.6029 130.207 47.2429 134.077 52.4129 132.967C52.2629 133.747 52.1229 134.547 51.9729 135.347C51.9129 135.707 52.4529 135.857 52.5129 135.497C53.9829 127.577 55.5129 119.617 58.0829 111.977C58.1629 111.737 57.8029 111.647 57.7129 111.877C55.2129 118.517 53.8029 125.497 52.5029 132.447C47.2129 133.217 42.9929 129.847 40.8029 125.287C39.6247 122.877 38.9431 120.255 38.7988 117.577C38.6545 114.899 39.0504 112.219 39.9629 109.697C42.6929 102.697 49.9629 97.6967 57.1029 94.2767C64.3626 90.8363 72.1593 88.6682 80.1529 87.8668C80.7229 93.2068 86.8629 95.0167 91.5429 94.7367C96.2229 94.4567 98.9929 93.0267 99.3929 88.3067C99.4529 88.3067 116.283 88.6767 130.813 98.3867C135.083 101.237 138.963 104.897 141.233 109.547C143.453 114.037 144.233 119.547 142.233 124.227C139.373 131.047 134.153 132.037 130.693 132.647C129.47 125.324 127.108 118.239 123.693 111.647C123.603 111.477 123.323 111.587 123.413 111.767C126.974 119.446 129.403 127.601 130.623 135.977C130.623 136.237 131.143 136.307 131.143 135.977C131.102 135.061 130.982 134.151 130.783 133.257C134.554 132.932 138.046 131.136 140.503 128.257C148.503 126.257 151.993 117.607 151.503 109.987C164.276 109.467 177.036 108.8 189.783 107.987C190.133 107.857 190.003 107.367 189.703 107.367ZM43.9129 41.9268C41.9129 29.2068 40.3229 16.5468 38.5129 3.81675C68.5129 3.29675 99.2929 3.51675 128.883 3.01675L126.573 40.5268C114.083 40.9068 45.5229 41.2968 43.9129 41.9268ZM104.213 77.0167C104.03 76.4835 103.679 76.024 103.213 75.7067C103.731 74.8823 104.012 73.9306 104.023 72.9567H104.563L105.313 76.9567L104.213 77.0167ZM103.373 69.6868C103.544 69.5489 103.701 69.3949 103.843 69.2267C104.083 70.2967 104.283 71.3668 104.483 72.4368H104.003C104.052 71.4794 103.834 70.5273 103.373 69.6868ZM110.213 76.7568L105.613 76.9567C105.493 75.6068 105.233 74.2767 104.993 72.9567C106.43 73.0046 107.87 72.9678 109.303 72.8467C109.603 74.1367 109.913 75.4567 110.213 76.7568ZM109.213 72.3867H104.913L104.193 68.6367L108.343 68.5167L109.213 72.3867ZM108.213 68.0867L104.303 68.2067C104.378 67.7325 104.344 67.2474 104.204 66.7882C104.063 66.3291 103.82 65.9079 103.493 65.5567C103.433 65.2567 103.373 64.9468 103.293 64.6368L107.413 64.5467L108.213 68.0867ZM106.683 60.9468C106.903 61.9468 107.103 63.0168 107.303 64.0568L103.193 64.1268C102.983 63.0754 102.712 62.037 102.383 61.0168L106.683 60.9468ZM102.903 65.1868C102.416 64.9654 101.866 64.9264 101.353 65.0768C101.399 64.9529 101.435 64.8259 101.463 64.6968H102.783L102.903 65.1868ZM101.903 61.0268C102.09 62.0766 102.337 63.1149 102.643 64.1368H101.533C101.647 63.0288 101.34 61.9184 100.673 61.0268H101.903ZM77.6929 61.4568H79.6229C79.2153 62.0868 79.0716 62.8518 79.2229 63.5868L77.5229 64.0768C77.6029 63.2168 77.6929 62.2568 77.6929 61.4568ZM77.1529 61.4568V64.2468C76.9835 64.3475 76.8199 64.4576 76.6629 64.5768L71.9329 64.6567C71.9766 63.6193 71.9465 62.58 71.8429 61.5467L77.1529 61.4568ZM75.0529 68.7067H71.9029V65.2067L76.0029 65.1367C75.5692 65.6116 75.2564 66.1841 75.0911 66.8055C74.9257 67.427 74.9126 68.0791 75.0529 68.7067ZM71.9229 73.3367H74.6529C74.6915 74.2092 75.0146 75.0451 75.5729 75.7168C75.243 75.945 74.9776 76.2545 74.8024 76.6154C74.6272 76.9763 74.5481 77.3763 74.5729 77.7767H71.8729C71.9029 76.2767 71.9229 74.8067 71.9229 73.3367ZM74.9229 72.1267C74.8352 72.3355 74.7715 72.5536 74.7329 72.7767H71.9729V69.1667H75.2029C75.4201 69.7635 75.81 70.2822 76.3229 70.6567C75.6981 70.9802 75.1934 71.4954 74.8829 72.1267H74.9229ZM71.5729 77.7667H59.1829C59.3129 76.0467 59.1829 74.9668 60.2929 73.4867L71.4629 73.3568C71.4529 74.8268 71.4829 76.2967 71.5329 77.7667H71.5729ZM60.7029 72.9368C61.7435 71.8847 62.5301 70.6089 63.0029 69.2067H65.5029V72.8767L60.7029 72.9368ZM66.1429 61.6567L71.3829 61.5668C71.3266 62.6027 71.3266 63.6409 71.3829 64.6768L66.1129 64.7668C66.1129 63.7368 66.1229 62.6968 66.1429 61.6567ZM66.0729 65.3167L71.3629 65.2267V68.7267H66.0029C66.0029 67.5867 66.0029 66.4567 66.0729 65.3167ZM66.0029 69.1967H71.4129V72.8067L65.7829 72.8767C65.8629 71.6467 65.9229 70.4567 66.0029 69.1967ZM61.0029 61.7468L65.7929 61.6668L65.6829 64.7768L60.8029 64.8568C60.9216 63.8246 60.9584 62.7847 60.9129 61.7468H61.0029ZM60.7629 65.3968L65.6729 65.3167L65.5829 68.7168H63.1329C63.2529 68.1667 63.4729 67.2668 62.8229 66.9668C62.1729 66.6667 61.5529 68.1667 60.3529 68.7067C60.4629 67.6068 60.5629 66.5067 60.6729 65.4067L60.7629 65.3968ZM56.4829 61.8268L60.6129 61.7568C60.47 62.7882 60.3799 63.8262 60.3429 64.8668H60.0029C60.4329 63.8168 58.1129 63.1368 56.1129 64.8668C56.1429 64.3568 56.4229 62.1668 56.3929 61.8268H56.4829ZM60.2129 65.4567C60.1429 66.5467 60.0829 67.6268 60.0129 68.7168H58.4529C58.1529 67.8368 58.4529 65.7667 59.2529 65.4567H60.1929H60.2129ZM55.8829 61.8568L55.7229 64.9567H53.8529C53.1129 63.4167 53.5829 62.2467 52.8529 61.8768L55.8829 61.8568ZM55.4829 65.5167C55.2523 65.8055 55.0576 66.1212 54.9029 66.4567L54.1629 65.5467L55.4829 65.5167ZM49.0929 61.9868L52.3029 61.9268C51.3029 62.4068 51.1529 64.1068 51.1529 65.0368H49.6429C49.1329 64.5968 48.9129 65.0368 48.5329 65.0368L49.0729 61.9268L49.0929 61.9868ZM51.3129 67.0667C50.758 66.6965 50.307 66.1905 50.0029 65.5967H51.1329C51.1448 66.0894 51.1916 66.5807 51.2729 67.0667H51.3129ZM48.0029 68.5667L48.4829 65.6267C48.3826 66.6418 48.509 67.6665 48.8529 68.6267L48.0029 68.5667ZM49.0029 69.0567C49.4129 70.4268 50.0029 71.6768 50.2829 73.0567L47.2829 73.1168L47.8829 69.0467L49.0029 69.0567ZM45.3729 61.9968H48.6529C48.4629 62.9968 48.2829 64.0767 48.1029 65.1267C47.0129 65.1267 45.9129 65.1867 44.8229 65.2367C45.0584 64.1681 45.2287 63.0861 45.3329 61.9968H45.3729ZM44.7529 65.6468H48.0029C47.8529 66.6468 47.6929 67.6468 47.5329 68.5768H44.1829C44.3529 67.5768 44.5329 66.6068 44.7129 65.6468H44.7529ZM44.1429 68.9268C45.2429 68.9867 46.3429 69.0168 47.4429 69.0368C47.2529 70.3867 47.0329 71.7568 46.8529 73.1168C45.6829 73.1168 44.5129 73.1967 43.3429 73.2467C43.6129 71.8067 43.8729 70.3668 44.1429 68.9268ZM46.3929 77.5967H42.5329C42.7829 76.2568 43.0429 74.9268 43.3129 73.5967L46.7829 73.6868C46.5719 74.9818 46.4284 76.2868 46.3529 77.5967H46.3929ZM46.6729 77.5967L47.2629 73.5967H50.3729C50.4029 73.8626 50.4029 74.1309 50.3729 74.3968L47.5629 77.6068L46.6729 77.5967ZM39.8629 108.327C38.6932 110.992 38.1085 113.877 38.1482 116.787C38.1879 119.697 38.851 122.565 40.0929 125.197C30.4129 118.657 32.4729 104.197 36.5929 94.9567C39.9629 87.3867 45.3029 80.9567 50.7729 74.7868C51.5729 73.8767 48.9829 67.7867 48.8929 66.2967C48.8329 65.1867 49.2929 64.9567 49.7029 65.7467C50.1129 66.5368 50.7029 67.4367 51.5129 67.6267C51.8329 68.5667 52.0829 68.2668 52.0429 68.1168C51.7029 66.4668 51.1129 64.1168 52.2129 62.5968C53.0129 61.5368 52.9829 63.4868 53.0629 63.8668C53.2529 64.7768 54.0629 66.5368 54.7929 66.8668C54.5429 67.5768 54.9629 67.3267 54.9929 67.2367C56.4129 63.5067 60.7529 64.0368 59.3529 64.9567C58.9837 65.1771 58.6701 65.4792 58.436 65.8398C58.202 66.2004 58.0538 66.6099 58.0029 67.0368C57.4929 70.5667 60.2729 70.0368 62.2929 67.5768C63.1329 66.5768 63.1729 68.7268 61.8429 70.8968C60.7129 72.7367 59.1829 73.3967 59.0029 75.8067C58.5029 81.6967 57.2929 88.7267 56.4829 93.9067C49.8429 97.1167 43.0529 101.457 39.8229 108.337L39.8629 108.327ZM57.0029 93.6367C57.9793 88.552 58.677 83.4177 59.0929 78.2568H74.6029C75.1829 81.6068 79.3429 82.0568 80.0129 87.2568C72.0317 88.037 64.2463 90.1957 57.0029 93.6367ZM99.2229 85.5667C98.9739 86.3532 98.813 87.1648 98.7429 87.9867C98.3429 92.2267 96.5429 93.6367 91.8329 93.9867C86.8329 94.3968 81.4129 92.8167 80.6529 87.4268C79.9829 82.6267 78.4429 83.0468 75.9729 79.6868C75.2329 78.6868 74.5729 76.8267 75.9729 76.0467C76.6607 76.8023 77.5222 77.3789 78.4829 77.7267C80.6429 82.5767 81.3729 88.1667 87.6529 88.7868C99.7929 89.9167 97.0729 83.3067 100.923 77.5368C101.671 77.1907 102.349 76.7093 102.923 76.1168C103.359 76.4817 103.661 76.9827 103.779 77.5394C103.897 78.096 103.824 78.6762 103.573 79.1868C102.593 81.5568 100.233 82.4567 99.2229 85.5667ZM124.003 63.1368C124.343 63.8968 124.693 64.6467 125.003 65.4067C124.513 64.7767 122.113 62.1567 121.313 63.5568C120.903 64.2868 121.763 65.3767 122.113 66.0267C120.771 66.2644 119.571 67.0091 118.763 68.1068C117.483 63.4567 122.003 61.1368 124.003 63.1368ZM119.483 69.9467C119.293 69.4767 119.093 68.9967 118.893 68.5267C119.77 67.4993 120.95 66.7749 122.263 66.4567C122.825 67.6182 123.19 68.8653 123.343 70.1468C123.613 72.7067 121.653 70.8767 120.703 69.9967C120.333 69.6168 119.713 69.4567 119.433 69.9467H119.483ZM141.133 127.357C144.443 122.717 144.583 116.727 142.663 111.487C139.943 104.077 133.473 98.8867 126.663 95.2568C125.354 89.2097 124.504 83.0721 124.123 76.8968C124.123 75.9567 120.943 75.3167 119.953 71.6267C119.773 70.9567 119.403 69.1967 120.613 70.4567C121.823 71.7168 123.883 72.8768 123.793 70.1168C123.673 66.8468 121.453 64.6668 121.653 63.9268C121.903 62.9968 123.753 64.7467 124.053 65.0467C124.834 65.9067 125.544 66.8298 126.173 67.8067C126.283 67.9668 126.553 67.8067 126.453 67.6567C126.22 67.2567 125.98 66.8568 125.733 66.4567C125.893 66.1168 124.093 62.9368 124.413 62.6368C124.733 62.3368 126.173 63.3768 126.493 63.6368C128.163 65.0868 128.243 66.0567 128.813 66.8067C128.839 66.8159 128.867 66.8159 128.893 66.8067C128.928 66.8096 128.964 66.7988 128.992 66.7765C129.02 66.7542 129.038 66.7221 129.043 66.6868C128.983 66.0468 128.613 65.6868 128.433 65.2467C128.253 64.8068 127.883 63.8168 128.133 63.4668C128.253 63.3668 128.943 63.8768 129.023 63.9568C129.683 64.5886 130.233 65.3252 130.653 66.1367C133.713 71.3668 132.793 74.7367 133.313 75.2467C140.903 83.7968 149.013 96.3167 150.653 107.617C151.763 115.457 149.293 124.597 141.083 127.357H141.133Z" fill="#00164F"/>
<path d="M68.6024 18.4571C68.8324 18.3871 68.7424 18.0571 68.5324 18.0271C64.8924 18.0971 61.0224 18.0271 57.4324 18.1271C57.1524 18.1271 57.1924 18.5571 57.4324 18.5971C59.2724 18.8971 67.0024 18.9471 68.6024 18.4571ZM164.072 71.9371C165.432 71.3471 172.072 68.6671 172.862 68.2171C172.877 68.204 172.889 68.1878 172.897 68.1697C172.906 68.1516 172.91 68.132 172.91 68.1121C172.91 68.0923 172.906 68.0726 172.897 68.0545C172.889 68.0364 172.877 68.0203 172.862 68.0071C172.846 67.9829 172.824 67.9636 172.797 67.9512C172.771 67.9389 172.741 67.934 172.712 67.9371C171.032 68.2871 165.592 70.8771 163.902 71.7171C163.812 71.7871 163.932 71.9971 164.072 71.9371ZM97.0024 48.4571L75.8024 48.7771C76.7124 59.0571 97.2724 59.2171 97.0024 48.4571ZM97.0024 26.4571C97.0023 26.5005 97.0189 26.5423 97.0486 26.5739C97.0784 26.6056 97.1191 26.6246 97.1624 26.6271C100.552 26.7071 107.722 26.9171 110.432 26.5471C110.652 26.5471 110.582 26.1771 110.432 26.1771C106.602 26.1771 101.072 26.1771 97.2124 26.2871C97.187 26.281 97.1605 26.2808 97.135 26.2865C97.1095 26.2922 97.0857 26.3038 97.0654 26.3202C97.0451 26.3367 97.0288 26.3576 97.0179 26.3813C97.007 26.4051 97.0017 26.431 97.0024 26.4571ZM68.0024 11.4571C68.2824 11.4571 68.1624 11.0571 67.9324 11.0171C61.0424 11.2171 53.5424 11.3671 46.8224 11.5171C46.7999 11.5208 46.7784 11.5288 46.7591 11.5409C46.7398 11.553 46.7231 11.5689 46.7101 11.5875C46.697 11.6062 46.6878 11.6272 46.6831 11.6495C46.6783 11.6718 46.6781 11.6948 46.6824 11.7171C46.6882 11.7522 46.7048 11.7845 46.7299 11.8096C46.755 11.8347 46.7874 11.8514 46.8224 11.8571C51.7124 12.2071 61.6524 11.6771 68.0024 11.4571ZM71.8524 9.16714C72.0824 9.16714 72.1524 8.76714 71.8524 8.73714C69.6124 8.46714 47.5224 8.82714 45.9824 9.16714C45.8324 9.16714 45.8424 9.46714 45.9824 9.46714C51.6524 9.45714 65.2424 9.06714 71.8524 9.16714ZM28.3824 80.5971V80.5871V80.5971ZM28.8024 80.7671C29.5728 79.3421 30.164 77.8273 30.5624 76.2571C30.7486 75.7175 30.7912 75.1388 30.686 74.5777C30.5808 74.0167 30.3314 73.4926 29.9624 73.0571C30.3254 72.1438 30.512 71.17 30.5124 70.1871C30.3124 68.5571 28.5824 68.6571 27.6524 69.9071C23.9024 74.9071 19.7624 82.9071 19.8824 89.0571C19.8124 89.3471 19.9624 89.6771 20.2224 89.4371C24.6621 85.0385 27.9461 79.611 29.7824 73.6371C31.0324 75.4971 29.1024 78.7071 28.3824 80.5871C28.2924 80.8371 28.6724 80.9871 28.8024 80.7671ZM20.2624 88.6471C20.3358 87.5375 20.4895 86.4346 20.7224 85.3471L22.2624 86.4571C21.6124 87.1771 20.9424 87.9271 20.2624 88.6471ZM29.5524 72.6471C28.8752 72.0789 28.062 71.6964 27.1924 71.5371C27.5265 70.9267 27.9291 70.3564 28.3924 69.8371C28.8424 69.4171 29.7024 69.2471 29.9624 69.9571C30.0507 70.8674 29.9097 71.7853 29.5524 72.6271V72.6471ZM55.0024 21.7071C54.5624 21.8871 52.0024 25.7071 51.5324 26.3771C50.9506 25.604 50.2792 24.9024 49.5324 24.2871C49.4907 24.2678 49.4434 24.2642 49.3993 24.2771C49.3551 24.29 49.3172 24.3184 49.2924 24.3571C49.2778 24.3958 49.2778 24.4385 49.2924 24.4771C49.8626 25.4108 50.5333 26.2793 51.2924 27.0671C51.3196 27.0972 51.3528 27.1212 51.3898 27.1376C51.4268 27.154 51.4669 27.1625 51.5074 27.1625C51.5479 27.1625 51.588 27.154 51.625 27.1376C51.662 27.1212 51.6952 27.0972 51.7224 27.0671V27.0171L55.0024 22.5371C55.4624 21.8871 55.3324 21.5371 55.0024 21.7071ZM115.002 16.4571C115.212 16.4571 115.252 16.0571 115.002 16.0271C108.763 15.7169 102.51 15.807 96.2824 16.2971C96.0724 16.2971 96.0924 16.6671 96.2824 16.6571C101.002 16.6171 109.852 16.7671 115.002 16.4571Z" fill="#00164F"/>
<path d="M55.0028 27.7661C55.4028 27.6061 54.6028 24.6261 54.4928 24.1561C54.4895 24.1351 54.4821 24.115 54.471 24.0968C54.46 24.0787 54.4454 24.0629 54.4282 24.0503C54.4111 24.0378 54.3916 24.0288 54.3709 24.0237C54.3503 24.0187 54.3288 24.0178 54.3078 24.0211C54.2868 24.0244 54.2666 24.0318 54.2485 24.0429C54.2303 24.054 54.2145 24.0685 54.202 24.0857C54.1894 24.1029 54.1804 24.1223 54.1754 24.143C54.1704 24.1637 54.1695 24.1851 54.1728 24.2061C54.2928 25.2761 54.4128 26.3561 54.6128 27.4061C52.9428 27.5361 51.4328 27.5261 49.8028 27.5961C49.5028 26.2961 49.2428 24.5961 48.8028 23.3061C50.0606 23.4119 51.325 23.4119 52.5828 23.3061C53.4128 23.3061 53.3528 22.7861 52.6428 22.7961C52.2228 22.7961 48.6428 22.7261 48.6428 23.1561C48.1728 23.1561 49.1628 27.3461 49.2228 27.6261C49.2331 27.676 49.259 27.7213 49.2968 27.7554C49.3345 27.7896 49.3822 27.8108 49.4328 27.8161C49.5528 28.3361 54.8128 28.2561 55.0028 27.7661ZM115.563 24.2561C115.554 24.2173 115.532 24.1824 115.502 24.1571C115.471 24.1318 115.433 24.1174 115.393 24.1161C109.333 23.9561 102.853 24.2461 96.7128 24.2361C96.5328 24.2361 96.5228 24.5361 96.7128 24.5561C102.093 24.9161 110.413 25.1361 115.433 24.4761C115.478 24.4622 115.516 24.4319 115.54 24.3913C115.564 24.3506 115.572 24.3024 115.563 24.2561ZM49.5728 20.5361C50.9755 20.5752 52.3793 20.5117 53.7728 20.3461C54.6428 20.5661 53.3128 15.1061 53.1528 14.8561C53.1317 14.809 53.096 14.77 53.051 14.7447C53.0059 14.7195 52.954 14.7095 52.9028 14.7161C52.0028 14.7161 47.8228 14.7161 47.2328 14.8461C46.5128 14.2661 47.5628 19.1961 47.7128 19.7861C48.0028 20.7761 48.6428 20.5361 49.5728 20.5361ZM47.3528 15.1861C49.1979 15.4115 51.0619 15.4383 52.9128 15.2661L53.5528 19.8861L48.3128 20.1561C48.3528 19.8161 47.4728 15.8461 47.3528 15.1861ZM110.823 18.5561C110.876 18.5561 110.927 18.5351 110.964 18.4976C111.002 18.46 111.023 18.4092 111.023 18.3561C111.023 18.3031 111.002 18.2522 110.964 18.2147C110.927 18.1772 110.876 18.1561 110.823 18.1561C109.583 17.9061 98.9228 18.2861 96.7128 18.4761C96.5428 18.4761 96.5428 18.7661 96.7128 18.7761C97.9128 18.8261 109.633 18.8561 110.823 18.5561ZM26.8528 50.2761C27.0428 50.2761 28.4528 49.4761 28.7828 50.7761C29.2428 52.5561 31.0428 51.4861 31.3328 50.1261C31.7028 48.4461 30.1028 47.1261 28.2128 47.1261C24.3728 47.1261 25.2528 50.4561 26.8528 50.2761ZM28.2128 47.5161C30.3728 47.5861 31.7028 49.6261 30.3928 50.8261C29.2728 51.8261 29.3928 50.3861 28.8528 49.8261C27.7728 48.8261 26.9128 50.0361 26.3028 49.5261C25.0528 48.5261 27.4428 47.4561 28.2128 47.5161ZM51.6328 31.2261C50.0628 31.2261 50.0028 30.9661 50.2028 32.4961C50.2628 32.9261 50.5728 35.9661 51.0928 35.9961C51.2028 36.4761 55.6928 36.3061 56.2628 36.1361C57.0328 36.1361 56.2628 33.7661 56.2628 33.4961C55.6028 30.0161 56.4228 31.0961 51.6328 31.2261ZM51.3428 35.7661C51.0928 34.5061 50.9028 32.8361 50.5428 31.6361C52.1801 31.7961 53.8316 31.7356 55.4528 31.4561C55.5545 32.8484 55.772 34.2299 56.1028 35.5861C54.5428 35.6561 52.9228 35.7361 51.3428 35.7661ZM117.133 8.57613C115.293 8.40613 88.7928 8.57614 85.4328 8.83614C85.3894 8.84352 85.3506 8.86745 85.3244 8.90288C85.2983 8.93832 85.287 8.9825 85.2928 9.02613C85.2999 9.0606 85.3169 9.09223 85.3418 9.11711C85.3667 9.14199 85.3983 9.15904 85.4328 9.16613C88.2828 9.31613 115.093 9.24614 117.133 9.01614C117.191 9.01614 117.247 8.99296 117.288 8.9517C117.33 8.91044 117.353 8.85448 117.353 8.79614C117.353 8.73779 117.33 8.68183 117.288 8.64057C117.247 8.59931 117.191 8.57613 117.133 8.57613ZM72.0028 15.9261C72.2328 15.8761 72.1528 15.5661 71.9528 15.5261L56.7628 15.9061C56.7407 15.9085 56.7194 15.9154 56.7001 15.9265C56.6809 15.9375 56.6641 15.9524 56.651 15.9703C56.6378 15.9882 56.6285 16.0086 56.6236 16.0303C56.6188 16.0519 56.6185 16.0744 56.6228 16.0961C56.6286 16.1312 56.6452 16.1635 56.6703 16.1886C56.6954 16.2137 56.7278 16.2303 56.7628 16.2361C60.5728 16.5161 68.6928 16.5961 72.0028 15.9261ZM132.233 44.0361C132.303 44.7961 133.063 52.3761 133.343 52.9261C135.343 56.8261 142.703 56.9261 142.863 51.1561C143.143 48.7561 144.113 41.8661 143.733 40.1561C143.843 39.5961 144.423 37.1561 144.533 35.8661C144.533 35.6561 144.933 29.9461 144.133 30.8161C143.065 32.2377 142.118 33.7463 141.303 35.3261C141.163 35.9361 141.023 36.5361 140.873 37.1361C140.43 36.9693 139.971 36.8519 139.503 36.7861C139.503 36.3761 139.203 34.3761 139.063 33.5761C138.373 32.2361 137.663 31.0361 137.063 29.6461C136.213 27.5561 136.193 27.5161 135.953 29.8161C135.552 32.1591 135.552 34.5531 135.953 36.8961C131.423 37.8361 131.893 40.5061 132.223 44.0361H132.233ZM143.173 33.0361C143.295 33.1545 143.442 33.2452 143.602 33.3021C143.762 33.359 143.933 33.3809 144.103 33.3661V35.8861C143.681 35.927 143.256 35.8826 142.852 35.7554C142.449 35.6283 142.075 35.4211 141.753 35.1461C142.243 34.4561 142.753 33.7461 143.173 33.0361ZM141.733 35.6661C142.395 36.1371 143.19 36.3857 144.003 36.3761C143.673 38.2361 143.343 40.0861 143.083 41.9561C142.743 43.1761 141.083 43.6161 140.003 43.7661C140.663 41.1261 141.163 38.2861 141.733 35.6361V35.6661ZM139.733 43.0461C139.684 43.2972 139.651 43.551 139.633 43.8061L137.193 43.8661L136.193 34.4461C136.645 34.5826 137.124 34.6066 137.587 34.516C138.051 34.4254 138.485 34.2229 138.853 33.9261C138.853 33.9261 139.503 42.8961 139.733 43.0161V43.0461ZM136.313 31.2461C136.466 31.2861 136.626 31.2944 136.782 31.2703C136.939 31.2462 137.089 31.1903 137.223 31.1061L138.593 33.5661C138.234 33.8337 137.817 34.0145 137.377 34.0943C136.936 34.1741 136.483 34.1508 136.053 34.0261C136.036 33.0827 136.123 32.1403 136.313 31.2161V31.2461ZM143.243 42.7661C143.063 45.2861 142.743 50.6061 142.093 52.9861C140.943 56.0761 135.933 56.1261 133.723 52.9861C133.303 49.5161 132.883 45.9861 132.473 42.5661C134.343 45.2761 141.613 44.9461 143.243 42.7361V42.7661Z" fill="#00164F"/>
<path d="M8.81297 53.7865C10.335 54.5813 11.9418 55.2019 13.603 55.6365C10.413 60.0265 19.543 66.2865 27.893 62.9465C31.723 61.4165 35.553 56.5565 31.803 53.1865C35.803 49.9565 37.213 45.2965 37.043 40.1865C36.783 32.3065 33.303 26.5065 25.333 24.6365C21.4064 23.7176 17.2918 24.0355 13.553 25.5465L12.003 22.8665C12.493 22.6065 13.003 22.3565 13.503 22.1365C14.823 21.6865 14.423 20.7165 13.643 21.0065C-1.67703 26.5965 -5.21703 46.7465 8.81297 53.7865ZM13.723 54.9365C13.443 53.9365 14.193 52.9365 13.843 51.8465C13.043 49.2565 9.69297 50.7565 8.84297 49.0065C7.91297 47.0965 10.393 46.7665 10.893 45.3965C10.9814 45.1566 11.0039 44.8975 10.9582 44.646C10.9125 44.3945 10.8002 44.1598 10.633 43.9665C9.19297 42.1665 5.86297 44.0665 6.81297 39.8665C7.53297 36.6965 10.593 35.1965 12.813 36.5965C15.033 37.9965 16.363 38.9365 19.173 37.2965C23.853 34.5465 23.273 40.2965 21.843 42.0365C21.083 42.9765 19.703 42.9265 18.643 43.3265C15.183 44.6265 15.203 46.9565 17.943 47.5265C19.003 47.7465 20.363 47.6465 21.193 48.4465C23.443 50.6365 18.793 55.3165 17.323 56.0865C16.533 55.9265 14.123 55.4565 13.723 54.9365ZM26.413 25.5165C32.303 27.3465 35.413 31.6065 36.253 37.6965C36.6522 40.3247 36.5539 43.0046 35.963 45.5965C35.723 45.9265 32.343 46.8565 31.253 45.4565C30.8322 44.8906 30.5512 44.2333 30.433 43.5381C30.3148 42.8429 30.3628 42.1296 30.573 41.4565C31.223 39.7765 33.433 38.2965 32.753 36.5765C31.813 34.1965 29.063 37.4465 27.903 36.7765C26.163 35.7765 29.423 33.8565 25.703 33.1665C24.333 32.9165 23.213 33.4765 22.203 31.9665C19.893 28.5065 25.903 25.5065 26.413 25.4865V25.5165ZM15.003 29.9465C15.0461 30.0147 15.1115 30.0658 15.188 30.0913C15.2646 30.1168 15.3476 30.1151 15.423 30.0865C15.5096 30.0509 15.5789 29.9829 15.6163 29.897C15.6536 29.8112 15.656 29.7141 15.623 29.6265L13.803 26.0765C17.512 24.5892 21.5956 24.3093 25.473 25.2765C20.473 26.9265 19.883 32.5665 23.473 33.5365C24.233 33.7465 27.633 33.4465 27.043 34.8965C26.9232 35.1317 26.8561 35.3902 26.8462 35.654C26.8363 35.9177 26.8839 36.1805 26.9857 36.4241C27.0875 36.6676 27.241 36.8861 27.4357 37.0644C27.6303 37.2426 27.8614 37.3764 28.113 37.4565C29.513 37.7065 31.013 35.5965 32.043 36.4565C33.843 37.9565 29.143 40.2765 29.943 43.6165C30.543 46.1765 31.603 46.9865 34.203 46.6165C34.7725 46.5675 35.3249 46.397 35.823 46.1165C33.673 53.6465 25.633 57.1165 18.283 56.2065C19.763 54.8465 22.063 52.1465 22.283 50.2065C22.623 46.7665 18.673 47.4565 17.223 46.6965C15.223 45.6965 18.083 43.9565 19.913 43.5565C20.5126 43.4578 21.093 43.2654 21.633 42.9865C24.633 41.1465 23.803 33.7465 19.453 36.4765C15.733 38.8065 14.583 36.8265 12.853 35.9365C10.083 34.5265 6.28297 36.7465 6.09297 40.9365C5.98297 43.7865 8.33297 43.1765 9.70297 43.9365C9.94851 44.0286 10.1535 44.2046 10.2816 44.4334C10.4098 44.6622 10.4527 44.929 10.403 45.1865C10.083 46.1865 8.63297 46.3865 8.23297 47.5965C8.0748 48.0684 8.08058 48.5799 8.24937 49.0482C8.41815 49.5164 8.74007 49.914 9.16297 50.1765C10.473 50.9365 12.793 50.2765 13.343 52.0865C13.613 52.9665 13.083 53.8665 13.143 54.7565C10.5916 53.8395 8.34499 52.232 6.65349 50.1132C4.962 47.9945 3.89208 45.4476 3.56297 42.7565C2.66297 35.9565 6.81297 29.3465 12.913 26.4565C13.543 27.6165 14.333 28.8165 15.003 29.9465ZM6.00297 27.2765C7.50416 25.7198 9.23406 24.4013 11.133 23.3665C11.6903 24.2216 12.2011 25.1062 12.663 26.0165C9.52449 27.4745 6.91249 29.8657 5.18359 32.8635C3.4547 35.8614 2.69317 39.3197 3.00297 42.7665C3.21144 44.742 3.83065 46.6522 4.82088 48.3743C5.8111 50.0964 7.15046 51.5925 8.75297 52.7665C-0.80703 47.4565 -1.20703 34.9365 6.00297 27.2765ZM112.733 34.3265C111.873 34.1365 99.013 34.0765 97.193 34.3265C97.1479 34.3265 97.1047 34.3444 97.0728 34.3763C97.0409 34.4082 97.023 34.4514 97.023 34.4965C97.023 34.5416 97.0409 34.5848 97.0728 34.6167C97.1047 34.6486 97.1479 34.6665 97.193 34.6665C97.883 34.7665 111.323 34.9965 112.733 34.6665C112.78 34.6561 112.821 34.6302 112.851 34.5929C112.881 34.5556 112.897 34.5093 112.897 34.4615C112.897 34.4137 112.881 34.3674 112.851 34.3301C112.821 34.2928 112.78 34.2669 112.733 34.2565V34.3265ZM117.003 11.3265C107.353 11.4365 94.883 11.1065 86.183 11.3265C85.943 11.3265 85.963 11.6665 86.183 11.6865C89.833 12.0865 114.063 12.0565 117.003 11.6865C117.032 11.6841 117.059 11.6758 117.085 11.6622C117.11 11.6487 117.132 11.6301 117.15 11.6076C117.168 11.5851 117.181 11.5592 117.188 11.5315C117.196 11.5038 117.197 11.4749 117.193 11.4465C117.177 11.4098 117.15 11.3787 117.116 11.3573C117.083 11.3359 117.043 11.3252 117.003 11.3265ZM115.933 32.1565C110.083 32.0265 102.773 32.3865 96.543 32.2265C96.363 32.2265 96.323 32.4865 96.543 32.5065C100.373 32.8865 112.363 33.2665 115.973 32.5665C116.163 32.5165 116.183 32.1565 115.933 32.1565Z" fill="#00164F"/>
</svg>
