<svg width="191" height="144" viewBox="0 0 191 144" fill="none" xmlns="http://www.w3.org/2000/svg">
<path fill-rule="evenodd" clip-rule="evenodd" d="M167.899 51.4127C168.059 51.7427 168.669 51.8427 169.069 51.9127C172.329 52.4927 186.459 52.7927 187.819 51.6227C189.009 50.6227 188.349 34.2827 187.189 33.6227C185.689 32.7327 169.329 32.5627 168.189 33.4727C167.359 34.1627 166.839 49.1027 167.899 51.4127ZM168.439 33.6827C169.349 32.9227 185.329 33.4927 186.769 34.1927C187.539 36.2527 188.039 49.1927 187.289 51.0327C186.069 51.8727 171.119 51.8427 168.509 51.0327C167.489 48.5827 167.869 34.1627 168.439 33.6827ZM128.129 31.9327C127.733 32.6111 127.197 33.1979 126.558 33.6546C125.919 34.1114 125.19 34.4276 124.419 34.5827C124.396 34.5766 124.371 34.576 124.347 34.581C124.323 34.586 124.301 34.5963 124.282 34.6113C124.262 34.6262 124.247 34.6454 124.236 34.6673C124.225 34.6892 124.22 34.7133 124.22 34.7377C124.22 34.762 124.225 34.7861 124.236 34.808C124.247 34.8299 124.262 34.8491 124.282 34.864C124.301 34.879 124.323 34.8894 124.347 34.8943C124.371 34.8993 124.396 34.8987 124.419 34.8927C126.179 35.3527 128.469 33.7527 128.469 31.9927C128.477 31.9476 128.467 31.9012 128.441 31.8637C128.415 31.8262 128.375 31.8006 128.329 31.7927C128.284 31.7847 128.238 31.795 128.2 31.8212C128.163 31.8475 128.137 31.8876 128.129 31.9327ZM119.959 22.9827V23.9827C119.959 24.1153 120.012 24.2424 120.106 24.3362C120.2 24.43 120.327 24.4827 120.459 24.4827C120.591 24.4801 120.717 24.4266 120.81 24.3334C120.903 24.2402 120.957 24.1145 120.959 23.9827V22.9827C120.959 22.85 120.907 22.7229 120.813 22.6291C120.719 22.5353 120.592 22.4827 120.459 22.4827C120.327 22.4827 120.2 22.5353 120.106 22.6291C120.012 22.7229 119.959 22.85 119.959 22.9827ZM129.929 23.9327C129.929 24.0653 129.982 24.1924 130.076 24.2862C130.17 24.38 130.297 24.4327 130.429 24.4327C130.562 24.4327 130.689 24.38 130.783 24.2862C130.877 24.1924 130.929 24.0653 130.929 23.9327V22.6927C130.929 22.56 130.877 22.4329 130.783 22.3391C130.689 22.2453 130.562 22.1927 130.429 22.1927C130.297 22.1927 130.17 22.2453 130.076 22.3391C129.982 22.4329 129.929 22.56 129.929 22.6927C129.889 23.1227 129.929 23.6227 129.929 23.9327Z" fill="#00164F"/>
<path fill-rule="evenodd" clip-rule="evenodd" d="M187.909 96.2731C187.844 96.1616 187.751 96.0687 187.639 96.0031C186.779 95.5831 182.099 95.7931 181.129 95.8331C181.299 69.6031 167.479 53.2431 147.419 48.5531C143.739 47.6931 143.729 47.6331 143.629 47.6931L142.949 45.8231C144.869 45.7631 146.439 44.2831 148.199 44.5831C149.529 44.8031 150.199 45.9831 151.509 46.4831C153.729 47.3231 157.679 46.0331 158.889 43.9231C159.509 42.8231 158.959 41.6831 159.349 40.9231C160.049 40.3131 162.039 39.3331 162.609 38.6231C163.779 37.1631 163.829 33.8931 163.299 32.1231C162.343 30.1202 161.039 28.3022 159.449 26.7531C157.72 25.0866 156.187 23.2279 154.879 21.2131C153.269 18.0031 153.209 13.5631 151.879 10.2131C150.414 7.18835 148.144 4.62492 145.319 2.8031C142.561 0.854369 139.234 -0.126625 135.859 0.0131028C132.709 0.213103 131.479 1.5531 130.009 2.0131C128.539 2.4731 128.229 2.0131 125.839 3.0631C124.89 3.6413 124.045 4.37485 123.339 5.2331C123.039 5.5531 123.059 5.5731 122.549 5.5931C122 5.55179 121.449 5.55179 120.899 5.5931C119.963 5.8009 119.068 6.16247 118.249 6.6631C112.679 10.0031 114.179 16.7231 112.079 21.6631C110.649 25.0231 106.669 28.2531 106.329 31.7631C106.209 33.377 106.556 34.9914 107.329 36.4131C109.759 40.6831 113.249 37.3331 115.059 39.9431C115.629 40.7631 116.059 41.5631 117.119 41.7231C118.469 41.9031 120.309 40.8331 121.409 40.0431C121.641 40.3126 121.902 40.5542 122.189 40.7631C123.164 41.4203 124.211 41.9638 125.309 42.3831L122.769 45.9331C118.009 45.3931 110.699 46.9331 105.989 48.3831C105.819 47.1831 104.339 37.2731 103.219 36.7931C101.669 36.1131 85.3995 38.0031 84.4095 39.0731C83.6795 39.8531 84.9895 54.7031 86.4095 56.9231C86.6195 57.2631 87.3395 57.2731 87.7395 57.2831C85.3995 58.8831 83.1395 60.5031 82.3295 61.0931C81.6995 58.9131 78.3895 47.3831 77.1695 45.4931C76.8195 44.9431 76.4995 44.9531 74.8895 45.4931C73.9718 40.9143 72.8101 36.3879 71.4095 31.9331C71.9346 31.0697 72.3543 30.1465 72.6595 29.1831C73.0321 27.6572 73.0866 26.0709 72.8195 24.5231C74.0395 24.9331 81.3295 26.9331 82.5095 26.3531C82.8264 26.127 83.0615 25.8042 83.1795 25.4331C84.4695 22.6131 86.6795 12.9831 86.8495 9.9331C86.9195 9.54256 86.8524 9.13981 86.6595 8.7931C85.4895 7.5731 69.7495 3.0431 68.4195 3.6431C67.6095 4.0131 65.4195 11.2031 65.1895 12.0531C63.2795 18.4631 64.2495 17.0531 63.1895 17.4231C61.9695 17.8531 60.9195 20.4231 60.4895 21.6131C60.0595 22.8031 59.6095 24.4031 60.1195 25.3431C59.9124 25.7254 59.829 26.1626 59.881 26.5942C59.9329 27.0259 60.1176 27.4308 60.4095 27.7531C60.0915 28.1076 59.8841 28.5474 59.8131 29.0183C59.742 29.4892 59.8103 29.9706 60.0095 30.4031C60.2995 31.3131 62.1095 31.9131 63.0095 32.1731C62.2989 34.088 61.7078 36.0451 61.2395 38.0331C60.4418 41.1181 59.8043 44.2422 59.3295 47.3931C59.0337 48.9242 58.9362 50.4871 59.0395 52.0431L57.3995 52.7831C57.3364 52.812 57.283 52.8585 57.2457 52.9171C57.2085 52.9756 57.1889 53.0437 57.1895 53.1131C57.1895 53.1131 57.4995 65.2331 61.4895 75.3031C66.3095 87.4931 74.2395 91.5731 86.3095 87.0131C86.4183 87.97 86.6537 88.9082 87.0095 89.8031C87.1895 90.1231 87.7995 90.1831 88.2095 90.2231C91.7595 90.3394 95.3134 90.2291 98.8495 89.8931L101.849 108.893C101.039 111.233 91.8495 137.893 91.9795 140.373C91.9795 140.633 92.0795 140.833 92.5095 141.033C95.1595 142.263 120.269 145.543 121.219 142.803C121.459 142.133 122.039 137.863 122.149 137.053L136.279 135.493L149.749 136.383C149.895 137.732 150.135 139.068 150.469 140.383C150.589 140.683 150.729 140.843 151.079 140.813C152.409 140.683 159.499 139.403 161.459 139.033C168.979 137.613 168.809 137.493 168.589 136.753C168.059 135.003 163.139 121.353 161.219 114.983C164.028 115.283 166.861 115.283 169.669 114.983C169.7 115.091 169.757 115.19 169.836 115.271C169.914 115.351 170.012 115.41 170.119 115.443C171.949 116.113 188.299 115.183 189.639 113.843C190.849 112.773 188.819 97.7931 187.909 96.2731ZM68.4395 4.0731C68.5495 3.9031 68.5095 3.8331 69.3895 3.9631C73.0595 4.4831 85.0595 8.3531 86.0995 9.2631C86.2995 11.5531 83.3295 24.1231 82.1595 25.6431C81.3095 25.9331 75.6695 24.4931 74.7995 24.2631C68.1795 22.5331 68.4395 22.2631 66.9295 21.9131C66.1495 21.6431 66.0695 21.6331 66.0895 21.5231C66.092 21.4984 66.1036 21.4754 66.1221 21.4588C66.1406 21.4421 66.1646 21.433 66.1895 21.4331C67.0895 21.4331 69.4995 21.3631 70.0895 20.6631C70.2197 20.5208 70.3169 20.3514 70.3741 20.1671C70.4313 19.9829 70.4471 19.7883 70.4203 19.5972C70.3936 19.4061 70.3249 19.2233 70.2193 19.0618C70.1137 18.9004 69.9738 18.7642 69.8095 18.6631C68.5243 18.1482 67.181 17.7922 65.8095 17.6031C65.3995 17.5231 64.8995 17.3831 64.3995 17.3231C65.0895 14.2031 67.3695 5.7331 68.4395 4.0731ZM59.8495 51.7131V50.1631C59.9395 48.2631 60.8495 43.2731 61.1195 41.9031C61.5595 39.6831 61.6595 39.1831 62.9395 34.3631C62.9395 34.2331 63.7095 32.0831 63.7095 32.0831C63.7233 32.0458 63.729 32.0059 63.7261 31.9662C63.7233 31.9265 63.7121 31.8879 63.6932 31.8529C63.6742 31.8179 63.6481 31.7873 63.6164 31.7632C63.5847 31.7391 63.5483 31.722 63.5095 31.7131C63.3995 31.7131 60.7995 31.0731 60.5095 30.2431C60.2195 29.4131 60.1595 28.4131 60.8895 27.9731C60.9163 27.9536 60.9382 27.9281 60.9532 27.8985C60.9683 27.869 60.9762 27.8363 60.9762 27.8031C60.9762 27.7699 60.9683 27.7372 60.9532 27.7077C60.9382 27.6781 60.9163 27.6526 60.8895 27.6331C60.5699 27.3707 60.3548 27.0026 60.2833 26.5953C60.2118 26.1881 60.2884 25.7687 60.4995 25.4131C60.7295 24.9431 59.4995 25.1731 60.9595 21.8031C61.3295 20.9731 62.5795 18.4231 63.4295 18.1431C64.1821 18.0697 64.9418 18.1548 65.6595 18.3931C66.9129 18.5905 68.1449 18.9052 69.3395 19.3331C69.4154 19.3739 69.481 19.4317 69.5309 19.502C69.5809 19.5724 69.6139 19.6532 69.6275 19.7384C69.641 19.8236 69.6347 19.9108 69.609 19.9931C69.5834 20.0754 69.539 20.1507 69.4795 20.2131C69.0402 20.4621 68.5588 20.6282 68.0595 20.7031C64.9095 21.3231 65.4695 20.6331 65.0595 21.7031C63.8561 21.6325 62.6532 21.8484 61.5495 22.3331C61.1195 22.4231 61.2995 22.7031 61.6095 22.6531C62.9493 22.214 64.3822 22.1415 65.7595 22.4431C66.5586 22.5891 67.3397 22.8205 68.0895 23.1331C68.7694 23.4093 69.373 23.8449 69.8495 24.4031C69.9345 24.6147 69.9663 24.8439 69.9419 25.0706C69.9174 25.2973 69.8376 25.5145 69.7095 25.7031C69.4695 26.0731 68.3095 25.8231 67.8695 25.7031C67.2695 25.5231 66.6395 25.3731 66.0495 25.1831C65.2195 24.9231 65.3095 24.8531 65.0495 24.8731C64.1323 25.003 63.2352 25.2483 62.3795 25.6031C62.3553 25.6059 62.332 25.6141 62.3115 25.6273C62.2909 25.6404 62.2737 25.658 62.261 25.6788C62.2483 25.6996 62.2406 25.7231 62.2383 25.7473C62.2361 25.7716 62.2394 25.796 62.248 25.8188C62.2567 25.8416 62.2704 25.8621 62.2882 25.8788C62.306 25.8954 62.3273 25.9078 62.3506 25.915C62.3739 25.9222 62.3985 25.9239 62.4226 25.9201C62.4466 25.9163 62.4695 25.9071 62.4895 25.8931C63.2553 25.6772 64.0381 25.5266 64.8295 25.4431C65.2795 25.4431 64.9895 25.4431 66.1195 25.8931C66.6295 26.0831 67.1195 26.2331 67.6595 26.4131C68.0068 26.5321 68.3653 26.6159 68.7295 26.6631C69.3695 27.2631 69.8295 28.6631 68.9695 28.9131C68.6316 28.9714 68.284 28.9297 67.9695 28.7931C65.6795 28.0431 67.2295 27.5031 62.2595 28.5231C62.2188 28.5281 62.1816 28.5486 62.1556 28.5802C62.1295 28.6118 62.1166 28.6522 62.1195 28.6931C62.1195 28.9531 62.2895 28.7931 65.0395 28.6931C65.372 28.6597 65.707 28.6597 66.0395 28.6931C66.8995 29.1331 68.1795 29.8831 69.1695 29.5931C70.3795 29.2031 70.3395 27.8631 69.5595 26.8831C69.2795 26.5431 69.2495 26.6431 69.4895 26.6031C69.665 26.5841 69.8346 26.5289 69.9878 26.4412C70.1409 26.3534 70.2743 26.2349 70.3795 26.0931C70.6163 25.7664 70.7487 25.3757 70.7594 24.9724C70.7701 24.569 70.6586 24.1719 70.4395 23.8331L72.1195 24.3331C72.4521 25.882 72.4247 27.4865 72.0395 29.0231C71.9323 29.3982 71.7917 29.763 71.6195 30.1131C70.8895 31.6531 70.6195 31.7031 70.7095 31.9931C72.0991 36.5115 73.244 41.1015 74.1395 45.7431C70.3695 47.0631 63.4595 50.1031 59.8495 51.7131ZM138.979 121.203C143.259 121.383 152.459 121.713 156.679 121.583C156.389 122.843 156.209 123.643 156.159 123.823C154.149 123.823 141.159 121.573 138.979 121.203ZM158.299 120.693C155.619 121.323 120.829 119.963 117.849 118.693C118.159 116.453 121.079 103.863 121.669 101.293C124.294 102.097 127.025 102.501 129.769 102.493C130.769 103.013 132.419 103.913 133.409 104.383C133.299 105.233 133.029 107.243 133.629 107.843C134.229 108.443 148.039 113.513 160.149 114.933C159.661 116.892 159.043 118.816 158.299 120.693ZM121.349 96.6231C120.889 96.4833 120.463 96.2482 120.099 95.9331C119.839 95.6531 119.929 94.8031 120.099 94.4031C120.192 94.2087 120.357 94.0581 120.559 93.9831C120.804 93.877 121.064 93.8127 121.329 93.7931C121.409 93.7913 121.486 93.7652 121.55 93.7184C121.614 93.6716 121.663 93.6064 121.689 93.5313C121.715 93.4563 121.717 93.3751 121.696 93.2986C121.675 93.222 121.631 93.1538 121.569 93.1031C120.984 92.6103 120.577 91.9394 120.409 91.1931C120.409 90.6431 120.619 90.0731 121.499 89.5731C122.499 89.6531 125.499 92.1331 126.889 90.7031C128.279 89.2731 126.639 85.9231 128.189 85.6431C129.739 85.3631 130.519 90.0231 130.789 90.5331C131.689 92.2831 134.109 93.5331 135.489 94.9731C134.656 97.9539 133.988 100.979 133.489 104.033C131.489 102.963 130.009 102.033 129.859 102.033C127.769 101.963 122.159 101.383 120.699 99.8931C120.44 99.6925 120.262 99.4043 120.2 99.0822C120.137 98.7601 120.194 98.4263 120.359 98.1431C120.466 97.9552 120.609 97.7908 120.781 97.6602C120.953 97.5295 121.15 97.4352 121.359 97.3831C121.445 97.3622 121.521 97.3128 121.575 97.243C121.629 97.1733 121.658 97.0873 121.657 96.9991C121.656 96.9109 121.625 96.8257 121.569 96.7574C121.513 96.6891 121.436 96.6418 121.349 96.6231ZM132.489 63.3231C130.632 63.1454 128.765 63.0719 126.899 63.1031C126.659 63.1031 126.459 63.2231 126.389 63.4531C126.219 64.0931 123.389 84.8931 123.249 85.9131C122.649 75.9131 122.029 65.3831 121.569 57.6631C125.049 63.2131 125.349 63.7631 125.899 63.3731C127.754 61.8482 129.507 60.2047 131.149 58.4531C131.449 59.5631 131.929 61.3731 132.489 63.3231ZM141.639 59.8131C140.959 58.8131 140.289 57.8131 140.039 57.4431L143.269 49.3131L141.639 59.8131ZM143.969 48.3331C147.752 49.113 151.44 50.2965 154.969 51.8631C154.819 52.3331 152.889 58.2331 150.579 65.2731C149.519 65.1431 143.449 64.4031 141.579 64.2031L143.969 48.3331ZM139.879 58.5531L141.459 60.9331L140.959 64.1331L139.409 63.9331C139.639 61.7631 139.799 59.7031 139.879 58.5531ZM167.489 69.1031C167.477 70.4051 167.35 71.7034 167.109 72.9831C163.679 72.1031 133.759 64.7431 130.719 66.4731C129.199 67.3531 124.199 87.8731 123.719 89.7231L123.359 89.5431C124.939 78.4331 127.039 63.8631 127.039 63.8231C130.449 63.4331 163.299 67.1531 167.489 69.1031ZM150.039 90.0131C147.799 89.8631 138.909 89.4231 137.039 90.6631C136.749 90.8631 136.629 90.9031 135.599 94.6031C134.269 93.1931 132.039 91.8631 131.289 90.2931C130.949 89.6031 130.399 84.5631 128.069 84.9531C124.929 85.4831 128.939 91.9531 124.299 89.9531C124.599 88.6831 129.519 67.5031 130.889 66.7231C133.789 65.0731 165.419 73.1231 169.419 74.2531C169.189 76.6931 166.249 89.7131 165.709 92.0931C160.531 91.098 155.299 90.4035 150.039 90.0131ZM134.639 20.0631C135.199 20.4431 135.179 21.3531 135.079 22.0131C134.379 26.4831 129.899 29.1931 126.789 24.9131C126.079 23.9131 125.529 20.7331 126.009 20.0331C126.329 19.6231 128.909 19.6031 129.429 19.6031C130.389 19.6131 134.139 19.7631 134.599 20.0631H134.639ZM122.729 20.7831C122.729 22.6631 122.099 25.7831 120.429 26.6831C117.739 28.0831 115.009 25.8631 114.939 22.9731C114.837 21.918 114.887 20.8537 115.089 19.8131L115.189 19.7631C115.029 19.4831 122.059 19.3931 122.689 20.0231C122.711 20.276 122.711 20.5302 122.689 20.7831H122.729ZM126.209 42.5531C127.939 43.0531 130.729 42.8131 132.069 41.4431C132.098 41.4134 132.113 41.374 132.113 41.3331C132.113 41.2922 132.098 41.2528 132.069 41.2231C131.839 40.9431 132.069 41.4831 129.469 41.8731C126.869 42.2631 125.299 41.8731 122.669 40.1631C121.461 39.0525 120.555 37.6516 120.039 36.0931C118.963 33.4555 118.289 30.6711 118.039 27.8331C118.981 27.9872 119.946 27.8292 120.789 27.3831C121.608 26.9046 122.242 26.165 122.589 25.2831C122.252 26.3399 121.975 27.4149 121.759 28.5031C121.713 28.6424 121.706 28.792 121.739 28.9351C121.773 29.0782 121.846 29.2091 121.949 29.3131C122.641 29.7357 123.455 29.9119 124.259 29.8131C124.283 29.8192 124.308 29.8197 124.332 29.8148C124.356 29.8098 124.378 29.7994 124.397 29.7845C124.417 29.7695 124.432 29.7504 124.443 29.7285C124.454 29.7066 124.459 29.6825 124.459 29.6581C124.459 29.6337 124.454 29.6096 124.443 29.5877C124.432 29.5658 124.417 29.5467 124.397 29.5317C124.378 29.5168 124.356 29.5064 124.332 29.5014C124.308 29.4965 124.283 29.4971 124.259 29.5031C123.666 29.4371 123.094 29.2462 122.579 28.9431C122.349 28.7831 122.449 28.8831 122.519 28.5531C122.589 28.2231 123.889 23.4531 123.959 23.1531C124.269 23.1531 125.449 22.9931 125.449 22.7031C125.449 22.4131 124.509 22.3331 124.159 22.3531C124.159 22.2231 124.219 22.1131 124.249 22.0131C124.265 21.9733 124.265 21.9288 124.248 21.8895C124.231 21.8501 124.199 21.819 124.159 21.8031C124.12 21.7872 124.075 21.7877 124.036 21.8046C123.996 21.8215 123.965 21.8533 123.949 21.8931C123.599 22.5731 123.839 22.3231 123.369 22.4431C123.55 21.5185 123.55 20.5677 123.369 19.6431C122.799 18.7631 119.369 18.9631 118.249 19.0331C118.819 15.6831 121.039 14.0331 122.399 11.3531C122.781 10.731 123.288 10.1961 123.889 9.7831C124.189 9.7031 124.779 10.4531 125.139 10.6331C125.499 10.8131 125.839 11.8031 126.139 12.1431C127.083 13.2171 128.17 14.156 129.369 14.9331C130.369 15.6431 131.929 15.7531 132.609 16.6631C132.897 17.4369 133.036 18.2579 133.019 19.0831C131.729 19.0031 126.349 18.9231 125.709 19.8431C125.129 20.5831 125.379 23.9631 126.229 25.2631C128.369 28.5031 131.659 28.7031 134.229 25.7831C134.506 25.4384 134.741 25.0625 134.929 24.6631C136.849 27.6631 138.359 29.4531 138.429 32.9731C138.509 37.4331 137.249 44.8231 142.079 45.7531L142.909 48.0431C138.909 58.1031 139.119 57.4731 139.119 57.5731C139.119 57.6731 138.929 60.5731 138.579 63.8931C136.659 63.6931 134.869 63.5231 133.279 63.3931C133.159 62.9831 131.669 57.6831 131.699 57.5731C131.849 57.0731 131.099 56.0931 130.519 55.2231C128.344 52.0741 125.97 49.0679 123.409 46.2231L126.209 42.5531ZM122.689 46.4931C122.859 46.7531 130.059 54.6731 130.939 57.5831C129.322 59.3764 127.574 61.0476 125.709 62.5831C125.039 61.7031 123.229 58.8031 121.509 56.0931C121.199 50.8631 120.989 47.2231 120.939 46.4631C121.499 46.4231 122.129 46.4531 122.649 46.4931H122.689ZM86.9795 56.4931C85.8395 54.4931 84.2595 41.4931 84.6295 39.4931C84.6295 39.3131 84.6295 39.2531 85.4695 39.0231C89.0495 38.0931 101.609 37.0231 102.929 37.4731C103.929 39.4231 106.119 52.1531 105.599 54.1131C104.579 54.9331 89.9195 57.0031 86.9395 56.4931H86.9795ZM87.6795 89.3931C86.5295 87.1331 85.6795 72.6431 86.2495 72.0931C87.0995 71.2731 103.059 70.5731 104.569 71.1631C105.569 73.2631 106.989 86.1631 106.399 87.9131C105.039 88.9331 90.0395 89.9331 87.6395 89.3931H87.6795ZM110.509 72.6331C111.229 72.4431 116.249 71.1631 116.849 70.8031C117.279 70.5531 117.769 71.3631 109.359 48.2831C110.359 47.3631 119.099 46.1831 120.479 46.6131C120.479 47.1631 121.789 70.5031 122.819 89.2331C122.329 88.9931 121.619 88.6231 121.169 88.8731C119.289 89.8731 119.169 91.5331 120.559 93.1531C120.3 93.2168 120.059 93.3404 119.856 93.514C119.652 93.6877 119.493 93.9066 119.389 94.1531C119.229 94.5285 119.161 94.9367 119.191 95.3437C119.22 95.7508 119.347 96.1449 119.559 96.4931C119.793 96.7163 120.059 96.9019 120.349 97.0431C120.051 97.2433 119.815 97.5242 119.669 97.8531C119.538 98.1365 119.46 98.4416 119.439 98.7531L110.509 72.6331ZM135.399 134.863L122.339 136.313C122.399 135.833 123.869 124.243 124.339 120.313C127.059 120.553 130.339 120.763 133.849 120.953C134.429 128.163 135.449 133.143 135.359 134.863H135.399ZM136.089 134.783C136.229 132.503 134.349 121.073 134.339 120.973L135.339 121.023C138.739 121.653 147.499 123.203 148.449 123.363C148.769 126.583 149.569 134.083 149.759 135.623C134.849 134.663 136.459 134.743 136.039 134.783H136.089ZM189.149 113.383C188.149 114.183 173.459 115.523 170.429 114.863C169.259 112.593 168.429 98.1131 168.999 97.5631C169.859 96.7331 185.819 96.0531 187.309 96.6331C188.249 98.7231 189.699 111.673 189.109 113.383H189.149Z" fill="#00164F"/>
<path fill-rule="evenodd" clip-rule="evenodd" d="M87.6996 106.033C87.6196 105.673 87.5096 105.153 87.2196 105.033C86.2196 104.433 79.6295 104.313 78.4595 104.293C78.1995 99.5227 77.7395 94.0127 76.9895 92.5327C76.4995 91.5327 44.1796 91.4327 43.0695 91.4227C43.1496 86.0427 43.1595 77.8427 43.0695 72.4227C44.4795 72.4227 51.5196 72.4227 52.4896 71.6227C53.7296 70.6227 52.8996 57.2727 52.3396 54.6227C52.2595 54.2627 52.1395 53.7427 51.8596 53.6227C50.3996 52.7527 34.0196 52.5427 32.8596 53.4727C32.2495 53.9827 32.0196 60.2327 31.9896 61.0227C29.6996 61.0227 15.5395 60.7327 10.4795 60.8527V52.6827C11.7895 52.6827 19.4796 52.8927 20.4796 52.0527C21.6896 51.0527 21.2896 34.7127 20.1396 34.0527C18.9896 33.3927 11.8095 33.1827 10.5695 33.1527C10.5695 31.7327 10.4595 28.1527 10.4495 28.0627C15.0795 27.8927 27.2796 28.2827 32.3096 28.2827C32.3096 29.8527 32.2196 35.4427 32.8796 36.8727C33.0396 37.2127 33.6495 37.3127 34.0495 37.3827C37.2295 37.9427 51.4095 38.2727 52.7995 37.0927C54.1895 35.9127 53.2196 20.9627 52.4095 19.3527C52.3559 19.2369 52.2732 19.137 52.1696 19.0627C50.6596 18.1727 34.2996 18.0627 33.1696 18.9127C32.5196 19.4627 32.2996 26.6227 32.2796 27.4827C27.1696 27.4827 15.1496 27.0927 10.3896 27.2627C10.3896 25.3327 10.2895 23.3827 10.2895 21.4627C11.7095 21.4627 20.2896 21.3327 21.3596 20.3927C22.4296 19.4527 21.3596 4.30267 20.4995 2.66267C20.4461 2.54644 20.359 2.44892 20.2495 2.38267C18.7295 1.53267 2.36955 1.79267 1.24955 2.73267C0.39955 3.47267 0.24955 18.4227 1.38955 20.7327C1.46809 20.8617 1.5879 20.9603 1.72955 21.0127C2.86955 21.4927 8.18955 21.5027 9.43955 21.5027C9.43955 25.9727 9.63955 29.6027 9.67955 33.1727C8.67955 33.1727 1.85955 33.0227 1.09955 33.6327C0.33955 34.2427 -0.58045 49.1827 0.47955 51.6327C0.62955 51.9627 1.23955 52.0827 1.63955 52.1527C4.28979 52.5354 6.96207 52.7458 9.63955 52.7827V67.5427C8.68955 67.5427 2.17955 67.4227 1.44955 68.0127C0.71955 68.6027 -0.24045 83.5627 0.81955 86.0127C0.96955 86.3527 1.57955 86.4627 1.97955 86.5427C5.21955 87.1627 19.3396 87.7027 20.7296 86.5427C22.1196 85.3827 21.3996 70.3927 20.6396 68.8027C20.5855 68.6844 20.503 68.5814 20.3996 68.5027C19.3096 67.8427 11.7295 67.6227 10.3995 67.5927V61.8127C15.5795 61.6827 29.1596 61.9727 31.8996 61.9827C31.8996 63.6727 31.7395 70.0427 32.4595 71.5927C32.5249 71.7269 32.6395 71.8308 32.7796 71.8827C34.0696 72.4727 40.7796 72.5927 42.1496 72.6027C42.2796 78.0427 42.2696 86.2627 42.1496 91.6027C28.7096 91.5327 14.7696 91.6727 11.9595 92.2427C11.6595 92.3027 11.1696 92.4027 11.1496 92.8227C11.1496 92.8227 10.6095 101.463 10.3595 104.433C9.46955 104.433 3.61955 104.433 2.93955 105.033C2.25955 105.633 1.50955 120.613 2.60955 123.033C2.75955 123.363 3.36955 123.473 3.76955 123.543C6.95955 124.103 21.1296 124.433 22.5196 123.253C23.9095 122.073 22.9296 107.093 22.1296 105.513C22.1697 105.417 22.1825 105.312 22.1666 105.21C22.1507 105.108 22.1067 105.012 22.0396 104.933C20.8896 104.243 12.6796 104.183 11.3196 104.173C11.5596 101.173 12.0796 92.8227 12.0796 92.8227C15.4996 91.8227 72.3895 91.9427 76.3696 92.9527C76.9796 94.4127 77.3696 99.4227 77.6896 104.213C76.6896 104.213 69.0896 104.153 68.2996 104.813C67.5096 105.473 66.9096 120.483 67.9696 122.813C68.0397 122.947 68.1574 123.05 68.2996 123.103C70.0695 123.903 86.4395 124.263 87.8795 123.033C88.1271 122.733 88.2709 122.361 88.2896 121.973C88.7596 118.933 88.3496 109.033 87.6996 106.033ZM33.3796 19.0327C34.2696 18.2927 50.2295 18.8227 51.7095 19.5427C52.0809 21.121 52.2953 22.7322 52.3496 24.3527C45.9396 23.7027 37.2795 24.2027 32.8596 24.3527C32.8796 23.7527 33.0396 19.2727 33.3796 19.0027V19.0327ZM32.8496 24.9027C40.1296 25.1327 48.7696 24.7527 52.3796 24.7927C52.4896 26.5627 52.8796 34.8527 52.2295 36.3827C51.4895 36.8927 45.6595 36.9827 44.7696 36.9927C42.6195 36.9927 35.5295 36.9927 33.4496 36.3927C32.7295 34.6427 32.7996 26.8727 32.8496 24.8727V24.9027ZM1.50955 2.81267C2.39955 2.03267 18.3895 2.18267 19.8496 2.81267C20.1777 3.92728 20.3855 5.07381 20.4696 6.23267C14.0098 6.0422 7.54519 6.37663 1.13955 7.23267C1.14955 6.87267 1.21955 3.07267 1.50955 2.81267ZM2.03955 20.1627C1.22955 18.3527 1.11955 9.93267 1.13955 7.57267C1.97955 7.47267 20.1395 6.57267 20.5096 6.57267C20.7295 8.57267 21.5096 17.9027 20.8096 19.6527C19.4696 20.6227 4.41955 20.8127 2.03955 20.1627ZM1.34955 33.6927C2.25955 32.9627 18.2096 33.7527 19.6796 34.4927C20.0066 35.9849 20.1875 37.5054 20.2196 39.0327C20.3196 39.0327 6.07955 38.4727 0.76955 38.6427C0.79955 38.0527 1.03955 33.9327 1.34955 33.6927ZM20.1996 85.6927C19.0996 86.4127 4.34955 86.3227 1.42955 85.3927C0.70955 83.6027 0.92955 75.3927 1.02955 73.3027C1.12955 73.3027 14.7996 74.3627 20.5196 73.6927C20.6196 75.5227 20.8896 84.1327 20.1996 85.6827V85.6927ZM19.9596 68.8327C20.2851 70.3287 20.4693 71.8521 20.5096 73.3827C20.6096 73.3827 6.39955 72.8227 1.04955 72.9827C1.09412 71.3751 1.26464 69.7736 1.55955 68.1927C1.62955 67.9927 1.55955 67.9527 2.45955 67.8527C6.03955 67.4527 18.6796 68.1827 19.9596 68.8227V68.8327ZM1.13955 51.0427C0.42955 49.2527 0.64955 41.1027 0.74955 38.9627C0.86955 38.9627 14.4996 40.0227 20.2396 39.3527C20.3396 41.1927 20.6196 49.7527 19.9195 51.3527C18.5695 52.2327 3.54955 51.8127 1.13955 51.0427ZM22.2596 110.693C22.3796 112.553 22.7596 120.823 22.1096 122.393C21.0496 123.133 6.23955 123.283 3.32955 122.393C2.60955 120.653 2.67955 112.823 2.72955 110.733C9.17955 110.983 15.0396 110.693 22.2596 110.693ZM21.5896 105.553C21.9595 107.128 22.1771 108.736 22.2396 110.353C15.8796 109.713 6.91955 110.223 2.73955 110.413C2.73955 109.783 2.92955 105.313 3.25955 105.043C4.15955 104.303 20.1096 104.833 21.5896 105.553ZM33.0396 53.6027C33.9595 52.8327 49.9196 53.4127 51.3696 54.1127C51.7499 55.7542 51.9709 57.4286 52.0296 59.1127C47.6896 58.8827 36.8896 58.1927 32.5296 58.7327C32.5796 58.1627 32.7495 53.8727 33.0396 53.6027ZM33.1395 70.9327C32.4095 69.1827 32.4895 61.1827 32.5495 59.0927C33.9595 58.9527 44.1596 59.5927 48.8996 59.5527C50.1096 59.5527 51.1996 59.5027 52.0796 59.4727C52.1896 61.2527 52.5596 69.3827 51.9196 70.9227C50.6096 71.8527 35.5695 71.7027 33.1395 70.9327ZM68.4696 105.043C69.3696 104.303 85.3195 104.833 86.8095 105.553C87.1761 107.132 87.3904 108.743 87.4496 110.363C81.1496 109.723 72.0295 110.233 67.9595 110.363C67.9696 109.833 68.1395 105.343 68.4696 105.073V105.043ZM87.3296 122.393C86.2396 123.133 71.4296 123.283 68.5496 122.393C67.8195 120.663 67.8896 112.803 67.9496 110.723C74.6796 110.983 79.7296 110.723 87.4696 110.723C87.5896 112.563 87.9696 120.863 87.3296 122.423V122.393Z" fill="#00164F"/>
</svg>
