<svg width="127" height="29" viewBox="0 0 127 29" fill="none" xmlns="http://www.w3.org/2000/svg">
<path d="M21.9509 28.0751L13.7016 27.9225C11.0306 27.8694 8.35303 27.9756 5.73452 27.4251C1.75098 26.6026 1.46878 22.5699 1.17346 19.1872C0.766577 14.4315 0.924081 9.58958 1.69191 4.8737C2.12505 2.22723 3.83135 0.648633 6.46954 0.476181C15.3751 -0.147297 24.3397 -0.0743372 33.2256 0.217504C34.164 0.244035 35.1091 0.389955 36.0344 0.555774C40.602 1.36497 40.7136 5.93494 41.0089 9.78193C41.3042 13.6687 41.1795 17.5754 40.6151 21.4357C40.1623 24.6327 39.296 27.3123 35.6406 27.571C31.0599 27.9092 26.5841 28.1812 21.9903 28.095C21.9903 28.0751 21.964 28.0751 21.9509 28.0751ZM17.1011 19.9831C20.553 17.98 23.9394 16.0101 27.3717 14.0203C23.9131 12.0172 20.5334 10.0472 17.1011 8.05742V19.9831Z" fill="#0F0F0F" fill-opacity="0.8"/>
<path d="M107.176 24.4405C107.019 25.0906 106.881 25.6013 106.743 26.1452H103.514V0.973633H107.281V10.2596C107.478 10.0075 107.577 9.90141 107.662 9.78865C108.305 8.89322 109.139 8.30953 110.215 8.08401C111.928 7.74574 113.391 8.50851 113.91 10.1734C114.244 11.2081 114.461 12.3158 114.487 13.3969C114.54 16.1761 114.5 18.9486 114.402 21.7277C114.362 22.5767 114.106 23.4456 113.785 24.2416C112.728 26.8682 109.276 27.2661 107.564 24.9911C107.459 24.8518 107.36 24.6992 107.176 24.4405ZM107.36 17.5159V22.1191C107.36 22.8686 107.754 23.3262 108.495 23.4987C109.224 23.6711 109.815 23.3859 110.11 22.7027C110.235 22.4175 110.359 22.1191 110.366 21.8206C110.438 19.0083 110.504 16.196 110.523 13.377C110.523 12.853 110.399 12.3091 110.241 11.7984C109.946 10.8764 109.132 10.6045 108.331 11.1417C107.728 11.553 107.36 12.1367 107.36 12.9127V17.5159ZM97.1223 8.44219H101.066V26.1584H97.9886C97.877 25.4885 97.7655 24.7987 97.6342 23.9895C97.4242 24.3013 97.2995 24.5002 97.1683 24.6992C96.1445 26.1916 94.6941 26.7023 92.9813 26.4304C91.5178 26.1916 90.6384 25.0508 90.4415 23.1803C90.3825 22.6232 90.3562 22.0594 90.3562 21.5022C90.3431 17.3567 90.3562 13.1979 90.3562 9.05241V8.42892H94.3463V9.1519C94.3463 13.1581 94.3332 17.1577 94.3594 21.1639C94.3594 21.7344 94.4185 22.3247 94.5169 22.8951C94.6285 23.4788 95.0485 23.691 95.6129 23.6512C96.5251 23.5783 97.1551 22.8951 97.1551 21.9798V9.22486C97.1223 8.96618 97.1223 8.7274 97.1223 8.44219ZM69.966 8.42892H73.9299V9.17843C73.9299 13.1648 73.9167 17.1444 73.943 21.1175C73.943 21.6879 73.9955 22.2782 74.1136 22.8354C74.2646 23.4921 74.6452 23.7043 75.2949 23.6181C76.194 23.4921 76.7387 22.8619 76.7452 21.94V9.25139V8.45545H80.6894V26.1584H77.6246C77.5131 25.5018 77.4015 24.8252 77.2571 23.9696C77.0602 24.2681 76.9487 24.4405 76.8371 24.6196C75.8133 26.1385 74.3761 26.6957 72.6239 26.4238C71.2195 26.2115 70.3598 25.1635 70.0973 23.4456C70.0251 22.9084 69.9726 22.3777 69.9726 21.8405C69.9594 17.5358 69.9594 13.2112 69.9594 8.90648L69.966 8.42892ZM67.9316 17.8873C67.9185 18.4843 67.8791 19.0812 67.8463 19.6782C67.6953 21.469 67.6231 24.0094 66.1925 25.3161C65.2803 26.1385 64.1252 26.437 62.9308 26.4768C62.3992 26.4901 61.8611 26.4901 61.3295 26.4171C58.816 26.0324 57.6479 24.9115 57.2279 22.1191C56.7488 18.8955 56.7094 15.6189 57.2804 12.3953C57.871 9.05904 59.9054 7.8784 63.0686 8.09728C66.0218 8.30953 67.3409 10.2662 67.6888 13.052C67.8791 14.6505 67.971 16.2689 67.9316 17.8873ZM63.9152 17.2771C63.9152 16.1429 63.9415 15.002 63.9021 13.8678C63.8759 13.2112 63.7905 12.5479 63.6527 11.8979C63.4952 11.1484 63.0227 10.7902 62.4321 10.8035C61.8545 10.8167 61.4477 11.1749 61.2377 11.8714C61.1655 12.13 61.0867 12.3953 61.0867 12.654C61.0867 14.4316 61.0736 16.2158 61.0605 17.9934C61.0473 19.6516 60.8373 21.3894 61.3558 22.9747C61.5133 23.4589 61.9202 23.7242 62.4518 23.7242C62.9702 23.7242 63.3115 23.4655 63.5018 23.0012C63.6527 22.643 63.784 22.2517 63.784 21.867C63.8299 20.3415 63.9152 18.8093 63.9152 17.2771ZM51.4396 13.9408C51.7874 12.2229 52.1156 10.5448 52.4765 8.86005C52.9293 6.71765 53.4346 4.57525 53.8809 2.42622C53.9925 1.90223 54.2025 1.7762 54.6947 1.78947C55.7513 1.82927 56.8275 1.80274 57.9563 1.80274C57.5888 3.1691 57.2279 4.46913 56.8735 5.74926C55.7513 9.76875 54.6291 13.8015 53.52 17.8343C53.4346 18.146 53.3953 18.4843 53.3953 18.8159C53.3821 21.018 53.3953 23.2135 53.3953 25.4156V26.1319H49.543C49.5299 25.9329 49.5036 25.7339 49.5036 25.535C49.5036 24.288 49.4052 23.0344 49.5167 21.8007C49.7989 18.8358 48.867 16.1097 48.1123 13.3505C47.1148 9.70242 46.1042 6.04111 45.1066 2.39306C45.0541 2.2206 45.0344 2.03488 44.9819 1.82263H48.913C49.7399 5.84875 50.5733 9.87488 51.4396 13.9408ZM126.812 18.5639H120.17C120.243 19.9103 120.269 21.1905 120.407 22.4573C120.505 23.3395 120.984 23.7176 121.739 23.7242C122.526 23.7375 122.986 23.3395 123.17 22.464C123.229 22.1788 123.268 21.8935 123.294 21.6017C123.32 21.343 123.334 21.0644 123.353 20.693C124.476 20.7527 125.571 20.819 126.654 20.8655C127.284 22.7558 126.149 25.1834 124.239 25.9329C122.736 26.5299 121.194 26.5299 119.659 26.0722C118.523 25.7339 117.677 25.0043 117.296 23.8834C116.942 22.8354 116.607 21.741 116.535 20.6466C116.338 17.947 116.266 15.2209 116.673 12.5147C116.745 12.0637 116.869 11.6326 117.007 11.1948C117.558 9.39068 118.759 8.283 120.617 8.09728C121.627 7.99779 122.671 8.03758 123.668 8.21004C125.283 8.49525 126.142 9.66926 126.516 11.2081C126.687 11.931 126.812 12.6739 126.838 13.4102C126.845 15.1015 126.812 16.7796 126.812 18.5639ZM123.038 16.2357C123.038 14.9026 123.051 13.6489 123.025 12.3887C123.025 12.0902 122.914 11.7785 122.802 11.4933C122.579 10.9361 122.113 10.7836 121.555 10.7836C120.997 10.7836 120.643 11.0688 120.505 11.5795C120.085 13.1117 120.223 14.677 120.236 16.249C121.24 16.2357 122.152 16.2357 123.038 16.2357Z" fill="#0F0F0F" fill-opacity="0.8"/>
<path d="M83.7339 5.05347H79.8291V1.85645H91.4843V5.03357H87.6058V26.1326H83.7404L83.7339 5.05347Z" fill="#0F0F0F" fill-opacity="0.8"/>
</svg>
